<?xml version="1.0" encoding="utf-8"?>
<!-- Generator: Adobe Illustrator 18.1.1, SVG Export Plug-In . SVG Version: 6.00 Build 0)  -->
<svg version="1.1" id="_x2018_лой_x5F_1" xmlns="http://www.w3.org/2000/svg" xmlns:xlink="http://www.w3.org/1999/xlink"
	 x="0px" y="0px" viewBox="0 0 323.6 171" enable-background="new 0 0 323.6 171" xml:space="preserve">
<rect x="-2354.9" y="-794.5" display="none" fill="#F8FCFF" width="3200" height="2000"/>
<g>
	<g>
		<path fill="#233862" d="M231.8,169.9c0,0,0.1-1.9,0.6-3c0.5-1,4.7-0.3,4.7-0.3s1,1.7,0.8,3.3L231.8,169.9z"/>
		<path fill="#233862" d="M220.6,169.9c0,0,0.1-1.9,0.6-3c0.5-1,4.7-0.3,4.7-0.3s1,1.7,0.8,3.3L220.6,169.9z"/>
		<path fill="#FCD0B1" d="M234.5,87.3c-0.5,0.4-5.2,2.8-5.2,2.8l-5-3.5c0,0,1.5-0.2,1.6-0.2c0.4-0.1,0.4-1.3,0.5-2.6
			c0-0.2,0-0.4,0-0.6l4.9-0.2l0,0.1c0,0.1,0,0.1,0,0.2l0,0.1c0,0,0,0.1,0,0.1c0.1,1.1,0.3,2.7,0.6,2.9
			C232.1,86.5,233.5,86.5,234.5,87.3z"/>
		<path fill="#EAA16E" d="M231.3,83.5c-0.4,0.8-1.3,2.2-2.6,2.2c-1.3,0-2-1.2-2.3-1.9c0-0.2,0-0.4,0-0.6l4.9-0.2l0,0.1l0,0.2l0,0.1
			C231.3,83.4,231.3,83.4,231.3,83.5z"/>
		<path fill="#2B478B" d="M225.8,72.2c0,0,2.4-2.3,5.1,0C230.9,72.3,229.3,71.9,225.8,72.2z"/>
		<path fill="#233862" d="M224.9,80.8c0,0-0.7-1.5-1.2-3.3c-0.3-1.3,0-6.1,4.9-5.8c0,0,1.4,0,2.8,0.8c1.1,0.6,2.7,2,1.4,6.4
			l-0.3,1.5L224.9,80.8z"/>
		<path fill="#FCD0B1" d="M231.8,82.9c-1.3,1.2-2.8,2.8-6.2-0.2c-0.7-0.6-0.6-1.5-0.7-2.8c0-1.5-0.4-2.5-0.2-3.3
			c0.2-1,1.1-1.5,3-1.7c3.4-0.3,5.1,0.5,4.9,2.2C232,80.9,233.1,81.7,231.8,82.9z"/>
		<path fill="#B64C41" d="M229,74.9c0,0,2,0,2.5,0.6s0.5,1.4,0.8,1.8c0.2,0.4,0.2,0.8,0.2,0.8l0.4-3l-2.7-0.5L229,74.9z"/>
		<path fill="#E7F1FD" d="M240.8,91.6c0,0-0.9,2.6-4.4,3c-0.1,0-0.2,0-0.3,0h-14.3c0,0,0,0-0.1,0c-0.6-0.2-4-1.3-4.3-3.5
			c0,0,1.8-3.7,3.2-4.1c0.4-0.1,1-0.2,1.5-0.3c0.6-0.1,1.2-0.1,1.7-0.2c0.7,0,1.3-0.1,1.3-0.1s1.1,2.3,3.8,2.2
			c2.7,0,3.3-2.2,3.3-2.2s0.8,0,1.8,0.1c0.6,0.1,1.2,0.1,1.8,0.3c1.1,0.2,2.1,0.5,2.7,1C240.1,89.1,240.8,91.6,240.8,91.6z"/>
		<path fill="#AB678A" d="M237.4,111.3c-0.2-0.8-0.4-2.1-0.6-3.3c0,0,0.5-6.4,0.7-7.5c0.2-1.1-1.1-6.9-1.1-6.9
			c-0.3-0.9-0.8-1.2-1.2-1.2l0.7-5.6c-0.6-0.1-1.3-0.2-1.8-0.3l-0.3,5.9l0,0.1c-0.7,0-1.7,0.1-2.5,0.1c-0.9,0-1.7,0.1-2.1,0.1
			c-1,0-3.3-0.1-4.8-0.2l0-0.1l-0.4-6c-0.5,0-1.2,0.1-1.7,0.2l0.6,5.9v0c-0.4,0-0.9,0.8-1,1.2l-0.1,1.8c-0.3,0.9-1,3-1.1,4.4
			c-0.1,1.9,0.6,8.5,0.7,8.6c0,0.8-0.1,1.8-0.2,2.8c-0.6,1.6-3.1,9.1-2.9,19.3c0.2,9.4,0.4,25.6,1.5,33.4c0.2,1.3,0.4,2.3,0.6,3.1
			c0.1,0.4,0.5,0.7,0.9,0.7c1.3,0.2,4.2,0.5,5.4,0.1c0.6-0.2,1-3.5,1.3-7.8c0.3-4.1,0.5-9,0.6-13c0,0,0,0,0,0
			c0.1-3.1,0.1-5.7,0.1-6.6c0-2.1,0.5-8.3,0.7-11.9c0-0.1,0.2-0.1,0.2,0c0,0,0,0,0,0c0.2,4.3,1.1,10.8,1.1,12.3
			c0,3.5-0.2,26.2,1.4,26.9c1.2,0.6,4,0.1,5.3,0c0.5-0.1,0.9-0.4,1-0.9c1.7-5.7,1.8-25.5,2.1-36.4
			C240.5,120.5,238,113.1,237.4,111.3z"/>
		<path fill="#FCD0B1" d="M224.4,115.4c-0.5,0.4-2.1,0.2-2.7-0.3c-0.6-0.5-1.9-0.4-2.2-0.6c0,0-5.8-6.9-6.4-9.7
			c-0.6-2.9,3.4-10.9,4.5-13.1c0.8,1.8,3.6,2.7,4.1,2.9c0,0,0.1,0,0.1,0h0.2c-0.9,2.5-3.8,7.1-4.8,8.8c-0.3,0.4-0.3,1-0.1,1.4
			c1.4,3,2.8,5.5,3.3,7.2c0.1,0.2,0.4,0.5,0.7,0.5c0.4-0.1,1.8-0.4,2.5,0.7C224.3,114.3,224.9,115,224.4,115.4z"/>
		<g>
			<path fill="#BC719A" d="M233.2,72.3c0,0-0.4-0.5-1-1.1c-0.1-0.1-0.2-0.2-0.3-0.3c-1.2-0.9-3.2-1.9-5.6-0.9
				c-0.6,0.3-1.2,0.6-1.6,1.1c-0.1,0.1-0.2,0.2-0.3,0.3c-2.1,2.3-1.9,5.9-1.9,5.9l12-0.1C234.4,73.9,233.2,72.3,233.2,72.3z"/>
			<path fill="#8E5C7A" d="M231,77.3c0-0.5-0.3-4.6,1.2-6c-0.1-0.1-0.1-0.1-0.2-0.2c-1.5,1.6-1.6,5.7-1.6,6.2l-3.8,0
				c-0.1-2.9-1.7-5.8-1.9-6.2c-0.1,0.1-0.1,0.1-0.2,0.2c0.3,0.5,1.3,3.3,1.4,6l-3.4,0c0,0,3.2,0.8,5.6,0.8c2.4,0,6.4-0.9,6.4-0.9
				L231,77.3z"/>
		</g>
		<path fill="#233862" d="M224.9,93.1c-1.2,2.3-4.7,2.8-4.7,2.8c1.1-2.7-1.1-3.6-2.5-6.4c-1.4-2.8,1.1-4.7,1.1-4.7
			c-1.5,0.3-1.8,2.3-1.8,2.3c-0.1-1.4,1-3.7,4.6-4.1c2.7-0.3,3.3-1.2,3.4-1.7c0.1,0.6,0.2,1.1,0.6,1.4c0.3,0.2,0.5,0.5,0.8,0.6
			c0,0.1,0,0.2,0,0.3c0,0.4,0,0.7,0,1c-0.5,0.6-0.5,1.2-0.4,1.5c0,0.2,0.1,0.4,0.1,0.4c0.4,0.5,0.6,1,0.6,1.6
			C226.9,89.8,225.8,91.3,224.9,93.1z"/>
		<path fill="#233862" d="M237.4,111.2l-0.5-3.1c-2.6,1-5,1.4-7.2,1.5c-0.3-0.5-0.7-0.8-1.3-0.9l-1.9-0.3c-0.7-0.1-1.5,0.3-1.8,0.9
			c-1.8-0.3-3.1-0.7-3.4-0.8l0,0l-0.2,2.7v0c1.1,0.3,2.1,0.5,3.2,0.7l-0.1,0.4c-0.1,0.9,0.5,1.8,1.5,2l2.1,0.3c1,0.2,1.9-0.6,2-1.6
			l0-0.6C233.8,112.3,236.5,111.5,237.4,111.2z"/>
		<path fill="#FCD0B1" d="M245.1,104.8c-0.6,2.9-6.4,9.7-6.4,9.7c0,0-0.1,0.1-0.2,0.1c0,0,0,0,0,0c-0.5,0.1-1.4,0-1.9,0.5
			c-0.6,0.5-2.2,0.7-2.7,0.3c-0.5-0.4,0.2-1.1,0.8-2.1c0.7-1,2.1-0.7,2.5-0.7c0.3,0,0.5-0.2,0.6-0.4c0,0,0,0,0,0c0,0,0-0.1,0.1-0.1
			c0.6-1.7,1.9-4.1,3.3-7c0.3-0.6,0.2-1.3-0.1-1.8c-0.9-1.4-2.7-4.5-3.9-6.9c-0.1-0.7-0.3-1.4-0.4-1.9c2.6-0.4,3.7-2,4-2.7
			C241.9,94.3,245.7,102,245.1,104.8z"/>
	</g>
	<g>
		<g>
			<g display="none">
				<path display="inline" fill="#D9935C" d="M175.4,103.6c1.6-8,3-15.6,3-15.6s-4.4,0.7-6.3,2.3c-1.9,1.6-2.1,11.7-2.7,14.5
					c-0.1,0.6-0.2,1.5-0.3,2.6c-0.4,4.1,0.1,10.2,0.4,12c0,0.2-0.2,1-0.9,2.5c0,0-0.4,1.2,2.1,3C172.3,126,173.8,112.2,175.4,103.6z
					"/>
				<path display="inline" fill="#FFA412" d="M178.4,88c0,0-0.8,4.4-1.9,10c-0.3,1.8-0.7,3.7-1.1,5.6c-1.5,3-2.8,5-3.2,4.6
					c-0.8-0.8-2.3-0.9-3.2-0.8c0.1-1.1,0.2-2,0.3-2.6c0-0.2,0.1-0.5,0.1-0.8c0.5-3.6,0.8-12.3,2.6-13.7C174,88.7,178.4,88,178.4,88z
					"/>
				<path display="inline" fill="#E27F2B" d="M176.5,98c-0.3,1.8-0.7,3.7-1.1,5.6c-1.5,3-2.8,5-3.2,4.6c-0.8-0.8-2.3-0.9-3.2-0.8
					c0.1-1.1,0.2-2,0.3-2.6c0-0.2,0.1-0.5,0.1-0.8l4.6-11L176.5,98z"/>
				<path display="inline" fill="#D9935C" d="M184.7,87.9c0-1.5,0-3.4-0.2-4.9l-6.1,1c0,0,0,1.9,0,3.9c0,0,0,0,0,0s-0.2,1.9,2.2,2.2
					C183,90.4,184.8,89.4,184.7,87.9z"/>
				<path display="inline" fill="#CB7D45" d="M178.4,84.4c0,0,1.4,3,3.1,3s3.2-2.8,3.2-2.8L178.4,84.4z"/>
				<path display="inline" fill="#233862" d="M182.5,169.2c0,0,0.2-1.8,0.7-2.8c0.5-1,3.8-0.4,3.8-0.4s0.7,0.6,0.8,3.2H182.5z"/>
				<path display="inline" fill="#233862" d="M171.3,169.1c0.8-0.5,0.3-4,0.3-4s-3.6-2.9-4.1-0.7c-0.5,2.2-3.4,3.2-5.1,3.5
					c-1.1,0.2-1.5,0.8-1.6,1.2H171.3z"/>
				<path display="inline" fill="#233862" d="M185.3,81.2c0,0,4.1-6.4-3.8-6.9c0,0-2.9,0.3-3.6-0.3c0,0-2.3,3.5-0.2,7.2
					C179.9,84.9,185.3,81.2,185.3,81.2z"/>
				<path display="inline" fill="#D9935C" d="M178.6,84.6c0.6,0.5,2.3,0.9,2.8,1c0,0,2.6-0.6,3.1-0.9c0.7-0.4,0.7-1.3,0.7-2.6
					c0-1.5,0.2-2.6,0-3.5c-0.2-1-0.8-1.6-2.6-1.7c-3.3-0.3-4.7,0.5-4.7,1.6c0,0.3,0,0.6,0,0.9C177.7,82.9,178,84.1,178.6,84.6z"/>
				<path display="inline" fill="#2B478B" d="M178.7,143c-0.1,0.8-0.2,1.5-0.3,1.9c-0.3,6.5-5.5,21.4-6.4,21.8
					c-1.4,0.5-3.7-0.6-4.9-1c-0.5-0.2-0.8-0.6-0.7-1.1c2.6-11.7,3.5-28.6,3.8-38.7c0.2-5,1-8.5,1-8.5s12.6-3.4,12.7,0.9
					C184.1,122,179.8,136.8,178.7,143z"/>
				<path display="inline" fill="#233862" d="M178.7,143l-8.4-17c0.2-5,1-8.5,1-8.5s12.6-3.4,12.7,0.9
					C184.1,122,179.8,136.8,178.7,143z"/>
				<path display="inline" fill="#2B478B" d="M175.9,118.3l6.6,48.2c0,0,2.9,0.7,5.2,0.1c0,0,1.9-25.6,1.8-31.8
					c-0.2-6.2,1.4-16.6-0.4-17.7C187.4,115.9,175.9,118.3,175.9,118.3z"/>
				<path display="inline" fill="#739AF0" d="M190.1,117.1c0,0.6-0.4,1-1,1l-10.5,0.2l-7.7,0.1c-0.4,0,0.8-2.9,0.8-21.7
					c0-4.2,6.5-8.7,6.6-8.7l0,0c0,0.6,1,1.7,2.4,1.8c1.7,0.1,3.9-0.8,3.9-1.8c0,0,0.2,0.2,0.5,0.7c0.9,1.3,2.6,4.4,3.7,9.7
					c0.9,4.2,0.5,9.9,1.2,17.2C190.2,116.2,190.1,116.7,190.1,117.1z"/>
				<path display="inline" fill="#FFA412" d="M189.8,118.2c0,0-1.4,0.6-4,1.2c-1.9,0.4-4.5,0.8-7.7,0.8c-5.1,0-7-1.7-7-1.7
					c-0.4,0,0.8-2.9,0.8-21.7c0-4.2,6.5-8.7,6.6-8.7l0,0c0,0-0.2,5.6,1.5,7.2c0,0,2.4-1.8,5.4-7c0.9,1.3,2.5,4.9,3.6,10.3
					c0.2,1.1,0.4,2.3,0.5,3.6c0.3,3.7,0.2,8.2,0.7,13.7c0,0.5,0,1,0,1.4C190.2,117.6,190.3,118.2,189.8,118.2z"/>
				<path display="inline" fill="#E27F2B" d="M189.8,118.2c0,0-1.4,0.6-4,1.2c-0.8-1.2-1.9-3.5-2-7.1c-0.2-6,5.5-13.8,5.5-13.8
					l0.2,3.5c0.3,3.7,0.2,8.2,0.7,13.7c0,0.5,0,1,0,1.4C190.2,117.6,190.3,118.2,189.8,118.2z"/>
				
					<rect x="178.2" y="99.6" transform="matrix(0.866 -0.5 0.5 0.866 -29.022 106.2771)" display="inline" fill="#2B478B" width="11.2" height="15.4"/>
				<path display="inline" fill="#D9935C" d="M190.9,90c-1.2-0.9-4-1.5-5.4-1.8c-0.5-0.1-0.8-0.1-0.8-0.1c0.1,0.7,0.5,1.7,0.9,2.9
					c1.8,5.2,5.3,14.1,4.6,14.3c-0.6,0.2-1.3,0.3-2.1,0.4c-3.1,0.5-7.2,0.6-7.7,0.7c0,0-1.5-1.4-2.1-1.4c-0.6,0-2.3,0.6-2.4,1.1
					c-0.2,0.5-0.2,1.3,0.2,1.5c0.5,0.2,2.5,0.7,3,0.7c0.1,0,0.2,0,0.2,0c3.7,1.1,6.9,1.6,9.3,1.9c3.4,0.3,5.4,0.2,5.4,0.2
					C196.5,105,192.5,91.2,190.9,90z"/>
				<path display="inline" fill="#FFA412" d="M194,110.3c0,0-2,0.2-5.4-0.2c0.2-0.9,0.4-2.7-0.6-4.4c0.8-0.1,1.5-0.3,2.1-0.4
					c0.7-0.2-2.8-9.1-4.6-14.3c-0.1-1.7-0.2-2.8-0.2-2.8l0.1,0c1.4,0.3,4.2,0.9,5.4,1.8C192.5,91.2,196.5,105,194,110.3z"/>
				<path display="inline" fill="#E27F2B" d="M179.9,95.2c0,0,4.7-2.1,4.8-2.3c0.1-0.2-0.2-1.4-0.6-1.8c0,0,2.3,0.2,2.4-0.1
					c0.1-0.3,0.2-2.6,0.2-2.6s-0.9-1-2.1-1.1c0,0-1,2.6-1.4,3.3C182.3,92.8,179.9,95.2,179.9,95.2z"/>
				<path display="inline" fill="#E27F2B" d="M178.8,91.1c0,0,0.3,2.4,1.1,4.1c0,0-2.5-1.7-2.7-2.3c-0.2-0.6,0.6-1.7,0.6-1.7
					s-1.5,0-1.5-0.5c0-0.5,0.5-2.4,0.5-2.4s1.3-0.9,1.6-0.9L178.8,91.1z"/>
				<g display="inline">
					<path fill="#FFA412" d="M186.8,77.6l-10.5,0.1c0,0-0.2-3.2,1.7-5.2c0.1-0.1,0.2-0.2,0.3-0.3c0.4-0.4,0.9-0.7,1.4-0.9
						c2.1-0.9,3.8-0.1,4.9,0.8c0.1,0.1,0.2,0.2,0.3,0.2c0.6,0.5,0.9,1,0.9,1S186.9,74.7,186.8,77.6z"/>
					<path fill="#E27F2B" d="M183.9,77.6c0-0.4-0.2-4.1,1.1-5.3c-0.1-0.1-0.1-0.1-0.2-0.1c-1.4,1.4-1.5,5-1.5,5.5l-3.4,0
						c-0.1-2.6-1.5-5.1-1.7-5.4c-0.1,0.1-0.1,0.1-0.2,0.2c0.2,0.4,1.2,2.9,1.3,5.2l-3,0c0,0,2.8,0.7,4.9,0.7c2.1,0,5.6-0.8,5.6-0.8
						L183.9,77.6z"/>
				</g>
			</g>
			<g>
				<path fill="#BC719A" d="M198.1,107.4h1.7c0.8-0.4,5.1-2.2,9.3-2.3c3,0,6.4,2.2,6.6,2.2c0.5,0.1-1.7,0.1-1.7,0.1
					s-3.4-1.5-4.9-1.5c-1.4,0-4.7,1-5.9,1.5h9.7c0.8,0,1.5,0.7,1.5,1.5v11c0,0.8-0.7,1.5-1.5,1.5h-14.7c-0.8,0-1.5-0.7-1.5-1.5v-11
					C196.6,108.1,197.3,107.4,198.1,107.4z"/>
				<path fill="#8E5C7A" d="M202.9,107.4h14.7c0.8,0,1.5,0.7,1.5,1.5v11c0,0.8-0.7,1.5-1.5,1.5h-14.7c-0.8,0-1.5-0.7-1.5-1.5v-11
					C201.4,108.1,202.1,107.4,202.9,107.4z"/>
			</g>
			<g>
				<rect x="46.4" y="52.5" fill="#7A97F3" width="78.2" height="55.2"/>
				<rect x="49.1" y="55.4" fill="#FFFFFF" width="72.8" height="49.4"/>
				<path fill="#7A97F3" d="M106.8,166.9h-1.7l-10.7-3.7c-4.6-1.6-7.6-5.9-7.6-10.7v-45.6c0-0.6-0.5-1.2-1.1-1.2
					c-0.7,0-1.3,0.5-1.3,1.2v45.6c0,4.8-3.1,9.1-7.6,10.7L66,166.9h-2c-0.6,0-1.2,0.5-1.2,1.1c0,0.7,0.5,1.3,1.2,1.3h2.2
					c0,0,0,0,0,0c0,0,0,0,0,0H71c0.6,0,1.2-0.5,1.2-1.1c0-0.3-0.1-0.6-0.2-0.8l7.9-2.7c3.7-1.3,7.7-1.3,11.4,0l7.7,2.7
					c-0.2,0.2-0.3,0.5-0.3,0.8c0,0.6,0.6,1.2,1.2,1.2h5c0,0,0,0,0,0c0,0,0,0,0,0h1.9c0.7,0,1.2-0.6,1.2-1.3
					C108,167.4,107.4,166.9,106.8,166.9z"/>
				<rect x="124.6" y="52.5" fill="#35488B" width="1" height="55.2"/>
				<rect x="84.3" y="107.7" fill="#35488B" width="2.4" height="2.2"/>
				<g>
					<path fill="#233862" d="M106,99.3h-2.1V95h2.1V99.3z M103.9,99.2h2V95h-2V99.2z"/>
					<path fill="#233862" d="M104.5,99.3H75.6c0,0,0,0,0,0c0,0,0,0,0,0L104.5,99.3l-0.1-8.3H102v-9.6h-2.3v5.2h-1.9v1.9h-3.4v-1.1
						h-1.5v-4.4h-3.9v-7.5l-3.1-1v5h-0.8v-3.7L82,76.8v4.4h-2.9V78h-3v3.2h-0.6v1.9h-2.4v6.3c0,0,0,0,0,0c0,0,0,0,0,0V83h2.4v-1.9
						h0.6V78h3.1v3.2h2.8v-4.4l3.2-1.2v3.7h0.7v-5l3.2,1.1v7.5h3.9v4.4h1.5v1.1h3.3v-1.9h1.9v-5.2h2.5v9.6h2.4V99.3z"/>
					<path fill="#233862" d="M88.5,76.6h-2.2v-0.8h2.2V76.6z M86.4,76.6h2v-0.7h-2V76.6z"/>
					<path fill="#233862" d="M88.5,78.1h-2.2v-0.8h2.2V78.1z M86.4,78h2v-0.7h-2V78z"/>
					<path fill="#233862" d="M88.5,79.4h-2.2v-0.8h2.2V79.4z M86.4,79.3h2v-0.7h-2V79.3z"/>
					<g>
						<path fill="#233862" d="M102.1,86h-2v-1.2h2V86z M100.1,86h1.9v-1.1h-1.9V86z"/>
						<path fill="#233862" d="M102.1,89.7h-2.5v-1.2h2.5V89.7z M99.7,89.6h2.4v-1.1h-2.4V89.6z"/>
						<path fill="#233862" d="M102.1,91.5h-2.5v-1.2h2.5V91.5z M99.7,91.4h2.4v-1.1h-2.4V91.4z"/>
					</g>
					<path fill="#233862" d="M102.1,93.3h-2.5v-1.2h2.5V93.3z M99.7,93.3h2.4v-1.1h-2.4V93.3z"/>
					<path fill="#233862" d="M102.1,95.2h-2.5v-1.2h2.5V95.2z M99.7,95.1h2.4V94h-2.4V95.1z"/>
					<path fill="#233862" d="M102.1,97.1h-2.5v-1.2h2.5V97.1z M99.7,97h2.4v-1.1h-2.4V97z"/>
					<g>
						<path fill="#233862" d="M84.7,79.4h-2.3v-0.8h2.3V79.4z M82.5,79.3h2.2v-0.7h-2.2V79.3z"/>
						<path fill="#233862" d="M84.7,78.1h-2.3v-0.8h2.3V78.1z M82.5,78h2.2v-0.7h-2.2V78z"/>
						<path fill="#233862" d="M88.5,80.6h-6.1v-0.8h6.1V80.6z M82.5,80.6h6v-0.7h-6V80.6z"/>
						<path fill="#233862" d="M88.5,81.8h-6.1v-0.8h6.1V81.8z M82.5,81.7h6V81h-6V81.7z"/>
						<path fill="#233862" d="M88.5,82.9h-6.1v-0.8h6.1V82.9z M82.5,82.8h6v-0.7h-6V82.8z"/>
					</g>
					<path fill="#233862" d="M102.1,87.9h-2.5v-1.2h2.5V87.9z M99.7,87.8h2.4v-1.1h-2.4V87.8z"/>
					<g>
						<path fill="#233862" d="M92.3,84.4h-0.6v-0.8h0.6V84.4z M91.8,84.3h0.5v-0.7h-0.5V84.3z"/>
						<path fill="#233862" d="M91.3,84.4h-0.6v-0.8h0.6V84.4z M90.8,84.3h0.5v-0.7h-0.5V84.3z"/>
						<path fill="#233862" d="M90.3,84.4h-0.6v-0.8h0.6V84.4z M89.8,84.3h0.5v-0.7h-0.5V84.3z"/>
						<path fill="#233862" d="M89.4,84.4h-0.6v-0.8h0.6V84.4z M88.9,84.3h0.5v-0.7h-0.5V84.3z"/>
						<path fill="#233862" d="M88.5,84.4h-0.6v-0.8h0.6V84.4z M87.9,84.3h0.5v-0.7h-0.5V84.3z"/>
						<path fill="#233862" d="M87.5,84.4h-0.6v-0.8h0.6V84.4z M87,84.3h0.5v-0.7H87V84.3z"/>
						<path fill="#233862" d="M86.5,84.4H86v-0.8h0.6V84.4z M86,84.3h0.5v-0.7H86V84.3z"/>
						<path fill="#233862" d="M85.6,84.4H85v-0.8h0.6V84.4z M85,84.3h0.5v-0.7H85V84.3z"/>
						<path fill="#233862" d="M84.7,84.4h-0.6v-0.8h0.6V84.4z M84.1,84.3h0.5v-0.7h-0.5V84.3z"/>
						<path fill="#233862" d="M83.7,84.4h-0.6v-0.8h0.6V84.4z M83.2,84.3h0.5v-0.7h-0.5V84.3z"/>
						<path fill="#233862" d="M82.8,84.4h-0.6v-0.8h0.6V84.4z M82.2,84.3h0.5v-0.7h-0.5V84.3z"/>
						<path fill="#233862" d="M81.8,84.4h-0.6v-0.8h0.6V84.4z M81.2,84.3h0.5v-0.7h-0.5V84.3z"/>
						<path fill="#233862" d="M80.8,84.4h-0.6v-0.8h0.6V84.4z M80.3,84.3h0.5v-0.7h-0.5V84.3z"/>
						<path fill="#233862" d="M79.9,84.4h-0.6v-0.8h0.6V84.4z M79.4,84.3h0.5v-0.7h-0.5V84.3z"/>
						<path fill="#233862" d="M79,84.4h-0.6v-0.8H79V84.4z M78.4,84.3h0.5v-0.7h-0.5V84.3z"/>
						<path fill="#233862" d="M78,84.4h-0.6v-0.8H78V84.4z M77.5,84.3h0.5v-0.7h-0.5V84.3z"/>
						<path fill="#233862" d="M77,84.4h-0.6v-0.8H77V84.4z M76.5,84.3H77v-0.7h-0.5V84.3z"/>
						<path fill="#233862" d="M76.1,84.4h-0.6v-0.8h0.6V84.4z M75.5,84.3H76v-0.7h-0.5V84.3z"/>
						<path fill="#233862" d="M75.1,84.4h-0.6v-0.8h0.6V84.4z M74.6,84.3h0.5v-0.7h-0.5V84.3z"/>
						<path fill="#233862" d="M74.2,84.4h-0.6v-0.8h0.6V84.4z M73.7,84.3h0.5v-0.7h-0.5V84.3z"/>
						<path fill="#233862" d="M92.3,85.7h-0.6v-0.8h0.6V85.7z M91.8,85.6h0.5V85h-0.5V85.6z"/>
						<path fill="#233862" d="M91.3,85.7h-0.6v-0.8h0.6V85.7z M90.8,85.6h0.5V85h-0.5V85.6z"/>
						<path fill="#233862" d="M90.3,85.7h-0.6v-0.8h0.6V85.7z M89.8,85.6h0.5V85h-0.5V85.6z"/>
						<path fill="#233862" d="M89.4,85.7h-0.6v-0.8h0.6V85.7z M88.9,85.6h0.5V85h-0.5V85.6z"/>
						<path fill="#233862" d="M88.5,85.7h-0.6v-0.8h0.6V85.7z M87.9,85.6h0.5V85h-0.5V85.6z"/>
						<path fill="#233862" d="M87.5,85.7h-0.6v-0.8h0.6V85.7z M87,85.6h0.5V85H87V85.6z"/>
						<path fill="#233862" d="M86.5,85.7H86v-0.8h0.6V85.7z M86,85.6h0.5V85H86V85.6z"/>
						<path fill="#233862" d="M85.6,85.7H85v-0.8h0.6V85.7z M85,85.6h0.5V85H85V85.6z"/>
						<path fill="#233862" d="M84.7,85.7h-0.6v-0.8h0.6V85.7z M84.1,85.6h0.5V85h-0.5V85.6z"/>
						<path fill="#233862" d="M83.7,85.7h-0.6v-0.8h0.6V85.7z M83.2,85.6h0.5V85h-0.5V85.6z"/>
						<path fill="#233862" d="M82.8,85.7h-0.6v-0.8h0.6V85.7z M82.2,85.6h0.5V85h-0.5V85.6z"/>
						<path fill="#233862" d="M81.8,85.7h-0.6v-0.8h0.6V85.7z M81.2,85.6h0.5V85h-0.5V85.6z"/>
						<path fill="#233862" d="M80.8,85.7h-0.6v-0.8h0.6V85.7z M80.3,85.6h0.5V85h-0.5V85.6z"/>
						<path fill="#233862" d="M79.9,85.7h-0.6v-0.8h0.6V85.7z M79.4,85.6h0.5V85h-0.5V85.6z"/>
						<path fill="#233862" d="M79,85.7h-0.6v-0.8H79V85.7z M78.4,85.6h0.5V85h-0.5V85.6z"/>
						<path fill="#233862" d="M78,85.7h-0.6v-0.8H78V85.7z M77.5,85.6h0.5V85h-0.5V85.6z"/>
						<path fill="#233862" d="M77,85.7h-0.6v-0.8H77V85.7z M76.5,85.6H77V85h-0.5V85.6z"/>
						<path fill="#233862" d="M76.1,85.7h-0.6v-0.8h0.6V85.7z M75.5,85.6H76V85h-0.5V85.6z"/>
						<path fill="#233862" d="M75.1,85.7h-0.6v-0.8h0.6V85.7z M74.6,85.6h0.5V85h-0.5V85.6z"/>
						<path fill="#233862" d="M74.2,85.7h-0.6v-0.8h0.6V85.7z M73.7,85.6h0.5V85h-0.5V85.6z"/>
						<path fill="#233862" d="M92.3,87h-0.6v-0.8h0.6V87z M91.8,86.9h0.5v-0.7h-0.5V86.9z"/>
						<path fill="#233862" d="M91.3,87h-0.6v-0.8h0.6V87z M90.8,86.9h0.5v-0.7h-0.5V86.9z"/>
						<path fill="#233862" d="M90.3,87h-0.6v-0.8h0.6V87z M89.8,86.9h0.5v-0.7h-0.5V86.9z"/>
						<path fill="#233862" d="M89.4,87h-0.6v-0.8h0.6V87z M88.9,86.9h0.5v-0.7h-0.5V86.9z"/>
						<path fill="#233862" d="M88.5,87h-0.6v-0.8h0.6V87z M87.9,86.9h0.5v-0.7h-0.5V86.9z"/>
						<path fill="#233862" d="M87.5,87h-0.6v-0.8h0.6V87z M87,86.9h0.5v-0.7H87V86.9z"/>
						<path fill="#233862" d="M86.5,87H86v-0.8h0.6V87z M86,86.9h0.5v-0.7H86V86.9z"/>
						<path fill="#233862" d="M85.6,87H85v-0.8h0.6V87z M85,86.9h0.5v-0.7H85V86.9z"/>
						<path fill="#233862" d="M84.7,87h-0.6v-0.8h0.6V87z M84.1,86.9h0.5v-0.7h-0.5V86.9z"/>
						<path fill="#233862" d="M83.7,87h-0.6v-0.8h0.6V87z M83.2,86.9h0.5v-0.7h-0.5V86.9z"/>
						<path fill="#233862" d="M82.8,87h-0.6v-0.8h0.6V87z M82.2,86.9h0.5v-0.7h-0.5V86.9z"/>
						<path fill="#233862" d="M81.8,87h-0.6v-0.8h0.6V87z M81.2,86.9h0.5v-0.7h-0.5V86.9z"/>
						<path fill="#233862" d="M80.8,87h-0.6v-0.8h0.6V87z M80.3,86.9h0.5v-0.7h-0.5V86.9z"/>
						<path fill="#233862" d="M79.9,87h-0.6v-0.8h0.6V87z M79.4,86.9h0.5v-0.7h-0.5V86.9z"/>
						<path fill="#233862" d="M79,87h-0.6v-0.8H79V87z M78.4,86.9h0.5v-0.7h-0.5V86.9z"/>
						<path fill="#233862" d="M78,87h-0.6v-0.8H78V87z M77.5,86.9h0.5v-0.7h-0.5V86.9z"/>
						<path fill="#233862" d="M77,87h-0.6v-0.8H77V87z M76.5,86.9H77v-0.7h-0.5V86.9z"/>
						<path fill="#233862" d="M76.1,87h-0.6v-0.8h0.6V87z M75.5,86.9H76v-0.7h-0.5V86.9z"/>
						<path fill="#233862" d="M75.1,87h-0.6v-0.8h0.6V87z M74.6,86.9h0.5v-0.7h-0.5V86.9z"/>
						<path fill="#233862" d="M74.2,87h-0.6v-0.8h0.6V87z M73.7,86.9h0.5v-0.7h-0.5V86.9z"/>
						<path fill="#233862" d="M92.3,88.4h-0.6v-0.8h0.6V88.4z M91.8,88.3h0.5v-0.7h-0.5V88.3z"/>
						<path fill="#233862" d="M91.3,88.4h-0.6v-0.8h0.6V88.4z M90.8,88.3h0.5v-0.7h-0.5V88.3z"/>
						<path fill="#233862" d="M90.3,88.4h-0.6v-0.8h0.6V88.4z M89.8,88.3h0.5v-0.7h-0.5V88.3z"/>
						<path fill="#233862" d="M89.4,88.4h-0.6v-0.8h0.6V88.4z M88.9,88.3h0.5v-0.7h-0.5V88.3z"/>
						<path fill="#233862" d="M88.5,88.4h-0.6v-0.8h0.6V88.4z M87.9,88.3h0.5v-0.7h-0.5V88.3z"/>
						<path fill="#233862" d="M87.5,88.4h-0.6v-0.8h0.6V88.4z M87,88.3h0.5v-0.7H87V88.3z"/>
						<path fill="#233862" d="M86.5,88.4H86v-0.8h0.6V88.4z M86,88.3h0.5v-0.7H86V88.3z"/>
						<path fill="#233862" d="M85.6,88.4H85v-0.8h0.6V88.4z M85,88.3h0.5v-0.7H85V88.3z"/>
						<path fill="#233862" d="M84.7,88.4h-0.6v-0.8h0.6V88.4z M84.1,88.3h0.5v-0.7h-0.5V88.3z"/>
						<path fill="#233862" d="M83.7,88.4h-0.6v-0.8h0.6V88.4z M83.2,88.3h0.5v-0.7h-0.5V88.3z"/>
						<path fill="#233862" d="M82.8,88.4h-0.6v-0.8h0.6V88.4z M82.2,88.3h0.5v-0.7h-0.5V88.3z"/>
						<path fill="#233862" d="M81.8,88.4h-0.6v-0.8h0.6V88.4z M81.2,88.3h0.5v-0.7h-0.5V88.3z"/>
						<path fill="#233862" d="M80.8,88.4h-0.6v-0.8h0.6V88.4z M80.3,88.3h0.5v-0.7h-0.5V88.3z"/>
						<path fill="#233862" d="M79.9,88.4h-0.6v-0.8h0.6V88.4z M79.4,88.3h0.5v-0.7h-0.5V88.3z"/>
						<path fill="#233862" d="M79,88.4h-0.6v-0.8H79V88.4z M78.4,88.3h0.5v-0.7h-0.5V88.3z"/>
						<path fill="#233862" d="M78,88.4h-0.6v-0.8H78V88.4z M77.5,88.3h0.5v-0.7h-0.5V88.3z"/>
						<path fill="#233862" d="M77,88.4h-0.6v-0.8H77V88.4z M76.5,88.3H77v-0.7h-0.5V88.3z"/>
						<path fill="#233862" d="M76.1,88.4h-0.6v-0.8h0.6V88.4z M75.5,88.3H76v-0.7h-0.5V88.3z"/>
						<path fill="#233862" d="M75.1,88.4h-0.6v-0.8h0.6V88.4z M74.6,88.3h0.5v-0.7h-0.5V88.3z"/>
						<path fill="#233862" d="M74.2,88.4h-0.6v-0.8h0.6V88.4z M73.7,88.3h0.5v-0.7h-0.5V88.3z"/>
						<path fill="#233862" d="M92.3,89.7h-0.6v-0.8h0.6V89.7z M91.8,89.6h0.5v-0.7h-0.5V89.6z"/>
						<path fill="#233862" d="M91.3,89.7h-0.6v-0.8h0.6V89.7z M90.8,89.6h0.5v-0.7h-0.5V89.6z"/>
						<path fill="#233862" d="M90.3,89.7h-0.6v-0.8h0.6V89.7z M89.8,89.6h0.5v-0.7h-0.5V89.6z"/>
						<path fill="#233862" d="M89.4,89.7h-0.6v-0.8h0.6V89.7z M88.9,89.6h0.5v-0.7h-0.5V89.6z"/>
						<path fill="#233862" d="M88.5,89.7h-0.6v-0.8h0.6V89.7z M87.9,89.6h0.5v-0.7h-0.5V89.6z"/>
						<path fill="#233862" d="M87.5,89.7h-0.6v-0.8h0.6V89.7z M87,89.6h0.5v-0.7H87V89.6z"/>
						<path fill="#233862" d="M86.5,89.7H86v-0.8h0.6V89.7z M86,89.6h0.5v-0.7H86V89.6z"/>
						<path fill="#233862" d="M85.6,89.7H85v-0.8h0.6V89.7z M85,89.6h0.5v-0.7H85V89.6z"/>
						<path fill="#233862" d="M84.7,89.7h-0.6v-0.8h0.6V89.7z M84.1,89.6h0.5v-0.7h-0.5V89.6z"/>
						<path fill="#233862" d="M83.7,89.7h-0.6v-0.8h0.6V89.7z M83.2,89.6h0.5v-0.7h-0.5V89.6z"/>
						<path fill="#233862" d="M82.8,89.7h-0.6v-0.8h0.6V89.7z M82.2,89.6h0.5v-0.7h-0.5V89.6z"/>
						<path fill="#233862" d="M81.8,89.7h-0.6v-0.8h0.6V89.7z M81.2,89.6h0.5v-0.7h-0.5V89.6z"/>
						<path fill="#233862" d="M80.8,89.7h-0.6v-0.8h0.6V89.7z M80.3,89.6h0.5v-0.7h-0.5V89.6z"/>
						<path fill="#233862" d="M79.9,89.7h-0.6v-0.8h0.6V89.7z M79.4,89.6h0.5v-0.7h-0.5V89.6z"/>
						<path fill="#233862" d="M79,89.7h-0.6v-0.8H79V89.7z M78.4,89.6h0.5v-0.7h-0.5V89.6z"/>
						<path fill="#233862" d="M78,89.7h-0.6v-0.8H78V89.7z M77.5,89.6h0.5v-0.7h-0.5V89.6z"/>
						<path fill="#233862" d="M77,89.7h-0.6v-0.8H77V89.7z M76.5,89.6H77v-0.7h-0.5V89.6z"/>
						<path fill="#233862" d="M75.1,89.7h-0.5c0,0,0,0,0,0v-0.8h0.6V89.7z M74.6,89.6h0.5v-0.7h-0.5V89.6z"/>
						<path fill="#233862" d="M76.1,89.7h-0.6v-0.8h0.6V89.7z M75.5,89.6H76v-0.7h-0.5V89.6z"/>
						<path fill="#233862" d="M74.2,89.6l-0.6-0.1v-0.6h0.6V89.6z M73.7,89.5l0.5,0.1v-0.6h-0.5V89.5z"/>
						<path fill="#233862" d="M92.3,91h-0.6v-0.8h0.6V91z M91.8,90.9h0.5v-0.7h-0.5V90.9z"/>
						<path fill="#233862" d="M91.3,91h-0.6v-0.8h0.6V91z M90.8,90.9h0.5v-0.7h-0.5V90.9z"/>
						<path fill="#233862" d="M90.3,91h-0.6v-0.8h0.6V91z M89.8,90.9h0.5v-0.7h-0.5V90.9z"/>
						<path fill="#233862" d="M89.4,91h-0.6v-0.8h0.6V91z M88.9,90.9h0.5v-0.7h-0.5V90.9z"/>
						<path fill="#233862" d="M88.5,91h-0.6v-0.8h0.6V91z M87.9,90.9h0.5v-0.7h-0.5V90.9z"/>
						<path fill="#233862" d="M87.5,91h-0.6v-0.8h0.6V91z M87,90.9h0.5v-0.7H87V90.9z"/>
						<path fill="#233862" d="M86.5,91H86v-0.8h0.6V91z M86,90.9h0.5v-0.7H86V90.9z"/>
						<path fill="#233862" d="M85.6,91H85v-0.8h0.6V91z M85,90.9h0.5v-0.7H85V90.9z"/>
						<path fill="#233862" d="M84.7,91h-0.6v-0.8h0.6V91z M84.1,90.9h0.5v-0.7h-0.5V90.9z"/>
						<path fill="#233862" d="M83.7,91h-0.6v-0.8h0.6V91z M83.2,90.9h0.5v-0.7h-0.5V90.9z"/>
						<path fill="#233862" d="M82.8,91h-0.6v-0.8h0.6V91z M82.2,90.9h0.5v-0.7h-0.5V90.9z"/>
						<path fill="#233862" d="M81.8,91h-0.6v-0.8h0.6V91z M81.2,90.9h0.5v-0.7h-0.5V90.9z"/>
						<path fill="#233862" d="M80.8,91h-0.6v-0.8h0.6V91z M80.3,90.9h0.5v-0.7h-0.5V90.9z"/>
						<path fill="#233862" d="M79.9,91h-0.6v-0.8h0.6V91z M79.4,90.9h0.5v-0.7h-0.5V90.9z"/>
						<path fill="#233862" d="M79,91h-0.6v-0.8H79V91z M78.4,90.9h0.5v-0.7h-0.5V90.9z"/>
						<path fill="#233862" d="M78,91h-0.6v-0.8H78V91z M77.5,90.9h0.5v-0.7h-0.5V90.9z"/>
						<path fill="#233862" d="M77,91h-0.6v-0.8H77V91z M76.5,90.9H77v-0.7h-0.5V90.9z"/>
					</g>
					<path fill="#233862" d="M69.2,93.6H68v-4.9h1.2V93.6z M68.1,93.6h1.1v-4.8h-1.1V93.6z"/>
					<path fill="#233862" d="M97.7,88.4h-1.9v-2h0.9v-1.5h0.1v1.5h0.9V88.4z M95.9,88.4h1.7v-1.9h-0.9l0-1.5v1.5h-0.9V88.4z"/>
					<path fill="#233862" d="M98.7,86.5v-5.3h0.4v-0.5h0.1v0.5h2.2v-0.5h0.1v0.5h0.5v1.2l-1.9,0V83l1.9,0v1.2h-2.4v2.2L98.7,86.5z
						 M98.8,81.3v5.1l0.8,0v-2.2h2.4v-1.1l-1.9,0v-0.6l1.9,0v-1.1h-0.5l0-0.5v0.5h-2.3l0-0.5v0.5H98.8z M102,82.5L102,82.5L102,82.5
						z"/>
					<path fill="#233862" d="M76,96.6C75.9,96.6,75.9,96.6,76,96.6l0-6.7l-6.7-1.2c0,0,0,0,0,0c0,0,0,0,0,0l6.8,1.2L76,96.6
						C76,96.6,76,96.6,76,96.6z"/>
					<path fill="#233862" d="M76,99.3h-8.5v-5.7H76V99.3z M67.6,99.2h8.3v-5.6h-8.3V99.2z"/>
					<path fill="#233862" d="M76,92.1h-8.5v-1.9H76V92.1z M67.6,92h8.3v-1.8h-8.3V92z"/>
					<path fill="#233862" d="M75.4,95.7h-0.5v-0.7h0.5V95.7z M75,95.7h0.4v-0.5H75V95.7z"/>
					<path fill="#233862" d="M74.6,95.7h-0.5v-0.7h0.5V95.7z M74.2,95.7h0.4v-0.5h-0.4V95.7z"/>
					<path fill="#233862" d="M73.8,95.7h-0.5v-0.7h0.5V95.7z M73.4,95.7h0.4v-0.5h-0.4V95.7z"/>
					<path fill="#233862" d="M73.1,95.7h-0.5v-0.7h0.5V95.7z M72.6,95.7H73v-0.5h-0.4V95.7z"/>
					<path fill="#233862" d="M72.3,95.7h-0.5v-0.7h0.5V95.7z M71.9,95.7h0.4v-0.5h-0.4V95.7z"/>
					<path fill="#233862" d="M71.5,95.7H71v-0.7h0.5V95.7z M71.1,95.7h0.4v-0.5h-0.4V95.7z"/>
					<path fill="#233862" d="M70.7,95.7h-0.5v-0.7h0.5V95.7z M70.3,95.7h0.4v-0.5h-0.4V95.7z"/>
					<path fill="#233862" d="M69.9,95.7h-0.5v-0.7h0.5V95.7z M69.5,95.7h0.4v-0.5h-0.4V95.7z"/>
					<path fill="#233862" d="M69.2,95.7h-0.5v-0.7h0.5V95.7z M68.8,95.7h0.4v-0.5h-0.4V95.7z"/>
					<path fill="#233862" d="M68.4,95.7h-0.5v-0.7h0.5V95.7z M68,95.7h0.4v-0.5H68V95.7z"/>
					<path fill="#233862" d="M75.4,96.8h-0.5v-0.7h0.5V96.8z M75,96.7h0.4v-0.5H75V96.7z"/>
					<path fill="#233862" d="M74.6,96.8h-0.5v-0.7h0.5V96.8z M74.2,96.7h0.4v-0.5h-0.4V96.7z"/>
					<path fill="#233862" d="M73.8,96.8h-0.5v-0.7h0.5V96.8z M73.4,96.7h0.4v-0.5h-0.4V96.7z"/>
					<path fill="#233862" d="M73.1,96.8h-0.5v-0.7h0.5V96.8z M72.6,96.7H73v-0.5h-0.4V96.7z"/>
					<path fill="#233862" d="M72.3,96.8h-0.5v-0.7h0.5V96.8z M71.9,96.7h0.4v-0.5h-0.4V96.7z"/>
					<path fill="#233862" d="M71.5,96.8H71v-0.7h0.5V96.8z M71.1,96.7h0.4v-0.5h-0.4V96.7z"/>
					<path fill="#233862" d="M70.7,96.8h-0.5v-0.7h0.5V96.8z M70.3,96.7h0.4v-0.5h-0.4V96.7z"/>
					<path fill="#233862" d="M69.9,96.8h-0.5v-0.7h0.5V96.8z M69.5,96.7h0.4v-0.5h-0.4V96.7z"/>
					<path fill="#233862" d="M69.2,96.8h-0.5v-0.7h0.5V96.8z M68.8,96.7h0.4v-0.5h-0.4V96.7z"/>
					<path fill="#233862" d="M68.4,96.8h-0.5v-0.7h0.5V96.8z M68,96.7h0.4v-0.5H68V96.7z"/>
					<path fill="#233862" d="M75.4,93.1h-0.5v-0.7h0.5V93.1z M75,93.1h0.4v-0.5H75V93.1z"/>
					<path fill="#233862" d="M74.6,93.1h-0.5v-0.7h0.5V93.1z M74.2,93.1h0.4v-0.5h-0.4V93.1z"/>
					<path fill="#233862" d="M73.8,93.1h-0.5v-0.7h0.5V93.1z M73.4,93.1h0.4v-0.5h-0.4V93.1z"/>
					<path fill="#233862" d="M73.1,93.1h-0.5v-0.7h0.5V93.1z M72.6,93.1H73v-0.5h-0.4V93.1z"/>
					<path fill="#233862" d="M72.3,93.1h-0.5v-0.7h0.5V93.1z M71.9,93.1h0.4v-0.5h-0.4V93.1z"/>
					<path fill="#233862" d="M71.5,93.1H71v-0.7h0.5V93.1z M71.1,93.1h0.4v-0.5h-0.4V93.1z"/>
					<path fill="#233862" d="M70.7,93.1h-0.5v-0.7h0.5V93.1z M70.3,93.1h0.4v-0.5h-0.4V93.1z"/>
					<path fill="#233862" d="M69.9,93.1h-0.5v-0.7h0.5V93.1z M69.5,93.1h0.4v-0.5h-0.4V93.1z"/>
					<path fill="#233862" d="M75.4,94.6h-0.5V94h0.5V94.6z M75,94.6h0.4V94H75V94.6z"/>
					<path fill="#233862" d="M74.6,94.6h-0.5V94h0.5V94.6z M74.2,94.6h0.4V94h-0.4V94.6z"/>
					<path fill="#233862" d="M73.8,94.6h-0.5V94h0.5V94.6z M73.4,94.6h0.4V94h-0.4V94.6z"/>
					<path fill="#233862" d="M73.1,94.6h-0.5V94h0.5V94.6z M72.6,94.6H73V94h-0.4V94.6z"/>
					<path fill="#233862" d="M72.3,94.6h-0.5V94h0.5V94.6z M71.9,94.6h0.4V94h-0.4V94.6z"/>
					<path fill="#233862" d="M71.5,94.6H71V94h0.5V94.6z M71.1,94.6h0.4V94h-0.4V94.6z"/>
					<path fill="#233862" d="M70.7,94.6h-0.5V94h0.5V94.6z M70.3,94.6h0.4V94h-0.4V94.6z"/>
					<path fill="#233862" d="M69.9,94.6h-0.5V94h0.5V94.6z M69.5,94.6h0.4V94h-0.4V94.6z"/>
					<path fill="#233862" d="M69.2,94.6h-0.5V94h0.5V94.6z M68.8,94.6h0.4V94h-0.4V94.6z"/>
					<path fill="#233862" d="M68.4,94.6h-0.5V94h0.5V94.6z M68,94.6h0.4V94H68V94.6z"/>
					<path fill="#233862" d="M75.4,97.9h-0.5v-0.7h0.5V97.9z M75,97.8h0.4v-0.5H75V97.8z"/>
					<path fill="#233862" d="M74.6,97.9h-0.5v-0.7h0.5V97.9z M74.2,97.8h0.4v-0.5h-0.4V97.8z"/>
					<path fill="#233862" d="M73.8,97.9h-0.5v-0.7h0.5V97.9z M73.4,97.8h0.4v-0.5h-0.4V97.8z"/>
					<path fill="#233862" d="M73.1,97.9h-0.5v-0.7h0.5V97.9z M72.6,97.8H73v-0.5h-0.4V97.8z"/>
					<path fill="#233862" d="M72.3,97.9h-0.5v-0.7h0.5V97.9z M71.9,97.8h0.4v-0.5h-0.4V97.8z"/>
					<path fill="#233862" d="M71.5,97.9H71v-0.7h0.5V97.9z M71.1,97.8h0.4v-0.5h-0.4V97.8z"/>
					<path fill="#233862" d="M70.7,97.9h-0.5v-0.7h0.5V97.9z M70.3,97.8h0.4v-0.5h-0.4V97.8z"/>
					<path fill="#233862" d="M69.9,97.9h-0.5v-0.7h0.5V97.9z M69.5,97.8h0.4v-0.5h-0.4V97.8z"/>
					<path fill="#233862" d="M69.2,97.9h-0.5v-0.7h0.5V97.9z M68.8,97.8h0.4v-0.5h-0.4V97.8z"/>
					<path fill="#233862" d="M68.4,97.9h-0.5v-0.7h0.5V97.9z M68,97.8h0.4v-0.5H68V97.8z"/>
					<path fill="#233862" d="M69.8,88.9l-0.2,0v-1.4h0.2V88.9z M69.7,88.8L69.7,88.8l0.1-1.3h-0.1V88.8z"/>
					<g>
						<path fill="#233862" d="M75.3,91.4h-0.4v-0.7h0.4V91.4z M75,91.3h0.3v-0.6H75V91.3z"/>
						<path fill="#233862" d="M71.7,91.4h-0.4v-0.7h0.4V91.4z M71.4,91.3h0.3v-0.6h-0.3V91.3z"/>
						<path fill="#233862" d="M68.9,91.4h-0.4v-0.7h0.4V91.4z M68.5,91.3h0.3v-0.6h-0.3V91.3z"/>
					</g>
					<path fill="#233862" d="M98.4,99.2H86.2v-7.1h12.2V99.2z M86.3,99.2h12v-7h-12V99.2z"/>
					<path fill="#233862" d="M87.4,93.9h-0.7v-1h0.7V93.9z M86.8,93.8h0.6v-0.9h-0.6V93.8z"/>
					<path fill="#233862" d="M88.5,93.9h-0.7v-1h0.7V93.9z M87.9,93.8h0.6v-0.9h-0.6V93.8z"/>
					<path fill="#233862" d="M89.7,93.9H89v-1h0.7V93.9z M89,93.8h0.6v-0.9H89V93.8z"/>
					<path fill="#233862" d="M90.8,93.9h-0.7v-1h0.7V93.9z M90.2,93.8h0.6v-0.9h-0.6V93.8z"/>
					<path fill="#233862" d="M92,93.9h-0.7v-1H92V93.9z M91.3,93.8h0.6v-0.9h-0.6V93.8z"/>
					<path fill="#233862" d="M93.1,93.9h-0.7v-1h0.7V93.9z M92.5,93.8h0.6v-0.9h-0.6V93.8z"/>
					<path fill="#233862" d="M94.3,93.9h-0.7v-1h0.7V93.9z M93.6,93.8h0.6v-0.9h-0.6V93.8z"/>
					<path fill="#233862" d="M95.4,93.9h-0.7v-1h0.7V93.9z M94.8,93.8h0.6v-0.9h-0.6V93.8z"/>
					<path fill="#233862" d="M96.6,93.9h-0.7v-1h0.7V93.9z M96,93.8h0.6v-0.9H96V93.8z"/>
					<path fill="#233862" d="M97.7,93.9H97v-1h0.7V93.9z M97.1,93.8h0.6v-0.9h-0.6V93.8z"/>
					<path fill="#233862" d="M87.4,95.3h-0.7v-1h0.7V95.3z M86.8,95.3h0.6v-0.9h-0.6V95.3z"/>
					<path fill="#233862" d="M88.5,95.3h-0.7v-1h0.7V95.3z M87.9,95.3h0.6v-0.9h-0.6V95.3z"/>
					<path fill="#233862" d="M89.7,95.3H89v-1h0.7V95.3z M89,95.3h0.6v-0.9H89V95.3z"/>
					<path fill="#233862" d="M90.8,95.3h-0.7v-1h0.7V95.3z M90.2,95.3h0.6v-0.9h-0.6V95.3z"/>
					<path fill="#233862" d="M92,95.3h-0.7v-1H92V95.3z M91.3,95.3h0.6v-0.9h-0.6V95.3z"/>
					<path fill="#233862" d="M93.1,95.3h-0.7v-1h0.7V95.3z M92.5,95.3h0.6v-0.9h-0.6V95.3z"/>
					<path fill="#233862" d="M94.3,95.3h-0.7v-1h0.7V95.3z M93.6,95.3h0.6v-0.9h-0.6V95.3z"/>
					<path fill="#233862" d="M95.4,95.3h-0.7v-1h0.7V95.3z M94.8,95.3h0.6v-0.9h-0.6V95.3z"/>
					<path fill="#233862" d="M96.6,95.3h-0.7v-1h0.7V95.3z M96,95.3h0.6v-0.9H96V95.3z"/>
					<path fill="#233862" d="M97.7,95.3H97v-1h0.7V95.3z M97.1,95.3h0.6v-0.9h-0.6V95.3z"/>
					<path fill="#233862" d="M87.4,96.9h-0.7v-1h0.7V96.9z M86.8,96.8h0.6v-0.9h-0.6V96.8z"/>
					<path fill="#233862" d="M88.5,96.9h-0.7v-1h0.7V96.9z M87.9,96.8h0.6v-0.9h-0.6V96.8z"/>
					<path fill="#233862" d="M89.7,96.9H89v-1h0.7V96.9z M89,96.8h0.6v-0.9H89V96.8z"/>
					<path fill="#233862" d="M90.8,96.9h-0.7v-1h0.7V96.9z M90.2,96.8h0.6v-0.9h-0.6V96.8z"/>
					<path fill="#233862" d="M92,96.9h-0.7v-1H92V96.9z M91.3,96.8h0.6v-0.9h-0.6V96.8z"/>
					<path fill="#233862" d="M93.1,96.9h-0.7v-1h0.7V96.9z M92.5,96.8h0.6v-0.9h-0.6V96.8z"/>
					<path fill="#233862" d="M94.3,96.9h-0.7v-1h0.7V96.9z M93.6,96.8h0.6v-0.9h-0.6V96.8z"/>
					<path fill="#233862" d="M95.4,96.9h-0.7v-1h0.7V96.9z M94.8,96.8h0.6v-0.9h-0.6V96.8z"/>
					<path fill="#233862" d="M96.6,96.9h-0.7v-1h0.7V96.9z M96,96.8h0.6v-0.9H96V96.8z"/>
					<path fill="#233862" d="M97.7,96.9H97v-1h0.7V96.9z M97.1,96.8h0.6v-0.9h-0.6V96.8z"/>
					<path fill="#233862" d="M87.4,98.3h-0.7v-1h0.7V98.3z M86.8,98.3h0.6v-0.9h-0.6V98.3z"/>
					<path fill="#233862" d="M88.5,98.3h-0.7v-1h0.7V98.3z M87.9,98.3h0.6v-0.9h-0.6V98.3z"/>
					<path fill="#233862" d="M89.7,98.3H89v-1h0.7V98.3z M89,98.3h0.6v-0.9H89V98.3z"/>
					<path fill="#233862" d="M90.8,98.3h-0.7v-1h0.7V98.3z M90.2,98.3h0.6v-0.9h-0.6V98.3z"/>
					<path fill="#233862" d="M92,98.3h-0.7v-1H92V98.3z M91.3,98.3h0.6v-0.9h-0.6V98.3z"/>
					<path fill="#233862" d="M93.1,98.3h-0.7v-1h0.7V98.3z M92.5,98.3h0.6v-0.9h-0.6V98.3z"/>
					<path fill="#233862" d="M94.3,98.3h-0.7v-1h0.7V98.3z M93.6,98.3h0.6v-0.9h-0.6V98.3z"/>
					<path fill="#233862" d="M95.4,98.3h-0.7v-1h0.7V98.3z M94.8,98.3h0.6v-0.9h-0.6V98.3z"/>
					<path fill="#233862" d="M96.6,98.3h-0.7v-1h0.7V98.3z M96,98.3h0.6v-0.9H96V98.3z"/>
					<path fill="#233862" d="M97.7,98.3H97v-1h0.7V98.3z M97.1,98.3h0.6v-0.9h-0.6V98.3z"/>
					<path fill="#233862" d="M96.7,92.2h-2.6v-1l2.6-1V92.2z M94.2,92.1h2.5v-1.8l-2.5,0.9V92.1z"/>
					<path fill="#233862" d="M81.8,99.3h-5.8v-6.4l5.8,2V99.3z M76,99.2h5.7V95L76,93V99.2z"/>
					<path fill="#233862" d="M81.6,95.4h-5.5v-0.3h5.5V95.4z M76.1,95.3h5.4v-0.1h-5.4V95.3z"/>
					<path fill="#233862" d="M81.6,96h-5.5v-0.3h5.5V96z M76.1,95.9h5.4v-0.1h-5.4V95.9z"/>
					<path fill="#233862" d="M81.6,96.6h-5.5v-0.3h5.5V96.6z M76.1,96.5h5.4v-0.1h-5.4V96.5z"/>
					<path fill="#233862" d="M81.6,97.2h-5.5V97h5.5V97.2z M76.1,97.2h5.4V97h-5.4V97.2z"/>
					<path fill="#233862" d="M81.6,97.8h-5.5v-0.3h5.5V97.8z M76.1,97.8h5.4v-0.1h-5.4V97.8z"/>
					<path fill="#233862" d="M81.6,98.5h-5.5v-0.3h5.5V98.5z M76.1,98.4h5.4v-0.1h-5.4V98.4z"/>
					<path fill="#233862" d="M97.2,92.2h-0.5v-1.9h0.5V92.2z M96.7,92.1h0.4v-1.8h-0.4V92.1z"/>
					<path fill="#233862" d="M96.2,91.9h-1v-0.7h1V91.9z M95.2,91.8h0.9v-0.6h-0.9V91.8z"/>
					<g>
						<path fill="#233862" d="M76.8,81.1h-0.4v-2.9h0.4V81.1z M76.5,81.1h0.3v-2.8h-0.3V81.1z"/>
						<path fill="#233862" d="M77.5,81.1h-0.4v-2.9h0.4V81.1z M77.2,81.1h0.3v-2.8h-0.3V81.1z"/>
						<path fill="#233862" d="M78.2,81.1h-0.4v-2.9h0.4V81.1z M77.8,81.1h0.3v-2.8h-0.3V81.1z"/>
						<path fill="#233862" d="M78.8,81.1h-0.4v-2.9h0.4V81.1z M78.5,81.1h0.3v-2.8h-0.3V81.1z"/>
					</g>
				</g>
			</g>
			<g>
				<path fill="#FCD0B1" d="M65.5,167.3l2.1,0c0,0-3.1-3.5-4.1-5.2l-2.6-4.9l-3.5,0.9l4.4,6.2L65.5,167.3z"/>
				<path fill="#163560" d="M46,72.4c-0.8-0.5-1.8-0.5-2.4-0.5c0.2-0.2,0.5-0.2,0.5-0.2c-0.4-0.1-1.3,0.3-1.3,0.3
					c-5.8-2.2-4.4,6.2-4.2,8.1c0.1,2-4.2,2.7-7.2,4.3c-5.7,3-6.2,6.9-6.2,6.9c0,0,0.1,0.1,0.1,0.1c0.3-0.5,0.9-1.4,1.4-1.5
					c0,0-0.6,1.2-0.8,1.9c1.7,1.3,4.8,4.1,7,6.1c0-0.4,0-1,0.1-1.2l0.3,1.6c1.2,1.1,2,1.8,2,1.8c-0.1-1.6,7.2-10,11-12.5
					c0.9-1.4,1.3-3.8,1.3-4c-0.2,1.9-0.5,3-0.8,3.6C50,84.4,48.1,73.6,46,72.4z"/>
				<path fill="#FCD0B1" d="M46,87.9c0,0-1.9,1-3.3,0.6c-1.3-0.4-2.2-2.1-2.2-2.1c0.6-0.1,0.7-0.9,0.7-4.2l0.3,0l4.3,0.8
					c0,0-0.1,1.3-0.1,2.6C45.7,86.8,45.8,87.8,46,87.9z"/>
				<path fill="#E37970" d="M41.2,73.8c0,0,2.1-2.2,4.7-0.1C46,73.7,44.4,73.4,41.2,73.8z"/>
				<path fill="#EAA16E" d="M45.8,83.1c0,0-0.1,1.3-0.1,2.6c-2.4-0.1-3.6-2.2-4.2-3.4L45.8,83.1z"/>
				<path fill="#163560" d="M41.1,81.8c0,0-1.3-2-1.6-3.7c-0.2-1.2,0.4-5.7,4.9-5c0,0,1.3,0.1,2.5,1c1,0.7,2.4,2.1,0.8,6l-0.4,1.3
					L41.1,81.8z"/>
				<path fill="#2B478B" d="M62.8,160.4l-2.3,0.1l-2.4,0.1c0,0-5.6-6.3-8.8-16.4c-0.1-0.2-0.2-0.5-0.2-0.7
					c-1.7-5.1-5.3-11.4-7.2-17.1c-0.3-0.9-0.6-1.8-0.8-2.6c-0.1-0.3-0.2-0.5-0.2-0.8c-1.4-4.9-1.8-8-2.2-11.4l12.1,0.1
					C50.7,111.6,54.5,134.8,62.8,160.4z"/>
				<path fill="#E7F1FD" d="M50.4,103.7c0.2,6.5,1,9.3,1,9.3s-5.9,3-12.8,0.8c-0.1,0,0.5-26.9,2.4-27.6c0.5,0.6,1.8,1.1,3,1.1
					c1.4,0,1.8-0.6,1.8-1.3C47.2,86.8,50.2,94.4,50.4,103.7z"/>
				<path fill="#FCD0B1" d="M46.6,84.3c0,0-5.6,0.1-5.6-3.4c0-3.5-0.7-5.9,2.9-6.1c3.6-0.2,4.3,1.1,4.6,2.3
					C48.7,78.3,48.1,84.2,46.6,84.3z"/>
				<path fill="#163560" d="M48.3,75.2c-0.9-1.1-1.5-0.8-1.9-0.5c-1.2-1.8-5.1,0.8-5.1,0.8c-1.9,1.8-2.2,4-2.2,4s1,0.6,3.4,0
					c1.9-0.5,3.2-3.1,3.7-4.2c0.3,0.3,1,1,1.3,1.7c0.3,0.9,0.4,2.7,0.9,2.7C48.4,79.5,49.6,76.7,48.3,75.2z"/>
				<path fill="#FCD0B1" d="M69.3,90.1c0,0,0.8-2.9,3.9-2.5c0.4,0.1,1.4,0.5,0.7,1.7c-0.5,0.8-0.7,0.4-1.5,1.5
					c-0.8,1.1-1.6,1.4-2.6,1.2L69.3,90.1z"/>
				<path fill="#FCD0B1" d="M42.4,167.1c-0.2-1.1-0.6-2.9-0.6-2.9l0.1-6.5H38l1.5,6.2c0,0.3,0.1,1.4-0.3,2.6c0,0-0.4,1.7,1.3,1.8
					C42.2,168.4,42.6,168.2,42.4,167.1z"/>
				<path fill="#233862" d="M39.2,166.6c0,0-0.3,1.8-0.1,2.7c0,0,0.5,0,1.7,0c1.2,0,1.8,0,1.8,0s0-2-0.3-2.7
					C42.3,166.5,41.1,168.3,39.2,166.6z"/>
				<path fill="#233862" d="M67.6,167.3C67.6,167.3,67.6,167.3,67.6,167.3c-0.9,0-1.7-0.3-2.5-1.2c-2.3-2.6-3.6-2.9-4.1-2.9
					c-0.4,0.8-0.8,1.7-0.3,2.7l0.8,3.2h0.9l0-3.1c0.6,0.2,1.2,0.4,1.4,0.9c0.6,1.2,1.1,2.1,1.6,2.1c0.3,0,4,0,4,0
					S69.6,168.2,67.6,167.3z"/>
				<path fill="#BC719A" d="M69.3,90.1c0,0-3.7,2.1-5,2.7c-0.8,0.3-2.5,1.2-3.7,1.7c-0.8,0.4-1.7,0.2-2.3-0.5
					c-2-2.3-7.2-7.4-12.6-8.1l0,0l0,0c0,0,3.3,8.1,3.4,9.7c0.1,1.6,0.4,26.7,0.4,26.7s-0.2,1.2,2,0.7c2.2-0.5,2.8-1,2.8-1
					s-2.1-15.5-1.5-20.8c0.1-1.1,0-2.3-0.2-3.5c3.3,2,7.1,2.9,7.1,2.9s2.9-1.3,6.9-4.2c1.2-0.9,3.4-4.4,3.4-4.4L69.3,90.1z"/>
				<path fill="#233862" d="M60.6,160.4l-2.4,0.1c0,0-5.6-6.3-8.8-16.4c-0.1-0.2-0.2-0.5-0.2-0.7c-1.7-5.1-5.3-11.4-7.2-17.1
					c-0.3-0.9-0.6-1.8-0.8-2.6c-0.1-0.3-0.2-0.5-0.2-0.8l2-1.5c0,0,6,9.8,7.9,19C52.4,148.4,58.9,158,60.6,160.4z"/>
				<path fill="#2B478B" d="M43,141.3c0,4.5-0.2,14.8-0.8,19.1h-2.2c-1.2,0-1.8,0-1.8,0c-1.5-7.4-2.5-13.6-3.3-18.8
					c-0.6-4.3-1.2-8.1-1.6-11.3c-0.4-3.2-0.7-5.9-0.8-8.2c0-0.4,0-0.7,0-1c0-0.3,0-0.7,0-1l11.8-1.2C44.2,126.6,43,138.6,43,141.3z"
					/>
				<path fill="#233862" d="M40.1,160.3c-1.2,0-1.8,0-1.8,0c-1.5-7.4-2.5-13.6-3.3-18.8c-0.6-4.3-1.2-8.1-1.6-11.3
					c-0.4-3.2-0.7-5.9-0.8-8.2l4.3,2.6c0,0-2.8,1-1.7,8.4C36.3,140.3,38.6,159.3,40.1,160.3z"/>
				<path fill="#BC719A" d="M40.6,121.9c0,0-0.8,3-3.7,2.6c-2.9-0.4-7-2.1-7-2.1s1.2-3.9,2.8-9c1.9-6.2,4.1-14.2,5.2-19.2
					c0.3-1.4,0.5-2.6,0.6-3.4l2.4-4.6c0,0,3.5,8,3.7,10C44.9,98.2,40.6,121.9,40.6,121.9z"/>
				<path fill="#AB678A" d="M40.5,100.4c-0.1,3.3-0.9,9.6-7.7,13c0,0,0,0-0.1,0c1.9-6.2,4.1-14.2,5.2-19.2
					C39.2,96.1,40.6,98.6,40.5,100.4z"/>
				<path fill="#FCD0B1" d="M52.9,98.6c0,0.4-1.1,3.1-3.1,4.7c-0.4,0.3-0.7,0.5-0.9,0.5c-3.2,1.1-6,1.7-8.3,2v-3.6
					c2.8-0.2,6.3-0.4,7.7-0.4c0.2-0.4,0.5-0.9,0.6-1.4c0.2-1,0.7-1.7,2.1-1.9C52.3,98.2,52.9,98.2,52.9,98.6z"/>
				<path fill="#BC719A" d="M41,86.2c0,0-5.9,0.4-7.3,3.5c-1.4,3.1-1.9,13.6-0.1,16.6c0,0,2.5,0.7,6.8-0.1c0.1,0,0.1,0,0.2,0
					c0,0,1.4-3.4,0.1-4.1c0,0-3.7,0.2-3.3-1C37.8,99.9,41,86.2,41,86.2z"/>
			</g>
			<g>
				<path fill="#FFFFFF" d="M164.9,116.9l-3.5,0c0,0-0.1,0-0.1,0c0,0-0.1,0-0.1,0c-0.5,0.1-0.8,1.1-0.8,2.3c0,0.1,0,0.1,0,0.2
					c0,0.5,0.1,1,0.2,1.4c0.1,0.4,0.3,0.7,0.5,0.8c0,0,0,0,0,0c0,0,0.1,0,0.1,0c0,0,0.1,0,0.1,0l30.2,0.4l0-2.3l0-2.3L164.9,116.9z"
					/>
				<path fill="#BED4F4" d="M178.1,121.2c-6.4,0.5-10.2-2.3-13.2-4.4l-3.5,0c0,0-0.1,0-0.1,0c0,0-0.1,0-0.1,0
					c-0.5,0.1-0.8,1.1-0.8,2.3c0,0.1,0,0.1,0,0.2c0,0.5,0.1,1,0.2,1.4c0.2,0.4,0.4,0.7,0.5,0.8c0,0,0,0,0,0c0,0,0.1,0,0.1,0
					c0,0,0.1,0,0.1,0l30.2,0.4l0-2.3C191.2,119.7,188.2,120.4,178.1,121.2z"/>
				
					<ellipse transform="matrix(8.478735e-003 -1 1 8.478735e-003 70.5621 310.2164)" fill="#AFCDFB" cx="191.7" cy="119.5" rx="2.3" ry="0.9"/>
			</g>
			<path fill="#BC719A" d="M42.3,70.7c-1.2,0.3-2,0.8-2.7,1.3c-0.1,0.1-0.1,0.1-0.2,0.2l0,0C37,74.5,38,78.1,38,78.1
				s0.3,0.9,0.5,1.3c0.2,0.4,3.4-0.1,3.6-0.7c0.2-0.7,0.8-1.4,0.8-1.4s3.4-0.2,3.6-0.2c0.8-0.1,2.9-0.8,2.9-0.8
				C49.4,76,48.2,69.2,42.3,70.7z"/>
			<path fill="#8E5C7A" d="M51.4,75.5c-0.4-0.1-1.1-0.2-2.2-0.3c0,0-2.2,0.9-4.1,1.5c-0.9-1.1-2.2-3.9-5.5-4.7c0,0,0,0,0,0
				c-0.1,0.1-0.1,0.1-0.2,0.2l0,0c0,0,0,0,0,0.1c2.7,0.5,4.1,3.6,5,4.7c-0.8,0.2-0.5,0.2-1.5,0.3c0,0,5.9,0.1,8.6-1.3
				C51.7,75.9,51.6,75.5,51.4,75.5z"/>
			<path fill="#E27F2B" d="M140.7,75.1c2.3-4.2,8.5-3.7,8.5-3.7c-6.3-1.5-9.4,3.4-9.4,3.4l-0.3-0.1l-1.4,0.4l12.8,2.6L140.7,75.1z"
				/>
			<rect x="125.6" y="123.2" fill="#7A97F3" width="2.3" height="46.3"/>
			<rect x="213.9" y="123.2" fill="#7A97F3" width="2.3" height="46.3"/>
			<rect x="118.4" y="121.4" fill="#7A97F3" width="104.4" height="2.3"/>
			<rect x="125.6" y="123.7" fill="#35488B" width="2.3" height="1.8"/>
			<rect x="213.9" y="123.7" fill="#35488B" width="2.3" height="1.8"/>
			<g>
				<path fill="#BC719A" d="M220.2,117.1c0,0-0.3-0.4-0.9-0.9c-0.1-0.1-0.2-0.2-0.3-0.2c-1.1-0.8-2.8-1.6-4.9-0.8
					c-0.6,0.2-1,0.5-1.4,0.9c-0.1,0.1-0.2,0.2-0.3,0.3c-1.8,2-1.7,5.1-1.7,5.1l10.3-0.1C221.2,118.5,220.2,117.1,220.2,117.1z"/>
				<path fill="#8E5C7A" d="M218.2,121.4c0-0.4-0.2-4,1.1-5.2c-0.1-0.1-0.1-0.1-0.2-0.1c-1.3,1.4-1.4,4.9-1.4,5.4l-3.3,0
					c-0.1-2.5-1.5-5.1-1.6-5.3c-0.1,0.1-0.1,0.1-0.2,0.2c0.2,0.4,1.1,2.9,1.2,5.2l-3,0c0,0,2.8,0.7,4.8,0.7c2.1,0,5.5-0.8,5.5-0.8
					L218.2,121.4z"/>
			</g>
			<g>
				<path fill="#FFFFFF" d="M185.4,116.8l0,2.3l0,2.3l-30.2,0c0,0-0.1,0-0.1,0c0,0-0.1,0-0.1,0c-0.4-0.1-0.8-1-0.8-2.1
					c0-0.1,0-0.1,0-0.2c0-1.2,0.3-2.2,0.8-2.3c0,0,0.1,0,0.1,0c0,0,0.1,0,0.1,0L185.4,116.8z"/>
				<path fill="#BED4F4" d="M185.4,119.1l0,2.3l-30.2,0c0,0-0.1,0-0.1,0c0,0-0.1,0-0.1,0c-0.4-0.1-0.8-1-0.8-2.1
					c1.4,0.5,9.2,2.3,17.4,0C181.4,116.6,185,119.2,185.4,119.1z"/>
				
					<ellipse transform="matrix(-5.398053e-003 -1 1 -5.398053e-003 67.4109 305.2422)" fill="#AFCDFB" cx="185.5" cy="119.1" rx="2.3" ry="0.9"/>
			</g>
			<g>
				<g>
					<path fill="#AB678A" d="M149.4,86.3c0,0,7.4,7.6,7.7,10.5c0.4,2.9-3.5,7.4-3.5,7.4L149.4,86.3z"/>
					<path fill="#163560" d="M146.3,165.3c0,0-0.3,4.1-1,4.1c-0.1,0-4,0-4,0l-4.9,0c0,0,0-1.2,1.5-1.4c1.4-0.3,3.9-1.3,4.7-3.2
						C143.5,162.8,146.3,165.3,146.3,165.3z"/>
					<path fill="#163560" d="M157.3,165.3c0,0-0.3,4.1-1,4.1c-0.1,0-4,0-4,0l-5,0c0,0,0-1.2,1.5-1.5c1.4-0.3,3.9-1.3,4.7-3.2
						C154.5,162.8,157.3,165.3,157.3,165.3z"/>
					<path fill="#233862" d="M140.8,121.9c0,0,1.3,8.3,6.1,22.9c4.8,14.7,5.5,21,5.5,21s1.3,0.2,2.7,0.2c0.9,0,2.5-0.3,2.5-0.3
						s0-16-2.2-23.4c-2.2-7.4-0.5-26.6-0.5-26.6L140.8,121.9z"/>
					<path fill="#2B478B" d="M138.3,116.1c0,0-0.2,12.5,2,27.8c2.2,15.3,1.4,21.8,1.4,21.8s1.8,0.3,2.4,0.3c0.7,0,2.8-0.2,2.8-0.2
						s3.1-15.3,2.2-23c-0.9-7.7,4.2-26.3,4.2-26.3L138.3,116.1z"/>
					<path fill="#FCD0B1" d="M148.3,87l-2.4,1.8l-3.5-0.7c0-0.3,0.3-1.7,0.5-2.9c0-0.1,0-0.1,0-0.2c0.2-1,0.3-1.9,0.3-1.9l3.3-1.6
						l1.2-0.6c0,0-0.1,1.1-0.1,1.3C147.4,85,148.3,87,148.3,87z"/>
					<path fill="#AB678A" d="M142.6,86.1c0.1,0,4.8-1.4,5.3-1.3c0.5,0.2,0.8,1.2,0.8,1.2l-7.7,1.7C141,87.7,141.6,86.5,142.6,86.1z"
						/>
					<path fill="#BC719A" d="M155.3,117.7c-0.8,3.6-14.1,4.1-17.5,0.8c-0.4-0.4-0.4-2.1-0.3-4.5c0.3-4.6,1.2-11.6,1.2-15.1
						c0-1.7,0.3-3.5,0.6-5.1c0.7-3.4,1.7-6.1,1.7-6.1s6.5-2.1,7.7-1.7C154.5,87.7,156.1,114,155.3,117.7z"/>
					<path fill="#AB678A" d="M137.5,113.9c0.3-4.6,1.2-11.6,1.2-15.1c0-1.7,0.3-3.5,0.6-5.1l3.9-0.7
						C143.2,93.1,147,108.7,137.5,113.9z"/>
					<path fill="#FCD0B1" d="M139.6,107.5c0,0,0.3,0.6-0.3,1.1c-0.6,0.4-0.9,1.1-0.8,1.6c0.1,0.5,1.4,1.3,1.8,1.2
						c0.4-0.1,1.3-0.8,1.2-1.1c-0.1-0.3,0.6-2.3-0.5-3.1C140,106.4,139.6,107.5,139.6,107.5z"/>
					<path fill="#BC719A" d="M144,86.8c0,0-3.8,0.7-6.8,5.2c-3,4.5-5,7.8-4.5,9.4c0.6,1.6,5.7,7.2,6.5,7.2c0.9,0,2.3-0.6,2.4-2.1
						c0,0-3.6-5.4-2.9-6.2c0.3-0.3,4.7-3.9,5.3-2.3C145,100.7,144,86.8,144,86.8z"/>
					<path fill="#EAA16E" d="M147.4,82.2c-0.7,1.4-3.4,2.6-4.5,3c0-0.1,0-0.1,0-0.2c0.2-1,0.3-1.9,0.3-1.9l3.3-1.6
						C147.2,81.4,147.7,81.6,147.4,82.2z"/>
					<path fill="#FCD0B1" d="M142.2,83.4c0,0,5.8,0.7,6.2-3c0.4-3.6,1.4-6-2.3-6.6c-3.7-0.6-4.5,0.7-5,1.9
						C140.6,77,140.7,83.1,142.2,83.4z"/>
					<path fill="#233862" d="M141.2,75.4c0,0,1.1,3.9,1.9,3.6c0.8-0.3,1.5-0.6,1.6,0.6c0.1,1.2-0.8,2.8,1.8,2.6
						c2.6-0.3,5-7.5,4.1-8.6C147.9,70.4,137.4,71.6,141.2,75.4z"/>
				</g>
				<path fill="#BC719A" d="M150.8,77.8L138,75.2l1.4-0.4c0,0,1.3-5.4,7.8-4.1C152.6,71.8,150.8,77.8,150.8,77.8z"/>
			</g>
		</g>
		<path fill="#202F4E" d="M301.7,170.1H24c-0.3,0-0.5-0.2-0.5-0.5l0,0c0-0.3,0.2-0.5,0.5-0.5h277.8c0.3,0,0.5,0.2,0.5,0.5l0,0
			C302.2,169.9,302,170.1,301.7,170.1z"/>
	</g>
</g>
<g>
	<g>
		<g>
			<path fill="#BC719A" d="M285.8,124.1h-12.7c-0.7,0-1.3,0.6-1.3,1.3v9.5c0,0.7,0.6,1.3,1.3,1.3h12.7c0.7,0,1.3-0.6,1.3-1.3v-9.5
				C287.1,124.7,286.5,124.1,285.8,124.1z"/>
			<path fill="#8E5C7A" d="M289.9,124.1h-12.7c-0.7,0-1.3,0.6-1.3,1.3v9.5c0,0.7,0.6,1.3,1.3,1.3h12.7c0.7,0,1.3-0.6,1.3-1.3v-9.5
				C291.2,124.7,290.6,124.1,289.9,124.1z"/>
		</g>
		<path fill="#BC719A" d="M274.5,124.2c0,0,3-2.2,3.5-2.2c0.5,0.1,1.2,0.2,1.2,0.2l-2.7,2L274.5,124.2z"/>
	</g>
	<path fill="#2A4E96" d="M298.3,89c-1.2-0.9-4-1.7-5.5-1.8c-0.3,0-1.3,0-1.3,0c0,1-2.2,1.9-3.9,1.8c-1.5-0.1-2.5-1.2-2.5-1.8l0,0
		c-0.1,0-5.9,4-6.7,8.1c0,0.3-0.1,0.5-0.1,0.8c0,19.1-1.2,22.1-0.8,22c0,0,2.2,1.7,6.2,2.1c0.5,0.1,1.1,0.1,1.7,0.1
		c1.8,0,3.4-0.2,4.9-0.5c0.8-0.2,1.6-0.4,2.2-0.6c2.8-0.9,4.5-2.1,4.5-2.4c0-0.4,0.1-0.9,0-1.4c-0.2-2-0.3-3.8-0.3-5.6
		c3.1,0.3,4.8,0,4.8,0C304.1,104.2,300,90.2,298.3,89z M297.6,104.6c-0.2,0-0.4,0.1-0.6,0.1c-0.1,0-0.3,0.1-0.5,0.1
		c0-0.1,0-0.1,0-0.2c0-1-0.1-2-0.2-2.9c-0.1-0.8-0.1-1.5-0.2-2.2C297.2,102.3,298,104.5,297.6,104.6z"/>
	<path fill="#FCD0B1" d="M285.1,87c0,0-4.5,0.7-6.4,2.3c-1.9,1.6-2.1,11.9-2.8,14.8c-0.1,0.6-0.2,1.5-0.3,2.6
		c-0.3,3.9,0.1,9.4,0.4,11.4c0,0.5,0,1.2-0.3,1.9c-0.5,1.2-0.6,1.6,0.3,2.3c0.9,0.7,1.8,1.7,2.5,1.4c0.5-0.2,0.4-3.7,0.4-5.2
		c0.8-3.3,2-9.6,3.2-15.7C283.7,94.8,285.1,87,285.1,87z"/>
	<path fill="#2A4E96" d="M285.2,87c0,0-0.8,4.5-1.9,10.1c-0.3,1.8-0.7,3.7-1.1,5.7c-1.6,3-2.9,5.1-3.3,4.7c-0.8-0.8-2.3-0.9-3.3-0.9
		c0.1-1.1,0.2-2,0.3-2.6c0.1-0.2,0.1-0.5,0.1-0.8c0.5-3.6,0.9-12.5,2.7-14c0.9-0.8,2.5-1.3,3.8-1.7h0c0.7-0.2,1.3-0.3,1.8-0.4
		C284.9,87.1,285.2,87,285.2,87z"/>
	<path fill="#233862" d="M278.8,107.6c-0.8-0.8-2.3-0.9-3.2-0.9c0.1-1.1,0.2-2,0.3-2.6c0.1-0.2,0.1-0.5,0.1-0.8l4.6-11.2
		C280.7,92.1,279.2,108,278.8,107.6z"/>
	<path fill="#FCD0B1" d="M291.5,86.9c0-1.6,0-3.4-0.2-5l-6.2,1c0,0,0,1.9,0,4c0,0,0,0,0,0s-0.2,2,2.2,2.2
		C289.8,89.5,291.6,88.4,291.5,86.9z"/>
	<path fill="#233862" d="M286.3,169.7c0.8-0.5,0.3-4.1,0.3-4.1s-3.7-2.9-4.2-0.7c-0.5,2.2-3.5,3.3-5.2,3.5c-1.2,0.2-1.5,0.8-1.6,1.2
		L286.3,169.7z"/>
	<path fill="#233862" d="M297,104.7c0,0-1.2,1.6-1.4,1.6s-3.2-1.1-2.3-3.7c0.8-2.6,2.9-3.1,2.9-3.1c0.1,0.7,0.2,1.4,0.2,2.2
		c0.1,0.9,0.1,1.9,0.2,2.9c0,0.1,0,0.1,0,0.2C296.7,104.8,296.8,104.7,297,104.7L297,104.7z"/>
	<path fill="#233862" d="M297.6,169.7c0.8-0.5,0.3-4.1,0.3-4.1s-3.7-2.9-4.2-0.7c-0.5,2.2-3.5,3.3-5.2,3.5c-1.2,0.2-1.5,0.8-1.6,1.2
		L297.6,169.7z"/>
	<path fill="#233862" d="M292.1,80.1c0,0,4.2-6.6-3.8-7c0,0-3,0.4-3.7-0.3c0,0-2.3,3.5-0.2,7.3C286.6,83.9,292.1,80.1,292.1,80.1z"
		/>
	<path fill="#FCD0B1" d="M285.3,83.6c0.6,0.5,2.4,0.9,2.9,1c0,0,2.6-0.6,3.1-0.9c0.7-0.4,0.7-1.4,0.7-2.6c0-1.5,0.2-2.7,0-3.5
		c-0.2-1-0.9-1.6-2.7-1.8c-3.4-0.3-4.8,0.6-4.8,1.7c0,0.3,0,0.6,0,0.9C284.4,81.8,284.6,83.1,285.3,83.6z"/>
	<path fill="#233862" d="M284.5,79.4c0,2,0.6,3.2,1,3.4c0.5,0.2,1,0.3,1.6,0.4c0.2,0,0.4,0,0.4-0.1c0-0.3-0.4-0.7-0.1-1
		c0.3-0.3,2.1-0.4,2.3,0.3c0.1,0.3-0.5,0.9-0.1,0.9c0.1,0,0.2,0,0.4-0.1c0.7-0.2,1.2-0.5,1.4-0.6c0.7-0.4,0.7-1.1,0.9-2.4
		c0.1-0.8,0.1-0.4,0,0.8c-0.1,1.3,0.1,2.1-0.7,2.6c-0.5,0.3-3.2,1.5-3.2,1.5c0-0.6-2.2-1.2-2.9-1.6
		C284.7,83.1,284.4,82.1,284.5,79.4z"/>
	<path fill="#AB678A" d="M297,116.6c0,0.3-1.7,1.5-4.5,2.4c-0.2,0.1-0.5,0.1-0.7,0.2c0,0,0,0,0,0c-0.3,3.1-1,7.5-1.6,11.7
		c0,0,0,0,0,0c-0.2,1.1-0.3,2.2-0.5,3.2c-0.4,2.8-0.7,5.3-0.7,7.1v0c0,0.8,0.7,2.9,0.7,3.4c0,0.3,0.1,0.6,0.1,0.9
		c0.1,1.3,0,2.8-0.1,4.5c-0.5,7.2-2.4,16.3-3,16.7c-1.3,0.8-3.8,0-5-0.2c-0.5-0.1-0.9-0.5-0.9-1c0.6-11.9-1.1-28.5-2.4-38.6
		c0-0.3-0.1-0.5-0.1-0.8c-0.2-1.2-0.3-2.3-0.3-3.3c-0.1-0.9-0.1-1.7-0.1-2.4c0-0.2,0-0.4,0-0.6c0-0.6,0.5-4.8,0.5-23.9l0,0
		c0-0.4,0.4-0.8,0.8-0.8h11.7c1.1,0,2,0.9,2,2.1c0,1.5,0,3.5,0.4,5.4c0.4,2.7,1.4,5.1,3.3,5.7c0,0,0,0,0,0c0,0,0.1,0.1,0.1,0.3
		c0,0,0,0,0,0c0,0.5,0,1,0.1,1.5c0,0.1,0,0.2,0,0.3c0,0.1,0,0.1,0,0.2c0,0.1,0,0.2,0,0.3c0,0.2,0,0.3,0,0.5c0,0.1,0,0.3,0,0.4
		c0,0.3,0,0.5,0,0.8c0,0.1,0,0.2,0,0.3c0,0.3,0,0.7,0.1,1c0,0.1,0,0.2,0,0.3c0,0.1,0,0.1,0,0.2c0,0.1,0,0.3,0,0.4c0,0.1,0,0.3,0,0.4
		C297.1,115.8,297,116.2,297,116.6z"/>
	<path fill="#895672" d="M289.8,150.1c-0.5,7.2-2.4,16.3-3,16.7c-1.3,0.8-3.8,0-5-0.2c-0.5-0.1-0.9-0.5-0.9-1
		c0.6-11.9-1.1-28.5-2.4-38.6c0-0.3-0.1-0.5-0.1-0.8c-0.2-1.2-0.3-2.3-0.3-3.3c0.6-4,4.1-4.3,7.3,4.1
		C286.6,130.2,289.9,148.4,289.8,150.1z"/>
	<path fill="#AB678A" d="M297.2,140.9c0.1,0.8,1.1,2.8,1.2,3.3c1.6,6.4,0.7,21.7-0.1,22.3c-1.2,0.9-3.8,0.5-5,0.5
		c-0.5,0-1-0.4-1-0.9c-1-12.2-5.1-28.9-7.7-38.7c-1.3-5-1.5-8.6-1.5-8.6s12.3-7.5,13.6-3.4C297.8,119,296.4,134.6,297.2,140.9z"/>
	<g>
		<path fill="#BC719A" d="M292.7,72.1c0,0-0.3-0.5-0.9-1c-0.1-0.1-0.2-0.2-0.3-0.2c-1.1-0.8-2.9-1.7-5-0.8c-0.6,0.2-1.1,0.6-1.5,1
			c-0.1,0.1-0.2,0.2-0.3,0.3c-1.9,2.1-1.7,5.3-1.7,5.3l10.7-0.1C293.7,73.5,292.7,72.1,292.7,72.1z"/>
		<g>
			<g>
				<path fill="#8E5C7A" d="M290.7,76.5c0,0-0.3-4.1,1.1-5.4c-0.1-0.1-0.1-0.1-0.2-0.2c-1.4,1.5-1.5,5.4-1.5,5.6L290.7,76.5z"/>
				<path fill="#8E5C7A" d="M286.7,76.6c-0.1-2.6-1.5-5.2-1.7-5.5c-0.1,0.1-0.1,0.1-0.2,0.2c0.3,0.4,1.2,3,1.3,5.3l-3.1,0
					c0,0,2.9,0.7,5,0.7c2.1,0,5.7-0.8,5.7-0.8L286.7,76.6z"/>
			</g>
		</g>
	</g>
	<path fill="#AB678A" d="M293.3,87.2c0,0-3.6,4.2-3.8,7.9h1.8c0,0,0.5-4,3.2-7.6L293.3,87.2z"/>
	<path fill="#AB678A" d="M284.3,87.2c-2.6,3.9-2.9,7.9-2.9,7.9h-1.8c0.2-2.9,2-6,3-7.5h0C283.2,87.4,283.8,87.3,284.3,87.2z"/>
	<path fill="#FCD0B1" d="M297,104.7c-0.1,0-2,0.4-2.1,0.4c-3.1,0.5-7.3,0.7-7.8,0.7c0,0-1.5-1.4-2.1-1.4c-0.6,0-2.3,0.6-2.5,1.1
		c-0.2,0.5-0.2,1.3,0.2,1.5c0.5,0.2,2.5,0.7,3,0.7c0.1,0,0.2,0,0.3,0c3.7,1.1,7,1.6,9.5,1.9c0.2,0,1.5,0.2,2.6,0.2
		C298.1,107.6,297.4,105.6,297,104.7z"/>
</g>
<g>
	<path fill="#0C549E" d="M69,56.1c0.3,0.2,0.3,0.5,0.3,0.8c-0.1,0.8,0,1.6,0,2.3c0,0.7,0.1,1.3,0.2,2c0.6,0.1,1.2,0.1,1.8,0.2
		c0.7,0.1,1.3,0.1,2,0.2c0.2,0,0.3,0.1,0.2,0.3c0,0.1-0.1,0.2-0.1,0.3c-0.1,0.2-0.2,0.2-0.4,0.2c-0.5-0.1-1.1-0.2-1.7-0.1
		c0,0-0.1,0-0.1,0c0,0.1,0.1,0.1,0.1,0.2c-0.1,0.1-0.2,0.2-0.3,0.3c-0.3,0.3-0.7,0.5-1,0.8c-0.1,0.1-0.1,0.2-0.1,0.3
		c0.7,2.9,1.3,5.8,2,8.8c0,0.1,0,0.1,0,0.2c-0.2,0-0.5,0-0.7,0c-0.2,0-0.3,0-0.4-0.2c-0.1-0.2-0.2-0.3-0.3-0.4
		c-0.2-0.2-0.4-0.3-0.6-0.5c-0.7-0.7-1.5-1.4-2.2-2c-0.1-0.1-0.2-0.1-0.3,0c-0.1,0-0.1,0.1-0.2,0.1c-1,0.8-1.7,1.8-2.4,2.9
		c-0.1,0.1-0.2,0.3-0.3,0.5c0,0,0,0-0.1,0.1c-0.2,0.3-0.2,0.3-0.5,0.1c-0.1-0.1-0.2-0.2-0.3-0.2c-0.2-0.2-0.3-0.4-0.2-0.7
		c1-2.5,1.7-5.1,2.5-7.6c0-0.2,0-0.2-0.1-0.3c-0.7-0.5-1.3-1.1-1.9-1.6c-0.5-0.4-1.2-0.7-1.9-0.7c-0.2,0-0.4-0.1-0.6-0.2
		c0-0.1,0-0.2,0-0.4c0.2-0.3,0.5-0.3,0.8-0.3c0.2,0,0.4,0,0.7,0c1.3,0,2.7,0,4,0.1c0.2,0,0.3-0.1,0.3-0.3c0.3-0.8,0.5-1.7,0.7-2.6
		c0.1-0.6,0.3-1.1,0.4-1.7c0-0.2,0.1-0.4,0.2-0.5C68.7,56.1,68.9,56.1,69,56.1z M67.6,64.9c0.5-0.5,1-1,1.5-1.5
		c0.1-0.1,0.1-0.1,0.1-0.2c0-0.3,0-0.6-0.1-0.9c0-0.2-0.1-0.3-0.3-0.4c-0.3-0.1-0.5,0-0.8,0c-0.1,0-0.1,0-0.1,0.1
		c-0.3,0.7-0.5,1.4-0.8,2.1c0,0.1,0,0.1,0,0.2C67.2,64.5,67.4,64.7,67.6,64.9z M69,67.4c0-0.1,0-0.1-0.1-0.1c-0.3-0.4-0.7-0.7-1-1.1
		c-0.2-0.2-0.3-0.2-0.4,0c-0.3,0.4-0.7,0.9-1,1.3c-0.1,0.1-0.1,0.2,0,0.3c0.3,0.2,0.5,0.5,0.8,0.7c0.1,0.1,0.1,0.1,0.2,0
		c0.5-0.3,0.9-0.6,1.4-1C68.9,67.5,69,67.5,69,67.4z M70.7,71.4c0-0.3-0.1-0.5-0.1-0.8c-0.2-0.8-0.5-1.6-1-2.3
		c-0.1-0.1-0.2-0.2-0.3-0.1c-0.3,0.2-0.6,0.5-1,0.7c-0.1,0.1-0.2,0.2,0,0.3c0.8,0.7,1.5,1.4,2.3,2.1C70.6,71.3,70.6,71.4,70.7,71.4z
		 M64.1,61.9c0,0.2,0.2,0.2,0.2,0.2c0.6,0.5,1.2,1,1.9,1.5c0.1,0.1,0.1,0.1,0.2,0.1c0.2-0.6,0.4-1.2,0.6-1.8
		C66,61.9,65.1,61.9,64.1,61.9z M69.3,64.3c-0.1,0-0.1,0-0.1,0c-0.3,0.3-0.6,0.6-0.9,0.9c-0.1,0.1-0.1,0.2,0,0.3
		c0.4,0.4,0.7,0.8,1.1,1.2c0.2,0.2,0.4,0.4,0.6,0.6c0.1-0.1,0.1-0.1,0-0.2c-0.1-0.2-0.1-0.4-0.2-0.5c-0.2-0.7-0.4-1.3-0.5-2
		C69.4,64.5,69.4,64.4,69.3,64.3z M65.9,68.4c-0.3,0.8-0.7,1.6-0.9,2.6c0.2-0.1,0.3-0.2,0.4-0.3c0.5-0.5,0.9-1,1.4-1.5
		c0.1-0.1,0.1-0.2,0-0.2C66.5,68.7,66.3,68.6,65.9,68.4z M68.6,58.9C68.6,58.9,68.6,58.9,68.6,58.9c-0.3,0.8-0.5,1.5-0.7,2.3
		c0.3,0,0.6,0,0.9,0C68.8,60.4,68.7,59.6,68.6,58.9z M69.7,62c0,0.2,0,0.4,0,0.5c0,0.1,0,0.2,0.2,0.1c0.2-0.2,0.4-0.3,0.6-0.5
		c0.1-0.1,0.1-0.2-0.1-0.2C70.1,62,69.9,62,69.7,62z M66.7,65.1c-0.2,0.5-0.3,0.8-0.2,0.9c0,0,0,0,0,0c0.1-0.1,0.2-0.3,0.3-0.4
		C67.1,65.3,67.1,65.3,66.7,65.1z M66.5,65.7c-0.2,0.1-0.5,0.8-0.5,1C66.3,66.4,66.3,66,66.5,65.7z M66.5,65.4
		c0.1-0.1,0.2-0.3,0.1-0.5C66.5,65.1,66.5,65.2,66.5,65.4z M67.3,62.8c-0.1,0.2-0.2,0.4-0.2,0.6C67.2,63.2,67.3,63,67.3,62.8z
		 M67.1,63.5c-0.1,0.1-0.2,0.2-0.1,0.4C67,63.8,67.1,63.7,67.1,63.5z M67.4,62.6c0.1-0.1,0.2-0.2,0.1-0.4
		C67.5,62.3,67.4,62.4,67.4,62.6z"/>
	<path fill="#FFDD24" d="M64.5,73.1c0.1-0.2,0.2-0.3,0.3-0.5c0.1,0,0.2,0,0.2,0c1.5,0,2.9,0,4.4,0c0.5,0,1,0,1.4,0
		c0.1,0.2,0.2,0.2,0.4,0.2c0.2,0,0.5,0,0.7,0c0-0.1,0-0.1,0-0.2c12.1,0,24.2,0,36.3,0c0,0.2,0,0.3,0,0.4c-0.1,0-0.1,0-0.2,0
		c-14.5,0-28.9,0-43.4,0C64.6,73.1,64.5,73.1,64.5,73.1z"/>
	<path fill="#0C549E" d="M84.3,66.4c-0.1-0.5-0.2-0.6-0.7-0.5c-0.2,0-0.5,0.1-0.6,0.3c0.2,0.1,0.3,0.1,0.5,0.2
		c0,0.1-0.1,0.1-0.1,0.1c0,0,0,0.1,0,0.1c0.2,0.3,0.5,0.6,0.8,0.8c0.1,0.1,0.2,0.1,0.3,0c0.1-0.1,0.2-0.2,0.2-0.3c0-0.3,0-0.7,0-1
		c0-0.2,0-0.3,0.2-0.5c0,0.5,0,0.9,0,1.3c0,0.2,0,0.3,0.1,0.4c0.1,0.1,0.2,0.2,0.3,0.1c0.1,0,0.2-0.1,0.2-0.2c0-0.4,0-0.9,0-1.3
		c0-0.2,0.1-0.2,0.2-0.4c0.1,0.3,0.1,0.5,0.1,0.8c-0.1,0-0.1,0-0.1,0.1c0,0.3,0,0.5,0,0.8c0,0.1,0,0.2-0.1,0.4
		c-0.2,0.3-0.5,0.3-0.7,0c0,0-0.1-0.1-0.1-0.1c0,0,0,0,0,0c-0.3,0.4-0.5,0.4-0.9,0c-0.1-0.1-0.2-0.2-0.3-0.3c0,0.1-0.1,0.1-0.1,0.2
		c-0.1,0.5-0.5,0.6-0.9,0.3c-0.1,0-0.1-0.1-0.1-0.1c-0.1-0.1-0.2-0.2-0.4-0.1c-0.1,0.1-0.1,0.3,0,0.5c0.1,0.1,0.1,0.1,0.1,0.2
		c0,0.1-0.1,0.2-0.2,0.1c-0.2-0.1-0.4-0.3-0.5-0.5c-1.5,0.4-2.9,0.5-4.4,0.1c-0.2,0.4-0.6,0.7-1,0.8c-0.3,0.1-0.7,0.1-1-0.1
		c0.3,0,0.7-0.1,1-0.2c0.2-0.1,0.5-0.2,0.6-0.3c0.2-0.2,0.2-0.3,0-0.5c0-0.1-0.1-0.1-0.1-0.2c0.1-0.1,0.1-0.1,0.2-0.2
		c0.3,0.4,0.8,0.5,1.3,0.5c1,0.1,2,0.1,3-0.1c0,0,0.1,0,0.1,0c0.2,0,0.4-0.1,0.4-0.4c0,0,0,0,0-0.1c0-0.1,0.1-0.3,0.2-0.3
		c0.2,0,0.1,0.2,0.2,0.3c0,0.1,0,0.3-0.1,0.4c0,0-0.1,0.1-0.1,0.2c0,0,0,0,0.1,0c0.1,0,0.1-0.1,0.1-0.1c0-0.1,0.1-0.3,0.2-0.4
		c0.1-0.2,0.3-0.1,0.4,0c0.1,0.1,0.2,0.3,0.3,0.3c0.1,0.1,0.3,0.1,0.4,0c0.1-0.1,0.1-0.2,0-0.3c-0.1-0.2-0.2-0.4-0.4-0.5
		c-0.4-0.3-0.4-0.4,0.1-0.7c0.2-0.2,0.5-0.3,0.8-0.3c0.1,0,0.2,0,0.3,0C84.4,65.6,84.5,66,84.3,66.4z M81.6,67c0,0.1,0,0.2,0.1,0.3
		c0,0,0.1,0,0.1,0C81.8,67.1,81.7,67.1,81.6,67z"/>
	<path fill="#0C549E" d="M95.5,65.7c0,0.2,0.2,0.4,0.1,0.7c-0.1,0.2,0,0.5,0,0.7c0.1,0,0.2-0.1,0.3-0.2c0.4-0.3,0.8-0.4,1.1-0.2
		c0.2,0.1,0.2,0.3,0,0.4c-0.2,0.2-0.5,0.3-0.8,0.4c-0.3,0.1-0.7,0.1-1,0c-0.1,0-0.2,0-0.3,0c-1.7,0.5-3.5,0.6-5.2,0.2
		c-0.3-0.1-0.5-0.2-0.7-0.4c-0.2-0.2-0.3-0.2-0.6,0c0.1,0.1,0.1,0.1,0.2,0.1c0.1,0,0.2,0.1,0.3,0.2c0,0.1,0,0.2-0.1,0.3
		c-0.1,0.1-0.3,0.2-0.4,0.2c-0.3,0.1-0.7,0.1-1,0.1c-0.3,0-0.5-0.3-0.4-0.6c0.1-0.2,0.1-0.4,0.4-0.5c-0.1,0.1-0.2,0.2-0.2,0.4
		c-0.1,0.2,0,0.3,0.2,0.4c0.2,0.1,0.3,0.1,0.5,0.1c0.3,0,0.7-0.2,0.9-0.3c0-0.1-0.1-0.1-0.2-0.1c-0.3,0-0.4-0.3-0.1-0.5
		c0.1-0.1,0.1-0.1,0.2-0.2c0.2-0.2,0.4-0.2,0.5,0c0.4,0.4,0.9,0.5,1.4,0.6c1,0.1,2,0.2,3,0c0.5-0.1,1.1-0.1,1.6-0.4
		c0.2-0.1,0.3,0.1,0.5,0c0-0.5,0-1-0.1-1.4C95.3,65.8,95.4,65.7,95.5,65.7z M96.9,67.1c-0.5-0.3-1.1-0.1-1.2,0.3
		C96.1,67.4,96.5,67.2,96.9,67.1z"/>
	<path fill="#0C549E" d="M105,67.4C105,67.5,105,67.5,105,67.4c0.2,0.2,0.4,0.3,0.5,0.2c0.1-0.1,0.1-0.3,0-0.4
		c-0.1-0.1-0.1-0.2-0.2-0.2c-0.2-0.1-0.4-0.3-0.5-0.4c-0.2-0.1-0.2-0.3,0-0.5c0.3-0.3,1.2-0.5,1.7-0.4c0.2,0.1,0.2,0.3,0.1,0.6
		c-0.1-0.3-0.1-0.4-0.5-0.3c-0.6,0.1-0.8,0.1-1.1,0.3c0.1,0.2,0.3,0.1,0.5,0.1c-0.1,0.1-0.1,0.2,0,0.3c0.3,0.2,0.5,0.5,0.7,0.8
		c0.2,0.2,0.4,0.2,0.5,0.1c0.1-0.1,0.1-0.1,0.1-0.2c0-0.5,0-1-0.1-1.4c0-0.1,0-0.2,0.1-0.2c0.1,0.2,0.1,0.5,0.2,0.7
		c-0.1,0-0.1,0.1-0.1,0.2c0,0.3,0,0.6,0,0.9c0,0.2,0.1,0.2,0.3,0.3c-0.1,0.3-0.2,0.3-0.4,0.2c-0.1-0.1-0.2-0.1-0.3,0
		c-0.2,0.1-0.4,0.1-0.5-0.1c-0.1-0.1-0.3-0.3-0.4-0.4c-0.1,0.1,0,0.1,0,0.2c0,0.4-0.3,0.6-0.7,0.4c-0.1-0.1-0.2-0.1-0.3,0
		c-0.6,0.2-1.2,0.3-1.8-0.1c-0.1-0.1-0.1,0-0.2,0c-0.5,0.1-1,0.2-1.5,0.2c-0.2,0-0.4,0-0.5-0.1c-0.1-0.1-0.3-0.2-0.3-0.4
		c0-0.2,0.1-0.4,0.3-0.5c0,0.1-0.1,0.2-0.1,0.3c0,0.1,0,0.3,0.2,0.3c0.7,0.1,1.4,0.2,2.1-0.2C103.6,67.9,104.3,67.9,105,67.4z"/>
	<path fill="#0C549E" d="M81.5,70.3c0,0.4,0,0.9,0,1.3c-0.1,0-0.1,0-0.2,0c0-0.5,0-1.1,0-1.6c0.2,0,0.3,0,0.4,0.1
		c0.2,0.4,0.5,0.7,0.8,1.1c0-0.4,0-0.8,0-1.2c0.1,0,0.2,0,0.2,0c0,0.5,0,1.1,0,1.6c-0.2,0.1-0.3,0-0.4-0.1
		C82.1,71,81.8,70.7,81.5,70.3z"/>
	<path fill="#0C549E" d="M98.3,65.7c0.1,0.3,0.1,0.5,0.2,0.8c-0.1,0-0.1,0.1-0.1,0.2c0,0.2,0,0.4,0,0.7c0,0.2-0.1,0.4-0.3,0.4
		c-0.2,0.1-0.3,0.1-0.4,0.3c-0.5,0.4-1.1,0.5-1.7,0.4c-0.1,0-0.1,0-0.2,0c0-0.1,0.1-0.1,0.1-0.1c0.4,0,0.7,0,1.1-0.1
		c0.2-0.1,0.4-0.1,0.5-0.3c0,0,0,0-0.1,0c-0.1,0-0.3,0-0.3-0.2c0-0.2,0.1-0.3,0.2-0.3c0.1-0.1,0.3,0,0.4,0.1
		c0.1,0.1,0.1,0.2,0.2,0.1c0.1-0.1,0.1-0.2,0.1-0.3c0-0.4,0-0.7-0.1-1.1C98.1,65.9,98.1,65.9,98.3,65.7z"/>
	<path fill="#0C549E" d="M74.5,69.9c0.5,0,0.9,0.3,0.9,0.8c0,0.5-0.4,0.8-0.9,0.8c-0.5,0-0.8-0.3-0.8-0.8
		C73.6,70.3,74,69.9,74.5,69.9z M73.9,70.8c0,0.4,0.2,0.7,0.6,0.7c0.4,0,0.6-0.3,0.6-0.6c0-0.4-0.3-0.7-0.6-0.7
		C74.2,70.1,73.9,70.4,73.9,70.8z"/>
	<path fill="#0C549E" d="M92.9,71.6c-0.1,0-0.2,0.1-0.2-0.1c-0.4,0.2-0.7,0.2-0.9,0c-0.2-0.2-0.2-0.6,0-0.8c0.2-0.2,0.5-0.3,0.9-0.1
		c0-0.2,0-0.4,0-0.6c0.1,0,0.2,0,0.3,0C92.9,70.4,92.9,71,92.9,71.6z M92.7,71c0-0.3-0.1-0.4-0.4-0.4c-0.2,0-0.4,0.2-0.4,0.4
		c0,0.3,0.1,0.4,0.4,0.4C92.5,71.4,92.7,71.3,92.7,71z"/>
	<path fill="#0C549E" d="M96.8,71.4c0.1,0,0.3,0,0.4,0c0.1,0,0.3,0,0.4,0c0.1,0.1,0,0.1,0,0.2c-0.3,0-0.7,0-1,0c0-0.5,0-1.1,0-1.6
		c0.3,0,0.7,0,1,0c0,0,0,0.1,0,0.2c-0.2,0-0.5,0-0.8,0c0,0.2,0,0.3,0,0.5c0.2,0,0.5,0,0.7,0c0.1,0.1,0,0.1,0,0.2c-0.2,0-0.5,0-0.7,0
		C96.8,71,96.8,71.2,96.8,71.4z"/>
	<path fill="#0C549E" d="M86.6,71.6c-0.4,0-0.6-0.3-0.6-0.6c0-0.4,0.3-0.6,0.7-0.6c0.4,0,0.6,0.2,0.6,0.6
		C87.3,71.4,87,71.6,86.6,71.6z M86.2,71c0,0.3,0.2,0.5,0.4,0.5c0.2,0,0.4-0.2,0.4-0.4c0-0.3-0.2-0.4-0.4-0.5
		C86.4,70.6,86.2,70.7,86.2,71z"/>
	<path fill="#0C549E" d="M89.8,70.8c-0.1-0.3-0.2-0.3-0.5-0.2c-0.1,0-0.2,0.1-0.2-0.1c0.2-0.1,0.6-0.2,0.8-0.1
		c0.2,0.1,0.2,0.3,0.2,0.4c0,0.1,0,0.2,0,0.3c0,0.1,0,0.2,0,0.3c-0.1,0-0.2,0.1-0.2-0.1c-0.1,0.1-0.3,0.2-0.5,0.1
		c-0.2,0-0.3-0.1-0.4-0.3c0-0.2,0.1-0.3,0.2-0.4C89.5,70.8,89.6,70.8,89.8,70.8z M89.8,71c-0.1,0-0.3,0-0.4,0
		c-0.1,0-0.2,0.1-0.1,0.2c0,0.1,0.1,0.2,0.3,0.1C89.8,71.4,89.9,71.3,89.8,71z"/>
	<path fill="#0C549E" d="M83.1,70.5c0.1-0.1,0.3-0.1,0.4-0.1c0.4,0,0.6,0.2,0.6,0.5c0,0.2,0,0.4,0,0.6c-0.1,0-0.2,0.1-0.3-0.1
		c-0.2,0.1-0.3,0.2-0.5,0.1c-0.1,0-0.3-0.1-0.3-0.3c0-0.2,0.1-0.3,0.2-0.4c0.2-0.1,0.4-0.1,0.6-0.1c0-0.2-0.1-0.2-0.2-0.3
		c-0.1,0-0.2,0-0.4,0C83.1,70.6,83.1,70.6,83.1,70.5z M83.8,71c-0.1,0-0.3,0-0.4,0.1c-0.1,0-0.2,0.1-0.1,0.2c0,0.1,0.1,0.2,0.2,0.2
		C83.7,71.4,83.8,71.3,83.8,71z"/>
	<path fill="#0C549E" d="M94.4,71c-0.3,0-0.6,0-0.9,0c0,0.3,0.2,0.4,0.8,0.3c0.1,0.1,0.1,0.2-0.1,0.2c-0.2,0-0.4,0.1-0.6,0
		c-0.3-0.1-0.4-0.4-0.4-0.7c0.1-0.3,0.4-0.5,0.7-0.5C94.3,70.4,94.4,70.6,94.4,71C94.4,71,94.4,71,94.4,71z M94.2,70.9
		c0-0.2-0.1-0.3-0.3-0.3c-0.2,0-0.3,0.1-0.3,0.3C93.7,70.9,93.9,70.9,94.2,70.9z"/>
	<path fill="#0C549E" d="M80.4,71c-0.3,0-0.6,0-0.9,0c0,0.3,0.2,0.4,0.8,0.3c0.1,0.1,0.1,0.2-0.1,0.2c-0.2,0-0.4,0.1-0.6,0
		c-0.3-0.1-0.4-0.4-0.4-0.7c0.1-0.3,0.4-0.5,0.7-0.5C80.2,70.4,80.4,70.6,80.4,71C80.4,71,80.4,71,80.4,71z M79.4,70.9
		c0.2,0,0.5,0,0.7,0c0-0.2-0.1-0.3-0.3-0.3C79.6,70.5,79.5,70.6,79.4,70.9z"/>
	<path fill="#0C549E" d="M99.7,71c-0.3,0-0.6,0-0.9,0c0.1,0.3,0.3,0.4,0.8,0.3c0.1,0.1,0.1,0.2-0.1,0.2c-0.2,0-0.4,0.1-0.5,0
		c-0.3-0.1-0.4-0.2-0.5-0.5c0-0.3,0.1-0.5,0.3-0.7c0.2-0.1,0.6-0.1,0.7,0C99.6,70.6,99.7,70.8,99.7,71z M99.4,70.9
		c0-0.2-0.2-0.3-0.3-0.3c-0.2,0-0.3,0.1-0.3,0.3c0,0,0.1,0,0.1,0C99,70.9,99.2,70.9,99.4,70.9z"/>
	<path fill="#0C549E" d="M107.7,71c-0.3,0-0.6,0-0.9,0c0,0.4,0.2,0.4,0.8,0.3c0.1,0.1,0.1,0.2-0.1,0.2c-0.2,0-0.4,0.1-0.5,0
		c-0.3-0.1-0.4-0.2-0.5-0.5c0-0.3,0.1-0.5,0.3-0.7c0.2-0.1,0.5-0.1,0.7,0C107.7,70.6,107.8,70.8,107.7,71z M107.5,70.9
		c0-0.2-0.2-0.3-0.3-0.3c-0.2,0-0.3,0.1-0.3,0.3C107,70.9,107.2,70.9,107.5,70.9z"/>
	<path fill="#0C549E" d="M75.1,65.5c0.1,0.5,0.1,1,0.2,1.5c0.1,0.4,0.2,0.5,0.6,0.4c0-0.2,0-0.3-0.1-0.4c0-0.1,0.1-0.1,0.1-0.2
		c0.1,0.1,0.1,0.2,0.2,0.3c0.1,0.2,0.1,0.4-0.1,0.5c-0.1,0.1-0.4,0.1-0.6,0c-0.1,0-0.1-0.1-0.1-0.2c-0.1-0.6-0.2-1.1-0.4-1.7
		C74.9,65.7,75,65.6,75.1,65.5z"/>
	<path fill="#0C549E" d="M87.8,71.6c-0.1,0-0.2,0-0.2,0c0-0.4,0-0.8,0-1.1c0.1,0,0.2-0.1,0.2,0.1c0.2-0.1,0.4-0.2,0.6-0.1
		c0.2,0.1,0.3,0.2,0.3,0.4c0,0.3,0,0.5,0,0.8c-0.1,0-0.2,0-0.2,0c0-0.2,0-0.4,0-0.6c0-0.3-0.1-0.4-0.3-0.4c-0.2,0-0.4,0.1-0.4,0.4
		c0,0.1,0,0.2,0,0.3C87.8,71.3,87.8,71.4,87.8,71.6z"/>
	<path fill="#0C549E" d="M76.3,70.4c0,0,0,0.1,0,0.1c-0.1,0-0.2,0-0.3,0c0,0.3,0,0.6,0,1c-0.1,0-0.2,0-0.3,0c0-0.3,0-0.6,0-0.9
		c-0.1-0.1-0.3,0-0.2-0.2c0,0,0.1,0,0.2,0c0.1-0.5,0.3-0.6,0.7-0.5c0,0.1,0,0.1,0,0.1c-0.4,0-0.4,0.1-0.4,0.4
		C76.1,70.4,76.2,70.4,76.3,70.4z"/>
	<path fill="#0C549E" d="M104.7,70.4c0,0.1,0,0.1,0,0.2c-0.4-0.1-0.8-0.1-0.7,0.5c0,0.2,0.3,0.3,0.7,0.2c0.1,0.1,0.1,0.2-0.1,0.2
		c-0.2,0-0.4,0-0.5,0c-0.2-0.1-0.4-0.2-0.4-0.5c0-0.3,0.1-0.5,0.3-0.6C104.2,70.4,104.5,70.3,104.7,70.4z"/>
	<path fill="#0C549E" d="M100.9,71.4c0,0.1,0.1,0.1,0,0.2c-0.3,0.2-0.9,0-1-0.4c-0.1-0.4,0.1-0.8,0.6-0.8c0.1,0,0.2,0,0.3,0
		c0.1,0,0.2,0.1,0.1,0.2c-0.2,0-0.5-0.1-0.7,0.2c-0.1,0.1-0.1,0.3,0,0.5C100.4,71.5,100.6,71.4,100.9,71.4z"/>
	<path fill="#0C549E" d="M78.9,71.4c0.1,0.1,0.1,0.2-0.1,0.2c-0.2,0-0.4,0-0.5,0c-0.2-0.1-0.4-0.2-0.4-0.5c0-0.3,0-0.5,0.3-0.6
		c0.2-0.1,0.5-0.2,0.8-0.1c0,0.1,0,0.1,0,0.2c-0.4-0.1-0.8-0.1-0.7,0.5C78.3,71.4,78.5,71.5,78.9,71.4z"/>
	<path fill="#0C549E" d="M105.7,70.6c-0.1,0-0.3,0-0.2-0.2c0.1,0,0.1,0,0.2,0c0-0.2,0.1-0.3,0.2-0.2c0,0.1,0,0.2,0,0.2
		c0.3,0,0.3,0,0.3,0.2c-0.1,0-0.2,0-0.3,0c0,0.2,0,0.5,0,0.7c0,0.2,0.2,0.1,0.3,0.2c0.1,0.1,0,0.2-0.1,0.2c-0.3,0-0.5-0.1-0.5-0.4
		C105.7,71,105.7,70.8,105.7,70.6C105.7,70.6,105.7,70.6,105.7,70.6z"/>
	<path fill="#0C549E" d="M77.2,70c-0.3,0-0.4,0-0.4,0.4c0.1,0,0.2,0,0.3,0c0,0.1,0,0.1-0.3,0.2c0,0.2,0,0.3,0,0.5c0,0.2,0,0.3,0,0.5
		c-0.1,0-0.2,0-0.2,0c0-0.3,0-0.6,0-0.9c-0.1-0.1-0.1,0-0.2-0.1c-0.1-0.2,0.1-0.1,0.2-0.2c0-0.1,0-0.1,0-0.2
		c0.1-0.3,0.4-0.5,0.6-0.4C77.3,69.9,77.2,70,77.2,70z"/>
	<path fill="#0C549E" d="M84.5,70.6c-0.1-0.1-0.3,0-0.2-0.2c0.1,0,0.1,0,0.2,0c0-0.2,0.1-0.3,0.3-0.3c0,0.1,0,0.2,0,0.2
		c0.1,0.1,0.2,0,0.3,0c0,0.3-0.3,0.1-0.4,0.2c0,0.2,0,0.4,0,0.6c0,0.2,0,0.2,0.3,0.2c0,0.1,0,0.2-0.1,0.2c-0.3,0-0.4-0.1-0.4-0.4
		c0-0.1,0-0.2,0-0.3C84.5,70.8,84.5,70.7,84.5,70.6z"/>
	<path fill="#0C549E" d="M101.3,70.6c-0.1-0.1-0.3,0-0.2-0.2c0.1,0,0.1,0,0.2,0c0,0,0-0.1,0-0.2c0.1,0,0.1-0.1,0.2-0.1
		c0,0.1,0,0.2,0,0.3c0.1,0,0.2,0,0.3,0c0,0.1,0,0.1-0.3,0.2c0,0.2,0,0.4,0,0.6c0,0.2,0.2,0.2,0.3,0.2c0.1,0.1,0,0.2-0.1,0.2
		c-0.3,0-0.4-0.1-0.4-0.4C101.3,71,101.3,70.8,101.3,70.6z"/>
	<path fill="#0C549E" d="M107.7,67.9c0-0.3,0.1-0.5,0-0.8c0-0.4-0.1-0.7-0.1-1.1c0-0.2,0-0.3,0.2-0.4c0.1,0.3,0.1,0.5,0.2,0.7
		c-0.1,0-0.1,0-0.2,0C107.9,67,108,67.5,107.7,67.9z"/>
	<path fill="#0C549E" d="M95.3,69.9c0.1,0,0.2,0,0.2,0c0,0.6,0,1.1,0,1.7c-0.1,0-0.2,0-0.2,0C95.3,71,95.3,70.4,95.3,69.9z"/>
	<path fill="#0C549E" d="M90.7,71.6c-0.1,0-0.2,0-0.2,0c0-0.6,0-1.1,0-1.7c0.1,0,0.2,0,0.2,0C90.7,70.4,90.7,71,90.7,71.6z"/>
	<path fill="#0C549E" d="M98.9,68c0-0.4,0.1-0.8,0-1.1c0-0.3,0-0.5-0.1-0.7c0-0.2,0-0.2,0.1-0.3c0.1,0.2,0.1,0.5,0.2,0.7
		c0,0.1-0.1,0-0.1,0.1c0,0.4,0.1,0.9-0.1,1.3C99,67.9,99,68,98.9,68z"/>
	<path fill="#0C549E" d="M73.6,67.5c0.2-0.1,0.5-0.1,0.7-0.3c-0.1,0-0.2,0-0.2,0c-0.1,0-0.2,0-0.2-0.1c0-0.3,0.4-0.6,0.7-0.5
		c0,0.3,0,0.3-0.3,0.2c-0.1,0-0.2,0-0.2,0.2c0,0,0.1,0,0.1,0c0.1,0,0.2,0,0.3,0.1c0,0.1,0,0.2-0.1,0.3
		C74.1,67.5,73.9,67.5,73.6,67.5z"/>
	<path fill="#0C549E" d="M102.2,70.4c0.1,0,0.2,0,0.2,0.1c0.1-0.1,0.3-0.2,0.4-0.2c0,0.1,0,0.1,0,0.2c-0.4,0.1-0.4,0.2-0.4,0.6
		c0,0.1,0,0.3,0,0.4c-0.1,0-0.2,0-0.2,0C102.2,71.2,102.2,70.8,102.2,70.4z"/>
	<path fill="#0C549E" d="M98.1,71.6c-0.1,0-0.1,0-0.2,0c0-0.6,0-1.1,0-1.7c0.1-0.1,0.1,0,0.2,0C98.1,70.4,98.1,71,98.1,71.6z"/>
	<path fill="#0C549E" d="M85.4,70.4c0.1,0,0.2,0,0.2,0c0,0.4,0,0.8,0,1.1c-0.1,0-0.1,0-0.2,0C85.4,71.2,85.4,70.8,85.4,70.4z"/>
	<path fill="#0C549E" d="M103.1,71.6c0-0.4,0-0.8,0-1.1c0.1,0,0.2,0,0.2,0c0,0.4,0,0.8,0,1.1C103.3,71.6,103.2,71.6,103.1,71.6z"/>
	<path fill="#0C549E" d="M105,70.4c0.1,0,0.2,0,0.2,0c0,0.4,0,0.8,0,1.1c-0.1,0-0.2,0-0.2,0C105,71.2,105,70.8,105,70.4z"/>
	<path fill="#0C549E" d="M77.4,70.4c0.1,0,0.1,0,0.2,0c0,0.4,0,0.8,0,1.1c-0.1,0-0.1,0-0.2,0C77.4,71.2,77.4,70.8,77.4,70.4z"/>
	<path fill="#0C549E" d="M104.3,66.8c0.1,0.1,0.3,0.2,0.4,0c0.1,0.1,0.1,0.2,0.2,0.2c-0.1,0.1-0.1,0.2-0.2,0.2
		c-0.1-0.1-0.1-0.1-0.2-0.1c-0.1,0.1-0.1,0.1-0.2,0.2c-0.1-0.1-0.2-0.1-0.3-0.2C104.1,67,104.2,66.9,104.3,66.8z"/>
	<path fill="#0C549E" d="M88.9,68.4c0.1,0,0.1-0.1,0.2-0.1c0.1,0,0.1,0.1,0.2,0.2c-0.1,0.1-0.1,0.2-0.2,0.2c-0.1,0-0.1-0.1-0.2-0.1
		c-0.1,0.1-0.3,0.1-0.4-0.1c0.1-0.1,0.1-0.1,0.2-0.2C88.7,68.3,88.8,68.4,88.9,68.4z"/>
	<path fill="#0C549E" d="M95.9,69.9c0.1,0,0.2,0,0.2,0c0,0.2,0,0.4,0,0.6c-0.1,0-0.1,0-0.2,0C96,70.3,95.9,70.1,95.9,69.9z"/>
	<path fill="#0C549E" d="M102.2,68.4c-0.1,0.1-0.1,0.1-0.2,0.2c-0.1-0.1-0.2-0.1-0.2-0.2c0-0.1,0.1-0.1,0.2-0.2
		C102,68.2,102.1,68.3,102.2,68.4z"/>
	<path fill="#0C549E" d="M94.7,66.3c0.1,0.1,0.1,0.1,0.2,0.2c0,0.1-0.1,0.2-0.2,0.2c-0.1-0.1-0.2-0.1-0.3-0.2
		C94.6,66.5,94.6,66.4,94.7,66.3z"/>
	<path fill="#0C549E" d="M107.6,70c-0.2,0.1-0.2,0.3-0.5,0.3C107.2,70,107.3,69.9,107.6,70z"/>
	<path fill="#0C549E" d="M75.9,67.9c-0.1,0.1-0.1,0.2-0.2,0.2c-0.1-0.1-0.2-0.1-0.2-0.2c0-0.1,0.1-0.1,0.2-0.2
		C75.8,67.8,75.8,67.9,75.9,67.9z"/>
	<path fill="#0C549E" d="M85.7,70c0,0.1-0.1,0.1-0.1,0.2c-0.1,0-0.2,0-0.2-0.1c0-0.1,0.1-0.1,0.2-0.1C85.6,69.9,85.7,70,85.7,70z"/>
	<path fill="#0C549E" d="M103.4,70.1c0,0.1-0.1,0.1-0.2,0.1c-0.1,0-0.2,0-0.2-0.2c0-0.1,0.1-0.1,0.2-0.1
		C103.3,69.9,103.4,70,103.4,70.1z"/>
	<path fill="#0C549E" d="M105.2,69.9c0.1,0,0.2,0,0.2,0.1c0,0.1-0.1,0.1-0.1,0.1c-0.1,0-0.2,0-0.2-0.1C105,70,105.1,69.9,105.2,69.9
		z"/>
	<path fill="#0C549E" d="M77.5,70.2c-0.1,0-0.2,0-0.2-0.1c0-0.1,0.1-0.1,0.2-0.1c0.1,0,0.1,0,0.1,0.1C77.6,70.2,77.6,70.2,77.5,70.2
		z"/>
</g>
</svg>
