<?xml version="1.0" encoding="utf-8"?>
<!-- Generator: Adobe Illustrator 18.1.1, SVG Export Plug-In . SVG Version: 6.00 Build 0)  -->
<svg version="1.1" id="_x2018_лой_x5F_1" xmlns="http://www.w3.org/2000/svg" xmlns:xlink="http://www.w3.org/1999/xlink"
	 x="0px" y="0px" viewBox="144.2 310.5 323.6 171" enable-background="new 144.2 310.5 323.6 171" xml:space="preserve">
<rect x="-4453.6" y="-1268.3" display="none" fill="#F8FCFF" width="6051.9" height="3782.4"/>
<path fill="#CCE2FF" d="M425.2,475.8c-21.1-0.6-92.8,0.4-114.6,0.8c-21.8,0.4-47.1-0.5-60.3-1.9c-13.1-1.4-89.1,0.1-85.7,3.8
	c3.4,3.7,33.9,1.7,68.3,3.2c34.5,1.5,112-0.2,129.5,0c17.5,0.2,33.5-0.4,56.1-1.1C441.2,479.8,437.4,476.2,425.2,475.8z"/>
<g>
	<path opacity="0.5" fill="#9EC8FF" d="M366.2,391.2c0-0.2,0-0.4,0-0.6c0-0.1,0-0.2,0-0.3l-1-0.3c-0.1-0.4-0.2-0.9-0.4-1.3l0.7-0.9
		c-0.2-0.3-0.3-0.6-0.6-0.8l-1,0.3c-0.3-0.3-0.7-0.6-1-0.8l0.1-1.1c-0.3-0.1-0.6-0.2-0.9-0.3l-0.6,0.9c-0.3,0-0.5-0.1-0.8-0.1
		c-0.2,0-0.4,0-0.5,0l-0.6-0.9c-0.3,0.1-0.6,0.2-0.9,0.3l0,1.1c-0.4,0.2-0.8,0.4-1.1,0.7l-1-0.4c-0.2,0.2-0.4,0.5-0.6,0.8l0.7,0.9
		c-0.2,0.4-0.4,0.8-0.4,1.2l-1.1,0.3c0,0.2,0,0.4,0,0.6c0,0.1,0,0.2,0,0.3l1,0.3c0.1,0.4,0.2,0.9,0.4,1.3l-0.7,0.9
		c0.2,0.3,0.3,0.6,0.6,0.8l1-0.3c0.3,0.3,0.7,0.6,1,0.8l-0.1,1.1c0.3,0.1,0.6,0.2,0.9,0.3l0.6-0.9c0.3,0,0.5,0.1,0.8,0.1
		c0.2,0,0.4,0,0.5,0l0.6,0.9c0.3-0.1,0.6-0.2,0.9-0.3l0-1.1c0.4-0.2,0.8-0.4,1.1-0.7l1,0.4c0.2-0.2,0.4-0.5,0.6-0.8l-0.7-0.9
		c0.2-0.4,0.4-0.8,0.4-1.2L366.2,391.2z M360.5,392.7c-1.2,0-2.2-1-2.2-2.2c0-1.2,1-2.2,2.2-2.2s2.2,1,2.2,2.2
		C362.8,391.7,361.8,392.7,360.5,392.7z"/>
	<g>
		<path fill="#FFFFFF" d="M363.6,393.1C363.5,393.1,363.5,393.1,363.6,393.1c-0.1-0.1-0.1-0.1-0.1-0.2c0.6-0.7,0.9-1.5,0.9-2.4
			c0-0.4-0.1-0.8-0.2-1.2c0-0.1,0-0.1,0.1-0.1c0.1,0,0.1,0,0.1,0.1c0.1,0.4,0.2,0.8,0.2,1.3C364.6,391.4,364.2,392.3,363.6,393.1
			C363.6,393.1,363.6,393.1,363.6,393.1z"/>
	</g>
	<g>
		<path fill="#FFFFFF" d="M363.2,387.8C363.2,387.8,363.2,387.8,363.2,387.8c-0.5-0.4-0.9-0.6-1.4-0.8c-0.1,0-0.1-0.1-0.1-0.1
			c0-0.1,0.1-0.1,0.1-0.1c0.5,0.2,1,0.5,1.4,0.8C363.4,387.7,363.4,387.8,363.2,387.8C363.3,387.8,363.3,387.8,363.2,387.8z"/>
	</g>
	<g>
		<path fill="#FFFFFF" d="M359.7,386.9c-0.1,0-0.1,0-0.1-0.1c0-0.1,0-0.1,0.1-0.1c0.3-0.1,0.6-0.1,1-0.1c0.1,0,0.1,0.1,0.1,0.1
			c0,0.1-0.1,0.1-0.1,0.1C360.3,386.8,360,386.8,359.7,386.9C359.7,386.9,359.7,386.9,359.7,386.9z"/>
	</g>
</g>
<rect x="240.9" y="344.3" opacity="0.5" fill="#9EC8FF" width="103.3" height="62"/>
<rect x="246" y="345.8" fill="#FFFFFF" width="97.2" height="56.9"/>
<g>
	<g>
		<path fill="#FEFEFE" d="M315.6,373.2c0,7.8,0,15.6,0,23.4c0,0.7-0.2,0.9-0.9,0.9c-15.6,0-31.2,0-46.7,0c-0.7,0-0.9-0.2-0.9-0.9
			c0-15.6,0-31.2,0-46.7c0-0.7,0.2-0.9,0.9-0.9c15.6,0,31.2,0,46.7,0c0.7,0,0.9,0.2,0.9,0.9C315.6,357.6,315.6,365.4,315.6,373.2z"
			/>
		<path fill="#1C3B72" d="M303.8,373.9c-0.5,0.8-0.4,1.9-1.2,2.5c-0.7,0-1.4,0-2.1,0c-0.5,0-0.9-0.1-1.1-0.6c1.3-2.8,2.6-5.7,4-8.5
			c0.6,0,1.3,0,1.9,0c1.9,0,2,0.1,2.7,1.8c0.2,0.4,0.2,0.8,0.7,1c1.2,1.8,1.9,3.9,2.8,5.8c0.2,0.5,0.1,0.7-0.4,0.7
			c-1-0.1-2,0.2-3-0.2c0.8-0.3,1.7,0,2.4-0.1c-0.8-0.1-1.6,0.1-2.5-0.1c-0.3-1-1-1.2-2-1.2c-0.6,0-1.5,0.6-1.9-0.4
			c0.2-0.9,0.2-1.8,1.5-1.9c0.4,0,0.5-0.4,0.4-0.7c-0.1-0.4-0.3-0.8-0.5-1.3C304.7,371.7,304.7,373.1,303.8,373.9z"/>
		<path fill="#1C3B72" d="M292.4,373.5c0.9,1.4,1.6,1.5,3.3,0.9c0.3-0.2,0.7-0.3,0.3-0.8c-0.6-0.9-1.7-0.8-2.6-1.2
			c0.3-0.2,0.6-0.1,1.2-0.2c-0.6,0-0.9-0.1-1.2,0.2c-1.1-0.1-2.1-0.2-2.8-1.2c-0.9-0.9-1.1-1.8-0.3-2.9c0.1-0.2,0.1-0.4,0.2-0.5
			c1.7-1.4,6.3-1.2,7.8,0.5c0.3,0.3,0.6,0.7,0.5,1.1c-0.1,0.6-0.7,0.4-1.1,0.4c-1,0-2.2,0.6-2.8-0.8c-0.6-0.2-1.3-0.1-1.9,0
			c-0.7,0.4-0.4,0.8,0.2,0.9c0.7,0.2,1.5,0.3,2.3,0.5c0.7,0.2,1.5,0.3,2.2,0.6c0.9,0.5,1.8,1.2,1.6,2.5c-0.2,1.4-1.2,2.1-2.4,2.5
			c-1.1,0-2.2,0.3-3.3,0.3c-0.1,0-0.3-0.1-0.4-0.1c-0.5-0.2-1.1-0.1-1.6-0.1c-0.1,0-0.1,0-0.2,0c-1-0.2-1.6-0.8-2-1.7
			c0.1-0.7,0.5-0.9,1.2-0.9C291.2,373.6,291.9,373.7,292.4,373.5z"/>
		<path fill="#1D3B72" d="M273.1,376.2c-1.2-0.1-1.7-1.1-2.2-1.9c-0.5-0.9-0.1-1.5,1.1-1.2c0.6,0.3,1.3,0.1,2,0.1
			c0.5,0.5,0.5,1.7,1.5,1.4c0.9-0.3,0.9-1.3,0.9-2.1c0-1.5,0-3,0-4.5c0-0.7,0.2-0.9,0.9-0.9c2.7-0.1,2.7-0.2,2.7,2.5
			c0,1.3,0,2.5-0.1,3.8c-0.1,1.4-0.8,2.4-2.2,2.9c-0.4-0.3-1,0-1.4-0.2c0.4,0.2,0.9-0.1,1.2,0.3C276,376.8,274.5,376.7,273.1,376.2
			c0.5-0.3,1-0.1,1.5-0.2C274.1,376.1,273.6,375.9,273.1,376.2z"/>
		<path fill="#1C3B72" d="M284.8,374.5c0.7,0,1.4,0.1,2.1,0.1c1.7,0,1.8,0.2,1.2,2c-1.7-0.1-3.3,0-5,0c-0.5,0-1.1,0.1-1.4-0.4
			c-0.2-2.7-0.1-5.4-0.1-8.1c0-0.1,0.1-0.2,0.1-0.2c2-0.5,4-0.4,6-0.1c0.1,0,0.1,0.2,0.2,0.4c-0.3,0.8-1,0.6-1.5,0.7
			c-0.6,0.1-1.2-0.1-1.7,0.5l0-0.1c-0.3,0.6-0.4,1.1,0.1,1.7c0.8,0,1.5,0,2.3,0c1.5,0,1.6,0.2,1,1.7c-0.1-1.6-1.4-1.3-2.4-1.3
			c-0.2,0,0.1,0.3,0,0.1c0,0,0-0.1,0.1-0.1c0.7,0.2,1.9-0.5,1.9,0.6c0,0.7-1.2,0.3-1.8,0.4c-0.4,0.1-0.9-0.1-1.1,0.4l0-0.1
			C284.5,373.2,284.4,373.8,284.8,374.5z"/>
		<path fill="#13326C" d="M287.8,368.3c-0.1-0.2-0.2-0.4-0.3-0.5c-1.9-0.1-3.8-0.4-5.7,0.2c-0.3,2.7-0.1,5.4-0.1,8.1
			c0,0.2,0,0.3-0.2,0.5c-0.5-0.2-0.3-0.6-0.3-1c0-2.4,0-4.9,0-7.3c0-1,0.3-1.2,1.2-1.2c1.5,0.1,3,0,4.5,0c1.6,0,1.7,0.1,1.1,1.8
			C287.9,368.7,287.8,368.5,287.8,368.3z"/>
		<path fill="#EAEDF2" d="M303.8,373.9c0.5-1.4,1-2.7,1.5-4.2c0.6,0.6,0.6,1.3,0.9,1.9c0.5,0.9,0.5,1.5-0.8,1.3
			c-1.1-0.1-0.7,1.1-1.3,1.6C304,374.4,303.9,374.2,303.8,373.9z"/>
		<path fill="#1A3970" d="M308.7,370.2c-0.1,0-0.4-0.1-0.4-0.1c-0.7-2-2.2-2.7-4.3-2.4c-0.2,0-0.4-0.2-0.6-0.3
			c1.3-0.7,2.6-0.3,3.9-0.2c0.4,0,0.5,0.7,0.7,1.1C308.2,368.9,308.4,369.6,308.7,370.2z"/>
		<path fill="#082964" d="M281.6,376.5c0-0.1,0-0.2,0-0.3c0.1-0.1,0.2-0.1,0.3,0c1.9,0,3.8,0,5.7-0.1c0.4,0,0.5,0.1,0.6,0.4
			C286,376.7,283.8,376.7,281.6,376.5z"/>
		<path fill="#B9C2D2" d="M279.2,377.9c0.2-0.3,0.5-0.3,0.7-0.3c0.1,0.1,0.1,0.2,0.1,0.4c0,0.1,0,0.2-0.1,0.4
			c-0.5,0.5,0.2,1.1-0.1,1.5c-0.2,0.1-0.4,0.1-0.6,0.2c-0.4-0.4-1.1-0.1-1.5-0.4c-0.2-0.2-0.4-0.5-0.4-0.8c0-0.7,0.3-1,0.9-1.2
			C278.6,377.6,278.9,377.7,279.2,377.9z"/>
		<path fill="#17366F" d="M284.8,372.6c0-0.8,0.5-0.6,1-0.6c0.6,0,1.2,0,2,0c-0.9-1-1.9-0.3-2.7-0.7c2.5-0.5,3-0.3,3.1,1.3
			C287,372.7,285.9,372.6,284.8,372.6z"/>
		<path fill="#0A3167" d="M287.8,368.3c0.2,0.1,0.3,0.4,0.3,0.6c-1.1,0.4-2.3-0.1-3.4,0.3c0-0.7,0.4-0.9,1-0.9
			C286.4,368.3,287.1,368.3,287.8,368.3z"/>
		<path fill="#0A2A65" d="M299.4,375.9c1,0.7,2.2-0.1,3.2,0.6c-1,0.3-1.9,0.1-2.9,0.1C299,376.7,299,376.3,299.4,375.9z"/>
		<path fill="#0E3269" d="M275.4,377.6c0.7,0.5,0.8,1.3,1.1,2c-0.2,0.2-0.4,0.3-0.7,0.2c-0.7-0.1-0.6-1-1.3-1.2
			c-0.2-0.1-0.3-0.3-0.3-0.4c0.1-0.2,0.1-0.5,0.4-0.5C274.8,377.6,275.1,377.6,275.4,377.6z"/>
		<path fill="#93A3BC" d="M282.8,378.2c0.6-1,1.7-1.2,3.1-0.5c-0.5,0.5-1.2,0.3-1.8,0.4c-0.6,0.5-0.2,1.2-0.5,1.8
			c-0.1,0.1-0.2,0.2-0.2,0.3c-0.2-0.2-0.4-0.4-0.6-0.6C282.4,379.1,282.3,378.6,282.8,378.2z"/>
		<path fill="#13356D" d="M290.4,368.5c-0.2,1-0.1,2,0.3,2.9c-1,0.1-1-0.7-1.1-1.3C289.5,369.4,289.5,368.7,290.4,368.5z"/>
		<path fill="#CCCCCC" d="M303.7,379.9c-1.3,1.1-1.2-0.5-1.7-0.9l0-0.1c0.6-0.3,1.1-0.9,1.8-0.1
			C303.4,379.1,303.4,379.5,303.7,379.9z"/>
		<path fill="#082A65" d="M293.2,376.2c1.2,0.1,2.5-0.4,3.7,0c-1.2,0.5-2.5,0.6-3.7,0.3C293.2,376.4,293.1,376.4,293.2,376.2
			C293.2,376.2,293.2,376.2,293.2,376.2z"/>
		<path fill="#16376C" d="M289,379.8c-0.3,0.2-0.6,0-0.9-0.2c-0.5-0.3-1-0.5-1.4-0.8c-0.1-0.1-0.1-0.2-0.1-0.4
			c0.1-0.3,0.4-0.5,0.7-0.6c0.1,0,0.3,0,0.4,0.1c0.4,0.4,0.9,0.5,1.3,0.8l-0.1,0.1C289.2,379.1,289.3,379.5,289,379.8z"/>
		<path fill="#7B8DAA" d="M274.6,378.5c1.4-0.6,0.5,1,1,1.1c0.1,0.1,0.1,0.1,0.1,0.2c0,0.1-0.1,0.1-0.1,0.1c-0.5,0-1-0.1-1.4,0.2
			c-0.1-0.1-0.2-0.2-0.2-0.4C274,379.2,274.1,378.8,274.6,378.5z"/>
		<path fill="#092561" d="M280,377.9c0-0.1,0-0.2,0-0.2c0.9-0.3,1.8-0.5,2.5,0.3c0.3,0.6,0.2,1.1,0.1,1.7l-0.1,0l0.1,0
			c-0.5,0.1-0.6-0.4-0.7-0.7c-0.1-0.3-0.2-0.6-0.6-0.7c-0.2,0-0.4-0.1-0.6-0.1C280.4,378.2,280.2,378.1,280,377.9z"/>
		<path fill="#10336A" d="M292.4,373.5c-0.3,0.6-0.9,0.4-1.4,0.4c-0.7-0.1-1.2,0.2-1.6,0.6c-0.3-0.2-0.3-0.6-0.2-0.9
			c0.6-0.4,1.4,0.1,2-0.3C291.7,373.3,292.1,373.1,292.4,373.5z"/>
		<path fill="#1A3970" d="M281.3,377.9c1.3-0.1,0.6,1.3,1.2,1.7c-0.3,0.5-0.7,0.6-1.2,0.5c-0.2-0.2-0.5-0.1-0.6-0.4
			c0-0.1,0-0.2,0.1-0.3C281.6,379.1,281.3,378.5,281.3,377.9z"/>
		<path fill="#A5A5A5" d="M291.3,379.9c-0.5,0.4-0.7,0-0.7-0.4c0-0.5,0-1.1,0-1.6c0.4-0.4,0.6,0,0.8,0.3c0.1,0.3,0.2,0.7,0.2,1
			C291.7,379.6,291.6,379.8,291.3,379.9z"/>
		<path fill="#012561" d="M280.7,379.7c0.2,0.2,0.4,0.3,0.6,0.5c-0.5,0.1-1,0-1.5-0.3c-0.2-0.6-0.9-1.2,0-1.7
			C280.6,378.5,280.4,379.2,280.7,379.7z"/>
		<path fill="#B9B9B9" d="M309.7,379.3c0-0.6,0-1.2,0.6-1.3c0.5-0.1,0.6,0.4,0.7,0.8C310.7,379.4,310.3,379.5,309.7,379.3z"/>
		<path fill="#0E3268" d="M277.6,379c0.1,0.2,0.2,0.4,0.3,0.6c0,0.6-0.3,0.4-0.7,0.3c-0.6-0.5-1.1-0.9-0.4-1.7
			C277.6,378.1,277.4,378.7,277.6,379z"/>
		<path fill="#BCBCBC" d="M305.4,379.6c0.4,0.1,0.8,0.3,0.8,0.8c0,0.3-0.3,0.5-0.6,0.4c-0.4,0-0.8-0.2-0.6-0.7
			C305,379.9,304.8,379.5,305.4,379.6z"/>
		<path fill="#D2D2D2" d="M295.5,378.7c0.2-0.2,0.3-0.6,0.5-0.6c0.3,0,0.4,0.4,0.3,0.6c-0.1,0.5,0.5,1.3-0.6,1.4
			C295.4,379.7,295.4,379.2,295.5,378.7z"/>
		<path fill="#ABB7C8" d="M289,378.7c-0.7,0.1-1.3,0.1-1.5-0.8c0.4-0.4,0.8-0.5,1.1,0c0.1-0.1,0.2-0.1,0.2-0.2
			c0.2,0.1,0.3,0.2,0.3,0.4C289.2,378.3,289.1,378.5,289,378.7z"/>
		<path fill="#C9C9C9" d="M298.3,379.9c-1.2,0.5-0.7-0.4-0.8-0.9c0.1-0.2,0.1-0.3,0.2-0.5c0.3,0.1,0.6,0.2,0.9,0.3
			c0.1,0.2,0.1,0.3,0,0.5c0,0.1-0.1,0.2-0.1,0.3C298.5,379.7,298.4,379.8,298.3,379.9z"/>
		<path fill="#082965" d="M307.9,376.2c0.9-0.1,1.9,0.3,2.8-0.3c0.3-0.2,0.3,0,0.4,0.2c0.1,0.3-0.1,0.3-0.3,0.3c-0.9,0-1.9,0-2.8,0
			C308,376.4,308,376.3,307.9,376.2z"/>
		<path fill="#E9EAEA" d="M291.3,378.5c0-0.4-0.2-0.6-0.6-0.5c0.7-0.4,1.5-0.8,1.7,0.5C292,378.8,291.6,378.7,291.3,378.5z"/>
		<path fill="#FCFCFC" d="M291.3,378.5c0.4,0,0.7,0,1.1,0c0.1,0.1,0.2,0.2,0.3,0.2c0,0.3,0,0.7-0.3,1c-0.4,0.2-0.7,0-0.8-0.4
			C291.4,379,291.2,378.8,291.3,378.5z"/>
		<path fill="#C6CDDA" d="M286.8,378.7c0.4,0.4,1.4,0,1.3,1c0.1,0.1,0,0.2-0.1,0.2c-0.6,0-1.1-0.2-1.5-0.5c-0.1-0.1-0.2-0.2-0.2-0.3
			c0-0.1,0.1-0.3,0.1-0.4C286.5,378.6,286.7,378.6,286.8,378.7z"/>
		<path fill="#25477A" d="M283.3,380.2c0-0.1,0-0.2,0-0.3c0.2-0.2,0.4-0.3,0.6-0.4c0.1,0,0.2-0.1,0.3-0.1c0.2-0.1,0.5-0.1,0.7,0
			c0.1,0,0.2,0,0.3,0.1c0.2,0.1,0.4,0.3,0.5,0.4C285.1,380.6,284.2,380.1,283.3,380.2z"/>
		<path fill="#C6C6C6" d="M301.2,379.9c-0.4,0.6-0.8,0.6-1.2,0c-0.1-0.1-0.1-0.2-0.2-0.3c0-0.1,0.1-0.2,0.1-0.3l0,0
			c0.1-0.1,0.2-0.2,0.3-0.2c0.2,0,0.4,0,0.6,0.1C301.2,379.4,301.3,379.6,301.2,379.9z"/>
		<path fill="#A1A1A1" d="M309.7,379.3c0.4-0.2,0.9-0.4,1.3-0.5c0.1,0.3,0.2,0.6,0.4,1.1C310.7,379.6,310.1,379.8,309.7,379.3z"/>
		<path fill="#BBBBBB" d="M295.5,380.4c-0.3,0.4-0.6,0.5-1.1,0.3c-0.6-0.3,0-0.7-0.1-1.1c0,0,0.1-0.1,0.1-0.1c0.1,0,0.1,0,0.2,0
			c0.1,0,0.1,0.1,0.2,0.1C295.1,379.8,295.3,380.1,295.5,380.4z"/>
		<path fill="#254475" d="M277.3,379.9c0.3,0,0.5-0.1,0.7-0.3c0.4,0.3,1.2-0.5,1.4,0.5C278.6,380.3,277.9,380.4,277.3,379.9z"/>
		<path fill="#0F2963" d="M286.4,379.3c0.6,0,1.1,0.1,1.5,0.6c-0.6,0.7-1.1,0.2-1.6-0.2C286.3,379.6,286.3,379.4,286.4,379.3z"/>
		<path fill="#A0A0A0" d="M300.9,379.4c-0.2,0-0.4-0.1-0.6-0.1c-0.1-0.1-0.2-0.2-0.3-0.3c0.2-0.8,0.7-0.7,1.2-0.3
			C301.4,379.1,301.3,379.3,300.9,379.4z"/>
		<path fill="#03225F" d="M283.6,377.6c0.7,0,1.5,0,2.2,0c0,0.1,0.1,0.2,0.1,0.2c0.2,0.2,0.4,0.3,0.2,0.6c-0.5,0.3-0.8-0.2-1.2-0.2
			c-0.3,0-0.5,0-0.8-0.1c-0.2,0-0.4-0.1-0.6-0.2C283.5,377.9,283.5,377.7,283.6,377.6z"/>
		<path fill="#02215C" d="M279.2,377.9c-0.3,0-0.6,0-1,0c-0.3,0.1-0.7,0.4-0.9-0.3C278,377.3,278.7,377.1,279.2,377.9z"/>
		<path fill="#979797" d="M298.3,379.3c0.1-0.2,0.2-0.3,0.3-0.5c0.7-0.5,1-0.2,1.2,0.5C299.3,379.8,298.8,379.7,298.3,379.3z"/>
		<path fill="#9C9C9C" d="M307.7,379c-0.1-0.3-0.5-0.6-0.1-0.9c0.4-0.4,0.8-0.5,1.2-0.1c0.1,0.5-1.3-0.3-0.5,0.7
			c0.1,0.1,0.1,0.2,0,0.3C308,379.2,307.8,379.2,307.7,379z"/>
		<path fill="#1A3B71" d="M277.4,377.7c0.2,0.3,0.6,0.2,0.9,0.3c-0.4,0.3-0.7,0.6-0.6,1.1c-0.3-0.3-0.5-0.6-0.8-0.8
			C276.9,377.9,277.1,377.7,277.4,377.7z"/>
		<path fill="#B9B9B9" d="M295.5,378.7c0.5,0.4,0.2,0.9,0.3,1.4c-0.1,0-0.2,0.1-0.2,0.1c-0.3-0.2-0.5-0.5-0.7-0.8
			c0-0.1,0-0.2,0.1-0.3C295,378.8,295.2,378.7,295.5,378.7z"/>
		<path fill="#BFBFBF" d="M300,379.6c0,0.1,0,0.2,0,0.3c-0.6,0-1.1,0.9-1.7,0c0-0.1,0-0.2,0-0.3C298.9,379.5,299.5,379.4,300,379.6z
			"/>
		<path fill="#D9D9D9" d="M291.6,379.3c0.3,0.1,0.5,0.2,0.8,0.3c0.2,0,0.4,0.1,0.6,0.3c-0.5,0.6-1.1,0.3-1.6,0.1
			C291.4,379.7,291.5,379.5,291.6,379.3z"/>
		<path fill="#001F5D" d="M274.6,378.5c-0.1,0.4-0.3,0.9-0.4,1.3c-0.3,0.2-0.5,0.2-0.5-0.2c0-0.3,0.1-0.6,0.3-0.9
			c0-0.2,0-0.4,0.2-0.6C274.3,378.3,274.4,378.4,274.6,378.5z"/>
		<path fill="#1E3D73" d="M273.9,378.7c0.3,0.3-0.5,0.9,0.2,1.2c0,0.1,0,0.2,0,0.3c-0.4,0.2-0.8,0.1-1.1-0.2l0,0
			C273.4,379.5,273.7,379.1,273.9,378.7z"/>
		<path fill="#274778" d="M271.7,380.2c-0.3,0-0.7,0.2-0.9-0.2c-0.1-0.5-0.1-0.9,0.6-0.6c0.1,0.2,0.3,0.2,0.6,0.2
			C272.2,379.9,271.9,380,271.7,380.2z"/>
		<path fill="#F0F0F0" d="M307.7,379c0.2,0,0.4,0,0.6,0c0.4,0,0.7,0.2,0.7,0.7c-0.5,0.5-0.9,0.4-1.2-0.1
			C307.7,379.4,307.7,379.2,307.7,379z"/>
		<path fill="#ADB8C9" d="M286,378.4c0-0.2-0.1-0.4-0.1-0.6c0.3-0.1,0.6-0.2,0.8-0.2c0.2,0.3,0.2,0.5,0,0.8c0,0.1,0,0.2,0,0.3
			c-0.2,0-0.4,0.1-0.6,0.1C286.1,378.7,286,378.6,286,378.4z"/>
		<path fill="#A7A7A7" d="M306.5,378.7c-0.7,0.4-1.1,0-1.5,0.2C305.4,378.3,305.8,378.4,306.5,378.7z"/>
		<path fill="#ABABAB" d="M292.9,379.9c-0.3,0-0.5-0.1-0.6-0.3c0-0.3,0-0.7,0.3-0.9C293.1,379,292.9,379.5,292.9,379.9z"/>
		<path fill="#16376C" d="M288.7,377.9c-0.4-0.4-0.8,0.1-1.1,0c0,0-0.1,0-0.1,0c-0.1-0.1-0.3-0.1-0.3-0.3
			C287.8,377.3,288.4,377,288.7,377.9z"/>
		<path fill="#959595" d="M301.9,378.8c0,0,0,0.1,0,0.1c-0.3,0.2,0.3,1-0.5,0.9c-0.2-0.4-0.2-0.8,0-1.1
			C301.6,378.8,301.8,378.8,301.9,378.8z"/>
		<path fill="#B6B6B6" d="M303.7,379.9c-0.3,0-0.5-0.2-0.5-0.5c0-0.4,0.2-0.6,0.5-0.6C303.7,379.1,303.7,379.5,303.7,379.9z"/>
		<path fill="#022264" d="M286.4,379.3c0,0.1,0,0.3,0,0.4c-0.2,0-0.4,0-0.5,0.2c-0.2,0-0.4,0-0.5-0.3c0.1-0.6,0.3-1,1-0.6
			C286.4,379.1,286.4,379.2,286.4,379.3z"/>
		<path fill="#B7B7B7" d="M295,379.3c0.4,0.2,0.5,0.5,0.5,0.9c0,0.1,0,0.2,0,0.2c-0.3-0.2-0.8-0.3-0.8-0.8
			C294.7,379.4,294.8,379.3,295,379.3z"/>
		<path fill="#16356E" d="M273.1,379.9c-0.1,0-0.2-0.1-0.3-0.1c-0.2,0-0.3-0.1-0.4-0.3c0-0.1,0.1-0.2,0.1-0.4
			c0.1-0.4-0.1-0.9,0.3-1.3c0.1-0.1,0.2,0,0.3,0.1C273.3,378.6,273.2,379.3,273.1,379.9C273.1,379.9,273.1,379.9,273.1,379.9z"/>
		<path fill="#092B65" d="M284.8,374.5c-0.6-0.6-0.6-1.3,0-1.9C284.8,373.2,284.8,373.8,284.8,374.5z"/>
		<path fill="#062B67" d="M274,373.1c-0.7,0.3-1.3,0.4-2-0.1C272.6,372.9,273.3,372.8,274,373.1z"/>
		<path fill="#1C3B72" d="M291.3,373.4c-0.6,0.5-1.3,0.2-2,0.3C289.9,373.1,290.6,373.4,291.3,373.4z"/>
		<path fill="#989898" d="M297.7,378.5c0,0.2,0,0.4-0.2,0.5c-0.2-0.4-0.8,0.2-0.8-0.2C296.8,378.2,297.4,378.5,297.7,378.5z"/>
		<path fill="#B3BFCF" d="M289.2,378.2c-0.1-0.1-0.2-0.3-0.3-0.4c0.2-0.2,0.5-0.6,0.8-0.2C289.9,377.9,289.5,378,289.2,378.2z"/>
		<path fill="#02215E" d="M272.6,379.6c0.1,0.1,0.2,0.2,0.3,0.2c-0.3,0.3-0.7,0.5-1.1,0.3c0.1-0.2,0.2-0.4,0.3-0.6
			c0.1-0.1,0.2-0.2,0.3-0.3C272.4,379.3,272.4,379.5,272.6,379.6z"/>
		<path fill="#CBCBCB" d="M300,379.6c-0.6,0-1.1,0.2-1.7,0c0-0.1,0-0.2,0-0.3c0.5,0,1,0,1.5,0c0,0,0.1,0,0.1,0
			C300,379.4,300,379.5,300,379.6z"/>
		<path fill="#032863" d="M275.6,379.9c0-0.1,0-0.2,0-0.3c0.3,0,0.6,0,0.9,0c0.1,0.2,0.4,0.4,0.1,0.5
			C276.2,380.3,275.9,380.3,275.6,379.9z"/>
		<path fill="#042763" d="M277.5,376.2c-0.5,0-1-0.1-1.5-0.1c0.6-0.2,1.2-0.4,1.7,0.1l-0.1,0.1L277.5,376.2z"/>
		<path fill="#A9A9A9" d="M307.7,379.6c0.4,0.2,0.8,0.5,1.2,0c0,0,0.1,0,0.1,0C308.6,380.5,308.2,380.5,307.7,379.6z"/>
		<path fill="#E4E8EE" d="M293.1,369.1c0.6-0.4,1.3-0.4,1.9,0C294.4,369.1,293.8,369.1,293.1,369.1z"/>
		<path fill="#092A66" d="M284.9,370.8c-0.6-0.5-0.6-1.1-0.1-1.7C284.8,369.7,284.8,370.2,284.9,370.8z"/>
		<path fill="#0F2D68" d="M289,379.8c0-0.4,0-0.7,0-1.1C289.6,379.1,289.7,379.5,289,379.8z"/>
		<path fill="#9C9C9D" d="M309.1,379.6c0,0-0.1,0-0.1,0c-0.2-0.2-0.4-0.4-0.7-0.5c0-0.1,0-0.2,0-0.3
			C308.7,378.8,309.2,378.9,309.1,379.6z"/>
		<path fill="#1A3970" d="M282.5,379.7c0-0.6,0-1.1-0.1-1.7c0.1,0.1,0.2,0.1,0.3,0.2c0,0.5,0,0.9,0,1.4
			C282.7,379.6,282.6,379.7,282.5,379.7z"/>
		<path fill="#011E5C" d="M287.2,377.6c0.1,0.1,0.2,0.2,0.3,0.3c-0.2,0.2-0.5,0.4-0.7,0.6c0-0.3,0-0.5,0-0.8
			C286.9,377.6,287,377.6,287.2,377.6z"/>
		<path fill="#092F6A" d="M272.6,379.6c-0.1-0.1-0.2-0.2-0.3-0.3c0-0.5,0-0.9,0-1.4c0.2-0.1,0.3-0.1,0.4,0.1c0,0.4,0.1,0.9-0.1,1.3
			C272.6,379.4,272.6,379.5,272.6,379.6z"/>
		<path fill="#021A5E" d="M275.4,377.6c-0.3,0.4-0.6,0.4-0.9,0C274.8,377.4,275.1,377.4,275.4,377.6z"/>
		<path fill="#011857" d="M272.6,377.9c-0.1,0-0.2,0-0.3,0c-0.1-0.4,0.1-0.5,0.4-0.5c0.3,0,0.5,0.1,0.4,0.5c-0.1,0-0.2,0-0.3,0
			C272.7,378,272.6,378,272.6,377.9z"/>
		<path fill="#1C3B72" d="M293.2,376.2c0,0.1,0,0.2,0,0.3c-0.6,0.1-1.2,0-1.7-0.3c0,0,0.1-0.1,0.1-0.1
			C292.2,376.1,292.7,375.9,293.2,376.2L293.2,376.2z"/>
		<path fill="#0D336A" d="M296,373.7c0.3-0.2,0.3,0,0.3,0.2c0,0.4-0.2,0.6-0.6,0.6C295.8,374.2,295.9,374,296,373.7z"/>
		<path fill="#425883" d="M271.4,379.3c-0.4,0-0.5,0.3-0.6,0.6c-0.2-0.2-0.4-0.5-0.1-0.8C271,379,271.2,379,271.4,379.3z"/>
		<path fill="#D3D3D3" d="M301.5,378.8c0,0.4,0,0.7,0,1.1c-0.1,0-0.2,0-0.3,0c-0.1-0.2-0.2-0.4-0.3-0.5c0.2-0.1,0.3-0.4,0.3-0.6
			C301.3,378.7,301.4,378.8,301.5,378.8z"/>
		<path fill="#ABABAB" d="M294.4,379.6c-0.5-0.3-0.4-0.6,0-0.9c0.1,0.1,0.2,0.2,0.2,0.3C294.6,379.3,294.5,379.4,294.4,379.6
			L294.4,379.6z"/>
		<path fill="#F8F8F8" d="M295,379.3c-0.1,0.1-0.2,0.2-0.3,0.3c0,0,0,0,0,0c-0.1-0.1-0.1-0.3-0.1-0.5c0,0,0.1-0.1,0.1-0.1
			c0.1,0,0.1,0,0.2,0C294.9,379.1,295,379.2,295,379.3z"/>
		<path fill="#A4A4A4" d="M294.4,379c0-0.1,0-0.2,0-0.3c0.5-0.3,0.2,0.2,0.3,0.3c0,0,0,0,0,0C294.5,379.2,294.5,379.2,294.4,379z"/>
		<path fill="#838383" d="M300,379c0.1,0.1,0.2,0.2,0.3,0.3c-0.1,0-0.2,0-0.3,0C300,379.2,300,379.1,300,379z"/>
		<path fill="#032864" d="M293.2,368.5c0.6-0.3,1-0.2,1.4-0.1C294.3,368.7,293.9,368.5,293.2,368.5z"/>
		<path fill="#052966" d="M293.2,376.2c-0.5,0-1.1,0-1.6-0.1C292.2,375.8,292.7,375.8,293.2,376.2z"/>
		<path fill="#082B68" d="M293.5,372.5c0.4-0.4,0.7-0.4,1.3-0.1C294.3,372.5,293.9,372.5,293.5,372.5
			C293.5,372.5,293.5,372.5,293.5,372.5z"/>
		<path fill="#042862" d="M273.1,376.2c0.5-0.6,1.1-0.2,1.7-0.1C274.2,376.2,273.7,376.2,273.1,376.2
			C273.1,376.2,273.1,376.2,273.1,376.2z"/>
		<path fill="#10326A" d="M281.9,376.2c-0.1,0-0.2,0-0.3,0c0-2.3,0-4.6,0-6.9c0-0.5-0.2-1,0.3-1.3
			C281.9,370.7,281.9,373.5,281.9,376.2z"/>
		<path fill="#052865" d="M285.4,374.9c0.9,0,1.7,0,2.6,0c0,0.1,0,0.1,0,0.2c-0.9,0-1.7,0-2.6,0C285.4,375,285.4,374.9,285.4,374.9z
			"/>
		<path fill="#214376" d="M280.7,379.7c-1-0.1-0.4-1.1-0.8-1.5c0-0.1,0.1-0.2,0.1-0.3c0.3,0,0.6,0.1,0.9,0.1
			C280.9,378.5,281,379.1,280.7,379.7L280.7,379.7z"/>
		<path fill="#012765" d="M283.6,377.6c0,0.1,0,0.2,0,0.3c0.6,0.5,0.5,1.1,0.5,1.7c-0.2,0.3-0.5,0.2-0.8,0.2
			C283.5,379.1,283,378.3,283.6,377.6z"/>
		<path fill="#C4CDD9" d="M280.8,379.6c-0.5-0.6-0.5-1.1,0.1-1.6c0.1,0,0.3,0,0.4,0c0.4,0.3,0.7,0.6,0.6,1.1
			C281.7,379.6,281.3,379.7,280.8,379.6z"/>
		<path fill="#2E4B7D" d="M284.1,379.7c-0.6-0.5-0.3-1.2-0.5-1.7c0.2,0,0.4,0,0.6,0c0.2,0.2,0.5,0.2,0.7,0c0.5-0.2,0.6,0.5,1.1,0.5
			c0,0.1,0.1,0.2,0.1,0.4c0.1,0.1,0.1,0.2,0.2,0.3c-0.5-0.1-0.7,0.2-1,0.6c-0.1,0-0.2,0-0.3,0c-0.3-0.3-0.5-0.3-0.8,0L284.1,379.7z"
			/>
		<path fill="#E6E8ED" d="M284.2,379.6c0-0.5,0.3-0.5,0.6-0.5c0.3,0.1,0.3,0.3,0.2,0.5C284.8,379.6,284.5,379.6,284.2,379.6z"/>
		<path fill="#C2C2C2" d="M294.4,379c0.1,0,0.2,0,0.3,0c0,0.2,0,0.4,0,0.6c-0.1,0-0.2,0-0.3,0C294.4,379.4,294.4,379.2,294.4,379z"
			/>
		<path fill="#C5CBD9" d="M285,377.9c0.1,0.3,0.1,0.6-0.3,0.6c-0.4,0-0.5-0.2-0.4-0.5C284.5,377.9,284.7,377.9,285,377.9z"/>
		<path fill="#18396F" d="M272.6,377.9c0.1,0,0.2,0,0.3,0c-0.1,0.5,0.2,1-0.3,1.4C272.6,378.8,272.6,378.4,272.6,377.9z"/>
	</g>
</g>
<g>
	<path fill="#303C60" d="M307.7,381.8c4.5-4.3,12.1-4.2,11.9,2.3c-0.2,6.5,0.4,7.1,2.2,10.5c6.4,11.8-7.6,11.1-13.4,11.5
		c-5.8,0.4-5.3-10.6-4.3-16.7C305.1,383.3,306.4,383.1,307.7,381.8z"/>
	<path fill="#4476BD" d="M309.8,418.9c-1.4,12-4,20.9-4.3,26.6c-0.3,5.7-1.4,28.1-1.4,28.1s3.2-0.2,3.5-0.7c0.3-0.5,6-13.1,5.7-21
		c-0.3-7.8,5.7-19.7,5.7-19.7l-1.4-11.7L309.8,418.9z"/>
	<path fill="#3E6BAB" d="M311.1,424.2l-2.2,0.9c-0.6,3.8-1.3,7.2-1.9,10.3c3.6,2.3,5.4,10,6.2,14.7c0.4-5.3,2.9-11.6,4.4-15.1
		L311.1,424.2z"/>
	<path fill="#4476BD" d="M321.5,417.7c0,0,4.8,6.2,4.7,13.1c-0.2,10.6-1.4,13.7,0.6,24.8c0.8,4.4-1.7,18.6-1.7,18.6
		s-2.2,0.2-3.3-0.4c0.1-1-1.4-18.1-4.3-25.9c-1.4-3.8-3.4-14.4-4.4-20.5c-1.1-6.1-1.3-7.3-0.9-7.3
		C312.5,420.1,321.5,417.7,321.5,417.7z"/>
	<path fill="#FCD0B1" d="M294,400.6c0,0,0.2-3.2-0.1-4.2c-0.3-1-3.3-1.8-3.3-1.8s-0.1,4.6,0.2,5.1c0.3,0.6,2.1,2.1,2.1,2.1
		L294,400.6z"/>
	<path fill="#A7668B" d="M310.6,398.3c-6.8,7.3-9,10.4-9.5,10.4c-1.6-2.8-7-8.9-7-8.9l-2.3,1.5c0,0,5.3,13.8,8.6,13.9
		c3.4,0.1,10.2-4.7,10.2-5.3C310.8,409.3,310.6,398.3,310.6,398.3z"/>
	<path fill="#895B7F" d="M303.6,414.5c3.3-1.4,7.1-4.2,7.2-4.6c0.1-0.6-0.1-11.6-0.1-11.6c-1.5,1.6-2.8,3-3.9,4.2
		C305.5,407.1,305.6,412,303.6,414.5z"/>
	<path fill="#A7668B" d="M317.5,393.5c0,0,6.5,3.3,7.9,9c1.4,5.8-2.8,12.9-3.3,16.7c-0.5,3.8-12.4,4.5-12.4,0.4
		c0-3.9-3-12.2-2.8-14.3c0.4-4.9,7.6-11,7.6-11L317.5,393.5z"/>
	<path fill="#FCD0B1" d="M315.7,386l2.8,8.6c0,0-3,2.3-8.1,7.8c0.2-3.7,3.3-7.7,3.3-7.7l-2.1-8.1L315.7,386z"/>
	<path fill="#FCD0B1" d="M317,390l-1.3-4l-4.1,0.6l2.1,8.1c0,0-0.2,0.3-0.5,0.8C315.1,394.1,316.3,392.3,317,390z"/>
	<path fill="#FCD0B1" d="M314.1,388c-0.8,2.7-3.7,4.2-5.7,3.7c-2.1-0.6-2.5-3-1.8-5.7c0.8-2.7,3-4.5,5.1-3.9
		C313.8,382.6,314.9,385.2,314.1,388z"/>
	<path fill="#A7668B" d="M309.3,415.7c0.9,5.7-2.4,18-2.4,18s2,0.5,8-0.1c6-0.6,8.6-6.6,9.5-6.7c0.9-0.2,1.4,5.6,1.8,6
		c0.4,0.5,0.5-7.2-0.7-10.3c-2.1-5.4-1.7-7.6-0.9-10.9C326,405.9,309.3,415.7,309.3,415.7z"/>
	<path fill="#4476BD" d="M304.1,470.9c0.5,2.2-0.5,3.9-2,5.2c-1.2,1-4.7,1.5-4.6,2c0.2,0.5,4.4,0.7,5.8,0.5c1.4-0.2,1.8-0.9,3.6-0.9
		c1.2,0,1.4-0.9,0.9-2.1c-0.5-1.2-0.7-1.8-0.2-2.8C308.1,471.6,304.1,470.9,304.1,470.9z"/>
	<path fill="#4476BD" d="M325.2,470.9c-0.1,2.3-0.4,4,0.2,5c2.2,1.8,3.9,3.9,3.3,4c-3.3,0.7-4.5-1.3-6.4-1.8
		c-2.3-0.7,0.2-3.5-0.7-7.2c-0.5-2,3.4-1.5,3.4-1.5L325.2,470.9z"/>
	<path fill="#895B7F" d="M326,424.5c-0.1-0.7-0.3-1.4-0.5-1.9c-2.1-5.4-1.7-7.6-0.9-10.9c0.1-0.3,0.1-0.5,0.1-0.7
		c0.2-0.6,0.3-1.2,0.5-1.8l-0.7-6.3l-5-6c-3.8,5.5-1.2,12.4-1.8,16.2c-0.6,3.8-6.9,8.6-6.9,8.6l0.2,1.3c0.3,1.9,2,3.1,3.9,2.9
		c2.6-0.4,6-1.1,7.6-2.5C323.8,422.2,325.1,423.3,326,424.5z"/>
	<path fill="#FCD0B1" d="M312.2,421.6c0,0-2.8,0.8-3.1,1c-0.3,0.2-0.5,1.1-0.5,1.1s-1.6,1.4-1,1.9c0.6,0.5,1.7,1.7,3.2,1.2
		c0.9-0.4,1.6-3.6,2.2-3.6C313.5,423.1,312.2,421.6,312.2,421.6z"/>
	<path fill="#A7668B" d="M320.1,396.2c3,0.1,5.7,5.5,6.7,10.2c0.9,4.7,1.9,11.3,1.9,11.3s-5,3.9-9.9,5.1c-4.3,1-6.5,1.4-6.5,1.4
		l-0.9-2.4l10.2-6c0,0-3.8-7.1-4.1-12.4C317.3,397.9,317.9,396.2,320.1,396.2z"/>
	
		<rect x="284.3" y="394.2" transform="matrix(0.9805 -0.1967 0.1967 0.9805 -72.4061 64.4274)" fill="#F5DC95" width="7.6" height="4.8"/>
	<path fill="#FCD0B1" d="M292.2,400.2c0.1-2-0.9-4.6-1.4-4.6c-0.6,0,0.2,1.8-0.1,2.9C290.5,399.2,292.2,400.2,292.2,400.2z"/>
	<path fill="#303C60" d="M307.2,382.8c0.2,5.4,6.4,5,8.2,4.6c1.7-0.3-2.1,11.3,1.2,12c2.4,0.5,1.9-3.3,4.5-3
		c1.2,0.1,2.4,1.9,2.4,1.9s-0.2-1.1-1.1-1.9c-0.9-0.8-3.3-5.8-3.9-9.4c-0.6-3.6-4.8-5.9-6.1-5.9c-1.2-0.1-4.3,1.3-4.3,1.3
		L307.2,382.8z"/>
	<g>
		<path fill="#303C60" d="M316.5,400.7c-0.1,0-0.2,0-0.3,0c-1-0.2-1.6-1.3-1.6-3.5c0-1.8,0.3-4.2,0.6-6.7c0.1-1,0.3-2,0.4-3.1
			c0-0.1,0.1-0.1,0.2-0.1c0.1,0,0.1,0.1,0.1,0.2c-0.1,1-0.2,2.1-0.4,3.1c-0.6,4.8-1.2,9.4,0.8,9.8c0.1,0,0.1,0,0.2,0
			c1.1,0,2.2-2.2,2.7-4.4c0-0.1,0.1-0.1,0.2-0.1c0.1,0,0.1,0.1,0.1,0.2C319.1,397.5,318,400.7,316.5,400.7z"/>
	</g>
	<g>
		<path fill="#303C60" d="M316,401.9c-0.4,0-0.7-0.1-0.9-0.4c-2.1-2.3,0-13.6,0.1-14.1c0-0.1,0.1-0.1,0.2-0.1c0.1,0,0.1,0.1,0.1,0.2
			c0,0.1-2.2,11.7-0.1,13.8c0.2,0.2,0.5,0.3,0.9,0.3c1.1-0.1,1.8-1.7,2.3-3c0.5-1.3,1.1-2.5,2-2.5c0.1,0,0.2,0.1,0.2,0.2
			c0,0.1-0.1,0.2-0.2,0.2c0,0,0,0,0,0c-0.7,0-1.2,1.1-1.7,2.3c-0.6,1.4-1.3,3-2.6,3.2C316.2,401.9,316.1,401.9,316,401.9z"/>
	</g>
	
		<ellipse transform="matrix(0.7901 0.613 -0.613 0.7901 303.8936 -111.5498)" fill="#FCD0B1" cx="314.8" cy="387.9" rx="0.9" ry="1.3"/>
</g>
<g>
	<path fill="#303C60" d="M265,400.5c1.7,3.4,0.3,7.3-3,8.7c-3.4,1.4-7,0.6-8.7-2.8s-0.4-7.5,2.8-9.1S263.3,397.1,265,400.5z"/>
	<g>
		<path fill="#303C60" d="M255.8,409.6c-0.4,0-1.1-0.1-2.1-1c-0.8-0.7-1.3-1.7-1.6-3c-0.3-1.5-0.1-3.3,0.6-5.3
			c0-0.1,0.1-0.1,0.2-0.1c0.1,0,0.1,0.1,0.1,0.2c-0.7,1.9-0.8,3.6-0.6,5.1c0.2,1.1,0.7,2.1,1.4,2.8c1.2,1.1,2,0.9,2,0.9
			c0.1,0,0.2,0,0.2,0.1c0,0.1,0,0.2-0.1,0.2C256.1,409.6,256,409.6,255.8,409.6z"/>
	</g>
	<g>
		<path fill="#A475AF" d="M261,413.7c1.9,0.4,4.4,5.8,5.6,9.3c1.2,3.5,3.3,7.8,4.6,9.1c1.3,1.3,10.1,4.4,10.1,4.4s-21.7,0-21.3,0
			C260.5,436.5,261,413.7,261,413.7z"/>
		<path fill="#895B7F" d="M272.5,434.8c-1.2-0.2-5.5,0.4-3.7-0.4c1.8-0.8,1.6-1.7,1.6-1.7s-2.6,2.2-3.1,0.3
			c-0.4-1.6-0.6-7.4-2.1-13.2c-1.3-2.9-2.9-5.7-4.3-6c0,0,0,2-0.1,4.9c0.5,6.3,1.4,15.6,1.7,17.9c2.9,0,7.7,0,11.7,0l2.7-0.1
			C277,436.4,273.7,435,272.5,434.8z"/>
		<path fill="#A475AF" d="M253.9,412.5c0,0-6.2,3.4-7.6,4.2c-1.4,0.7,4,22.2,5.2,23.1c1.2,0.9,11.9,0.2,13.1-1
			c1.2-1.2-0.9-4.7,0.1-11.8c1.1-7.1-3.2-13.3-3.8-13.3c-0.5,0-4.1-1.2-4.1-1.2H253.9z"/>
		<path fill="#895B7F" d="M251.5,439.8c1.2,0.9,8.9,0.9,12.1-0.1c0.4-0.1,2-0.8,2.1-1.4c-0.4-0.1-2,0.1-2.6,0
			c-2.2-0.5-3.4-3.2-3.4-3.2s-1.2-0.4-3.9-1.6c-2.7-1.1-1.6-4.6-1.7-6.2c-0.1-1.5-2.7-6.5-7.6-10.3l-0.5,0.2
			C245.7,420.7,250.4,439,251.5,439.8z"/>
		<g>
			<path fill="#75A1DE" d="M293.8,423H279l-6.7,14.4h16.3l6.1-13C295,423.7,294.5,423,293.8,423z"/>
			<g>
				<path fill="#3E6BAB" d="M273.1,437.5h-8.9c-0.6,0-1-0.4-1-1c0-0.6,0.4-1,1-1h8.3l5.6-12c0.2-0.5,0.8-0.7,1.3-0.5
					c0.5,0.2,0.7,0.8,0.5,1.3L274,437C273.9,437.3,273.5,437.5,273.1,437.5z"/>
			</g>
		</g>
		<path fill="#FCD0B1" d="M257.7,434.5c3.9,0.7,4.8,1.6,6.9,2c2.4,0.4,2.1,0.9,0.3,0.9s-6.2,0.1-7.8-0.3
			C255.6,436.7,257.7,434.5,257.7,434.5z"/>
		<path fill="#A475AF" d="M245.8,417.1c-3,9.5-7.2,20.2-6.5,20.2s17.7,0.7,18.4,0.1c0.7-0.6,0.5-2.8,0.4-3.1s-9.7-2-9.7-2
			s1.3-2.5,1.7-7.3S246.4,415.3,245.8,417.1z"/>
	</g>
	<path fill="#FCD0B1" d="M256.1,404.3l-2.4,8.7c0,0,4,6.3,5.1,5.7c1.1-0.6-0.6-5.1-0.6-5.7c0-0.6,1.7-7,1.7-7L256.1,404.3z"/>
	<path fill="#EAA16E" d="M258.4,413.5c-0.1-0.2-0.1-0.4-0.1-0.4c0-0.6,1.7-7,1.7-7l-3.9-1.7l-0.8,2.9
		C256,410.2,257.3,412.1,258.4,413.5z"/>
	<path fill="#FCD0B1" d="M265.1,404.1c0.5,2.5,0.2,5.9-2.1,6.7c-2.2,0.9-5-0.8-6-3.7c-1.1-2.9-0.2-5.9,2.1-6.7
		C261.3,399.6,264.5,401.1,265.1,404.1z"/>
	
		<ellipse transform="matrix(0.9421 -0.3354 0.3354 0.9421 -121.3201 109.4708)" fill="#FCD0B1" cx="256.3" cy="406" rx="1.3" ry="1.7"/>
	<path fill="#303C60" d="M265.1,401c-0.8,5.9-8,5.2-8,5.2s-1.5-2-2.2-0.9c-0.7,1,0.9-6,5.1-6.2C261.4,398.9,265.1,401,265.1,401z"/>
	<ellipse fill="#303C60" cx="253.9" cy="398.5" rx="3.9" ry="3.7"/>
</g>
<g>
	<g>
		<polygon fill="#2E5B9A" points="246.1,480.5 247,480.5 252.7,453.7 250.8,453.7 		"/>
		<polygon fill="#2E5B9A" points="273.9,480.5 273,480.5 266.2,452.8 268.2,452.8 		"/>
		<g>
			<path fill="#2E5B9A" d="M256.3,454.7c-3.6,0-5.8-0.6-7.3-2.1c-1.8-1.7-2.2-4.5-2.2-8c0-2.8-0.1-4.6-0.2-6c-0.1-0.5,0.3-1,0.9-1.1
				c0.6-0.1,1,0.3,1.1,0.9c0.2,1.5,0.2,3.4,0.2,6.2c0,3.6,0.5,5.5,1.6,6.5c1.1,1.1,3.2,1.6,6.6,1.5c3.3-0.1,5.6-0.6,7.5-0.9
				c2.4-0.5,4.2-0.9,6.3,0.1c0.5,0.2,0.7,0.8,0.5,1.3c-0.2,0.5-0.8,0.7-1.3,0.5c-1.5-0.7-2.7-0.5-5,0c-1.9,0.4-4.3,0.9-7.8,1
				C256.8,454.7,256.5,454.7,256.3,454.7z"/>
		</g>
	</g>
	<path fill="#2E5B9A" d="M248.1,437.4l5.5,0.2l-1.5,15.1c0,0-4.1-2.6-4-5.4C248.2,444.6,248.1,437.4,248.1,437.4z"/>
	<path fill="#FCD0B1" d="M275.2,438.9c4.6-0.7,6.2-0.5,9,4.8c2.8,5.3,6.6,14.8,8.8,16c3.3,1.8,4.4,6.4,5.7,6.2
		c1.3-0.2,2.2,0.4,0.7,1.6c-1.5,1.2-3.8,2.2-4.6,2c-0.8-0.2-1.4-3.7-3.5-4.8c-2.1-1.1-1.5-2.1-1.3-3.1c0.1-1-6.1-5.6-10.9-11.3
		c-2.9-3.5-4.4-5.8-4.6-7.9C274.2,440.2,275.2,438.9,275.2,438.9z"/>
	<path fill="#EAA16E" d="M286.7,458c-1.1-2.7-2.2-7.2-3.2-11.4c-1.4-5.9-3-7.3-3.9-7.9c-1.2-0.3-2.5-0.2-4.4,0.1c0,0-1,1.4-0.7,3.5
		c0.2,2.1,1.7,4.4,4.6,7.9C281.6,453.2,284.5,456,286.7,458L286.7,458z"/>
	<path fill="#2E5B9A" d="M276.6,443.5c0,0-1.2,9.3-2.4,10.2c-0.8,0.7-1.4,0.7-2-2.1c-0.6-2.8,0.9-13.1,0.9-13.1L276.6,443.5z"/>
	<polygon fill="#F09959" points="275.6,448.5 264.2,450.4 270.6,441.2 275.5,440.2 278.5,440.9 	"/>
	<path fill="#2E5B9A" d="M289.9,461.6c-0.4,1.5-0.3,2.6,0.3,3.1c0.6,0.6,3.1,4.7,3.1,4.7l0.8-0.1l-1.8-3.8L289.9,461.6z"/>
	<path fill="#2E5B9A" d="M294.8,469.5c0.8,0.2,3.2-0.8,4.6-2c1.5-1.2,0.6-1.8-0.7-1.6c-0.1,0-0.2,0-0.2,0c-0.7,1.5-2.9,2.6-3.6,1
		c-0.7-1.6-3.7-4.7-4.9-5.4c0,0,0,0,0,0.1c-0.1,1-0.8,1.9,1.3,3.1C293.4,465.8,294,469.2,294.8,469.5z"/>
	<path fill="#EAA16E" d="M251.9,439.2c-4,7.3-1.3,11.9,3.6,12.3c4.9,0.5,12.7-0.4,17.2-4.2c4.5-3.8,8.2-7.7,7.7-8.3
		C280,438.5,251.9,439.2,251.9,439.2z"/>
	<path fill="#FCD0B1" d="M274.9,444.6c0.8-2.5,1.8-4.4,3.6-4.4c1.9,0,3.1,1,3.2,4.2c0.1,3.8,0.2,16.3,0.1,21.9
		c-0.1,4.2,1.1,5.6,1,10c-0.1,3.3,3.5,1.6,2.1,3.4c-0.9,1.2-3.7,0.8-5.5,0.6c-1.5-0.2,0.8-4.8-1.3-6c-1.8-1.1-1.9-2.8-0.7-4.1
		c1.1-1.3,0.1-5.1-0.6-7.8c-0.8-2.7-2-5.6-2.7-11.9C273.8,448.6,274.3,446.2,274.9,444.6z"/>
	<path fill="#2E5B9A" d="M283.6,478.3c-0.6,0.2-1.3,0.4-1.9,0.4c-1.3,0-1.7-1.4-1.7-3.3c-0.1-1.7-1.3-4.3-2.5-5.3c0,0,0,0.1-0.1,0.1
		c-1.1,1.3-1.1,3,0.7,4.1c2.1,1.2-0.2,5.8,1.3,6c1.7,0.2,4.5,0.6,5.5-0.6C285.7,478.5,284.6,478.4,283.6,478.3z"/>
	<path fill="#2E5B9A" d="M277.7,469.7c0,0-1.9,1.9-1.7,2.7c0.2,0.8,0.7,2.8,0.8,4.4c0.1,1.6,0.2,3.4,0.2,3.4s0.7,0,0.7-0.2
		c0.1-0.2,0.4-6.4,0.4-6.4L277.7,469.7z"/>
	<path fill="#75A1DE" d="M250,438.6c0,0-2.4,10.2,0.6,13c3,2.8,15.6,0.3,18.6,0.1c2-0.1,4,2.3,4,2.3s-1.4-5.7-0.4-10.3
		c1-4.6,2.5-4.9,2.5-4.9l-2.1-0.3H250z"/>
	<path fill="#A475AF" d="M249.4,435.9c1,2.2-1.1,5.9-0.4,7c0.7,1.1,5,0.2,7.8-2.1c2.8-2.3,8.1-2.8,8.1-2.8L249.4,435.9z"/>
	<path fill="#2E5B9A" d="M253.8,454.5c8.5,0.3,17.4,0.2,17.4-1.1c0-1.3-0.4-2.2-6.9-1.6c-6.6,0.5-11,1.2-13,0.8
		C249.2,452,253.8,454.5,253.8,454.5z"/>
</g>
<path fill="#2E5B9A" d="M367.3,440H230.5c-0.5,0-0.8-0.4-0.8-0.8v-1c0-0.5,0.4-0.8,0.8-0.8h136.8c0.5,0,0.8,0.4,0.8,0.8v1
	C368.2,439.6,367.8,440,367.3,440z"/>
<g>
	<path fill="#FCD0B1" d="M360,406.4c0.8,2.9-1.2,5.9-3.4,6.5c-2.2,0.6-3.8-1.3-4.6-4.2c-0.8-2.9,0.3-5.8,2.5-6.4
		C356.8,401.7,359.2,403.5,360,406.4z"/>
	<path fill="#FCD0B1" d="M347.6,462.5c0,0,5.7,8.8,6.4,9.2s2.7,0.5,2,1.9c-0.7,1.4-1,7.1-1.7,7.4s-6.4,1-5.5,0s1.4-0.5,1.8-2.2
		c0.4-1.7,1-5,0.2-5.6c-0.8-0.7-5.8-6.7-5.8-6.7L347.6,462.5z"/>
	<path fill="#FCD0B1" d="M319.1,466.3c0,0-6.9,11.3-8.2,12.4s-5.5,2.5-2,2.8c3.4,0.3,5.1-1.1,7.3-1.8c2.2-0.6,4.8-1,3.8-2.7
		c-1-1.7-0.6-5.3,1.6-7.6C323.8,467.1,319.1,466.3,319.1,466.3z"/>
	<path fill="#6791C9" d="M354.3,440c0,0-17-0.4-23.8,5.1c-4,6-13.5,23.7-14.3,25.6c0.5,0.5,3.4,1.4,4.7,1.3
		c3.8-4.5,8.7-8.4,10.7-11.9c2.4-4.3,3.2-6.5,7.1-6.9c4-0.4,12.9-1.7,15.6-1.7C357,451.6,354.3,440,354.3,440z"/>
	<polygon fill="#2E5B9A" points="369.1,481.5 368.2,481.5 361.8,454.8 363.8,454.8 	"/>
	<polygon fill="#2E5B9A" points="342.4,481.5 343.3,481.5 350.6,453.8 348.7,453.8 	"/>
	<path fill="#75A1DE" d="M364,438.8l-9.9,1.7c0,0-13.2,0.1-19.2,1.2c-5.5,1-6.3,7.2,0,15.8c3.6,4.9,6.6,8.7,12.8,13.1
		c1.6-1.2,2.2-1.6,2.6-4.4c-0.4-0.6-1.6-4.4-2-5.2c-3.4-7.1-8-9.7-8-10.4c0.8-1.2,20.3,6.5,24.1,1.9
		C368.1,448.3,364,438.8,364,438.8z"/>
	<path fill="#A7668B" d="M364.4,416.4c-2.6-0.4-5.3,0.1-7.8,1.9c-2.2,2.2-4.6,5.9-4.5,11.9c0.2,7.6-1.2,8.1,0.3,10.2
		c6,2.5,16.2,13.1,13.8,1.7c-1.7-8.2,3.8-14.4-0.7-23.5C365.2,417.9,364.7,417.2,364.4,416.4z"/>
	<path fill="#895B7F" d="M352.2,433.1c-0.1,4-0.7,5.2-0.2,6.4c2.4,0.2,6.9,1.2,8,2.8c1.3,1.8,2.5,2,2,0.7c-0.6-1.3-2.2-3.2,0.3-9.6
		c2.4-6.4,3.6-10.8,1.2-15.2L352.2,433.1z"/>
	<path fill="#FCD0B1" d="M364.4,416.4c-1.6-3.8-2-8.1-2-8.1l-4.2,1.2c0,0,2.4,5.4,0.1,7.3c-0.5,0.4-1.1,0.9-1.6,1.5
		C359.1,416.5,361.8,416,364.4,416.4z"/>
	<path fill="#EAA16E" d="M362.5,409.3c-0.2-0.2-0.6-0.5-0.9-0.8l-3.4,1c0,0,0,0,0,0c0.1,0.2,1,2.2,1.1,4.2c1-0.6,2.1-1.6,3.4-3.4
		C362.6,410,362.6,409.6,362.5,409.3z"/>
	<path fill="#F09959" d="M361.4,417.6c-4.3,1.5-3.9,6.1-7.8,12.8c-2.1,3.5-4,3.4-4,3.4s-4.8,0-10.7-0.7c-3.7-0.4-3.9,0.6-1.3,1.6
		c5.1,1.8,10.5,3.8,14.8,3.3s11.7-11.5,12-14.3C364.9,419.8,363.6,416.8,361.4,417.6z"/>
	<g>
		<path fill="#2E5B9A" d="M359.2,455.8c-0.3,0-0.5,0-0.8,0c-3.5-0.1-5.9-0.6-7.8-1c-2.3-0.5-3.5-0.7-5,0c-0.5,0.2-1.1,0-1.3-0.5
			c-0.2-0.5,0-1.1,0.5-1.3c2.1-1,3.8-0.6,6.3-0.1c1.9,0.4,4.2,0.8,7.5,0.9c3.8,0.1,6.1-0.5,7.2-1.8c1.1-1.2,1.4-3.1,1-6.1
			c-0.1-1-0.3-1.9-0.4-2.6c-0.3-2.1-0.5-3.5-0.3-5.6c0.2-2,0.9-4.6,2.4-9.8c0.2-0.5,0.7-0.8,1.2-0.7c0.5,0.2,0.8,0.7,0.7,1.2
			c-2.9,9.6-2.7,10.6-2.1,14.5c0.1,0.8,0.3,1.6,0.4,2.7c0.5,3.6,0,6.1-1.5,7.7C365.6,455,363.2,455.8,359.2,455.8z"/>
	</g>
	<path fill="#895B7F" d="M319.6,475.8c-4.6,2.2-7,3.5-8.5,3.4c-0.3,0-0.6-0.1-0.9-0.1c-1.6,1-4.2,2.1-1.3,2.3
		c3.4,0.3,5.1-1.1,7.3-1.8c2.2-0.6,4.8-1,3.8-2.7C319.8,476.7,319.7,476.3,319.6,475.8z"/>
	<path fill="#895B7F" d="M354.6,471.9c-0.1,3.6-0.6,7.2-2.8,7.9c-0.6,0.2-1.1,0.2-1.6,0.1c-0.3,0.4-0.8,0.4-1.3,1.1
		c-0.9,1,4.9,0.3,5.5,0s1-5.9,1.7-7.4C356.6,472.4,355.4,472.1,354.6,471.9z"/>
	<g>
		<path fill="#75A1DE" d="M337,437.5h-14.5c-0.4,0-0.7-0.2-0.9-0.6l-5.9-12.6c-0.2-0.5,0-1.1,0.5-1.3c0.5-0.2,1.1,0,1.3,0.5l5.6,12
			H337c0.6,0,1,0.4,1,1C338,437.1,337.5,437.5,337,437.5z"/>
	</g>
	<path fill="#FCD0B1" d="M340,433.3c-2.9,0-5.8-1.8-7.3-1.5c-1.4,0.3-6.2,3.5-5.6,3.7c0.6,0.1,4.3-1.8,4.5-1.8
		c0.1,0,0.9,1.3,2.9,1.8c2,0.5,0-1.5,6.2,0.4C344.8,437,340,433.3,340,433.3z"/>
	<path fill="#F2E5DE" d="M364,412.9l0.4,3.5c0,0-3.8,0.2-5.7,1.3c-1.9,1.1-4.7,4.1-4.7,4.1l2.3-3.9l0.3-2.5L364,412.9z"/>
	<path fill="#F2E5DE" d="M362.3,417.2c-2.8-0.5-4.1,2-5.9,6.1c-1.8,4.1-4.9,9.1-5.6,9.8c-0.6,0.6-10.5,0-10.5,0s-0.3,2.8,0,3.2
		c0.3,0.3,2,0.3,2,0.3s0.7,0.5,1.3,1c0.6,0.4,6,1.2,8.5,1.1c2.5-0.1,4.8-0.3,5.1-0.7c0.3-0.4,7.2-10.9,7.6-14.7
		C365.4,419.4,363.8,417.4,362.3,417.2z"/>
	<path fill="#303C60" d="M354,399.8c-5.3,0.3-4.5,8.3-4.5,8.3s1.4,0.4,4.3-0.1c-0.2-0.9-0.1-3.1-0.1-3.1s0.3,1.8,0.8,2.9
		c0.6,0.3,1.3,0,2.5-0.3c0.6,2.5,2.3,3.6,3.5,4c1.3,0.4,2.7,0.9,4.2,0.1c1.5-0.8,0.7-8.6-0.1-10.2c-1.2-2.4-3.2-4.5-6.8-3.4
		C356,398.8,354,399.8,354,399.8z"/>
	<path fill="#303C60" d="M363.3,409.3l2.2,3.2c0,0-2.4,6,4.6,8.8c5.5,2.1,4.9,5.9,2.4,9.7c-2.5,3.8,1.5,7.1,1.5,7.1s0.6-4.2,6-5
		c7.3-1.1,9.4-10.9,3.9-15.8c-4.5-4-5.9-0.7-8.9-4.3c-3-3.6-8.8-1.2-8.8-1.2l-2.1-3.1L363.3,409.3z"/>
	<g>
		<path fill="#303C60" d="M386.3,427.2C386.3,427.2,386.3,427.2,386.3,427.2c-0.2-0.1-0.2-0.2-0.2-0.3c1.8-3.4,0.3-7.4-0.4-8.5
			c-0.1-0.1-0.2-0.2-0.2-0.4c-0.7-1.2-1.7-2.6-6.6-3.5c-1.2-0.2-2.1-0.9-3.1-1.7c-2.1-1.5-4.5-3.3-9.6-0.9c-0.1,0-0.2,0-0.2-0.1
			c0-0.1,0-0.2,0.1-0.2c5.4-2.5,7.8-0.7,10,0.9c1,0.7,1.9,1.4,3,1.6c5.1,0.9,6,2.4,6.8,3.6c0.1,0.1,0.2,0.2,0.2,0.4
			c0.5,0.7,1,2,1.2,3.6c0.2,1.4,0.2,3.4-0.8,5.3C386.4,427.2,386.4,427.2,386.3,427.2z"/>
	</g>
	<g>
		<path fill="#303C60" d="M362.1,412.6c-0.3,0-0.7,0-1.1-0.1c-1.9-0.3-4.4-1.3-4.5-7.3c0-0.1,0.1-0.2,0.2-0.2c0.1,0,0.2,0.1,0.2,0.2
			c0.1,2.5,0.6,4.3,1.5,5.4c0.7,0.9,1.6,1.3,2.8,1.5c1.7,0.3,2.9-0.1,3.4-1c0-0.1,0.2-0.1,0.2-0.1c0.1,0,0.1,0.2,0.1,0.2
			C364.3,412.2,363.4,412.6,362.1,412.6z"/>
	</g>
</g>
<g>
	<path fill="#895B7F" d="M195.8,416.8c-6.2,3.5-14.8,18.2-13,20.6c1.8,2.4,11.6-3.9,11.6-3.9L195.8,416.8z"/>
	<path fill="#303C60" d="M207.3,399.7c-2.4-0.1-1.5-1.8-4.2-1.1c-1.4,0.4-0.4,1-2.2,0.8c-1.9-0.2-2.8-0.4-3,0.8
		c-0.2,1.2-0.3,1.6-1.2,1.8c-0.9,0.2-1.3,1.8,0,2.9c1.3,1.1,0.7,1.5,0.4,2.4c-0.3,0.9,0.7,1,1.2,1.8c0.5,0.8-0.5,1,0.3,1.7
		c0.8,0.7,1.8,0.7,1.8,0.7l3.2-6.2L207.3,399.7z"/>
	<path fill="#2E5B9A" d="M255.5,473.8c0,0,3.4,0.1,6.1-1s4.5-2.7,4-0.8c-0.5,1.9-2.7,5.2-4.6,5.5c-1.9,0.3-2.6,2.4-3.6,2.4
		c-1.1,0-2.6-2.4-5.3-3.6C249.7,475.3,255.5,473.8,255.5,473.8z"/>
	<path fill="#2E5B9A" d="M228.4,473.5c0,0,1.4,2,4,3.4c2.6,1.4,5.6,2.1,3.7,2.8c-1.9,0.6-4.6,1.2-7.2,0.4c-1.9-0.5-4-0.7-4.6-1.5
		c-0.6-0.9,0.7-3.1,0.2-6.4C223.9,469.5,228.4,473.5,228.4,473.5z"/>
	<path fill="#3E6BAB" d="M212.2,441.4c0,0,19.9,7.5,21.5,9.6c1.6,2.1,22.6,21.1,22.6,22.5s-3.6,4-3.6,4s-18-11-22.4-16.6
		c-4.5-5.6-15.4-8.3-21.1-8.8C203.4,451.5,212.2,441.4,212.2,441.4z"/>
	<path fill="#4476BD" d="M213,441.4c0,0,13.6-0.5,16.6,0c2.9,0.5,9.4,0.5,5.2,12.4c-3.3,9.3-4.4,21.1-4.4,21.1l-6.6,1.6
		c0,0,0.3-21.2,3.4-26.8c-2.3,0.4-6.5,1.1-12.3,2.8c-10.8,3.1-16.6,1.5-16.6,1.5l-1.6-5.6L213,441.4z"/>
	<polygon fill="#FCD0B1" points="201.6,406.2 198.3,416.1 202.5,418.8 204.9,410.3 	"/>
	<path fill="#EAA16E" d="M202.9,417.5l2-7.2l-3.3-4.1l-1.2,3.6C200.8,413.1,201.8,415.8,202.9,417.5z"/>
	<path fill="#FCD0B1" d="M210.1,407.9c0.1,3-1.4,5.6-3.7,5.8c-2.3,0.2-4.5-2-4.8-5c-0.3-3,1.4-5.6,3.7-5.8
		C207.7,402.7,209.9,403.2,210.1,407.9z"/>
	<path fill="#A7668B" d="M196.7,415.8c-10.2,6.9-3.9,18.1-1.6,26.2c1.9,6.9,1.9,11.1,2.1,11.1c0.3,0,7.3-1.1,11.3-4.7
		c4-3.6,6.7-7.2,6.7-7.2s-5.1-0.9-6.8-7.6c-0.9-3.4-0.5-5.2-2.4-10.6C204.1,417.8,196.7,415.8,196.7,415.8z"/>
	<path fill="#A7668B" d="M196.7,415.8l1.1-2.7c0,0,3.5,2.3,4.9,3.4s2.2,1.3,2.2,1.3s0.5,3.8,0.2,3.5
		C200.9,416.9,196.7,415.8,196.7,415.8z"/>
	<g>
		<polygon fill="#2E5B9A" points="192.1,481.5 193,481.5 199.4,454.8 197.5,454.8 		"/>
		<polygon fill="#2E5B9A" points="218.9,481.5 218,481.5 210.7,453.8 212.6,453.8 		"/>
		<g>
			<path fill="#2E5B9A" d="M202.1,455.8c-3.6,0-5.8-0.6-7.3-2.1c-1.8-1.7-2.2-4.5-2.2-8c0-7.4-0.4-8.9-2.5-13.5
				c-0.2-0.5,0-1.1,0.5-1.3c0.5-0.2,1.1,0,1.3,0.5c2.2,4.8,2.7,6.5,2.7,14.3c0,3.6,0.5,5.5,1.6,6.5c1.1,1.1,3.2,1.6,6.6,1.5
				c3.3-0.1,5.6-0.6,7.5-0.9c2.4-0.5,4.2-0.9,6.3,0.1c0.5,0.2,0.7,0.8,0.5,1.3c-0.2,0.5-0.8,0.7-1.3,0.5c-1.5-0.7-2.7-0.5-5,0
				c-1.9,0.4-4.3,0.9-7.8,1C202.6,455.8,202.4,455.8,202.1,455.8z"/>
		</g>
	</g>
	<g>
		<path fill="#3E6BAB" d="M246.3,437.4h-14.5c-0.6,0-1-0.4-1-1c0-0.6,0.4-1,1-1h13.9l5.6-12c0.2-0.5,0.8-0.7,1.3-0.5
			c0.5,0.2,0.7,0.8,0.5,1.3l-5.9,12.6C247,437.2,246.7,437.4,246.3,437.4z"/>
	</g>
	<path fill="#895B7F" d="M197.1,425.8c0,0,2.5,7.8,5.7,11c3.2,3.2,9.5,4.3,11.5,4.2c-1.6-0.6-4.6-2.5-5.8-7.3
		c-0.9-3.4-0.5-5.2-2.4-10.6c-1.4-4-5.9-6.1-8.1-7c2.7,2,6.2,5.2,7.2,7.7C206.3,426.6,197.1,425.8,197.1,425.8z"/>
	<path fill="#FCD0B1" d="M232.2,432.7c0,0,4.4-2,4.9-1.8c0.5,0.2,5.4,3.1,5.4,3.6c0,0.5-4.3-1.8-4.3-1.8s0.5,1.3,0.2,1.9
		c-0.3,0.6-3.6,0.6-6.6,0.4C228.8,434.8,232.2,432.7,232.2,432.7z"/>
	<path fill="#A7668B" d="M197.2,419.8c-4.1,8.3,9.9,16.7,18.1,17.5c8.3,0.7,18.1-2,18.1-2l-1.1-2.7c0,0-16.5-2.2-16.9-2.5
		C214.9,429.9,198.7,416.8,197.2,419.8z"/>
	
		<ellipse transform="matrix(0.9347 -0.3554 0.3554 0.9347 -131.5169 98.0723)" fill="#FCD0B1" cx="201.2" cy="407" rx="1.4" ry="1.9"/>
	<path fill="#303C60" d="M210.1,400.2c1.1-0.5,2.4-1,2,0.9c-0.2,0.8,0,0.6,0.3,1.4c0.3,0.8-0.7,1.4-1.1,1.8
		c-0.3,0.4,0.5,0.9-0.2,1.4c-0.7,0.5-1.6-0.2-2.2,0c-1.9,0.6-1.7-0.9-2.7-1.2c-1.1-0.3-1.6-0.3-1.8,0.4s0.7,2.9-0.1,2.7
		c-0.8-0.2-1,1.6-1.2,2.6c-0.2,1-0.8-0.7-0.7-1.9c0.1-1.8-0.4-2.5-1-3c-0.7-0.5-0.9-5.1,2.2-5.2c3.2-0.2,3.2-0.5,4.6-0.8
		C209.5,399,209.6,400.4,210.1,400.2z"/>
</g>
<g>
	<path fill="#74B570" d="M418,448c2.3,2.1,1.3,4.2-0.4,8.2c-1.7,3.9-2,18.5-2,18.5l1.4-0.2c0,0-0.2-14.9,1.7-19
		c1.9-4,2.7-6.1,4.4-4.7C424.9,452,418,448,418,448z"/>
	<path fill="#9CD499" d="M416.7,445.3c0.3-1.3,2-2.6,4.2-3.8c-0.3,1.9-1.4,4.9-0.3,5.5c1.5,0.8,0.1-3.4,0.7-5.7c2.1-1,4.6-1.9,7-2.3
		c0,0,0,0,0,0c-1.3,3.3-3,4.6-2.3,5.1c0.5,0.4,2.3-3.5,4.5-5.4c1.7-0.1,3.2,0.1,4,0.8c1.3,1.1,2.2,2,0.9,5.2c-0.8,0.5-1.7,0.9-2.9,1
		c-3,0.3-4.4,0.4-2.3,1.4c1,0.5,2.8,0,4.2-0.3c-0.5,0.8-1,1.8-1.7,2.9c-0.4,0.7-0.9,1.3-1.4,1.8c-1,0.2-1.8,0.2-2.3,0
		c-1.4-0.6-5-2.5-6-1.7c-0.9,0.8,6.7,1.3,6.2,3.3c-3.7,2.1-7.9,1.1-8.7-0.8C419.6,449.7,415.9,449,416.7,445.3z"/>
	<path fill="#74B570" d="M424.3,459.6c-4-3-8.2-0.2-10.3,3c-2.1,3.2-0.6,10.5-0.6,10.5s0.8,0,0.8-0.3s-2.2-8.6,3-12.3
		c3.3-2.3,5.6-1.2,6-0.1c0.3,1.1-1.3,3.1-1.3,3.1L424.3,459.6z"/>
	<path fill="#9CD499" d="M415.1,453.4c4,0,5.3,6.3,4.2,9.9c-1.1,3.6-2.6,10.4-2.6,10.4l-1-1c0,0,3.8-9.5,2.9-13.7
		c-0.9-4.2-3.1-4.9-3.5-4.9S415.1,453.4,415.1,453.4z"/>
	<path fill="#74B570" d="M418.5,463.3c0.3-0.4,0.6-0.7,1.1-0.9c-0.1,0.3-0.1,0.6-0.2,0.9c-0.5,1.7-1.1,4-1.6,6
		c0-0.3-0.1-0.7-0.2-1.3c0-0.1,0-0.3-0.1-0.5C417.8,466.2,418.2,464.7,418.5,463.3z"/>
	<path fill="#9CD499" d="M419.6,463.3c7.7-3.2,3.6-7.7,10.4-4.7c0.5,0.2,1.1,0.7,1.6,1.4c-0.6,0.2-1.3,0.3-2.1,0.2
		c-2-0.3-1.3,1.3,2,1.7c0.6,0.1,1.1,0.2,1.6,0.3c1.6,3,2.3,7.1-1.1,8.4c-0.7,0.3-1.5,0.4-2.4,0.5c-1-0.8,0.3-5.6-1.3-4.9
		c-1.5,0.6,0.5,4.1,0.2,5c-1.5,0-3.2-0.3-4.8-0.7c-0.6-0.4-1.1-0.8-1.3-1.5c-0.5-2.1,2.8-3.4,2.9-5.2c0.1-1.7-1.2,3.7-4.7,4.5
		C417.5,466.8,416,464.8,419.6,463.3z"/>
	<path fill="#9CD499" d="M414.1,457.6c0.8-1.7-1.3-2.1-1.2-0.8c0.1,1.2,0.1,4-1.1,4.8c-2.1-0.2-4.9-1.1-7-2.3c0-0.2,0-0.3,0.1-0.5
		c0.9-1.8,6.8-3.3,4.9-3.9c-1.4-0.5-4,2.4-6,3.8c-1.2-0.9-2-2-2-3.3c0-1.7,2-3.6,4.7-4.5c1.2,0.1,2.3,0.8,4,1.7
		c2.5,1.4,2-0.9-0.4-2.3c2.1,0.1,4.1,1,5.7,3.1c0,0-0.1,0.9,0.8,2.3c2.6,3.8-0.4,6-4,5.9C412.7,460.6,413.5,458.8,414.1,457.6z"/>
	<path fill="#74B570" d="M424.1,459.4c2,1.5,4.2,3.3,6.9,4.5c2.7,1.2,2.2,5.2,2.2,5.2s0.4-3.4-1.8-4.6c-2.2-1.2-3.7-2.6-5.4-2.8
		c-1.7-0.3-2.6-0.5-2.6-0.5s0.5-1.1,0.2-1.5S424.1,459.4,424.1,459.4z"/>
	<path fill="#74B570" d="M433.8,441.5c-7.2,1.9-12.5,6.5-13.5,7.7c-1,1.1-1,1.4-1,1.4l0.8,1.4l0.4-0.2c0,0-0.6-1.2,0.9-2.8
		c2.6-2.7,5.8-4.8,8-5.8C431.6,442.4,433.8,441.5,433.8,441.5z"/>
	<path fill="#75A1DE" d="M413.4,481.5h3.7c1.7,0,3.1-1.4,3.1-3.1v-6.8h-9.9v6.8C410.4,480.1,411.7,481.5,413.4,481.5z"/>
	<rect x="410.4" y="472.7" fill="#FFFFFF" width="9.9" height="0.7"/>
	<rect x="410.4" y="474" fill="#FFFFFF" width="9.9" height="0.4"/>
</g>
<g>
	<path fill="#A475AF" d="M426.6,408c0-3.7-3-6.8-6.7-6.8c-3.7,0-6.8,3-6.9,6.7c0,1.8,0.7,3.5,1.8,4.7c0.5,0.6,0.8,1.3,0.8,2.1v3
		c0,2,1.6,3.6,3.6,3.6h1.2c2,0,3.6-1.6,3.6-3.6v-3c0-0.8,0.3-1.5,0.8-2.1C425.9,411.4,426.6,409.8,426.6,408z"/>
	<path opacity="0.5" fill="#FFFFFF" d="M425.7,408.5c0-3.2-2.6-5.8-5.8-5.9c-3.2,0-5.9,2.5-5.9,5.8c0,1.6,0.6,3,1.5,4.1
		c0.5,0.5,0.7,1.1,0.7,1.8v2.6c0,1.7,1.4,3.1,3.1,3.1h1c1.7,0,3.1-1.4,3.1-3.1v-2.6c0-0.7,0.3-1.3,0.7-1.8
		C425.1,411.4,425.7,410,425.7,408.5z"/>
	<g>
		<path fill="#94BDF2" d="M420.8,415.9h-2.2c-0.1,0-0.2-0.1-0.2-0.2c0,0-0.4-4.4-2.4-5.6c-0.1-0.1-0.1-0.2-0.1-0.3
			c0.1-0.1,0.2-0.1,0.3-0.1c1.9,1.2,2.4,4.8,2.5,5.7h1.8c0-0.3,0-0.9,0.2-1.6c0.2-1,0.8-2.5,2.2-4c0.1-0.1,0.2-0.1,0.3,0
			c0.1,0.1,0.1,0.2,0,0.3c-2.5,2.8-2.3,5.5-2.3,5.6c0,0.1,0,0.1-0.1,0.2C420.9,415.9,420.9,415.9,420.8,415.9z"/>
	</g>
	<g>
		<path fill="#94BDF2" d="M422.5,410.4c-0.8,0-1.8-0.5-2.9-1.1c-1.4,0.7-2.7,1.4-3.4,1c-0.3-0.2-0.5-0.6-0.5-1.2
			c0-0.6,0.2-1,0.5-1.2c0.7-0.4,2,0.3,3.4,1c1.4-0.8,2.8-1.5,3.5-1c0.3,0.2,0.5,0.6,0.5,1.2c0,0.6-0.2,1-0.5,1.3
			C422.9,410.4,422.7,410.4,422.5,410.4z M420.1,409.1c1.1,0.6,2.3,1.2,2.8,0.9c0.2-0.1,0.3-0.4,0.3-0.9c0-0.4-0.1-0.7-0.3-0.9
			C422.4,407.9,421.2,408.5,420.1,409.1z M416.7,408.1c-0.1,0-0.3,0-0.3,0.1c-0.2,0.1-0.3,0.4-0.3,0.8c0,0.5,0.1,0.8,0.3,0.9
			c0.5,0.3,1.7-0.3,2.8-0.9C418.3,408.6,417.3,408.1,416.7,408.1z"/>
	</g>
	<path fill="#94BDF2" d="M420.5,422.3h-1.2c-0.5,0-0.9-0.4-0.9-0.9l0,0c0-0.5,0.4-0.9,0.9-0.9h1.2c0.5,0,0.9,0.4,0.9,0.9l0,0
		C421.4,421.9,421,422.3,420.5,422.3z"/>
	<path fill="#94BDF2" d="M415.4,415.6v2.2c0,2.1,1.7,3.8,3.8,3.8h1.3c2.1,0,3.8-1.7,3.8-3.8v-2.2H415.4z"/>
	<path fill="#9EC8FF" d="M424.1,416.2h-8.5c-0.3,0-0.5-0.2-0.5-0.5l0,0c0-0.3,0.2-0.5,0.5-0.5h8.5c0.3,0,0.5,0.2,0.5,0.5l0,0
		C424.7,416,424.4,416.2,424.1,416.2z"/>
	<path fill="#9EC8FF" d="M424.2,417l-8.5,1c-0.3,0-0.5-0.2-0.6-0.4v0c0-0.3,0.2-0.5,0.4-0.6l8.5-1c0.3,0,0.5,0.2,0.6,0.4l0,0
		C424.6,416.7,424.4,417,424.2,417z"/>
	<path fill="#9EC8FF" d="M424.2,418.5l-8.5,1c-0.3,0-0.5-0.2-0.6-0.4v0c0-0.3,0.2-0.5,0.4-0.6l8.5-1c0.3,0,0.5,0.2,0.6,0.4l0,0
		C424.6,418.2,424.4,418.5,424.2,418.5z"/>
	<path fill="#9EC8FF" d="M423.6,420.1l-7,0.9c-0.3,0-0.5-0.2-0.6-0.4l0,0c0-0.3,0.2-0.5,0.4-0.6l7-0.9c0.3,0,0.5,0.2,0.6,0.4l0,0
		C424.1,419.8,423.9,420.1,423.6,420.1z"/>
</g>
<g>
	<path fill="#9EC8FF" d="M414.1,375.4h9.2c0,6.8-7.6,12-14.7,7.4c-0.7-0.5-1.4-1.1-1.9-1.9c-4.6-7.1,0.6-14.7,7.4-14.7V375.4z"/>
	<g>
		<path fill="#A475AF" d="M424.8,374.1c0-5.1-4.1-9.2-9.2-9.2v9.2H424.8z"/>
		<path fill="#F39892" d="M406.5,374.1c0,5.1,4.1,9.2,9.2,9.2C410.6,383.3,406.5,379.2,406.5,374.1z"/>
		<path fill="#F39892" d="M415.7,365c-5.1,0-9.2,4.1-9.2,9.2C406.5,369.1,410.6,365,415.7,365z"/>
		<path fill="#F39892" d="M415.7,383.3c5.1,0,9.2-4.1,9.2-9.2C424.8,379.2,420.7,383.3,415.7,383.3z"/>
	</g>
</g>
<g>
	<rect x="249.4" y="383.7" fill="#9EC8FF" width="1.4" height="3.9"/>
	<rect x="266.9" y="385" fill="#9EC8FF" width="1.4" height="2.7"/>
	<rect x="255.2" y="378.4" fill="#9EC8FF" width="1.4" height="9.2"/>
	<rect x="258.1" y="383.5" fill="#9EC8FF" width="1.4" height="4.1"/>
	<rect x="261" y="382.3" fill="#9EC8FF" width="1.4" height="5.3"/>
	<rect x="252.3" y="381.1" fill="#9EC8FF" width="1.4" height="6.5"/>
	<rect x="263.9" y="379.6" fill="#9EC8FF" width="1.4" height="8.1"/>
</g>
<g>
	<defs>
		<path id="SVGID_1_" d="M175.3,356.9c-4.4,0-8,3.6-8,8c0,4.4,3.6,8,8,8c4.4,0,8-3.6,8-8C183.3,360.5,179.7,356.9,175.3,356.9z
			 M175.3,369.1c-2.3,0-4.2-1.9-4.2-4.2s1.9-4.2,4.2-4.2c2.3,0,4.2,1.9,4.2,4.2S177.7,369.1,175.3,369.1z"/>
	</defs>
	<clipPath id="SVGID_2_">
		<use xlink:href="#SVGID_1_"  overflow="visible"/>
	</clipPath>
	<path clip-path="url(#SVGID_2_)" fill="#75A1DE" d="M182.5,369.3l-7.2-4.4l-1.3,8.4C177.4,373.8,180.8,372.2,182.5,369.3z"/>
	<path clip-path="url(#SVGID_2_)" fill="#A475AF" d="M182.6,369.3C182.6,369.3,182.6,369.2,182.6,369.3c1.6-2.6,1.6-5.8,0.2-8.4
		c-2.6,1.3-1,0.5-7.5,4C182.6,369.3,181.4,368.6,182.6,369.3z"/>
	<path clip-path="url(#SVGID_2_)" fill="#A7668B" d="M167.4,362l7.9,2.9l7.4-4C179.3,354.4,169.9,355.2,167.4,362z"/>
	<path clip-path="url(#SVGID_2_)" fill="#A475AF" d="M174,373.3l1.3-8.4l-7.9-2.9C165.5,367,168.9,372.4,174,373.3z"/>
	<path clip-path="url(#SVGID_2_)" fill="#FFFFFF" d="M166.9,363.4c0.1,0,0.3,0,0.4,0.1c0.1-0.4,0.2-0.8,0.3-1.1l4.3,1.6c0,0,0,0,0,0
		c0-0.2,0.1-0.4,0.2-0.5l-0.4-0.2l-3.9-1.4c0.3-0.8,0.7-1.5,1.2-2.1c-0.2-0.1-0.3-0.2-0.4-0.4c-0.5,0.7-1,1.4-1.3,2.3l0,0l-0.1,0.3
		l-0.1,0.3l0,0c-0.1,0.4-0.2,0.8-0.3,1.2C166.8,363.4,166.8,363.4,166.9,363.4z"/>
	<path clip-path="url(#SVGID_2_)" fill="#E7F3FE" d="M183.1,361L183.1,361l-0.1-0.2c0,0,0,0,0,0l-0.1-0.2l0,0
		c-0.8-1.5-2-2.6-3.5-3.4c-1.4-0.7-3-1.1-4.7-1c-1.9,0.1-3.7,0.9-5,2c0.2,0.1,0.3,0.3,0.4,0.4c1.3-1.1,2.9-1.8,4.7-1.9
		c3.1-0.2,6,1.3,7.6,4l-2.2,1.2c-0.5,0.2-1.1,0.6-2.2,1.2c-0.7,0.4-1.5,0.8-2.6,1.4l-0.1,0l-0.2-0.1l0,0.1l-1.5-0.6
		c0,0.2-0.1,0.4-0.2,0.5l1.7,0.6l-1.2,7.9c-2.3-0.4-4.3-1.9-5.5-3.9c-0.7-1.2-1.1-2.6-1.1-4c-0.1,0-0.2,0-0.3,0
		c-0.1,0-0.2,0-0.3-0.1c0,1.5,0.4,3,1.2,4.3c1.3,2.2,3.4,3.7,5.9,4.2l0,0l0.3,0l0.3,0l0,0c0.4,0,0.7,0.1,1.1,0.1
		c1.3,0,2.5-0.3,3.7-0.8c1.5-0.7,2.7-1.8,3.6-3.1l0,0l0.1-0.1c0,0,0.1-0.1,0.1-0.1c0,0,0-0.1,0-0.1l0,0c0,0,0,0,0,0l0.1-0.1l0,0
		C184.4,366.7,184.4,363.6,183.1,361z M174.3,373l1.2-7.7l3.1,1.9c1.3,0.8,2,1.2,2.4,1.5l1.1,0.7C180.4,372,177.4,373.4,174.3,373z
		 M182.5,368.9L182.5,368.9c-0.3-0.2-0.5-0.3-1.1-0.6l-5.5-3.4l4.6-2.5c0.7-0.4,0.9-0.5,1.6-0.9c0.2-0.1,0.4-0.2,0.6-0.3
		C183.9,363.7,183.8,366.6,182.5,368.9z"/>
</g>
<g>
	<path fill="#9EC8FF" d="M230.4,356.2h-16.7c-2.8,0-5-2.2-5-5v-2.1c0-2.8,2.2-5,5-5h16.7c2.8,0,5,2.2,5,5v2.1
		C235.4,354,233.2,356.2,230.4,356.2z"/>
	<path fill="#FFFFFF" d="M231.3,355.6h-18.3c-1.9,0-3.4-1.5-3.4-3.4v-1.4c0-1.9,1.5-3.4,3.4-3.4h18.3c1.9,0,3.4,1.5,3.4,3.4v1.4
		C234.7,354.1,233.2,355.6,231.3,355.6z"/>
	<g>
		<path fill="#FFFFFF" d="M214.5,346h-0.3c-0.2,0-0.4-0.2-0.4-0.4v-0.2c0-0.2,0.2-0.4,0.4-0.4h0.3c0.2,0,0.4,0.2,0.4,0.4v0.2
			C214.9,345.8,214.7,346,214.5,346z"/>
		<path fill="#FFFFFF" d="M216.4,346h-0.3c-0.2,0-0.4-0.2-0.4-0.4v-0.2c0-0.2,0.2-0.4,0.4-0.4h0.3c0.2,0,0.4,0.2,0.4,0.4v0.2
			C216.8,345.8,216.6,346,216.4,346z"/>
		<path fill="#FFFFFF" d="M218.3,346H218c-0.2,0-0.4-0.2-0.4-0.4v-0.2c0-0.2,0.2-0.4,0.4-0.4h0.3c0.2,0,0.4,0.2,0.4,0.4v0.2
			C218.7,345.8,218.5,346,218.3,346z"/>
	</g>
	<path fill="#9EC8FF" d="M232.7,349.1h-13.3c-0.2,0-0.4-0.2-0.4-0.4s0.2-0.4,0.4-0.4h13.3c0.2,0,0.4,0.2,0.4,0.4
		S232.9,349.1,232.7,349.1z"/>
	<path fill="#9EC8FF" d="M225.6,354.3h-13.3c-0.2,0-0.4-0.2-0.4-0.4c0-0.2,0.2-0.4,0.4-0.4h13.3c0.2,0,0.4,0.2,0.4,0.4
		C226,354.1,225.9,354.3,225.6,354.3z"/>
	<path fill="#9EC8FF" d="M227.9,354.3h-1c-0.2,0-0.3-0.1-0.3-0.3v-0.1c0-0.2,0.1-0.3,0.3-0.3h1c0.2,0,0.3,0.1,0.3,0.3v0.1
		C228.2,354.1,228.1,354.3,227.9,354.3z"/>
	<path fill="#9EC8FF" d="M230,354.3h-1c-0.2,0-0.3-0.1-0.3-0.3v-0.1c0-0.2,0.1-0.3,0.3-0.3h1c0.2,0,0.3,0.1,0.3,0.3v0.1
		C230.3,354.1,230.2,354.3,230,354.3z"/>
	<path fill="#9EC8FF" d="M232.8,350.9h-22.1c-0.1,0-0.3-0.1-0.3-0.3c0-0.1,0.1-0.3,0.3-0.3h22.1c0.1,0,0.3,0.1,0.3,0.3
		C233.1,350.7,232.9,350.9,232.8,350.9z"/>
	<path fill="#9EC8FF" d="M232.8,352h-22.1c-0.1,0-0.3-0.1-0.3-0.3c0-0.1,0.1-0.3,0.3-0.3h22.1c0.1,0,0.3,0.1,0.3,0.3
		C233.1,351.9,232.9,352,232.8,352z"/>
</g>
<g>
	<path fill="#A475AF" d="M333.7,359.1h-15v-8.8h9.5c2.1,2.1,3.3,3.3,5.5,5.5V359.1z"/>
	<polygon fill="#F39892" points="329.7,350.3 329.7,355 333.7,355 333.7,354.1 329.9,350.3 	"/>
	<polygon fill="#A475AF" points="329.9,350.3 329.9,354.1 333.7,354.1 	"/>
	<path fill="#FFFFFF" d="M327,353.6h-6.7c-0.1,0-0.3-0.1-0.3-0.3c0-0.1,0.1-0.3,0.3-0.3h6.7c0.1,0,0.3,0.1,0.3,0.3
		C327.3,353.5,327.2,353.6,327,353.6z"/>
	<path fill="#FFFFFF" d="M327,355h-6.7c-0.1,0-0.3-0.1-0.3-0.3c0-0.1,0.1-0.3,0.3-0.3h6.7c0.1,0,0.3,0.1,0.3,0.3
		C327.3,354.8,327.2,355,327,355z"/>
	<path fill="#FFFFFF" d="M327,356.4h-6.7c-0.1,0-0.3-0.1-0.3-0.3c0-0.1,0.1-0.3,0.3-0.3h6.7c0.1,0,0.3,0.1,0.3,0.3
		C327.3,356.3,327.2,356.4,327,356.4z"/>
</g>
<path fill="#3E6BAB" d="M326.1,350.8c0.2,0.4-0.2,0.8-0.6,0.6c-0.1,0-0.1-0.1-0.2-0.2c-0.2-0.4,0.2-0.8,0.6-0.6
	C326,350.6,326.1,350.7,326.1,350.8z"/>
<rect x="249.5" y="349.7" transform="matrix(0.9818 0.1897 -0.1897 0.9818 72.0524 -41.7827)" fill="#FAE8B6" width="9.5" height="11.5"/>
<path fill="#9EC8FF" d="M258.1,355.6l-5-1c-0.1,0-0.2-0.2-0.2-0.3c0-0.1,0.2-0.2,0.3-0.2l5,1c0.1,0,0.2,0.2,0.2,0.3
	S258.2,355.7,258.1,355.6z"/>
<path fill="#9EC8FF" d="M257.8,356.9l-5-1c-0.1,0-0.2-0.2-0.2-0.3c0-0.1,0.2-0.2,0.3-0.2l5,1c0.1,0,0.2,0.2,0.2,0.3
	S258,356.9,257.8,356.9z"/>
<path fill="#9EC8FF" d="M257.6,358.1l-5-1c-0.1,0-0.2-0.2-0.2-0.3s0.2-0.2,0.3-0.2l5,1c0.1,0,0.2,0.2,0.2,0.3
	C257.9,358.1,257.7,358.2,257.6,358.1z"/>
<circle fill="#3E6BAB" cx="254.3" cy="350.4" r="0.4"/>
<path fill="#9EC8FF" d="M340.6,371.3l-14.5-1.5l1-9.1l8.8,0.9c2,2.5,3.1,3.8,5.1,6.3L340.6,371.3z"/>
<polygon fill="#FFFFFF" points="338.3,362.6 327.5,361.4 326.7,369.1 340.2,370.5 340.6,366 338,365.7 "/>
<path fill="#9EC8FF" d="M336.9,365.3l-7-0.7c-0.2,0-0.3-0.2-0.3-0.3c0-0.2,0.2-0.3,0.3-0.3l7,0.7c0.2,0,0.3,0.2,0.3,0.3
	C337.2,365.2,337,365.4,336.9,365.3z"/>
<path fill="#9EC8FF" d="M336.7,366.9l-7-0.7c-0.2,0-0.3-0.2-0.3-0.3c0-0.2,0.2-0.3,0.3-0.3l7,0.7c0.2,0,0.3,0.2,0.3,0.3
	C337,366.8,336.9,366.9,336.7,366.9z"/>
<path fill="#9EC8FF" d="M336.5,368.5l-7-0.7c-0.2,0-0.3-0.2-0.3-0.3c0-0.2,0.2-0.3,0.3-0.3l7,0.7c0.2,0,0.3,0.2,0.3,0.3
	C336.8,368.4,336.7,368.5,336.5,368.5z"/>
<path fill="#3E6BAB" d="M332.9,362.6c0.2,0.4-0.2,0.8-0.6,0.6c-0.1,0-0.1-0.1-0.2-0.2c-0.2-0.4,0.2-0.8,0.6-0.6
	C332.8,362.4,332.8,362.5,332.9,362.6z"/>
<g>
	<path fill="#895B7F" d="M382.2,350.4c3.2,5.1-2.1,10.4-7.2,7.2c-0.3-0.2-0.6-0.5-0.9-0.9c-3.2-5.1,2.1-10.4,7.2-7.2
		C381.7,349.7,382,350,382.2,350.4z"/>
	<g>
		<path fill="#FFFFFF" d="M377.7,355.3C377.7,355.3,377.6,355.3,377.7,355.3c-0.1,0-0.1,0-0.2-0.1l-1.4-1.5c-0.1-0.1-0.1-0.3,0-0.3
			c0.1-0.1,0.3-0.1,0.3,0l1.2,1.4l2.7-2.7c0.1-0.1,0.3-0.1,0.3,0c0.1,0.1,0.1,0.3,0,0.3l-2.9,2.8
			C377.8,355.2,377.7,355.3,377.7,355.3z"/>
	</g>
</g>
<g>
	<path fill="#9EC8FF" d="M188,392.3h13.9c2.2,0,4.1-1.8,4.1-4.1v-0.9c0-2.2-1.8-4.1-4.1-4.1H188c-2.2,0-4.1,1.8-4.1,4.1v0.9
		C183.9,390.4,185.7,392.3,188,392.3z"/>
	<path fill="#9EC8FF" d="M203.3,390.9v5l-5.8-5.8C197.5,390.1,203.2,390.9,203.3,390.9z"/>
	<path fill="#FFFFFF" d="M188.3,391.4h13.2c1.8,0,3.3-1.5,3.3-3.3v-0.7c0-1.8-1.5-3.3-3.3-3.3h-13.2c-1.8,0-3.3,1.5-3.3,3.3v0.7
		C185,389.9,186.5,391.4,188.3,391.4z"/>
	<path fill="#9EC8FF" d="M194,385.9h8.9c0.2,0,0.4-0.2,0.4-0.4s-0.2-0.4-0.4-0.4H194c-0.2,0-0.4,0.2-0.4,0.4S193.8,385.9,194,385.9z
		"/>
	<path fill="#9EC8FF" d="M186.6,387.4h16.6c0.1,0,0.2-0.1,0.2-0.2l0,0c0-0.1-0.1-0.2-0.2-0.2h-16.6c-0.1,0-0.2,0.1-0.2,0.2l0,0
		C186.4,387.3,186.5,387.4,186.6,387.4z"/>
	<path fill="#9EC8FF" d="M186.6,388.2h16.6c0.1,0,0.2-0.1,0.2-0.2l0,0c0-0.1-0.1-0.2-0.2-0.2h-16.6c-0.1,0-0.2,0.1-0.2,0.2l0,0
		C186.4,388.1,186.5,388.2,186.6,388.2z"/>
</g>
<g>
	<path fill="#9EC8FF" d="M380.3,391.5h1.2c0.4,0,0.8-0.3,0.8-0.8v-0.9c0-0.4-0.3-0.8-0.8-0.8h-1.2c-0.4,0-0.8,0.3-0.8,0.8v0.9
		C379.5,391.2,379.9,391.5,380.3,391.5z"/>
	<path fill="#9EC8FF" d="M375.4,391.5h1.2c0.4,0,0.8-0.3,0.8-0.8v-0.9c0-0.4-0.3-0.8-0.8-0.8h-1.2c-0.4,0-0.8,0.3-0.8,0.8v0.9
		C374.7,391.2,375,391.5,375.4,391.5z"/>
	<path fill="#9EC8FF" d="M370.6,391.5h1.2c0.4,0,0.8-0.3,0.8-0.8v-0.9c0-0.4-0.3-0.8-0.8-0.8h-1.2c-0.4,0-0.8,0.3-0.8,0.8v0.9
		C369.8,391.2,370.1,391.5,370.6,391.5z"/>
</g>
<polygon fill="#2E5B9A" points="304.7,481.8 303,481.8 289.5,439.8 293.1,439.8 "/>
<polygon fill="#2E5B9A" points="275,481.8 276.5,481.8 288.9,439.8 285.6,439.8 "/>
<polygon fill="#9EC8FF" points="337.9,361.5 337.9,365.3 341.7,365.3 "/>
</svg>
