<?xml version="1.0" encoding="utf-8"?>
<!-- Generator: Adobe Illustrator 18.1.1, SVG Export Plug-In . SVG Version: 6.00 Build 0)  -->
<svg version="1.1" id="Layer_3" xmlns="http://www.w3.org/2000/svg" xmlns:xlink="http://www.w3.org/1999/xlink" x="0px" y="0px"
	 viewBox="0 0 11.5 8.9" enable-background="new 0 0 11.5 8.9" xml:space="preserve">
<g>
	<path fill="#CECECE" d="M11.4,8.9c0-0.4,0-0.9,0-1.6c0-0.7,0-1.2,0-1.6c0-0.7,0-1.2-0.1-1.7c0-0.5-0.1-1-0.3-1.5
		C11,2,10.8,1.6,10.5,1.2c-0.2-0.3-0.6-0.6-1-0.8C9.1,0.3,8.6,0.2,8,0.2L6.8,2.4c0.8,0,1.4,0.2,1.8,0.5c0.4,0.3,0.5,0.9,0.5,1.7H6.8
		v4.3H11.4z M4.5,8.9c0-0.4,0-0.9,0-1.6c0-0.7,0-1.2,0-1.6c0-0.7,0-1.2-0.1-1.7c0-0.5-0.1-1-0.3-1.5C4.1,2,3.9,1.6,3.6,1.2
		C3.4,0.9,3,0.7,2.6,0.5C2.2,0.3,1.6,0.2,1,0.2l-1.2,2.2c0.8,0,1.4,0.2,1.8,0.5C2,3.2,2.2,3.8,2.2,4.5h-2.3v4.3H4.5z"/>
</g>
</svg>
