<?xml version="1.0" encoding="utf-8"?>
<!-- Generator: Adobe Illustrator 18.1.1, SVG Export Plug-In . SVG Version: 6.00 Build 0)  -->
<svg version="1.1" id="Layer_3" xmlns="http://www.w3.org/2000/svg" xmlns:xlink="http://www.w3.org/1999/xlink" x="0px" y="0px"
	  enable-background="new 0 0 11.5 8.9" xml:space="preserve" height="12" width="12">
<g>
	<path fill="#CECECE" d="M0.1,8.9c0-0.4,0-0.9,0-1.6C0,6.5,0,6,0,5.7C0,5,0,4.4,0.1,3.9c0-0.5,0.1-1,0.3-1.5C0.5,2,0.7,1.6,0.9,1.2
		c0.2-0.3,0.6-0.6,1-0.8c0.4-0.2,0.9-0.3,1.5-0.3l1.1,2.2c-0.8,0-1.4,0.2-1.7,0.5C2.5,3.2,2.3,3.8,2.3,4.5h2.3v4.3H0.1z M6.8,8.9
		c0-0.4,0-0.9,0-1.6c0-0.7,0-1.2,0-1.6c0-0.7,0-1.2,0.1-1.7c0-0.5,0.1-1,0.3-1.5C7.3,2,7.5,1.6,7.7,1.2c0.2-0.3,0.6-0.6,1-0.8
		c0.4-0.2,0.9-0.3,1.5-0.3l1.1,2.2c-0.8,0-1.4,0.2-1.7,0.5C9.3,3.2,9.1,3.8,9.1,4.5h2.3v4.3H6.8z"/>
</g>
</svg>
