<?xml version="1.0" encoding="utf-8"?>
<!-- Generator: Adobe Illustrator 18.1.1, SVG Export Plug-In . SVG Version: 6.00 Build 0)  -->
<svg version="1.1" id="Layer_1" xmlns="http://www.w3.org/2000/svg" xmlns:xlink="http://www.w3.org/1999/xlink" x="0px" y="0px" x="0px" y="0px" width="85px" height="85px">
	 viewBox="-263 354 85 85" enable-background="new -263 354 85 85" xml:space="preserve">
<g>
	<path fill="#FFFFFF" d="M-220.5,354c23.5,0,42.5,19,42.5,42.5s-19,42.5-42.5,42.5s-42.5-19-42.5-42.5S-244,354-220.5,354z"/>
</g>
<g>
	<g>
		<g display="none">
			<linearGradient id="SVGID_1_" gradientUnits="userSpaceOnUse" x1="-516.2396" y1="911.6146" x2="-489.8906" y2="911.6146">
				<stop  offset="0" style="stop-color:#EE4623"/>
				<stop  offset="0.2542" style="stop-color:#CE483C"/>
				<stop  offset="0.809" style="stop-color:#7D4E7D"/>
				<stop  offset="1" style="stop-color:#605094"/>
			</linearGradient>
			<path display="inline" fill="url(#SVGID_1_)" d="M-503,920h0.1l4.2-28.3h8.7v39.9h-5.9v-28.6h-0.1l-4.2,28.6h-5.9l-4.6-28.2h-0.1
				v28.2h-5.5v-39.9h8.7L-503,920z"/>
			<linearGradient id="SVGID_2_" gradientUnits="userSpaceOnUse" x1="-485.3309" y1="911.6146" x2="-468.2213" y2="911.6146">
				<stop  offset="0" style="stop-color:#EE4623"/>
				<stop  offset="0.2542" style="stop-color:#CE483C"/>
				<stop  offset="0.809" style="stop-color:#7D4E7D"/>
				<stop  offset="1" style="stop-color:#605094"/>
			</linearGradient>
			<path display="inline" fill="url(#SVGID_2_)" d="M-479.1,908.5h8.6v5.7h-8.6v11.7h10.8v5.7h-17.1v-39.9h17.1v5.7h-10.8V908.5z"/>
			<linearGradient id="SVGID_3_" gradientUnits="userSpaceOnUse" x1="-464.8578" y1="911.6149" x2="-446.1512" y2="911.6149">
				<stop  offset="0" style="stop-color:#EE4623"/>
				<stop  offset="0.2542" style="stop-color:#CE483C"/>
				<stop  offset="0.809" style="stop-color:#7D4E7D"/>
				<stop  offset="1" style="stop-color:#605094"/>
			</linearGradient>
			<path display="inline" fill="url(#SVGID_3_)" d="M-446.2,916.7v5.3c0,6.4-3.2,10-9.4,10c-6.2,0-9.4-3.7-9.4-10v-20.8
				c0-6.4,3.2-10,9.4-10c6.2,0,9.4,3.6,9.4,10v3.9h-5.9v-4.3c0-2.9-1.3-3.9-3.3-3.9c-2,0-3.3,1.1-3.3,3.9v21.6
				c0,2.9,1.3,3.9,3.3,3.9c2,0,3.3-1,3.3-3.9v-5.7H-446.2z"/>
			<linearGradient id="SVGID_4_" gradientUnits="userSpaceOnUse" x1="-442.3319" y1="911.6146" x2="-422.5415" y2="911.6146">
				<stop  offset="0" style="stop-color:#EE4623"/>
				<stop  offset="0.2542" style="stop-color:#CE483C"/>
				<stop  offset="0.809" style="stop-color:#7D4E7D"/>
				<stop  offset="1" style="stop-color:#605094"/>
			</linearGradient>
			<path display="inline" fill="url(#SVGID_4_)" d="M-436.1,931.6h-6.3v-39.9h6.3v17.1h7.1v-17.1h6.4v39.9h-6.4v-17.1h-7.1V931.6z"
				/>
			<linearGradient id="SVGID_5_" gradientUnits="userSpaceOnUse" x1="-419.6351" y1="911.6146" x2="-397.6778" y2="911.6146">
				<stop  offset="0" style="stop-color:#EE4623"/>
				<stop  offset="0.2542" style="stop-color:#CE483C"/>
				<stop  offset="0.809" style="stop-color:#7D4E7D"/>
				<stop  offset="1" style="stop-color:#605094"/>
			</linearGradient>
			<path display="inline" fill="url(#SVGID_5_)" d="M-397.7,931.6h-6.3l-1.1-7.2h-7.7l-1.1,7.2h-5.8l6.4-39.9h9.2L-397.7,931.6z
				 M-412,918.9h6l-3-20.2h-0.1L-412,918.9z"/>
			<linearGradient id="SVGID_6_" gradientUnits="userSpaceOnUse" x1="-394.8282" y1="911.6146" x2="-374.9237" y2="911.6146">
				<stop  offset="0" style="stop-color:#EE4623"/>
				<stop  offset="0.2542" style="stop-color:#CE483C"/>
				<stop  offset="0.809" style="stop-color:#7D4E7D"/>
				<stop  offset="1" style="stop-color:#605094"/>
			</linearGradient>
			<path display="inline" fill="url(#SVGID_6_)" d="M-389.1,902.7h-0.1v28.9h-5.6v-39.9h7.9l6.3,23.9h0.1v-23.9h5.6v39.9h-6.4
				L-389.1,902.7z"/>
			<linearGradient id="SVGID_7_" gradientUnits="userSpaceOnUse" x1="-370.4218" y1="911.6146" x2="-364.1477" y2="911.6146">
				<stop  offset="0" style="stop-color:#EE4623"/>
				<stop  offset="0.2542" style="stop-color:#CE483C"/>
				<stop  offset="0.809" style="stop-color:#7D4E7D"/>
				<stop  offset="1" style="stop-color:#605094"/>
			</linearGradient>
			<path display="inline" fill="url(#SVGID_7_)" d="M-370.4,891.7h6.3v39.9h-6.3V891.7z"/>
			<linearGradient id="SVGID_8_" gradientUnits="userSpaceOnUse" x1="-360.1" y1="911.6149" x2="-341.3924" y2="911.6149">
				<stop  offset="0" style="stop-color:#EE4623"/>
				<stop  offset="0.2542" style="stop-color:#CE483C"/>
				<stop  offset="0.809" style="stop-color:#7D4E7D"/>
				<stop  offset="1" style="stop-color:#605094"/>
			</linearGradient>
			<path display="inline" fill="url(#SVGID_8_)" d="M-341.4,916.7v5.3c0,6.4-3.2,10-9.4,10c-6.2,0-9.4-3.7-9.4-10v-20.8
				c0-6.4,3.2-10,9.4-10c6.2,0,9.4,3.6,9.4,10v3.9h-5.9v-4.3c0-2.9-1.3-3.9-3.3-3.9c-2,0-3.3,1.1-3.3,3.9v21.6
				c0,2.9,1.3,3.9,3.3,3.9c2,0,3.3-1,3.3-3.9v-5.7H-341.4z"/>
			<linearGradient id="SVGID_9_" gradientUnits="userSpaceOnUse" x1="-339.2277" y1="911.6146" x2="-317.2711" y2="911.6146">
				<stop  offset="0" style="stop-color:#EE4623"/>
				<stop  offset="0.2542" style="stop-color:#CE483C"/>
				<stop  offset="0.809" style="stop-color:#7D4E7D"/>
				<stop  offset="1" style="stop-color:#605094"/>
			</linearGradient>
			<path display="inline" fill="url(#SVGID_9_)" d="M-317.3,931.6h-6.3l-1.1-7.2h-7.7l-1.1,7.2h-5.8l6.4-39.9h9.2L-317.3,931.6z
				 M-331.6,918.9h6l-3-20.2h-0.1L-331.6,918.9z"/>
			<linearGradient id="SVGID_10_" gradientUnits="userSpaceOnUse" x1="-314.3636" y1="911.6146" x2="-297.7677" y2="911.6146">
				<stop  offset="0" style="stop-color:#EE4623"/>
				<stop  offset="0.2542" style="stop-color:#CE483C"/>
				<stop  offset="0.809" style="stop-color:#7D4E7D"/>
				<stop  offset="1" style="stop-color:#605094"/>
			</linearGradient>
			<path display="inline" fill="url(#SVGID_10_)" d="M-314.4,891.7h6.3v34.2h10.3v5.7h-16.6V891.7z"/>
		</g>
		<g display="none">
			<linearGradient id="SVGID_11_" gradientUnits="userSpaceOnUse" x1="-501.8899" y1="943.9324" x2="-490.598" y2="943.9324">
				<stop  offset="0" style="stop-color:#EE4623"/>
				<stop  offset="0.2542" style="stop-color:#CE483C"/>
				<stop  offset="0.809" style="stop-color:#7D4E7D"/>
				<stop  offset="1" style="stop-color:#605094"/>
			</linearGradient>
			<path display="inline" fill="url(#SVGID_11_)" d="M-490.6,946C-490.6,946-490.6,946-490.6,946c0,1.1-0.3,1.9-1,2.3
				c-0.5,0.4-1.4,0.5-2.5,0.5h-3.5c-0.7,0-1.3,0-1.8-0.1c-0.5-0.1-0.9-0.2-1.2-0.4c-0.3-0.2-0.5-0.4-0.7-0.7
				c-0.2-0.3-0.3-0.7-0.4-1.1c-0.1-0.5-0.1-1.5-0.1-3c0-1.8,0.3-3,1-3.6h0c0.6-0.6,1.8-0.9,3.6-0.9h3.3c1.2,0,2,0.2,2.6,0.7
				c0.6,0.5,0.9,1.2,0.9,2.1v0c0,0.1,0,0.1-0.1,0.1h-1c-0.1,0-0.1,0-0.1-0.1v0c0-1-0.8-1.5-2.3-1.5h-3.4c-0.6,0-1,0-1.4,0.1
				c-0.4,0.1-0.7,0.2-0.9,0.3c-0.4,0.2-0.6,0.7-0.8,1.3c0,0.2-0.1,0.5-0.1,0.9c0,0.4,0,0.9,0,1.6c0,0.7,0,1.2,0.1,1.7
				c0.1,0.4,0.2,0.8,0.3,0.9c0.4,0.4,1.2,0.6,2.5,0.6h3.6c0.7,0,1.3-0.1,1.6-0.3c0.4-0.2,0.6-0.6,0.6-1.3v0c0-0.1,0-0.1,0.1-0.1h1
				L-490.6,946C-490.7,945.9-490.7,945.9-490.6,946L-490.6,946z"/>
			<linearGradient id="SVGID_12_" gradientUnits="userSpaceOnUse" x1="-488.7159" y1="943.9789" x2="-477.9219" y2="943.9789">
				<stop  offset="0" style="stop-color:#EE4623"/>
				<stop  offset="0.2542" style="stop-color:#CE483C"/>
				<stop  offset="0.809" style="stop-color:#7D4E7D"/>
				<stop  offset="1" style="stop-color:#605094"/>
			</linearGradient>
			<path display="inline" fill="url(#SVGID_12_)" d="M-479.1,948.9c-0.1,0-0.1,0-0.1-0.1c0-0.3,0-0.7,0-1.2c0-0.3,0-0.5,0-0.7
				c0-0.2,0-0.3,0-0.4c0-0.3,0-0.6-0.1-0.9c-0.1-0.2-0.1-0.4-0.2-0.6c-0.2-0.2-0.4-0.3-0.6-0.4c-0.3-0.1-0.6-0.1-1-0.1h-6.3v4.3
				c0,0.1,0,0.1-0.1,0.1h-1c-0.1,0-0.1,0-0.1-0.1v-9.5c0-0.1,0-0.2,0.1-0.2h6.9c2.2,0,3.3,0.9,3.3,2.6c0,0.4-0.1,0.8-0.2,1.1
				c-0.1,0.3-0.3,0.6-0.5,0.7c0.4,0.2,0.7,0.5,0.9,0.9c0.1,0.2,0.2,0.4,0.2,0.7c0,0.3,0.1,0.5,0.1,0.8v2.8c0,0.1,0,0.1-0.1,0.1
				H-479.1z M-481.4,940.4h-6v2.7h6c1.2,0,1.9-0.5,1.9-1.4C-479.6,940.9-480.2,940.4-481.4,940.4z"/>
			<linearGradient id="SVGID_13_" gradientUnits="userSpaceOnUse" x1="-475.9783" y1="943.9789" x2="-467.4081" y2="943.9789">
				<stop  offset="0" style="stop-color:#EE4623"/>
				<stop  offset="0.2542" style="stop-color:#CE483C"/>
				<stop  offset="0.809" style="stop-color:#7D4E7D"/>
				<stop  offset="1" style="stop-color:#605094"/>
			</linearGradient>
			<path display="inline" fill="url(#SVGID_13_)" d="M-475.8,948.9c-0.1,0-0.1,0-0.1-0.1v-9.5c0-0.1,0-0.2,0.1-0.2h8.3
				c0.1,0,0.1,0.1,0.1,0.2v1c0,0.1,0,0.2-0.1,0.2h-7.2v2.8h7c0.1,0,0.1,0.1,0.1,0.2v1c0,0.1,0,0.2-0.1,0.2h-7v3.1h7.2
				c0.1,0,0.1,0,0.1,0.1v1c0,0.1,0,0.1-0.1,0.1H-475.8z"/>
			<linearGradient id="SVGID_14_" gradientUnits="userSpaceOnUse" x1="-466.3195" y1="943.9789" x2="-454.7947" y2="943.9789">
				<stop  offset="0" style="stop-color:#EE4623"/>
				<stop  offset="0.2542" style="stop-color:#CE483C"/>
				<stop  offset="0.809" style="stop-color:#7D4E7D"/>
				<stop  offset="1" style="stop-color:#605094"/>
			</linearGradient>
			<path display="inline" fill="url(#SVGID_14_)" d="M-456.1,948.9L-456.1,948.9c-0.1,0-0.1,0-0.1,0L-456.1,948.9l-1.3-2.3h-6.5
				l-1.2,2.3v0c0,0,0,0,0,0h-0.1h-1.1c-0.1,0-0.1,0-0.1-0.1v0c0,0,0,0,0-0.1v0l4.9-9.6c0,0,0.1,0,0.1,0h1.5c0,0,0,0,0.1,0
				c0,0,0,0,0,0l4.9,9.6v0c0,0,0,0,0,0.1v0c0,0.1,0,0.1-0.1,0.1H-456.1z M-463.2,945.4h5.2l-2.6-5.2L-463.2,945.4z"/>
			<linearGradient id="SVGID_15_" gradientUnits="userSpaceOnUse" x1="-457.8274" y1="943.9789" x2="-447.3914" y2="943.9789">
				<stop  offset="0" style="stop-color:#EE4623"/>
				<stop  offset="0.2542" style="stop-color:#CE483C"/>
				<stop  offset="0.809" style="stop-color:#7D4E7D"/>
				<stop  offset="1" style="stop-color:#605094"/>
			</linearGradient>
			<path display="inline" fill="url(#SVGID_15_)" d="M-452,940.3v8.4c0,0.1,0,0.1-0.1,0.1h-1c-0.1,0-0.1,0-0.1-0.1v-8.4h-4.4
				c-0.1,0-0.2-0.1-0.2-0.2v-1c0-0.1,0.1-0.2,0.2-0.2h10.1c0.1,0,0.2,0.1,0.2,0.2v1c0,0.1-0.1,0.2-0.2,0.2H-452z"/>
			<linearGradient id="SVGID_16_" gradientUnits="userSpaceOnUse" x1="-446.1155" y1="943.9789" x2="-445.1204" y2="943.9789">
				<stop  offset="0" style="stop-color:#EE4623"/>
				<stop  offset="0.2542" style="stop-color:#CE483C"/>
				<stop  offset="0.809" style="stop-color:#7D4E7D"/>
				<stop  offset="1" style="stop-color:#605094"/>
			</linearGradient>
			<path display="inline" fill="url(#SVGID_16_)" d="M-446,948.9c-0.1,0-0.1,0-0.1-0.1v-9.5c0-0.1,0-0.2,0.1-0.2h0.8
				c0.1,0,0.1,0.1,0.1,0.2v9.5c0,0.1,0,0.1-0.1,0.1H-446z"/>
			<linearGradient id="SVGID_17_" gradientUnits="userSpaceOnUse" x1="-443.1454" y1="943.9789" x2="-432.4912" y2="943.9789">
				<stop  offset="0" style="stop-color:#EE4623"/>
				<stop  offset="0.2542" style="stop-color:#CE483C"/>
				<stop  offset="0.809" style="stop-color:#7D4E7D"/>
				<stop  offset="1" style="stop-color:#605094"/>
			</linearGradient>
			<path display="inline" fill="url(#SVGID_17_)" d="M-434,948.9C-434.1,948.9-434.1,948.9-434,948.9l-7.5-8.8h-0.3v8.7
				c0,0.1,0,0.1-0.1,0.1h-1c-0.1,0-0.1,0-0.1-0.1v-9.5c0-0.1,0-0.2,0.1-0.2h2.2c0,0,0.1,0,0.1,0.1l7,8.3v-8.2c0-0.1,0.1-0.2,0.2-0.2
				h1c0.1,0,0.1,0.1,0.1,0.2v9.5c0,0.1,0,0.1-0.1,0.1H-434z"/>
			<linearGradient id="SVGID_18_" gradientUnits="userSpaceOnUse" x1="-430.5316" y1="943.9324" x2="-419.2555" y2="943.9324">
				<stop  offset="0" style="stop-color:#EE4623"/>
				<stop  offset="0.2542" style="stop-color:#CE483C"/>
				<stop  offset="0.809" style="stop-color:#7D4E7D"/>
				<stop  offset="1" style="stop-color:#605094"/>
			</linearGradient>
			<path display="inline" fill="url(#SVGID_18_)" d="M-419.3,944.2C-419.3,944.2-419.3,944.2-419.3,944.2c0,0.7,0,1.2,0,1.6
				c0,0.4-0.1,0.7-0.1,1c-0.1,0.7-0.4,1.3-0.9,1.6c-0.3,0.2-0.6,0.3-1,0.4c-0.4,0.1-0.9,0.1-1.4,0.1h-3.5c-0.7,0-1.3,0-1.8-0.1
				c-0.5-0.1-0.9-0.2-1.2-0.4c-0.3-0.2-0.5-0.4-0.7-0.7c-0.2-0.3-0.3-0.7-0.4-1.1c0-0.3-0.1-0.6-0.1-1.1c0-0.5,0-1.1,0-1.9
				c0-1.8,0.3-3,0.9-3.6h0c0.6-0.6,1.8-0.9,3.6-0.9h3.3c1.2,0,2,0.2,2.6,0.7c0.6,0.5,0.9,1.2,0.9,2.1v0c0,0.1,0,0.1-0.1,0.1h-1
				c-0.1,0-0.1,0-0.1-0.1c0-0.3-0.1-0.6-0.2-0.8c-0.1-0.2-0.3-0.4-0.5-0.5c-0.2-0.1-0.4-0.1-0.7-0.2c-0.3-0.1-0.6-0.1-0.9-0.1h-3.3
				c-0.6,0-1,0-1.4,0.1c-0.4,0.1-0.7,0.2-0.9,0.3c-0.4,0.2-0.6,0.7-0.8,1.3c-0.1,0.3-0.1,1.2-0.1,2.4c0,1.4,0.2,2.2,0.5,2.6
				c0.4,0.4,1.2,0.6,2.5,0.6h3.6c0.9,0,1.5-0.2,1.8-0.5c0.1-0.1,0.2-0.4,0.3-0.7c0.1-0.3,0.1-0.7,0.1-1.1h-4.5
				c-0.1,0-0.2-0.1-0.2-0.2v-1c0-0.1,0.1-0.2,0.2-0.2h5.6C-419.4,944.1-419.4,944.1-419.3,944.2L-419.3,944.2z"/>
			<linearGradient id="SVGID_19_" gradientUnits="userSpaceOnUse" x1="-412.7545" y1="943.9789" x2="-402.1003" y2="943.9789">
				<stop  offset="0" style="stop-color:#EE4623"/>
				<stop  offset="0.2542" style="stop-color:#CE483C"/>
				<stop  offset="0.809" style="stop-color:#7D4E7D"/>
				<stop  offset="1" style="stop-color:#605094"/>
			</linearGradient>
			<path display="inline" fill="url(#SVGID_19_)" d="M-403.6,948.9C-403.7,948.9-403.7,948.9-403.6,948.9l-7.5-8.8h-0.3v8.7
				c0,0.1,0,0.1-0.1,0.1h-1c-0.1,0-0.1,0-0.1-0.1v-9.5c0-0.1,0-0.2,0.1-0.2h2.2c0,0,0.1,0,0.1,0.1l7,8.3v-8.2c0-0.1,0.1-0.2,0.2-0.2
				h1c0.1,0,0.1,0.1,0.1,0.2v9.5c0,0.1,0,0.1-0.1,0.1H-403.6z"/>
			<linearGradient id="SVGID_20_" gradientUnits="userSpaceOnUse" x1="-400.08" y1="943.9789" x2="-391.5091" y2="943.9789">
				<stop  offset="0" style="stop-color:#EE4623"/>
				<stop  offset="0.2542" style="stop-color:#CE483C"/>
				<stop  offset="0.809" style="stop-color:#7D4E7D"/>
				<stop  offset="1" style="stop-color:#605094"/>
			</linearGradient>
			<path display="inline" fill="url(#SVGID_20_)" d="M-399.9,948.9c-0.1,0-0.1,0-0.1-0.1v-9.5c0-0.1,0-0.2,0.1-0.2h8.3
				c0.1,0,0.1,0.1,0.1,0.2v1c0,0.1,0,0.2-0.1,0.2h-7.2v2.8h7c0.1,0,0.1,0.1,0.1,0.2v1c0,0.1,0,0.2-0.1,0.2h-7v3.1h7.2
				c0.1,0,0.1,0,0.1,0.1v1c0,0.1,0,0.1-0.1,0.1H-399.9z"/>
			<linearGradient id="SVGID_21_" gradientUnits="userSpaceOnUse" x1="-390.2331" y1="943.9789" x2="-372.752" y2="943.9789">
				<stop  offset="0" style="stop-color:#EE4623"/>
				<stop  offset="0.2542" style="stop-color:#CE483C"/>
				<stop  offset="0.809" style="stop-color:#7D4E7D"/>
				<stop  offset="1" style="stop-color:#605094"/>
			</linearGradient>
			<path display="inline" fill="url(#SVGID_21_)" d="M-376.7,948.8c0,0.1-0.1,0.1-0.1,0.1h-1.5c0,0-0.1-0.1-0.2-0.2l-3.1-8l-3,8
				c-0.1,0.1-0.1,0.2-0.2,0.2h-1.5c-0.1,0-0.1,0-0.1-0.1l-3.9-9.5v0c0-0.1,0.1-0.2,0.2-0.2h1.1c0.1,0,0.1,0.1,0.2,0.2l3.3,8.3
				l3.2-8.3c0.1-0.1,0.1-0.2,0.2-0.2h1.2c0.1,0,0.1,0.1,0.2,0.2l3.2,8.3l3.3-8.3c0.1-0.2,0.1-0.2,0.2-0.2h1.2c0.1,0,0.1,0.1,0.1,0.2
				v0L-376.7,948.8z"/>
			<linearGradient id="SVGID_22_" gradientUnits="userSpaceOnUse" x1="-366.6859" y1="943.9789" x2="-349.2044" y2="943.9789">
				<stop  offset="0" style="stop-color:#EE4623"/>
				<stop  offset="0.2542" style="stop-color:#CE483C"/>
				<stop  offset="0.809" style="stop-color:#7D4E7D"/>
				<stop  offset="1" style="stop-color:#605094"/>
			</linearGradient>
			<path display="inline" fill="url(#SVGID_22_)" d="M-353.1,948.8c0,0.1-0.1,0.1-0.1,0.1h-1.5c0,0-0.1-0.1-0.2-0.2l-3.1-8l-3,8
				c-0.1,0.1-0.1,0.2-0.2,0.2h-1.5c-0.1,0-0.1,0-0.1-0.1l-3.9-9.5v0c0-0.1,0.1-0.2,0.2-0.2h1.1c0.1,0,0.1,0.1,0.2,0.2l3.3,8.3
				l3.2-8.3c0.1-0.1,0.1-0.2,0.2-0.2h1.2c0.1,0,0.1,0.1,0.2,0.2l3.2,8.3l3.3-8.3c0.1-0.2,0.1-0.2,0.2-0.2h1.2c0.1,0,0.1,0.1,0.1,0.2
				v0L-353.1,948.8z"/>
			<linearGradient id="SVGID_23_" gradientUnits="userSpaceOnUse" x1="-350.8217" y1="943.9789" x2="-339.2978" y2="943.9789">
				<stop  offset="0" style="stop-color:#EE4623"/>
				<stop  offset="0.2542" style="stop-color:#CE483C"/>
				<stop  offset="0.809" style="stop-color:#7D4E7D"/>
				<stop  offset="1" style="stop-color:#605094"/>
			</linearGradient>
			<path display="inline" fill="url(#SVGID_23_)" d="M-340.6,948.9L-340.6,948.9c-0.1,0-0.1,0-0.1,0L-340.6,948.9l-1.3-2.3h-6.5
				l-1.2,2.3v0c0,0,0,0,0,0h-0.1h-1.1c-0.1,0-0.1,0-0.1-0.1v0c0,0,0,0,0-0.1v0l4.9-9.6c0,0,0.1,0,0.1,0h1.5c0,0,0,0,0.1,0
				c0,0,0,0,0,0l4.9,9.6v0c0,0,0,0,0,0.1v0c0,0.1,0,0.1-0.1,0.1H-340.6z M-347.7,945.4h5.2l-2.6-5.2L-347.7,945.4z"/>
			<linearGradient id="SVGID_24_" gradientUnits="userSpaceOnUse" x1="-342.3778" y1="943.9789" x2="-331.2569" y2="943.9789">
				<stop  offset="0" style="stop-color:#EE4623"/>
				<stop  offset="0.2542" style="stop-color:#CE483C"/>
				<stop  offset="0.809" style="stop-color:#7D4E7D"/>
				<stop  offset="1" style="stop-color:#605094"/>
			</linearGradient>
			<path display="inline" fill="url(#SVGID_24_)" d="M-336.2,944.3v4.5c0,0.1,0,0.1-0.1,0.1h-1.1c-0.1,0-0.1,0-0.1-0.1v-4.5l-4.9-5
				c0,0,0,0,0,0s0,0,0,0c0-0.1,0.1-0.2,0.2-0.2h1.3c0,0,0,0,0.1,0c0,0,0,0,0,0l4,4l4-4c0,0,0.1,0,0.1,0h1.4c0.1,0,0.1,0.1,0.1,0.2
				c0,0,0,0,0,0s0,0,0,0L-336.2,944.3z"/>
			<linearGradient id="SVGID_25_" gradientUnits="userSpaceOnUse" x1="-329.8897" y1="943.9789" x2="-318.5345" y2="943.9789">
				<stop  offset="0" style="stop-color:#EE4623"/>
				<stop  offset="0.2542" style="stop-color:#CE483C"/>
				<stop  offset="0.809" style="stop-color:#7D4E7D"/>
				<stop  offset="1" style="stop-color:#605094"/>
			</linearGradient>
			<path display="inline" fill="url(#SVGID_25_)" d="M-319.4,948.3c-0.3,0.2-0.6,0.3-1,0.4c-0.4,0.1-0.9,0.1-1.4,0.1h-4.8
				c-1,0-1.7-0.2-2.3-0.7c-0.6-0.5-0.9-1.2-0.9-2.2c0-0.1,0-0.1,0.1-0.1h1c0.1,0,0.1,0,0.1,0.1c0,0.3,0.1,0.6,0.2,0.8
				c0.1,0.2,0.3,0.4,0.5,0.5c0.2,0.1,0.4,0.2,0.7,0.2c0.3,0.1,0.6,0.1,0.9,0.1h4.5c0.4,0,0.6,0,0.9-0.1c0.2-0.1,0.4-0.1,0.6-0.2
				c0.2-0.1,0.4-0.3,0.4-0.5c0.1-0.2,0.1-0.5,0.1-0.8c0-0.6-0.3-1.1-0.9-1.3c-0.2-0.1-0.5-0.2-0.9-0.2c-0.4,0-0.8-0.1-1.3-0.1
				c-0.1,0-0.2,0-0.4,0c-0.1,0-0.3,0-0.5,0h-0.2h-0.3c0,0,0,0-0.1,0c0,0-0.1,0-0.1,0h-0.2c-0.2,0-0.4,0-0.6,0c-0.2,0-0.3,0-0.4,0
				c-1.3,0-2.3-0.2-3-0.5c-0.9-0.4-1.3-1.2-1.3-2.3c0-1.8,1-2.7,3-2.7h4.9c2.2,0,3.3,0.9,3.3,2.8c0,0.1,0,0.1-0.1,0.1h-1
				c-0.1,0-0.1,0-0.1-0.1c0-0.3-0.1-0.6-0.2-0.8c-0.1-0.2-0.3-0.4-0.5-0.5c-0.4-0.2-0.9-0.3-1.6-0.3h-4.8c-0.3,0-0.6,0-0.8,0.1
				c-0.2,0.1-0.4,0.1-0.5,0.2c-0.3,0.2-0.4,0.6-0.4,1.1c0,0.6,0.3,1,0.9,1.2c0.5,0.2,1.2,0.3,2.2,0.3c0.1,0,0.3,0,0.5,0
				c0.2,0,0.5,0,0.8,0c0,0,0.1,0,0.1,0c0,0,0.1,0,0.1,0h0.2c0.2,0,0.4,0,0.5,0c0.1,0,0.3,0,0.3,0c0.7,0,1.3,0,1.8,0.1
				c0.5,0.1,1,0.2,1.3,0.4c0.9,0.5,1.4,1.2,1.4,2.4C-318.5,947.1-318.8,947.9-319.4,948.3z"/>
		</g>
	</g>
	<g>
		<g>
			<linearGradient id="SVGID_26_" gradientUnits="userSpaceOnUse" x1="-225.9957" y1="411.2625" x2="-217.6746" y2="411.2625">
				<stop  offset="0" style="stop-color:#EE4623"/>
				<stop  offset="0.2542" style="stop-color:#CE483C"/>
				<stop  offset="0.809" style="stop-color:#7D4E7D"/>
				<stop  offset="1" style="stop-color:#605094"/>
			</linearGradient>
			<path fill="url(#SVGID_26_)" d="M-218.4,410.5h-6.8c-0.4,0-0.7,0.3-0.7,0.7c0,0.4,0.3,0.7,0.7,0.7h6.8c0.4,0,0.7-0.3,0.7-0.7
				C-217.7,410.9-218,410.5-218.4,410.5z"/>
			<linearGradient id="SVGID_27_" gradientUnits="userSpaceOnUse" x1="-225.1905" y1="413.6799" x2="-218.4789" y2="413.6799">
				<stop  offset="0" style="stop-color:#EE4623"/>
				<stop  offset="0.2542" style="stop-color:#CE483C"/>
				<stop  offset="0.809" style="stop-color:#7D4E7D"/>
				<stop  offset="1" style="stop-color:#605094"/>
			</linearGradient>
			<path fill="url(#SVGID_27_)" d="M-221.8,414.9c1.6,0,2.9-1,3.4-2.4h-6.7C-224.7,413.9-223.4,414.9-221.8,414.9z"/>
			<linearGradient id="SVGID_28_" gradientUnits="userSpaceOnUse" x1="-226.7877" y1="409.1186" x2="-216.8829" y2="409.1186">
				<stop  offset="0" style="stop-color:#EE4623"/>
				<stop  offset="0.2542" style="stop-color:#CE483C"/>
				<stop  offset="0.809" style="stop-color:#7D4E7D"/>
				<stop  offset="1" style="stop-color:#605094"/>
			</linearGradient>
			<path fill="url(#SVGID_28_)" d="M-217.8,408.2h-8.1c-0.5,0-0.9,0.4-0.9,0.9c0,0.5,0.4,0.9,0.9,0.9h8.1c0.5,0,0.9-0.4,0.9-0.9
				C-216.9,408.6-217.3,408.2-217.8,408.2z"/>
		</g>
		<g>
			<linearGradient id="SVGID_29_" gradientUnits="userSpaceOnUse" x1="-222.8128" y1="401.1655" x2="-220.8573" y2="401.1655">
				<stop  offset="0" style="stop-color:#EE4623"/>
				<stop  offset="0.2542" style="stop-color:#CE483C"/>
				<stop  offset="0.809" style="stop-color:#7D4E7D"/>
				<stop  offset="1" style="stop-color:#605094"/>
			</linearGradient>
			<rect x="-222.8" y="394.7" fill="url(#SVGID_29_)" width="2" height="13"/>
			<linearGradient id="SVGID_30_" gradientUnits="userSpaceOnUse" x1="-234.0631" y1="394.7416" x2="-209.6071" y2="394.7416">
				<stop  offset="0" style="stop-color:#EE4623"/>
				<stop  offset="0.2542" style="stop-color:#CE483C"/>
				<stop  offset="0.809" style="stop-color:#7D4E7D"/>
				<stop  offset="1" style="stop-color:#605094"/>
			</linearGradient>
			<path fill="url(#SVGID_30_)" d="M-210.3,396.3l-1.3-0.4c0.2-1.2,0.2-1.9,0-3l1.3-0.4c0.5-0.2,0.8-0.7,0.6-1.3l-0.5-1.4
				c-0.2-0.5-0.7-0.8-1.3-0.6l-1.3,0.4c-0.5-0.9-1.1-1.7-1.7-2.4l0.8-1.1c0.3-0.4,0.2-1.1-0.2-1.4l-1.2-0.9
				c-0.4-0.3-1.1-0.2-1.4,0.2l-0.8,1.1c-0.9-0.4-1.8-0.7-2.8-0.9v-1.3c0-0.6-0.5-1-1-1h-1.5c-0.6,0-1,0.5-1,1v1.3
				c-1,0.2-2,0.5-2.9,0.9l-0.8-1.1c-0.3-0.4-1-0.5-1.4-0.2l-1.2,0.9c-0.4,0.3-0.5,1-0.2,1.4l0.8,1.1c-0.7,0.7-1.3,1.5-1.7,2.4
				l-1.3-0.4c-0.5-0.2-1.1,0.1-1.3,0.6l-0.5,1.4c-0.2,0.5,0.1,1.1,0.6,1.3l1.3,0.4c-0.1,1-0.1,1.6-0.1,2c0,0.3,0,0.7,0.1,1l-1.3,0.4
				c-0.5,0.2-0.8,0.7-0.6,1.3l0.5,1.4c0.2,0.5,0.7,0.8,1.3,0.6l1.3-0.4c0,0,1.1,3.1,4,8.5c3.4,0,1.8,0,3.6,0c0-3,0-5.9,0-8.8h-2v6.6
				c-0.3-0.7-4.4-8.1-4.4-11c0-3.1,1.9-6,4.8-7.2c3-1.3,6.6-0.6,9,2.1c1.3,1.5,2,3.5,1.9,5.5c-0.3,2.7-3.1,8.3-4.4,10.7v-14.9h-2
				c0,2.4,0,15.5,0,17.2c4.2,0-0.6,0,3.7,0c3-5.5,3.9-8.2,4-8.5l1.3,0.4c0.5,0.2,1.1-0.1,1.3-0.6l0.5-1.4
				C-209.5,397-209.8,396.4-210.3,396.3z"/>
		</g>
		<g>
			<linearGradient id="SVGID_31_" gradientUnits="userSpaceOnUse" x1="-222.3379" y1="399.2644" x2="-218.9638" y2="380.9477">
				<stop  offset="0" style="stop-color:#EE4623"/>
				<stop  offset="0.2542" style="stop-color:#CE483C"/>
				<stop  offset="0.809" style="stop-color:#7D4E7D"/>
				<stop  offset="1" style="stop-color:#605094"/>
			</linearGradient>
			<path fill="url(#SVGID_31_)" d="M-220.9,398.4C-220.9,398.4-220.9,398.4-220.9,398.4l0.1-3.7h-2v3.1
				C-222.2,398-221.6,398.2-220.9,398.4z"/>
			<linearGradient id="SVGID_32_" gradientUnits="userSpaceOnUse" x1="-224.8735" y1="399.636" x2="-214.9033" y2="382.3672">
				<stop  offset="0" style="stop-color:#EE4623"/>
				<stop  offset="0.2542" style="stop-color:#CE483C"/>
				<stop  offset="0.809" style="stop-color:#7D4E7D"/>
				<stop  offset="1" style="stop-color:#605094"/>
			</linearGradient>
			<path fill="url(#SVGID_32_)" d="M-233.4,392.5l1.3,0.4c-0.1,1-0.1,1.6-0.1,2c0,0.2,0,0.3,0,0.5c0.5,0.1,1,0.2,1.5,0.3
				c0.4,0.1,0.8,0.2,1.2,0.3c-0.2-0.6-0.3-1.2-0.3-1.6c0-3.1,1.9-6,4.8-7.2c3-1.3,6.6-0.6,9,2.1c1.3,1.5,2,3.5,1.9,5.5
				c-0.1,1.3-0.9,3.3-1.7,5.3c0.8,0.3,1.6,0.5,2.4,0.8c0.4-1,0.6-1.5,0.7-1.6l1.3,0.4c0.5,0.2,1.1-0.1,1.3-0.6l0.5-1.4
				c0.2-0.5-0.1-1.1-0.6-1.3l-1.3-0.4c0.2-1.2,0.2-1.9,0-3l1.3-0.4c0.5-0.2,0.8-0.7,0.6-1.3l-0.5-1.4c-0.2-0.5-0.7-0.8-1.3-0.6
				l-1.3,0.4c-0.5-0.9-1.1-1.7-1.7-2.4l0.8-1.1c0.3-0.4,0.2-1.1-0.2-1.4l-1.2-0.9c-0.4-0.3-1.1-0.2-1.4,0.2l-0.8,1.1
				c-0.9-0.4-1.8-0.7-2.8-0.9v-1.3c0-0.6-0.5-1-1-1h-1.5c-0.6,0-1,0.5-1,1v1.3c-1,0.2-2,0.5-2.9,0.9l-0.8-1.1
				c-0.3-0.4-1-0.5-1.4-0.2l-1.2,0.9c-0.4,0.3-0.5,1-0.2,1.4l0.8,1.1c-0.7,0.7-1.3,1.5-1.7,2.4l-1.3-0.4c-0.5-0.2-1.1,0.1-1.3,0.6
				l-0.5,1.4C-234.2,391.7-233.9,392.3-233.4,392.5z"/>
			<linearGradient id="SVGID_33_" gradientUnits="userSpaceOnUse" x1="-220.2967" y1="399.6402" x2="-216.9227" y2="381.324">
				<stop  offset="0" style="stop-color:#EE4623"/>
				<stop  offset="0.2542" style="stop-color:#CE483C"/>
				<stop  offset="0.809" style="stop-color:#7D4E7D"/>
				<stop  offset="1" style="stop-color:#605094"/>
			</linearGradient>
			<path fill="url(#SVGID_33_)" d="M-220.4,398.6c0.7,0.2,1.3,0.4,2,0.6v-8.7h-2V398.6z"/>
		</g>
	</g>
</g>
</svg>
