<?xml version="1.0" encoding="utf-8"?>
<!-- Generator: Adobe Illustrator 18.1.1, SVG Export Plug-In . SVG Version: 6.00 Build 0)  -->
<svg version="1.1" id="Layer_1" xmlns="http://www.w3.org/2000/svg" xmlns:xlink="http://www.w3.org/1999/xlink" x="0px" y="0px"
	 viewBox="-205 297 200 200" enable-background="new -205 297 200 200" xml:space="preserve" height="200" width="200">
<g>
	<path fill="none" d="M-367.5,651c55.3,0,100,44.7,100,100s-44.7,100-100,100s-100-44.7-100-100S-422.6,651-367.5,651z"/>
</g>
<g>
	<g>
		<path fill="#999898" d="M-47.8,383.7h-29.6c-0.3-0.9-1.2-1.6-2.2-1.6c-1.7,0-2.9,1.8-2,3.4l-13.8,14.7c-0.8-0.4-1.7-0.2-2.3,0.3
			l-13.3-8.7c0.4-1.4-0.7-2.7-2.1-2.7c-1.7,0-2.8,1.9-1.9,3.3l-14.2,17.6c-1.2-0.4-2.4,0.2-2.8,1.3h-30.7c-0.8-2.3-4.2-1.7-4.2,0.7
			c0,2.4,3.4,3,4.2,0.7h30.7c0.8,2.3,4.2,1.7,4.2-0.7c0-0.4-0.1-0.8-0.3-1.1l14.2-17.6c0.8,0.3,1.5,0.1,2.1-0.3l13.3,8.7
			c-0.9,3.3,4.5,3.9,4.5,0.6c0-0.4-0.1-0.7-0.3-1.1l13.8-14.7c1.3,0.6,2.8-0.1,3.2-1.4h29.6c0.8,2.5,4.5,1.9,4.5-0.7
			C-43.3,381.8-47,381.2-47.8,383.7z"/>
		<path fill="#C6C6C6" d="M-162,400.9l7.6,0.8c0.4,3.1,1.1,6.1,2,8.9h9.5c-10.8-26.8,9.1-56.1,38-56.1c18.1,0,33.6,11.9,38.9,28.3
			h9.3c-0.6-2.3-1.4-4.5-2.3-6.7c6.1-4.4,7-4.7,6.5-5.7c-4.6-8-4.5-8.4-5.4-8.4c-0.3,0-7.1,3.1-7.3,3.2c-2.7-3.6-6-6.8-9.6-9.6
			c3.1-6.9,3.8-7.6,2.8-8.2l-8-4.6c-0.3-0.2-0.9-0.1-1.2,0.3l-4.5,6.2c-4.1-1.7-8.5-2.9-13.1-3.5c-0.7-7.6-0.6-8.4-1.7-8.4
			c-9.3,0-10-0.3-10.1,0.8l-0.8,7.6c-4.6,0.6-9,1.8-13.1,3.5c-4.5-6.3-4.4-6.6-5.2-6.6c-0.4,0-8,4.5-8.4,4.7
			c-0.4,0.2-0.5,0.8-0.4,1.2l3.2,7c-3.6,2.7-6.8,6-9.6,9.6c-6.9-3.1-7.6-3.8-8.2-2.8l-4.6,8c-0.2,0.4-0.1,0.9,0.3,1.2l6.2,4.5
			c-1.7,4.1-2.9,8.5-3.5,13.1c-7.6,0.7-8.4,0.6-8.4,1.7v9.2C-162.8,400.4-162.4,400.8-162,400.9z"/>
		<path fill="#FFFFFF" d="M-104.9,436.9c-16.2,0-30.2-9.5-36.8-23.2h-9.8c0.2,0.5,0.4,1.1,0.6,1.6c-6.1,4.4-7,4.7-6.5,5.7
			c4.6,8,4.5,8.4,5.4,8.4c0.3,0,7.1-3.1,7.3-3.2c2.7,3.6,6,6.8,9.6,9.6c-3.1,6.9-3.8,7.6-2.8,8.2l8,4.6c0.4,0.2,0.9,0.1,1.2-0.3
			l4.5-6.2c4.1,1.7,8.5,2.9,13.1,3.5c0.7,7.6,0.6,8.4,1.7,8.4c9.3,0,10,0.3,10.1-0.8l0.8-7.6c4.6-0.6,9-1.8,13.1-3.5
			c4.4,6.2,4.7,7,5.7,6.5c8-4.6,8.8-4.8,8.3-5.8l-3.2-7c3.6-2.7,6.8-6,9.6-9.6c6.8,3.1,7.6,3.8,8.2,2.8l4.6-8
			c0.2-0.4,0.1-0.9-0.3-1.2l-6.2-4.5c1.7-4.1,2.9-8.5,3.5-13.1c7.6-0.7,8.4-0.6,8.4-1.6c0-9.2,0.3-10-0.8-10.1l-7.6-0.8
			c-0.2-1.3-0.4-2.6-0.6-3.8h-9.2C-58.7,411.9-78.4,436.9-104.9,436.9z"/>
		<path fill="#FFFFFF" d="M-76.9,382.8h3v-10.2h-11.6v15.6l2.8-2.9C-83.8,381.7-78.8,379.5-76.9,382.8z"/>
		<path fill="#C6C6C6" d="M-80.4,387.5l-5,5.4c0,7.7,0,27.4,0,35.6c4.4-2.4,8.3-5.7,11.6-9.7c0-6.4,0-25.9,0-32.8h-3
			C-77.6,387.2-79,387.8-80.4,387.5z"/>
		<path fill="#FFFFFF" d="M-95.8,399.3l5.1-5.4v-5.4h-11.6v8.2l4.4,2.9C-97.2,399.2-96.5,399.1-95.8,399.3z"/>
		<path fill="#C6C6C6" d="M-102.2,433.3c4-0.2,7.9-1.1,11.6-2.5c0-11.5,0-20.3,0-32.4l-2.8,3c0.6,2-0.9,4-3,4
			c-1.9,0-3.2-1.6-3.1-3.3l-2.7-1.7C-102.2,417.3-102.2,425.6-102.2,433.3z"/>
		<path fill="#FFFFFF" d="M-113.3,388.3c1.7,0,3.1,1.3,3,3.1l2.7,1.8v-12.4h-11.6V396l2.9-3.6C-116.9,390.4-115.4,388.3-113.3,388.3
			z"/>
		<path fill="#C6C6C6" d="M-119.1,430.8c3.6,1.4,7.5,2.3,11.6,2.5c0-5.3,0-31.4,0-36.3l-4.5-2.9c-0.5,0.3-1.1,0.4-1.7,0.3l-5.4,6.7
			C-119.1,413-119.1,418.6-119.1,430.8z"/>
		<path fill="#C6C6C6" d="M-124.3,428.3v-20.8l-2.9,3.6c1.2,3.4-3.5,5.6-5.4,2.6h-3.2v5C-132.6,422.6-128.7,425.9-124.3,428.3z"/>
		<path fill="#FFFFFF" d="M-129.7,409.1l5.4-6.7c0-7,0,2.3,0-7.1h-11.6c0,15.3,0-0.2,0,15.2h3.2C-132,409.5-130.8,409-129.7,409.1z"
			/>
	</g>
</g>
<path fill="#999898" d="M-184.7,409.7"/>
</svg>
