<?xml version="1.0" encoding="utf-8"?>
<!-- Generator: Adobe Illustrator 18.1.1, SVG Export Plug-In . SVG Version: 6.00 Build 0)  -->
<svg version="1.1" id="_x2018_лой_x5F_1" xmlns="http://www.w3.org/2000/svg" xmlns:xlink="http://www.w3.org/1999/xlink"
	 x="0px" y="0px" viewBox="0 0 323.6 171" enable-background="new 0 0 323.6 171" xml:space="preserve">
<rect x="-2354.9" y="-794.5" display="none" fill="#F8FCFF" width="3200" height="2000"/>
<g>
	<path display="none" fill="#EBF3FA" d="M339.9,153.4c0,0.1-0.1,0.3-0.1,0.4c-0.4,1.2-0.9,2.5-1.4,3.8c-0.1,0.2-0.1,0.4-0.2,0.5
		c-0.6,1.5-1.3,3.1-2.1,4.7c0,0,0,0,0,0c0,0,0,0,0,0.1l-320.5,0.4c0.1-1.3-29.3-42.7,1.4-83c30.7-40.3,66.6-18.6,74-47
		c1.6-6.1,4.2-11.3,7.4-15.6c0.2-0.2,0.4-0.5,0.5-0.7c0.5-0.6,0.9-1.1,1.4-1.7c0.1-0.2,0.3-0.3,0.4-0.5c1.2-1.3,2.6-2.6,4-3.7
		c0.3-0.2,0.6-0.5,0.8-0.7h0c17.1-13.3,43.9-12.8,63-4.8c25.4,10.5,72-7.8,111.8,5.6c0.7,0.2,1.3,0.5,2,0.7h0c1.4,0.5,2.7,1,4.1,1.6
		c3,1.3,5.5,2.7,7.8,4.3c0.3,0.2,0.6,0.5,0.9,0.7h0c27.6,20.8,3.1,64.4,17.3,71.1c8.9,4.2,22.1,13.7,27.8,29.2
		c0.1,0.2,0.1,0.4,0.2,0.6c0.1,0.2,0.2,0.4,0.2,0.7c0.1,0.2,0.1,0.4,0.2,0.6C343.9,129.7,344.2,140.5,339.9,153.4z"/>
	<g opacity="0.4">
		<g>
			<rect x="171.6" y="12.4" fill="#C3DAFC" width="27.7" height="22.8"/>
			<rect x="185.5" y="12.4" fill="#D4E4F8" width="27.7" height="22.8"/>
			<polygon fill="#9DC3F3" points="171.6,29.5 176,29.5 175.6,28.2 176,27.4 171.6,27.4 			"/>
			<polygon fill="#E3F0FF" points="185.5,19.5 189.9,19.5 189.5,18.3 189.9,17.4 185.5,17.4 			"/>
			<polygon fill="#9DC3F3" points="185.5,17.4 181.1,17.4 181.5,18.6 181.1,19.5 185.5,19.5 			"/>
			<polygon fill="#E3F0FF" points="213.2,29.7 208.8,29.7 209.2,31 208.8,31.8 213.2,31.8 			"/>
			<rect x="203.4" y="14" fill="#FFFFFF" width="8" height="3.1"/>
		</g>
		<g>
			<rect x="122.7" y="12.4" fill="#C3DAFC" width="27.7" height="22.8"/>
			<rect x="136.5" y="12.4" fill="#D4E4F8" width="27.7" height="22.8"/>
			<polygon fill="#9DC3F3" points="122.7,29.5 127.1,29.5 126.7,28.2 127.1,27.4 122.7,27.4 			"/>
			<polygon fill="#E3F0FF" points="136.5,19.5 140.9,19.5 140.5,18.3 140.9,17.4 136.5,17.4 			"/>
			<polygon fill="#9DC3F3" points="136.5,17.4 132.2,17.4 132.5,18.6 132.2,19.5 136.5,19.5 			"/>
			<polygon fill="#E3F0FF" points="164.2,29.7 159.9,29.7 160.2,31 159.9,31.8 164.2,31.8 			"/>
			<rect x="154.5" y="14" fill="#FFFFFF" width="8" height="3.1"/>
		</g>
		<g>
			<rect x="104.8" y="35.3" fill="#C3DAFC" width="10.7" height="127.1"/>
			<rect x="221.6" y="35.3" fill="#C3DAFC" width="8.9" height="127.1"/>
			<rect x="115.4" y="35.3" fill="#C3DAFC" width="115" height="3.3"/>
			<rect x="115.4" y="95.5" fill="#C3DAFC" width="115" height="3.3"/>
			<rect x="115.4" y="146" fill="#C3DAFC" width="115" height="3.3"/>
			<g>
				<rect x="173.5" y="71.9" fill="#A9C8ED" width="28.6" height="23.6"/>
				<rect x="187.8" y="71.9" fill="#D4E4F8" width="28.6" height="23.6"/>
				<polygon fill="#9DC3F3" points="173.5,89.5 178.1,89.5 177.7,88.2 178.1,87.3 173.5,87.3 				"/>
				<polygon fill="#E3F0FF" points="187.8,79.2 192.4,79.2 192,77.9 192.4,77 187.8,77 				"/>
				<polygon fill="#9DC3F3" points="187.8,77 183.3,77 183.7,78.3 183.3,79.2 187.8,79.2 				"/>
				<polygon fill="#E3F0FF" points="216.5,89.8 212,89.8 212.4,91 212,92 216.5,92 				"/>
				<rect x="206.4" y="73.5" fill="#FFFFFF" width="8.2" height="3.2"/>
			</g>
			<g>
				<rect x="136.8" y="71.9" fill="#C3DAFC" width="28.6" height="23.6"/>
				<rect x="151.1" y="71.9" fill="#D4E4F8" width="28.6" height="23.6"/>
				<polygon fill="#9DC3F3" points="136.8,89.5 141.3,89.5 140.9,88.2 141.3,87.3 136.8,87.3 				"/>
				<polygon fill="#E3F0FF" points="151.1,79.2 155.6,79.2 155.2,77.9 155.6,77 151.1,77 				"/>
				<polygon fill="#9DC3F3" points="151.1,77 146.6,77 147,78.3 146.6,79.2 151.1,79.2 				"/>
				<polygon fill="#E3F0FF" points="179.7,89.8 175.2,89.8 175.6,91 175.2,92 179.7,92 				"/>
				<polygon fill="#E3F0FF" points="179.7,76.7 175.2,76.7 175.6,78 175.2,78.9 179.7,78.9 				"/>
				<rect x="154" y="87.7" fill="#FFFFFF" width="13.4" height="5.2"/>
			</g>
			<g>
				<rect x="173.5" y="125.5" fill="#C3DAFC" width="24.8" height="20.4"/>
				<rect x="185.9" y="125.5" fill="#D4E4F8" width="24.8" height="20.4"/>
				<polygon fill="#9DC3F3" points="173.5,140.8 177.5,140.8 177.1,139.7 177.5,138.9 173.5,138.9 				"/>
				<polygon fill="#E3F0FF" points="185.9,131.9 189.8,131.9 189.5,130.7 189.8,130 185.9,130 				"/>
				<polygon fill="#9DC3F3" points="185.9,130 182,130 182.3,131.1 182,131.9 185.9,131.9 				"/>
				<polygon fill="#E3F0FF" points="210.7,141 206.7,141 207.1,142.1 206.7,142.9 210.7,142.9 				"/>
				<rect x="201.9" y="126.9" fill="#FFFFFF" width="7.1" height="2.8"/>
			</g>
			<g>
				<rect x="126.5" y="122.3" fill="#C3DAFC" width="28.6" height="23.6"/>
				<rect x="140.8" y="122.3" fill="#D4E4F8" width="28.6" height="23.6"/>
				<polygon fill="#2A4E96" points="126.5,140 131.1,140 130.7,138.7 131.1,137.8 126.5,137.8 				"/>
				<polygon fill="#618DC1" points="140.8,129.6 145.4,129.6 145,128.4 145.4,127.4 140.8,127.4 				"/>
				<polygon fill="#2A4E96" points="140.8,127.4 136.3,127.4 136.7,128.7 136.3,129.6 140.8,129.6 				"/>
				<polygon fill="#618DC1" points="169.5,140.2 164.9,140.2 165.3,141.5 164.9,142.4 169.5,142.4 				"/>
				<rect x="159.4" y="123.9" fill="#FFFFFF" width="8.2" height="3.2"/>
			</g>
			<g>
				<rect x="134.6" y="53.7" fill="#C3DAFC" width="21.9" height="18.1"/>
				<rect x="145.5" y="53.7" fill="#D4E4F8" width="21.9" height="18.1"/>
				<polygon fill="#9DC3F3" points="134.6,67.2 138.1,67.2 137.8,66.2 138.1,65.5 134.6,65.5 				"/>
				<polygon fill="#E3F0FF" points="145.5,59.3 149,59.3 148.7,58.3 149,57.6 145.5,57.6 				"/>
				<polygon fill="#9DC3F3" points="145.5,57.6 142.1,57.6 142.4,58.6 142.1,59.3 145.5,59.3 				"/>
				<polygon fill="#E3F0FF" points="167.4,67.4 164,67.4 164.3,68.4 164,69.1 167.4,69.1 				"/>
				<rect x="159.7" y="54.9" fill="#FFFFFF" width="6.3" height="2.5"/>
			</g>
			<g>
				<rect x="173.7" y="53.7" fill="#C3DAFC" width="21.9" height="18.1"/>
				<rect x="184.6" y="53.7" fill="#D4E4F8" width="21.9" height="18.1"/>
				<polygon fill="#9DC3F3" points="173.7,67.2 177.2,67.2 176.9,66.2 177.2,65.5 173.7,65.5 				"/>
				<polygon fill="#E3F0FF" points="184.6,59.3 188.1,59.3 187.8,58.3 188.1,57.6 184.6,57.6 				"/>
				<polygon fill="#9DC3F3" points="184.6,57.6 181.2,57.6 181.5,58.6 181.2,59.3 184.6,59.3 				"/>
				<polygon fill="#E3F0FF" points="206.5,67.4 203.1,67.4 203.4,68.4 203.1,69.1 206.5,69.1 				"/>
				<rect x="198.8" y="54.9" fill="#FFFFFF" width="6.3" height="2.5"/>
			</g>
		</g>
	</g>
	<g>
		<g>
			<rect x="232.5" y="71.7" fill="#AB678A" width="24.7" height="20.3"/>
			<rect x="220.2" y="71.7" fill="#BC719A" width="24.7" height="20.3"/>
			<polygon fill="#BC719A" points="257.2,86.9 253.3,86.9 253.6,85.8 253.3,85 257.2,85 			"/>
			<polygon fill="#AB678A" points="244.8,78 240.9,78 241.3,76.9 240.9,76.1 244.8,76.1 			"/>
			<polygon fill="#BC719A" points="244.8,76.1 248.8,76.1 248.4,77.2 248.8,78 244.8,78 			"/>
			<polygon fill="#AB678A" points="220.2,87.1 224.1,87.1 223.7,88.2 224.1,89 220.2,89 			"/>
			<rect x="221.8" y="73.1" fill="#AB678A" width="7.1" height="2.8"/>
		</g>
		<g>
			<path fill="#2B478B" d="M258.1,16.4c-3.5,0-7.2-0.6-9.3-1.7c-3.3-1.9-7.4-1.1-7.5-1.1l-0.1-0.5c0.2,0,4.4-0.8,7.8,1.1
				c3.4,2,11.8,2.1,15.6,0.8c3.8-1.3,8.8-2.7,10.8-2.7v0.5c-2,0-6.9,1.4-10.7,2.6C263.1,16.1,260.6,16.4,258.1,16.4z"/>
		</g>
		<rect x="236.1" y="52.9" fill="#2B478B" width="1.6" height="10.6"/>
		<rect x="239.3" y="52.9" fill="#2B478B" width="1.6" height="10.6"/>
		<g>
			<path fill="#2B478B" d="M258.1,15.3c-3.5,0-7.2-0.6-9.3-1.7c-3.3-1.9-7.4-1.1-7.5-1.1l-0.1-0.5c0.2,0,4.4-0.8,7.8,1.1
				c3.4,2,11.8,2.1,15.6,0.8c3.8-1.3,8.8-2.7,10.8-2.7v0.5c-2,0-6.9,1.4-10.7,2.6C263.1,15,260.6,15.3,258.1,15.3z"/>
		</g>
		<g>
			<path fill="#2B478B" d="M292.1,76.9h-0.7v-0.5h0.7c3.1,0,5.6-2.5,5.6-5.6V12.4c0-3.1-2.5-5.6-5.6-5.6h-5V6.2h5
				c3.4,0,6.2,2.8,6.2,6.2v58.4C298.3,74.2,295.5,76.9,292.1,76.9z"/>
		</g>
		<g>
			<path fill="#2B478B" d="M291.5,72v-0.5c2.2,0,3.9-1.8,3.9-3.9V13.3c0-2.1-1.7-3.8-3.8-3.8h-3.9V8.9h3.9c2.4,0,4.3,1.9,4.3,4.3
				v54.3C295.9,70,293.9,72,291.5,72z"/>
		</g>
		<path fill="#AEC3FF" d="M238.5,55.3h-0.5c-5.7,0-10.4-4.6-10.4-10.4V27.2c0-5.7,4.6-10.4,10.4-10.4h0.5c5.7,0,10.4,4.6,10.4,10.4
			v17.7C248.9,50.6,244.3,55.3,238.5,55.3z"/>
		<g>
			<path fill="#DDE7FE" d="M231.8,23c-0.6-1.6,0.9-3,2.4-2.4c0.5,0.2,0.8,0.5,1,1c0.6,1.6-0.9,3-2.4,2.4
				C232.4,23.9,232,23.5,231.8,23z"/>
			<path fill="#DDE7FE" d="M231.8,49.3c-0.6-1.6,0.9-3,2.4-2.4c0.5,0.2,0.8,0.5,1,1c0.6,1.6-0.9,3-2.4,2.4
				C232.4,50.1,232,49.8,231.8,49.3z"/>
			<path fill="#DDE7FE" d="M241.4,23c-0.6-1.6,0.9-3,2.4-2.4c0.5,0.2,0.8,0.5,1,1c0.6,1.6-0.9,3-2.4,2.4
				C241.9,23.9,241.5,23.5,241.4,23z"/>
			<path fill="#DDE7FE" d="M241.4,49.3c-0.6-1.6,0.9-3,2.4-2.4c0.5,0.2,0.8,0.5,1,1c0.6,1.6-0.9,3-2.4,2.4
				C241.9,50.1,241.5,49.8,241.4,49.3z"/>
		</g>
		<path fill="#98B5F4" d="M246.2,65.3c0,0.4-0.1,0.7-0.2,1.1h-14.5c-0.2-0.4-0.2-0.7-0.2-1.1c0-2.4,3.3-4.3,7.5-4.3
			S246.2,62.9,246.2,65.3z"/>
		<g>
			<path fill="#2B478B" d="M258.7,70.3v19.7c0,1.6-0.8,3.1-2.1,3.9l-6,4.1c-0.4,0.3-1,0.2-1.3-0.2l0,0c-0.3-0.4-0.2-1,0.2-1.3l6-4.1
				c0.8-0.5,1.3-1.4,1.3-2.4V70.3c0-2.1-1.7-3.9-3.9-3.9h-28.5c-2.1,0-3.9,1.7-3.9,3.9v19.6c0,1,0.5,1.9,1.4,2.5l6.7,4.2
				c0.4,0.3,0.6,0.9,0.3,1.3l0,0c-0.3,0.4-0.9,0.6-1.3,0.3l-6.7-4.2c-1.4-0.9-2.3-2.4-2.3-4.1V70.3c0-3.2,2.6-5.7,5.7-5.7H253
				C256.1,64.5,258.7,67.1,258.7,70.3z"/>
		</g>
		<rect x="237.7" y="5" fill="#2B478B" width="39.3" height="1.2"/>
		<rect x="237.7" y="8.4" fill="#2B478B" width="39.3" height="1.2"/>
		<path fill="#98B5F4" d="M243.4,16.9h-11.7V8.6c0-3.3,2.7-6.1,6.1-6.1l0,0c3.3,0,6.1,2.7,6.1,6.1v7.8
			C243.8,16.7,243.6,16.9,243.4,16.9z"/>
		<path fill="#AEC3FF" d="M282.2,2.6h-0.3c-4.4,0-7.9,3.5-7.9,7.9v101c0,4.4,3.5,7.9,7.9,7.9h0.3c4.4,0,7.9-3.5,7.9-7.9v-101
			C290.1,6.1,286.6,2.6,282.2,2.6z"/>
		<path fill="#2B478B" d="M281.2,8.7c-0.4-0.9,0.4-1.7,1.3-1.3c0.1,0.1,0.3,0.2,0.3,0.3c0.4,0.9-0.4,1.7-1.3,1.3
			C281.4,9,281.3,8.9,281.2,8.7z"/>
		<path fill="#98B5F4" d="M281.9,97h-0.4c-5.2,0-9.5-4.3-9.5-9.5V28.6c0-5.2,4.3-9.5,9.5-9.5h0.4c5.2,0,9.5,4.3,9.5,9.5v58.9
			C291.5,92.7,287.2,97,281.9,97z"/>
		<path fill="#98B5F4" d="M292.6,125.3h-14.1c-3.5,0-6.4-2.9-6.4-6.4v-0.3c0-3.5,2.9-6.4,6.4-6.4h7.7c3.5,0,6.4,2.9,6.4,6.4V125.3z"
			/>
		<g>
			<path fill="#98B5F4" d="M234.3,9.6C233.4,6.7,236,4,238.9,5c1,0.3,1.8,1.2,2.2,2.2c1,2.9-1.7,5.5-4.6,4.6
				C235.5,11.4,234.7,10.6,234.3,9.6z"/>
			<g>
				<path fill="#2B478B" d="M237.7,12c-2,0-3.7-1.7-3.7-3.7c0-2,1.7-3.7,3.7-3.7c2,0,3.7,1.7,3.7,3.7C241.4,10.4,239.8,12,237.7,12z
					 M237.7,4.9c-1.9,0-3.5,1.6-3.5,3.5c0,1.9,1.6,3.5,3.5,3.5c1.9,0,3.5-1.6,3.5-3.5C241.2,6.4,239.6,4.9,237.7,4.9z"/>
			</g>
			<path fill="#AEC3FF" d="M235.7,9.3c-0.8-1.9,1-3.7,2.9-2.9c0.5,0.2,0.9,0.6,1.1,1.1c0.8,1.9-1,3.7-2.9,2.9
				C236.3,10.2,235.9,9.8,235.7,9.3z"/>
		</g>
	</g>
	<g>
		<path fill="#AEC3FF" d="M292.2,151.2H162c-4.9,0-8.9-5.8-8.9-12.9l0,0c0-7.1,4-12.9,8.9-12.9h130.2c4.9,0,8.9,5.8,8.9,12.9l0,0
			C301.1,145.4,297.1,151.2,292.2,151.2z"/>
		<path fill="#C5D7FF" d="M301.1,138.2c0,3.6-1,6.8-2.6,9.1c-1.6,2.3-3.8,3.8-6.3,3.8h-22.1c-0.5,0-0.9-0.6-0.9-1.2v-23.4
			c0-0.7,0.4-1.2,0.9-1.2h22.1C297.1,125.3,301.1,131.1,301.1,138.2z"/>
		<path fill="#C5D7FF" d="M273.9,151.6c0,0.2-0.1,0.3-0.1,0.5c-0.3,1.4-0.5,2.8-0.9,4.2c0,0.2-0.1,0.4-0.1,0.6
			c-0.4,1.7-0.8,3.4-1.3,5.2c0,0,0,0,0,0l-11.1,0l-102.1,0.1v-10.7H273.9z"/>
		<g>
			<path fill="#D2E0FF" d="M204.6,143.5c-0.1,0.3-0.3,0.7-0.4,0.9c0,0.1-0.1,0.1-0.1,0.1c-0.2,0.2-0.4,0.3-0.6,0.4
				c-1.1,0.4-2.2-1-2-2.8c0-0.2,0.1-0.4,0.1-0.5c0.1-0.3,0.3-0.8,0.5-1c0,0,0,0,0.1-0.1C203.5,139.3,205.1,141.2,204.6,143.5z"/>
		</g>
		<g>
			<path fill="#98B5F4" d="M217,135.5l-1.1-0.3c-0.1,0-0.2-0.1-0.2-0.2c0-0.2-0.1-0.3-0.1-0.5c-0.1-0.3-0.2-0.6-0.3-0.9
				c-0.1-0.1,0-0.3,0-0.4l0.7-1.3c0.1-0.1,0.1-0.3,0-0.5l-0.8-1c-0.1-0.1-0.2-0.1-0.3,0l-0.8,1c-0.1,0.1-0.2,0.1-0.3,0
				c-0.4-0.3-0.8-0.6-1.2-0.7c-0.1,0-0.2-0.2-0.2-0.3l0-0.9c0-0.2-0.1-0.3-0.2-0.3l-1-0.1c0,0,0,0-0.1,0c-0.1,0-0.2,0.1-0.2,0.3
				l-0.1,1.2l0,0.3c-0.2,0.1-0.4,0.1-0.6,0.3c-0.3,0.1-0.5,0.3-0.7,0.5c-0.1,0.1-0.2,0.1-0.3,0l-0.7-0.8c-0.1-0.1-0.2-0.1-0.3,0
				l-0.5,0.9l-0.2,0.2c-0.1,0.1-0.1,0.3,0,0.5l0.6,1c0.1,0.1,0.1,0.3,0,0.4c-0.2,0.4-0.3,0.8-0.4,1.2c0,0,0,0.1,0,0.1c0,0,0,0,0,0
				c0,0.1-0.1,0.2-0.2,0.2l-1.1,0c0,0,0,0,0,0c-0.1,0-0.2,0.2-0.2,0.3l-0.1,1.5c0,0.2,0.1,0.3,0.2,0.4l1.1,0.3
				c0.1,0,0.2,0.1,0.2,0.3c0,0.3,0.1,0.6,0.2,0.9c0,0.2,0.1,0.3,0.1,0.5c0,0.1,0,0.3,0,0.4l-0.7,1.3c-0.1,0.1-0.1,0.3,0,0.5l0.8,1
				c0.1,0.1,0.2,0.1,0.3,0l0.6-0.8c0.1-0.1,0.2-0.1,0.3,0c0.4,0.4,0.8,0.7,1.2,0.9c0.1,0,0.2,0.2,0.2,0.3l0,1.4
				c0,0.2,0.1,0.3,0.2,0.4l1,0.1c0.1,0,0.2-0.1,0.3-0.3l0-0.1l0.2-1.4c0-0.1,0.1-0.3,0.2-0.3l0,0c0.2-0.1,0.5-0.2,0.7-0.3
				c0.1-0.1,0.2-0.2,0.4-0.2c0.1-0.1,0.2,0,0.3,0l0.7,0.8c0.1,0.1,0.2,0.1,0.3,0l0.7-1.1c0,0,0-0.1,0-0.1c0-0.1,0-0.3,0-0.4
				l-0.5-0.8c-0.1-0.1-0.1-0.2,0-0.3c0,0,0-0.1,0-0.1c0.3-0.7,0.6-1.4,0.7-2.2c0-0.1,0.1-0.2,0.2-0.3c0,0,0,0,0,0l0.9,0
				c0.1,0,0.2-0.1,0.2-0.3l0,0l0.1-1.5C217.2,135.7,217.1,135.5,217,135.5z M213.9,137.2c0,0.4-0.2,1-0.4,1.4c0,0.1-0.1,0.2-0.1,0.3
				c-0.2,0.3-0.5,0.6-0.7,0.8c-1.4,1.1-3.2-0.2-3.3-2.7c0-0.2,0-0.5,0-0.8c0-0.5,0.3-1.2,0.5-1.6c0,0,0.1-0.1,0.1-0.1
				C211.5,132.1,214.1,133.8,213.9,137.2z"/>
		</g>
		<g>
			<path fill="#2B478B" d="M292.2,151.7H162c-5.1,0-9.3-6.1-9.3-13.5c0-3.6,1-7,2.7-9.5c1.8-2.6,4.1-4,6.6-4h130.2
				c5.1,0,9.3,6.1,9.3,13.5c0,3.6-1,7-2.7,9.6C297,150.3,294.7,151.7,292.2,151.7z M162,125.9c-2.3,0-4.4,1.3-6,3.6
				c-1.6,2.3-2.5,5.4-2.5,8.7c0,6.8,3.8,12.3,8.5,12.3h130.2c2.3,0,4.4-1.3,6-3.6c1.6-2.3,2.5-5.4,2.5-8.7c0-6.8-3.8-12.3-8.5-12.3
				H162z"/>
		</g>
	</g>
	<g>
		<path fill="#C0D8FB" d="M55.6,71.8h-0.7c-3.8,0-7-3.1-7-7v-0.3c0-3.8,3.1-7,7-7h0.7c3.8,0,7,3.1,7,7v0.3
			C62.5,68.7,59.4,71.8,55.6,71.8z"/>
		<path fill="#DFEBFD" d="M55.5,71.2h-0.7c-3.5,0-6.3-2.9-6.3-6.3v-0.3c0-3.5,2.9-6.3,6.3-6.3h0.7c3.5,0,6.3,2.9,6.3,6.3v0.3
			C61.9,68.4,59,71.2,55.5,71.2z"/>
		<g>
			<g>
				<path fill="#B7D3F3" d="M54.9,59.7c-0.1-0.3,0.1-0.5,0.4-0.4c0.1,0,0.1,0.1,0.2,0.2c0.1,0.3-0.1,0.5-0.4,0.4
					C55,59.8,54.9,59.7,54.9,59.7z"/>
				<path fill="#B7D3F3" d="M57.3,60.1c0-0.3,0.4-0.3,0.5-0.2c0.1,0.1,0.1,0.2,0.1,0.3c0,0.3-0.4,0.3-0.5,0.2
					C57.3,60.3,57.3,60.2,57.3,60.1z"/>
				<path fill="#B7D3F3" d="M59.3,61.7c0.2-0.2,0.5-0.1,0.5,0.1c0,0.1,0,0.2-0.1,0.3c-0.2,0.2-0.5,0.1-0.5-0.1
					C59.3,61.9,59.3,61.8,59.3,61.7z"/>
				<path fill="#B7D3F3" d="M60.4,64.2c0.3-0.1,0.5,0.1,0.4,0.4c0,0.1-0.1,0.1-0.2,0.2c-0.3,0.1-0.5-0.1-0.4-0.4
					C60.2,64.3,60.3,64.3,60.4,64.2z"/>
				<path fill="#B7D3F3" d="M59.9,67.2c0.2,0.1,0.2,0.4,0,0.5c-0.1,0-0.2,0-0.3,0c-0.2-0.1-0.2-0.4,0-0.5
					C59.7,67.1,59.8,67.1,59.9,67.2z"/>
				<path fill="#B7D3F3" d="M58,69.1c0.2,0.1,0.2,0.4,0,0.5c-0.1,0-0.2,0-0.3,0c-0.2-0.1-0.2-0.4,0-0.5C57.8,69,57.9,69,58,69.1z"/>
				<path fill="#B7D3F3" d="M54.9,70.2c-0.1-0.3,0.1-0.5,0.4-0.4c0.1,0,0.1,0.1,0.2,0.2c0.1,0.3-0.1,0.5-0.4,0.4
					C55,70.4,54.9,70.3,54.9,70.2z"/>
			</g>
			<g>
				<path fill="#B7D3F3" d="M53.1,60.1c0-0.3-0.4-0.3-0.5-0.2c-0.1,0.1-0.1,0.2-0.1,0.3c0,0.3,0.4,0.3,0.5,0.2
					C53.1,60.3,53.1,60.2,53.1,60.1z"/>
				<path fill="#B7D3F3" d="M51,61.7c-0.2-0.2-0.5-0.1-0.5,0.1c0,0.1,0,0.2,0.1,0.3c0.2,0.2,0.5,0.1,0.5-0.1
					C51.1,61.9,51.1,61.8,51,61.7z"/>
				<path fill="#B7D3F3" d="M50,64.2c-0.3-0.1-0.5,0.1-0.4,0.4c0,0.1,0.1,0.1,0.2,0.2c0.3,0.1,0.5-0.1,0.4-0.4
					C50.1,64.3,50.1,64.3,50,64.2z"/>
				<path fill="#B7D3F3" d="M50.5,67.2c-0.2,0.1-0.2,0.4,0,0.5c0.1,0,0.2,0,0.3,0c0.2-0.1,0.2-0.4,0-0.5
					C50.7,67.1,50.6,67.1,50.5,67.2z"/>
				<path fill="#B7D3F3" d="M52.4,69.1c-0.2,0.1-0.2,0.4,0,0.5c0.1,0,0.2,0,0.3,0c0.2-0.1,0.2-0.4,0-0.5C52.6,69,52.5,69,52.4,69.1z
					"/>
			</g>
		</g>
		<g>
			<path fill="#B7D3F3" d="M55.1,64.6c-0.1-0.3,0.1-0.5,0.4-0.4c0.1,0,0.1,0.1,0.2,0.2c0.1,0.3-0.1,0.5-0.4,0.4
				C55.2,64.8,55.2,64.7,55.1,64.6z"/>
			<g>
				<rect x="55.4" y="60.7" fill="#B7D3F3" width="0.1" height="3.8"/>
			</g>
			<g>
				
					<rect x="56.2" y="62.5" transform="matrix(0.6175 0.7866 -0.7866 0.6175 71.6912 -19.964)" fill="#B7D3F3" width="0.2" height="2.6"/>
			</g>
		</g>
	</g>
	<g display="none">
		<g display="inline">
			<polygon fill="#C15E1B" points="166.1,108.5 168.8,108.5 168.5,107.7 168.8,107.2 166.1,107.2 			"/>
			<polygon fill="#FFB27D" points="191.2,108.6 188.6,108.6 188.8,109.4 188.6,109.9 191.2,109.9 			"/>
			<rect x="185.3" y="99.1" fill="#FFFFFF" width="4.8" height="1.9"/>
		</g>
		<path display="inline" fill="#FFC299" d="M183.3,111.4c0.4-0.3,1.3-0.8,1.4-0.7c0,0.1,0,0.3-0.1,0.4c0.6-0.2,1.1-0.3,2.4,0
			c0.3,0.1,0.5,0.2,0.6,0.4c0.1,0.2,0.2,0.5-0.2,0.7c-0.7,0.4-0.5,0.1-1.4,0.7c-0.9,0.6-2.1,0.7-2.7,0.2l-0.9-0.2l-0.1-1.5
			C182.3,111.5,182.8,111.5,183.3,111.4z"/>
		<path display="inline" fill="#FFB27D" d="M164.9,96.5c-2.5,1.5-5.1-0.6-5.1-0.6s1-2.5,0.4-5.9c0-0.1,4.3,1.7,4.5,1.7c0,0,0,0,0,0
			s0,0,0,0c0,0,0,0,0,0.1c0.1,0.6,0.1,1.2,0.1,1.7C164.9,95.2,164.9,96.5,164.9,96.5z"/>
		<path display="inline" fill="#2A4E96" d="M160.4,91.5c-0.1,0.1-1,0.5-3.5-2.8c-0.4-0.5-0.8-1.7-0.4-2.9c0.5-1.2,2.7-2.5,4.6-3.3
			c0.9-0.3,1.7-0.3,2.4-0.1c0.8,0.2,1.3,1,1,1.8c-0.4,1.3-1.2,2-2.4,2c-0.8,0-0.7,1.5-0.7,1.9c0,0.4,0,0.7-1,0.5
			c-0.8-0.1-0.4,0.9-0.1,1.4c0.1,0.2,0.2,0.5,0.2,0.8C160.6,91.1,160.6,91.3,160.4,91.5z"/>
		<path display="inline" fill="#2C3A64" d="M153.8,162.9h-2.8c-0.6,0-1.2-0.6-1.4-1.6c-0.2-1.1-1.3-1.6-1.6-2.5
			c-0.3-0.9,1.1-2.1,1.1-2.1l0.2-0.3l0.2-0.3l2.2,0.5c0,0,0.1,0.5,0.1,1.2c0,0.5,0,1,0,1.5c-0.1,1.2,0.3,2.4,1.4,2.6
			C154.3,162.2,153.8,162.9,153.8,162.9z"/>
		<path display="inline" fill="#1B407A" d="M159.1,105.5c0,0,1.1,3.6,5,5.4c3.8,1.8,1.5-3.3,1.5-3.3L159.1,105.5z"/>
		<path display="inline" fill="#ED823A" d="M162.8,97.4c-0.7-0.6-3-2.3-3-2.3s0.1-0.2,0.2-0.3c0.1-0.1,0.3-0.2,0.3-0.2
			c0.3-0.1,2.6,1.7,3.3,2.3c0.9,0.8,3.5,3.4,3.5,3.4l-1.3,0.3C165.9,100.6,163.6,98.2,162.8,97.4z"/>
		<g display="inline">
			<path fill="#FF9E55" d="M160.4,87.1c0,0-0.4,0.7-0.5,1.3c0,0.6-2.6,1.4-2.9,1.2c-0.2-0.3-0.6-1-0.6-1L160.4,87.1z"/>
			<path fill="#E27830" d="M160.4,87.1c0,0,4.9-0.8,7-2.4c0.2-0.1,0.1-0.4-0.1-0.4c-0.4,0-0.9,0-1.9,0.1
				C165.3,84.4,163.8,86.2,160.4,87.1z"/>
		</g>
	</g>
	<g opacity="0.5">
		<path fill="#C3DAFC" d="M263.6,18.2"/>
	</g>
	<g>
		<rect x="216.6" y="103.9" fill="#8DB0FF" width="25.3" height="20.8"/>
		<rect x="229.3" y="103.9" fill="#AEC3FF" width="25.3" height="20.8"/>
		<polygon fill="#2A4E96" points="216.6,119.4 220.7,119.4 220.3,118.3 220.7,117.5 216.6,117.5 		"/>
		<polygon fill="#618DC1" points="229.3,110.3 233.3,110.3 232.9,109.2 233.3,108.4 229.3,108.4 		"/>
		<polygon fill="#2A4E96" points="229.3,108.4 225.3,108.4 225.6,109.5 225.3,110.3 229.3,110.3 		"/>
		<polygon fill="#618DC1" points="254.6,119.7 250.6,119.7 250.9,120.8 250.6,121.6 254.6,121.6 		"/>
		<rect x="245.6" y="105.3" fill="#FFFFFF" width="7.3" height="2.8"/>
	</g>
	<g id="P297LW_1_">
		<path fill="#FCD0B1" d="M252.3,90.5c0,0-1.2,6.8-2.5,13.9c-1.4,7.7-3,15.8-3.3,15.9c-0.6,0.2-0.5-1-0.9-2
			c-0.3-0.8-1.3-7.2-0.9-11.3c0.1-1,0.3-13.1,2-14.6C248.4,91.1,252.3,90.5,252.3,90.5z"/>
		<path fill="#FCD0B1" d="M245.3,116.6c0,0,0.3,1.1-0.1,2.2c-0.4,1.1-0.5,1.4,0.3,2c0.8,0.6,1.6,1.5,2.2,1.2
			c0.6-0.3,0.2-5.3,0.2-5.3L245.3,116.6z"/>
		<path fill="#2A4E96" d="M246.9,161.3c0.7-0.4,0.3-3.8,0.3-3.8s-3.4-2.7-3.9-0.6c-0.5,2.1-3.2,3-4.8,3.3c-1.1,0.2-1.4,0.8-1.5,1.1
			H246.9z"/>
		<path fill="#2A4E96" d="M262,161.3c0.7-0.4,0.3-3.8,0.3-3.8s-3.4-2.7-3.9-0.6c-0.5,2.1-3.2,3-4.8,3.3c-1.1,0.2-1.4,0.8-1.5,1.1
			H262z"/>
		<path fill="#BC719A" d="M257.2,122.9c-1.2,5.1-2.7,10.9-3.3,14.2c-0.1,0.4-0.1,0.7-0.2,1c0,0.3-0.1,0.6-0.1,0.8
			c-0.3,6.1-5.2,20.2-6,20.5c-1.3,0.5-3.5-0.6-4.6-0.9c-0.5-0.1-0.8-0.6-0.7-1.1c2.4-11.1,3.9-26.9,4.2-36.3
			c0.2-4.7,0.4-8.1,0.4-8.1s11.9-3.2,11.9,0.8C258.9,115.4,258.2,118.9,257.2,122.9z"/>
		<path fill="#AB678A" d="M257.2,122.9c-1.2,5.1-2.7,10.9-3.3,14.2c-0.1,0.4-0.4,3.6-0.5,3.9l-2.1-23.6l2.9,0.3L257.2,122.9z"/>
		<path fill="#BC719A" d="M252.6,115.2l4.2,43.7c0,0,3.1,1,5.9,0.2c0,0,1.6-23.9,1.5-29.7c-0.2-5.8,1.3-15.6-0.3-16.7
			C262.1,111.6,252.6,115.2,252.6,115.2z"/>
		<path fill="#2A4E96" d="M263.7,103.5c0,0.5,0.2,9.8,0.2,10.2c0,0.4-1,1.2-4.8,1.7c-1.3,0.2-2.9,0.3-4.7,0.4
			c-4.6,0.1-6.4-1.9-6.4-1.9c-0.3,0,0.4-2.3,0.5-17c-0.1,0-0.2,0-0.2,0c-1.6-0.6-3.2-2-3.2-2s1.9-5.2,3.6-7.8
			c0.4-0.6,1.6-1.1,3.1-1.5c0.4-0.1,0.8-0.2,1.3-0.2c2.1-0.3,4.6-0.3,7,0c0.4,0.1,0.8,0.1,1.2,0.2c1.7,0.4,3.3,0.9,4.4,1.7
			c1.6,1.2,2.9,7.3,2.9,7.3s-1.5,1.8-5,2.6C263.4,100.7,263.5,101.2,263.7,103.5z"/>
		<path fill="#BC719A" d="M247,113l1.4-17.6c0.1-1,1-1.8,2-1.7L260,94c0.8,0,1.4,0.7,1.5,1.5c0.1,2.3,0.6,6.8,2.2,8.1l0.9,12.8
			l-10.8,9.8c0,0-1.2-7.2-2.9-9.1C250,115.8,247,113,247,113z"/>
		<g>
			<g>
				<path fill="#BC719A" d="M261.3,85.6l-1.2,9l-1.2-0.2l1.2-9C260.5,85.4,261,85.5,261.3,85.6z"/>
			</g>
		</g>
		<g>
			<g>
				<path fill="#BC719A" d="M253.2,85.3l-1.5,8.1l-0.1,0.7l-0.1,0l-1.1-0.2l1.5-8.3C252.3,85.5,252.7,85.4,253.2,85.3z"/>
			</g>
		</g>
		<path fill="#FCD0B1" d="M268.6,104.2c0,0-0.7,2.2-10,5.2c0,0-0.1-2.5,0.5-2.8c1.7-1,5.9-4.1,6.1-4.6c0.1-0.4-0.9-3.1-2.1-5.8
			c2.2-0.2,3.6-0.4,5.3-1.3C268.9,99.2,269.7,102.2,268.6,104.2z"/>
		<path fill="#FFB27D" d="M257.5,106.8c0,0-0.8-0.6-1.4-0.7c-0.6-0.1-1.6-0.5-1.4-0.1c0.2,0.4,1.3,0.9,1.3,0.9L257.5,106.8z"/>
		<g>
			<path fill="#233862" d="M256,110.7l-3,0.4c-0.3,0-0.7-0.2-0.7-0.5l-2.1-6.9c-0.1-0.4,0.2-0.8,0.6-0.9l3-0.4
				c0.3,0,0.7,0.2,0.7,0.5l2.1,6.9C256.7,110.2,256.5,110.6,256,110.7z"/>
			<path fill="#192E4F" d="M255,110.8l-3,0.4c-0.3,0-0.7-0.2-0.7-0.5l-2.1-6.9c-0.1-0.4,0.2-0.8,0.6-0.9l3-0.4
				c0.3,0,0.7,0.2,0.7,0.5l2.1,6.9C255.7,110.3,255.4,110.8,255,110.8z"/>
			<path fill="#192E4F" d="M252.8,103.9L252.8,103.9c-0.1,0-0.2-0.1-0.2-0.1l-2-6c0-0.1,0-0.2,0.1-0.2l0,0c0.1,0,0.2,0.1,0.2,0.1
				l2,6C253,103.8,252.9,103.9,252.8,103.9z"/>
		</g>
		<path fill="#FCD0B1" d="M259.1,106.6c0,0-0.5,0.3-0.9,0.2c-0.3-0.1-0.6-0.1-1-0.4c-0.4-0.3-1.2,0.1-1.5,0.3
			c-0.7,0.5-3.1,0.5-3.1,0.9c0,0.5,1,1.8,2.3,2.2c1.3,0.4,3.7-0.4,3.7-0.4L259.1,106.6z"/>
		<path fill="#FCD0B1" d="M259.1,85.2c0.1,1.4-1.2,2.1-3.1,1.8c-1.9-0.3-1.9-1.7-1.9-1.7l0-1.4l0.1-1.7l0-1.5l4.5,0.6
			c0,0.1,0,0.4,0,0.7v0C258.8,83,259,84.4,259.1,85.2z"/>
		<path fill="#ED975D" d="M258.8,82.1C258.8,82.1,258.8,82.1,258.8,82.1c0,0.1-1.1,1.5-4.6,1.8l0.1-1.7L258.8,82.1L258.8,82.1z"/>
		<path fill="#FCD0B1" d="M253.4,83c0,0,5.5,1.1,6.2-2.3c0.6-3.5,1.8-5.7-1.7-6.5c-3.5-0.9-4.4,0.3-4.9,1.4
			C252.4,76.7,251.9,82.6,253.4,83z"/>
		<path fill="#233862" d="M259.3,81.4c0,0,1.9,0.4,2.1-3.1c0.1-1.4,0.4-6.1-3.5-5.9c-3.9,0.2-5.6,2.4-6,2.8c-2.6,3,3.8,0.8,4.6,1.5
			c0.9,0.7,0,1.8,1,2.2c1,0.4,1.7,0.4,1.6,1.3C259,81.1,259.3,81.4,259.3,81.4z"/>
		<path fill="#BC719A" d="M251.5,75.3c0,0,2.1,0.7,2.8,0.8c0.2,0,3.4,0.2,3.4,0.2l4.7,0.8c0,0,0.9-3.5-1.4-5.7l0,0
			c-0.1-0.1-0.1-0.1-0.2-0.2c-0.6-0.5-1.4-1-2.6-1.3C252.7,68.7,251.5,75.1,251.5,75.3z"/>
		<g>
			<g>
				<path fill="#AB678A" d="M254.2,76l0.9,0.1c0.7-0.9,3.2-4.1,5.9-4.6c0,0,0,0,0-0.1l0,0c0-0.1-0.1-0.1-0.2-0.2c0,0,0,0,0,0
					C257.3,72.2,254.8,75.2,254.2,76z"/>
			</g>
		</g>
		<path fill="#AB678A" d="M257.7,76.3c0,0,0.6,0.7,0.8,1.3c0.2,0.7,3.2,1,3.4,0.7c0.2-0.3,0.5-1.2,0.5-1.2L257.7,76.3z"/>
		<path fill="#AB678A" d="M257.7,76.3c0,0-5.6,0.1-8.2-1.2c-0.2-0.1-0.2-0.4,0.1-0.4c0.4-0.1,1-0.2,2.1-0.2
			C251.7,74.4,253.7,76.1,257.7,76.3z"/>
	</g>
	<rect x="18.2" y="118.9" fill="#AEC3FF" width="59.8" height="43.5"/>
	<g>
		<polygon fill="#AEC3FF" points="83.4,69.6 75.2,69.6 75.2,161.3 89,161.3 89,116.1 83.4,92.8 		"/>
		<g>
			<rect x="83.4" y="69.6" fill="#D2E0FF" width="45.2" height="23.2"/>
			<rect x="89" y="116.1" fill="#D2E0FF" width="45.2" height="45.2"/>
			<polygon fill="#C1D4F7" points="134.3,116.1 89,116.1 83.4,92.8 128.6,92.8 			"/>
			<g>
				<g>
					<g>
						<polygon fill="#AEC3FF" points="89.8,97.5 88.6,97.5 88.1,95.8 89.3,95.8 						"/>
						<polygon fill="#AEC3FF" points="92.5,97.5 91.3,97.5 90.8,95.8 92,95.8 						"/>
						<polygon fill="#AEC3FF" points="95.2,97.5 94,97.5 93.5,95.8 94.7,95.8 						"/>
						<polygon fill="#AEC3FF" points="97.8,97.5 96.7,97.5 96.2,95.8 97.4,95.8 						"/>
						<polygon fill="#AEC3FF" points="100.5,97.5 99.3,97.5 98.9,95.8 100.1,95.8 						"/>
						<polygon fill="#AEC3FF" points="103.2,97.5 102,97.5 101.6,95.8 102.8,95.8 						"/>
					</g>
					<g>
						<polygon fill="#AEC3FF" points="90.6,100.6 89.4,100.6 89,98.9 90.2,98.9 						"/>
						<polygon fill="#AEC3FF" points="93.3,100.6 92.1,100.6 91.7,98.9 92.9,98.9 						"/>
						<polygon fill="#AEC3FF" points="96,100.6 94.8,100.6 94.4,98.9 95.5,98.9 						"/>
						<polygon fill="#AEC3FF" points="98.7,100.6 97.5,100.6 97.1,98.9 98.2,98.9 						"/>
						<polygon fill="#AEC3FF" points="101.4,100.6 100.2,100.6 99.7,98.9 100.9,98.9 						"/>
						<polygon fill="#AEC3FF" points="104.1,100.6 102.9,100.6 102.4,98.9 103.6,98.9 						"/>
					</g>
				</g>
				<g>
					<g>
						<polygon fill="#AEC3FF" points="91.5,103.9 90.3,103.9 89.9,102.2 91,102.2 						"/>
						<polygon fill="#AEC3FF" points="94.2,103.9 93,103.9 92.5,102.2 93.7,102.2 						"/>
						<polygon fill="#AEC3FF" points="96.9,103.9 95.7,103.9 95.2,102.2 96.4,102.2 						"/>
						<polygon fill="#AEC3FF" points="99.6,103.9 98.4,103.9 97.9,102.2 99.1,102.2 						"/>
						<polygon fill="#AEC3FF" points="102.3,103.9 101.1,103.9 100.6,102.2 101.8,102.2 						"/>
						<polygon fill="#AEC3FF" points="104.9,103.9 103.8,103.9 103.3,102.2 104.5,102.2 						"/>
					</g>
					<g>
						<polygon fill="#AEC3FF" points="92.3,107 91.2,107 90.7,105.3 91.9,105.3 						"/>
						<polygon fill="#AEC3FF" points="95,107 93.8,107 93.4,105.3 94.6,105.3 						"/>
						<polygon fill="#AEC3FF" points="97.7,107 96.5,107 96.1,105.3 97.3,105.3 						"/>
						<polygon fill="#AEC3FF" points="100.4,107 99.2,107 98.8,105.3 100,105.3 						"/>
						<polygon fill="#AEC3FF" points="103.1,107 101.9,107 101.5,105.3 102.6,105.3 						"/>
						<polygon fill="#AEC3FF" points="105.8,107 104.6,107 104.2,105.3 105.3,105.3 						"/>
					</g>
				</g>
			</g>
			<g>
				<g>
					<g>
						<polygon fill="#AEC3FF" points="108.5,97.5 107.3,97.5 106.9,95.8 108,95.8 						"/>
						<polygon fill="#AEC3FF" points="111.2,97.5 110,97.5 109.5,95.8 110.7,95.8 						"/>
						<polygon fill="#AEC3FF" points="113.9,97.5 112.7,97.5 112.2,95.8 113.4,95.8 						"/>
						<polygon fill="#AEC3FF" points="116.6,97.5 115.4,97.5 114.9,95.8 116.1,95.8 						"/>
						<polygon fill="#AEC3FF" points="119.3,97.5 118.1,97.5 117.6,95.8 118.8,95.8 						"/>
						<polygon fill="#AEC3FF" points="121.9,97.5 120.8,97.5 120.3,95.8 121.5,95.8 						"/>
					</g>
					<g>
						<polygon fill="#AEC3FF" points="109.3,100.6 108.2,100.6 107.7,98.9 108.9,98.9 						"/>
						<polygon fill="#AEC3FF" points="112,100.6 110.8,100.6 110.4,98.9 111.6,98.9 						"/>
						<polygon fill="#AEC3FF" points="114.7,100.6 113.5,100.6 113.1,98.9 114.3,98.9 						"/>
						<polygon fill="#AEC3FF" points="117.4,100.6 116.2,100.6 115.8,98.9 117,98.9 						"/>
						<polygon fill="#AEC3FF" points="120.1,100.6 118.9,100.6 118.5,98.9 119.6,98.9 						"/>
						<polygon fill="#AEC3FF" points="122.8,100.6 121.6,100.6 121.2,98.9 122.3,98.9 						"/>
					</g>
				</g>
				<g>
					<g>
						<polygon fill="#AEC3FF" points="110.2,103.9 109,103.9 108.6,102.2 109.8,102.2 						"/>
						<polygon fill="#AEC3FF" points="112.9,103.9 111.7,103.9 111.3,102.2 112.4,102.2 						"/>
						<polygon fill="#AEC3FF" points="115.6,103.9 114.4,103.9 114,102.2 115.1,102.2 						"/>
						<polygon fill="#AEC3FF" points="118.3,103.9 117.1,103.9 116.6,102.2 117.8,102.2 						"/>
						<polygon fill="#AEC3FF" points="121,103.9 119.8,103.9 119.3,102.2 120.5,102.2 						"/>
						<polygon fill="#AEC3FF" points="123.7,103.9 122.5,103.9 122,102.2 123.2,102.2 						"/>
					</g>
					<g>
						<polygon fill="#AEC3FF" points="111.1,107 109.9,107 109.4,105.3 110.6,105.3 						"/>
						<polygon fill="#AEC3FF" points="113.7,107 112.6,107 112.1,105.3 113.3,105.3 						"/>
						<polygon fill="#AEC3FF" points="116.4,107 115.3,107 114.8,105.3 116,105.3 						"/>
						<polygon fill="#AEC3FF" points="119.1,107 117.9,107 117.5,105.3 118.7,105.3 						"/>
						<polygon fill="#AEC3FF" points="121.8,107 120.6,107 120.2,105.3 121.4,105.3 						"/>
						<polygon fill="#AEC3FF" points="124.5,107 123.3,107 122.9,105.3 124.1,105.3 						"/>
					</g>
				</g>
			</g>
			<rect x="86.8" y="77" fill="#BC719A" width="16.8" height="13.5"/>
			<rect x="102.4" y="77" fill="#855D91" width="1.2" height="13.5"/>
			<g>
				<path fill="#AEC3FF" d="M132.7,156.7H92.2v-16.6h40.4V156.7z M92.5,156.4h39.9v-16.1H92.5V156.4z"/>
			</g>
			<ellipse fill="#FFFFFF" cx="113.3" cy="73.5" rx="0.6" ry="0.9"/>
			<ellipse fill="#855D91" cx="116.3" cy="73.5" rx="0.6" ry="0.9"/>
			<ellipse fill="#855D91" cx="119.3" cy="73.5" rx="0.6" ry="0.9"/>
			<ellipse fill="#FFFFFF" cx="122.3" cy="73.5" rx="0.6" ry="0.9"/>
			<g>
				<path fill="#AEC3FF" d="M126,88.1h-13.3V76.9H126V88.1z M113,87.8h12.8V77.2H113V87.8z"/>
			</g>
			<rect x="91.4" y="78.5" fill="#E9F3FE" width="2" height="0.4"/>
			<g>
				<rect x="87.4" y="78.5" fill="#E9F3FE" width="3.2" height="0.4"/>
				<rect x="87.4" y="79.5" fill="#E9F3FE" width="4.9" height="0.4"/>
				<rect x="93" y="79.5" fill="#E9F3FE" width="3.2" height="0.4"/>
				<rect x="93.9" y="78.5" fill="#E9F3FE" width="3.5" height="0.4"/>
			</g>
			<g>
				<rect x="87.4" y="81.2" fill="#E9F3FE" width="3.2" height="0.4"/>
				<rect x="87.4" y="82.2" fill="#E9F3FE" width="4.9" height="0.4"/>
				<rect x="93" y="82.2" fill="#E9F3FE" width="3.2" height="0.4"/>
				<rect x="91.4" y="81.2" fill="#E9F3FE" width="2" height="0.4"/>
				<rect x="93.9" y="81.2" fill="#E9F3FE" width="3.5" height="0.4"/>
			</g>
			<g>
				<rect x="87.4" y="84.3" fill="#E9F3FE" width="3.2" height="0.4"/>
				<rect x="87.4" y="85.3" fill="#E9F3FE" width="4.9" height="0.4"/>
				<rect x="93" y="85.3" fill="#E9F3FE" width="3.2" height="0.4"/>
				<rect x="91.4" y="84.3" fill="#E9F3FE" width="2" height="0.4"/>
				<rect x="93.9" y="84.3" fill="#E9F3FE" width="3.5" height="0.4"/>
			</g>
			<g>
				<rect x="87.4" y="87.2" fill="#E9F3FE" width="3.2" height="0.4"/>
				<rect x="87.4" y="88.2" fill="#E9F3FE" width="4.9" height="0.4"/>
				<rect x="93" y="88.2" fill="#E9F3FE" width="3.2" height="0.4"/>
				<rect x="91.4" y="87.2" fill="#E9F3FE" width="2" height="0.4"/>
				<rect x="93.9" y="87.2" fill="#E9F3FE" width="3.5" height="0.4"/>
			</g>
		</g>
	</g>
	<rect x="16.6" y="118.9" fill="#D2E0FF" width="74.7" height="2.7"/>
	<g>
		<g>
			<g>
				<path fill="#855D91" d="M29.9,108.6l-1.3,15.3c0,0-0.1,0.9,0.6,0.9c1.1,0,5.6,0,5.6,0s-0.9-0.2-0.8-0.6c0-0.5,1.5-15.7,1.5-15.7
					L29.9,108.6z"/>
				<path fill="#BC719A" d="M35.2,124.5c-0.2,0-4.5,0-5.6,0c-0.5,0-0.6-0.4-0.6-0.7c0-0.1,0-0.2,0-0.2l0-0.4l0.1-1l0.1-0.9l0.1-1.1
					l0.1-1l0.9-10.8l5.6-0.1c0,0-0.6,6.4-1.1,11c0,0.5-0.1,1-0.1,1.5c0,0.1,0,0.3,0,0.4c0,0.4-0.1,0.8-0.1,1.2c0,0.2,0,0.4,0,0.5
					c-0.1,0.6-0.1,1-0.1,1.1c0,0,0,0.1,0,0.1C34.5,124.5,35.1,124.5,35.2,124.5z"/>
				<polygon fill="#BC719A" points="16.5,100.3 19.6,112.9 20,114.6 21.5,120.4 48.5,120.4 43.1,100.3 				"/>
				<polygon fill="#855D91" points="16.5,100.3 16,100.5 20.9,120.9 21.5,120.4 				"/>
				<polygon fill="#855D91" points="20.9,120.9 47.7,120.9 48.5,120.4 21.5,120.4 				"/>
				<rect x="30.3" y="124.5" fill="#F1A34F" width="5.8" height="0.3"/>
				<polygon fill="#F1A34F" points="47.2,116.7 42.8,100.6 16.4,100.6 16.4,100.3 43.1,100.3 47.5,116.7 				"/>
				<polygon fill="#855D91" points="34.7,120.9 34.6,121.1 29.2,122.2 29.2,121.3 29.3,120.9 				"/>
				<path opacity="0.4" fill="#D86713" d="M35.2,124.5c-0.2,0-4.5,0-5.6,0c-0.5,0-0.6-0.4-0.6-0.7l5.4-1c-0.1,0.6-0.1,1-0.1,1.1
					c0,0,0,0.1,0,0.1C34.5,124.5,35.1,124.5,35.2,124.5z"/>
				<polygon fill="#855D91" points="33.3,116.4 21.5,120.4 20,114.6 				"/>
				<polygon fill="#AEC3FF" points="16.5,100.3 43.1,100.3 47.5,116.5 20.3,116.5 				"/>
			</g>
			<polygon fill="#8AA8ED" points="46.2,115.8 21.2,115.8 18.4,104.5 18.2,103.7 18,102.9 17.6,101.2 42.2,101.2 42.6,102.9 
				42.9,103.7 43.1,104.5 			"/>
			<g>
				<polygon fill="#F9DDBF" points="44.8,93.2 43.5,93.2 43.5,93.1 44.7,93.1 				"/>
				<polygon fill="#F9DDBF" points="44.5,93.5 43.6,93.5 43.6,93.4 44.5,93.4 				"/>
				<polygon fill="#F9DDBF" points="45.5,93.5 44.6,93.5 44.6,93.4 45.5,93.4 				"/>
				<polygon fill="#F9DDBF" points="46.3,93.5 45.7,93.5 45.7,93.4 46.3,93.4 				"/>
				<polygon fill="#F9DDBF" points="45.8,93.2 45,93.2 45,93.1 45.7,93.1 				"/>
				<polygon fill="#F9DDBF" points="46.8,93.2 46.1,93.2 46,93.1 46.8,93.1 				"/>
			</g>
			<g>
				<polygon fill="#F9DDBF" points="48.1,107.5 46.9,107.6 46.8,107.4 48.1,107.4 				"/>
				<polygon fill="#F9DDBF" points="47.8,107.8 46.9,107.9 46.9,107.7 47.8,107.7 				"/>
				<polygon fill="#F9DDBF" points="48.9,107.8 48,107.8 47.9,107.7 48.8,107.7 				"/>
				<polygon fill="#F9DDBF" points="49.6,107.8 49.1,107.8 49,107.7 49.6,107.7 				"/>
				<polygon fill="#F9DDBF" points="49.1,107.5 48.4,107.5 48.3,107.4 49.1,107.4 				"/>
				<polygon fill="#F9DDBF" points="50.2,107.5 49.4,107.5 49.4,107.4 50.2,107.4 				"/>
			</g>
			<g>
				<g>
					<polygon fill="#F9DDBF" points="25.2,94.1 22.2,94 22.2,93.8 25.1,93.8 					"/>
					<polygon fill="#F9DDBF" points="24.5,94.7 22.4,94.7 22.3,94.5 24.4,94.5 					"/>
					<polygon fill="#F9DDBF" points="26.9,94.7 24.8,94.7 24.7,94.5 26.9,94.5 					"/>
					<polygon fill="#F9DDBF" points="28.7,94.7 27.4,94.7 27.3,94.5 28.6,94.5 					"/>
					<polygon fill="#F9DDBF" points="27.5,94.1 25.7,94.1 25.6,93.8 27.5,93.8 					"/>
					<polygon fill="#F9DDBF" points="30,94.1 28.2,94.1 28.1,93.8 29.9,93.8 					"/>
				</g>
				<g>
					<g>
						<polygon fill="#F9DDBF" points="25.2,96.2 22.7,96.2 22.7,96 25.2,96 						"/>
						<polygon fill="#F9DDBF" points="27.1,96.2 25.7,96.2 25.6,96 27,96 						"/>
						<polygon fill="#F9DDBF" points="29.8,96.2 27.7,96.2 27.6,96 29.8,96 						"/>
					</g>
					<g>
						<polygon fill="#F9DDBF" points="25.8,96.9 22.9,96.9 22.8,96.6 25.8,96.6 						"/>
						<polygon fill="#F9DDBF" points="25.2,97.5 23,97.5 23,97.3 25.1,97.3 						"/>
						<polygon fill="#F9DDBF" points="27.6,97.6 25.5,97.5 25.4,97.3 27.5,97.3 						"/>
						<polygon fill="#F9DDBF" points="29.3,97.6 28,97.6 28,97.3 29.3,97.3 						"/>
						<polygon fill="#F9DDBF" points="28.2,96.9 26.4,96.9 26.3,96.6 28.1,96.6 						"/>
						<polygon fill="#F9DDBF" points="30.7,96.9 28.8,96.9 28.8,96.6 30.6,96.6 						"/>
					</g>
				</g>
				<g>
					<g>
						<polygon fill="#163560" points="25.9,99.3 23.5,99.3 23.4,99.1 25.9,99.1 						"/>
						<polygon fill="#163560" points="27.8,99.3 26.4,99.3 26.3,99.1 27.7,99.1 						"/>
						<polygon fill="#163560" points="30.5,99.3 28.4,99.3 28.4,99.1 30.5,99.1 						"/>
					</g>
					<g>
						<polygon fill="#163560" points="26.6,100 23.6,100 23.6,99.7 26.5,99.7 						"/>
						<polygon fill="#163560" points="25.9,100.6 23.8,100.6 23.7,100.4 25.8,100.4 						"/>
						<polygon fill="#163560" points="28.3,100.6 26.2,100.6 26.1,100.4 28.3,100.4 						"/>
						<polygon fill="#163560" points="30.1,100.7 28.8,100.6 28.7,100.4 30,100.4 						"/>
						<polygon fill="#163560" points="28.9,100 27.1,100 27,99.7 28.9,99.7 						"/>
						<polygon fill="#163560" points="31.4,100 29.6,100 29.5,99.7 31.3,99.7 						"/>
					</g>
				</g>
				<g>
					<g>
						<polygon fill="#F9DDBF" points="26.6,102.3 24.2,102.3 24.1,102 26.6,102 						"/>
						<polygon fill="#F9DDBF" points="28.5,102.3 27.1,102.3 27,102 28.4,102 						"/>
						<polygon fill="#F9DDBF" points="31.2,102.3 29.1,102.3 29,102 31.2,102 						"/>
					</g>
					<g>
						<polygon fill="#F9DDBF" points="27.2,102.9 24.3,102.9 24.2,102.7 27.2,102.7 						"/>
						<polygon fill="#F9DDBF" points="26.6,103.6 24.5,103.6 24.4,103.4 26.5,103.4 						"/>
						<polygon fill="#F9DDBF" points="29,103.6 26.9,103.6 26.8,103.4 29,103.4 						"/>
						<polygon fill="#F9DDBF" points="30.8,103.6 29.5,103.6 29.4,103.4 30.7,103.4 						"/>
						<polygon fill="#F9DDBF" points="29.6,102.9 27.8,102.9 27.7,102.7 29.6,102.7 						"/>
						<polygon fill="#F9DDBF" points="32.1,102.9 30.3,102.9 30.2,102.7 32,102.7 						"/>
					</g>
				</g>
				<g>
					<g>
						<polygon fill="#163560" points="27.4,105.3 24.9,105.3 24.8,105.1 27.3,105.1 						"/>
						<polygon fill="#163560" points="29.2,105.3 27.8,105.3 27.7,105.1 29.1,105.1 						"/>
						<polygon fill="#163560" points="32,105.3 29.8,105.3 29.8,105.1 31.9,105.1 						"/>
					</g>
					<g>
						<polygon fill="#163560" points="28,106 25,106 25,105.7 27.9,105.7 						"/>
						<polygon fill="#163560" points="27.3,106.6 25.2,106.6 25.1,106.4 27.2,106.4 						"/>
						<polygon fill="#163560" points="29.7,106.6 27.6,106.6 27.6,106.4 29.7,106.4 						"/>
						<polygon fill="#163560" points="31.5,106.7 30.2,106.6 30.1,106.4 31.4,106.4 						"/>
						<polygon fill="#163560" points="30.3,106 28.5,106 28.5,105.7 30.3,105.7 						"/>
						<polygon fill="#163560" points="32.8,106 31,106 30.9,105.7 32.7,105.7 						"/>
					</g>
				</g>
				<g>
					<g>
						<polygon fill="#855D91" points="38.1,94.3 35.1,94.3 35.1,94 38,94 						"/>
						<polygon fill="#855D91" points="37.4,94.9 35.3,94.9 35.2,94.7 37.3,94.7 						"/>
						<polygon fill="#855D91" points="39.8,94.9 37.7,94.9 37.7,94.7 39.8,94.7 						"/>
						<polygon fill="#855D91" points="41.6,94.9 40.3,94.9 40.2,94.7 41.5,94.7 						"/>
						<polygon fill="#855D91" points="40.4,94.3 38.6,94.3 38.6,94 40.4,94 						"/>
						<polygon fill="#855D91" points="42.9,94.3 41.1,94.3 41,94 42.8,94 						"/>
					</g>
				</g>
				<g>
					<g>
						<g>
							<polygon fill="#855D91" points="38.1,96.4 35.6,96.4 35.6,96.2 38.1,96.2 							"/>
							<polygon fill="#855D91" points="40,96.4 38.6,96.4 38.5,96.2 39.9,96.2 							"/>
							<polygon fill="#855D91" points="42.7,96.4 40.6,96.4 40.5,96.2 42.7,96.2 							"/>
						</g>
						<g>
							<polygon fill="#855D91" points="38.7,97.1 35.8,97.1 35.7,96.8 38.7,96.8 							"/>
							<polygon fill="#855D91" points="38.1,97.8 35.9,97.8 35.9,97.5 38,97.5 							"/>
							<polygon fill="#855D91" points="40.5,97.8 38.4,97.8 38.3,97.5 40.4,97.5 							"/>
							<polygon fill="#855D91" points="42.3,97.8 40.9,97.8 40.9,97.5 42.2,97.5 							"/>
							<polygon fill="#855D91" points="41.1,97.1 39.3,97.1 39.2,96.8 41,96.8 							"/>
							<polygon fill="#855D91" points="43.6,97.1 41.8,97.1 41.7,96.8 43.5,96.9 							"/>
						</g>
					</g>
				</g>
				<g>
					<g>
						<polygon fill="#F9DDBF" points="38.8,99.5 36.4,99.5 36.3,99.3 38.8,99.3 						"/>
						<polygon fill="#F9DDBF" points="40.7,99.5 39.3,99.5 39.2,99.3 40.6,99.3 						"/>
						<polygon fill="#F9DDBF" points="43.4,99.5 41.3,99.5 41.3,99.3 43.4,99.3 						"/>
					</g>
					<g>
						<polygon fill="#F9DDBF" points="39.5,100.2 36.5,100.2 36.5,99.9 39.4,99.9 						"/>
						<polygon fill="#F9DDBF" points="38.8,100.8 36.7,100.8 36.6,100.6 38.7,100.6 						"/>
						<polygon fill="#F9DDBF" points="41.2,100.9 39.1,100.8 39,100.6 41.2,100.6 						"/>
						<polygon fill="#F9DDBF" points="43,100.9 41.7,100.9 41.6,100.6 42.9,100.6 						"/>
						<polygon fill="#F9DDBF" points="41.8,100.2 40,100.2 39.9,99.9 41.8,99.9 						"/>
						<polygon fill="#F9DDBF" points="44.3,100.2 42.5,100.2 42.4,99.9 44.2,99.9 						"/>
					</g>
				</g>
				<g>
					<g>
						<polygon fill="#F9DDBF" points="39.5,102.5 37.1,102.5 37,102.2 39.5,102.2 						"/>
						<polygon fill="#F9DDBF" points="41.4,102.5 40,102.5 39.9,102.2 41.3,102.2 						"/>
						<polygon fill="#F9DDBF" points="44.1,102.5 42,102.5 42,102.2 44.1,102.3 						"/>
					</g>
					<g>
						<polygon fill="#F9DDBF" points="40.2,103.1 37.2,103.1 37.2,102.9 40.1,102.9 						"/>
						<polygon fill="#F9DDBF" points="39.5,103.8 37.4,103.8 37.3,103.6 39.4,103.6 						"/>
						<polygon fill="#F9DDBF" points="41.9,103.8 39.8,103.8 39.7,103.6 41.9,103.6 						"/>
						<polygon fill="#F9DDBF" points="43.7,103.8 42.4,103.8 42.3,103.6 43.6,103.6 						"/>
						<polygon fill="#F9DDBF" points="42.5,103.1 40.7,103.1 40.6,102.9 42.5,102.9 						"/>
						<polygon fill="#F9DDBF" points="45,103.2 43.2,103.1 43.1,102.9 44.9,102.9 						"/>
					</g>
				</g>
				<g>
					<g>
						<polygon fill="#F9DDBF" points="40.3,105.5 37.8,105.5 37.7,105.3 40.2,105.3 						"/>
						<polygon fill="#F9DDBF" points="42.1,105.5 40.7,105.5 40.7,105.3 42,105.3 						"/>
						<polygon fill="#F9DDBF" points="44.9,105.5 42.7,105.5 42.7,105.3 44.8,105.3 						"/>
					</g>
					<g>
						<polygon fill="#F9DDBF" points="40.9,106.2 37.9,106.2 37.9,105.9 40.8,105.9 						"/>
						<polygon fill="#F9DDBF" points="40.2,106.8 38.1,106.8 38,106.6 40.1,106.6 						"/>
						<polygon fill="#F9DDBF" points="42.6,106.9 40.5,106.8 40.5,106.6 42.6,106.6 						"/>
						<polygon fill="#F9DDBF" points="44.4,106.9 43.1,106.9 43,106.6 44.3,106.6 						"/>
						<polygon fill="#F9DDBF" points="43.2,106.2 41.4,106.2 41.4,105.9 43.2,105.9 						"/>
						<polygon fill="#F9DDBF" points="45.7,106.2 43.9,106.2 43.8,105.9 45.7,105.9 						"/>
					</g>
				</g>
			</g>
		</g>
		<g>
			<path fill="#0E2C4F" d="M53.9,157.3c0,0-0.3,4.2-1.1,4.3c-0.1,0-4.1,0-4.1,0l-5.1,0c0,0,0-1.2,1.5-1.5c1.5-0.3,4-1.3,4.9-3.3
				C50.9,154.6,53.9,157.3,53.9,157.3z"/>
			<path fill="#163560" d="M68.5,122.8c0.2,0.2,5.4,5.8,5,10.1c-0.1,1.3-1.2,2.2-2.5,2.2h-6.3c0,0-6.5,1.2-6.6,2.6
				c-0.2,1.4-1.5,8.9-4.1,19.7c0,0-1.9,0.7-3.1,0.2c-1.6-0.6-1.8-1.3-1.8-1.3s1.6-24,2.8-25.7c1.2-1.7,14-6.7,18.1-7.2
				C74,122.9,68.5,122.8,68.5,122.8z"/>
			<path fill="#FCD0B1" d="M31.7,116.8c0,0-3.7-0.9-4.6,0c-0.9,0.9-1.2,2.1-1.2,2.1h5.9V116.8z"/>
			<path fill="#163560" d="M44.9,157.3c0,0-0.3,4.2-1.1,4.3c-0.1,0-4.1,0-4.1,0l-5.1,0c0,0,0-1.2,1.5-1.5c1.5-0.3,4-1.3,4.9-3.3
				C42,154.6,44.9,157.3,44.9,157.3z"/>
			<path fill="#2B478B" d="M73.3,122.8c0.1,0.1,1.3,3.2,2,6.6c0.6,3-1.6,5.8-4.6,5.8H55.9c0,0-6.5,1.2-6.6,2.6
				c-0.2,1.4-1.5,8.9-4.1,19.7c0,0-1.9,0.5-3.5-0.1c-0.8-0.3-1.4-1.2-1.4-1.2s1.6-23.8,2.8-25.5c1.2-1.7,14-6.7,18.1-7.2
				C65.3,122.9,73.3,122.8,73.3,122.8z"/>
			<path fill="#FCD0B1" d="M65.1,101.3l-2.3,2.2l-3.9,0c0-0.3,0-1.6,0-2.8c0-0.1,0-0.1,0-0.2c0-0.3,0-0.5,0-0.7c0-0.7,0-1.1,0-1.1
				l1-0.7l2.2-1.5l1.2-0.8c0,0,0.1,1.1,0.1,1.3C63.8,99.7,65.1,101.3,65.1,101.3z"/>
			<path fill="#163560" d="M59.5,100.9c0.1,0,4.3-1.9,4.8-1.8c0.5,0.2,1.1,1.7,1.1,1.7l-7.4,1.7C57.9,102.5,58.5,101.3,59.5,100.9z"
				/>
			<path fill="#2A4E96" d="M77.7,113.6c-0.8-4.9-4.2-8.6-5.6-10c-1-1.5-6.7-2.7-6.7-2.7s-4.7,1.1-7.4,1.7c0,0-4.2,0.5-6.5,4.3
				c-1.5,2.4-5.6,7.9-8.4,8.1c-2.7,0.2-11.3,1.8-11.3,1.8v2.1l13.1,0.4c0.2,0,0.3,0,0.5,0c1.1-0.2,6-1.2,8.4-2.4
				c0.4,6.2,0.8,15.7,3,17.2c2.3,1.6,18.4,1.8,20.1-0.6c0.9-1.2-0.2-8.6-1.5-15.7C76.9,116.9,78,115.6,77.7,113.6z"/>
			<path fill="#EAA16E" d="M62.8,97.7l-0.2,0.1c0,0-1.8,1.3-3.6,1.9c0-0.7,0-1.1,0-1.1l1-0.7L62.8,97.7z"/>
			<path fill="#FCD0B1" d="M57.6,98.7c0,0,6,0.7,6.4-3c0.4-3.7,1.4-6.2-2.4-6.8c-3.8-0.6-4.7,0.7-5.1,2
				C56.1,92.1,56.1,98.4,57.6,98.7z"/>
			<path fill="#163560" d="M56.6,90.5c0,0,1.1,4.1,1.9,3.7c0.8-0.3,1.6-0.6,1.7,0.7c0.1,1.3-0.8,2.9,1.9,2.6
				c2.7-0.3,5.2-7.7,4.2-8.9C63.6,85.3,52.8,86.5,56.6,90.5z"/>
		</g>
		<g>
			<path fill="#77A4E5" d="M52.4,136h28.3c1.8,0,3.3-1.5,3.3-3.3v-0.1H52.4V136z"/>
			<path fill="#BC719A" d="M49,136h22.1c0.9,0,1.6-0.7,1.6-1.6v-0.1c0-0.9-0.7-1.6-1.6-1.6H49c-0.9,0-1.6,0.7-1.6,1.6v0.1
				C47.4,135.2,48.1,136,49,136z"/>
			<g>
				<polygon fill="#2B478B" points="67.5,160.3 69.4,160.3 69.9,136 67,136 				"/>
				<polygon fill="#2B478B" points="56.9,160.3 75.5,160.3 75.5,158.6 66,157.7 56.9,158.6 				"/>
				<path fill="#2B478B" d="M77.2,160.6c0.5-1.3-0.7-2.5-2-2c-0.4,0.1-0.7,0.5-0.9,0.9c-0.4,1.3,0.7,2.4,2,2
					C76.7,161.3,77,161,77.2,160.6z"/>
				<path fill="#2B478B" d="M58.6,160.6c0.5-1.3-0.7-2.5-2-2c-0.4,0.1-0.7,0.5-0.9,0.9c-0.4,1.3,0.7,2.4,2,2
					C58.1,161.3,58.5,161,58.6,160.6z"/>
				<path fill="#2B478B" d="M59.9,137.6h17.2c0.9,0,1.6-0.7,1.6-1.6l0,0H58.3l0,0C58.3,136.8,59,137.6,59.9,137.6z"/>
			</g>
			<path fill="#BC719A" d="M81.1,136c0.8,0,1.5-0.7,1.5-1.5v-22.4c0-4.2-2.7-7.6-6.1-7.6H62.6c-3.4,0-6.1,3.4-6.1,7.6V136H81.1z"/>
			<path fill="#855D91" d="M81.4,136c1.5,0,2.7-1.2,2.7-2.7v-21.2c0-4.2-2.7-7.6-6.1-7.6H64.1c-3.4,0-6.1,3.4-6.1,7.6V136H81.4z"/>
		</g>
	</g>
	<g>
		<g>
			<rect x="104.9" y="81.3" fill="#AEC3FF" width="0.8" height="0.8"/>
			<rect x="107.1" y="81.3" fill="#AEC3FF" width="0.8" height="0.8"/>
			<rect x="109.2" y="81.3" fill="#AEC3FF" width="0.8" height="0.8"/>
		</g>
		<g>
			<rect x="104.9" y="83.1" fill="#AEC3FF" width="0.8" height="0.8"/>
			<rect x="107.1" y="83.1" fill="#AEC3FF" width="0.8" height="0.8"/>
			<rect x="109.2" y="83.1" fill="#AEC3FF" width="0.8" height="0.8"/>
		</g>
		<g>
			<rect x="104.9" y="85.1" fill="#AEC3FF" width="0.8" height="0.8"/>
			<rect x="107.1" y="85.1" fill="#AEC3FF" width="0.8" height="0.8"/>
			<rect x="109.2" y="85.1" fill="#AEC3FF" width="0.8" height="0.8"/>
		</g>
	</g>
	<g>
		<g>
			<path fill="#233862" d="M113.4,103.6l1.3-0.2c0.1,0,0.2-0.2,0.1-0.4l-1.3-3.9c-0.1-0.2-0.3-0.4-0.5-0.4l-1.3,0.2
				c-0.1,0-0.2,0.2-0.1,0.4l1.3,3.9C113,103.5,113.3,103.7,113.4,103.6z"/>
			<path fill="#192E4F" d="M113.9,103.6l1.3-0.2c0.1,0,0.2-0.2,0.1-0.4l-1.3-3.9c-0.1-0.2-0.3-0.4-0.5-0.4l-1.3,0.2
				c-0.1,0-0.2,0.2-0.1,0.4l1.3,3.9C113.5,103.4,113.7,103.6,113.9,103.6z"/>
			<path fill="#192E4F" d="M112.6,99.6L112.6,99.6c0,0,0.1-0.1,0-0.1l-1-3.5c0,0-0.1-0.1-0.1-0.1l0,0c0,0-0.1,0.1,0,0.1L112.6,99.6
				C112.6,99.6,112.6,99.6,112.6,99.6z"/>
		</g>
		<path fill="#FCD0B1" d="M112.3,86.5c0,0-1-1.6-1.7-2.2c-0.8-0.6-2.8-0.8-2.8-0.6c-0.2,0.5,0.8,1.2,1,1.6c0.2,0.4,0.1,1.1,1.1,1.6
			c1.1,0.5,1.7,0.9,1.7,0.9L112.3,86.5z"/>
		<path fill="#233862" d="M111.5,86.2c0.5-0.8,0.6-0.8,0.6-0.8s8.1,3.2,8.9,3.5c0.8,0.3,12.3,1,12.3,1l3.5,7.7
			c0,0-15.4-3.5-17.4-4.2c-3.2-1.2-8.4-5.9-8.4-5.9S111.1,86.8,111.5,86.2z"/>
		<path fill="#163560" d="M131.6,158c0,0-0.2,2.8-0.7,3.5h-8.1c0.1-0.3,0.3-1,1.3-1.2c1.3-0.2,3.4-1.1,4.2-2.8
			C129.1,155.8,131.6,158,131.6,158z"/>
		<path fill="#163560" d="M146.1,157.6c0,0,0.5,3.7-0.2,3.8c-0.1,0-3.1,0-4.3,0c-1.5,0-3.8,0-3.8,0c-0.3,0-0.5-0.3-0.3-0.6
			c0.2-0.3,0.5-0.6,1.1-0.7c1.3-0.2,3.4-1.2,4.2-2.9C143.5,155.4,146.1,157.6,146.1,157.6z"/>
		<path fill="#855D91" d="M127.8,120.1c0,0,2,7.2,7.9,19.6c5.9,12.4,6.3,18.1,6.3,18.1l4-0.2c0,0-0.4-14.8-3.1-21.1
			c-2.8-6.3-3.3-23.4-3.3-23.4L127.8,120.1z"/>
		<path fill="#BC719A" d="M124.5,114c0,0-0.2,11.1,1.8,24.7c1.9,13.6,1.3,19.4,1.3,19.4l4.6,0.2c0,0,2.7-13.6,2-20.4
			c-0.8-6.8,3.8-23.4,3.8-23.4L124.5,114z"/>
		<path fill="#FCD0B1" d="M133.6,88l-2.2,1.6l-3.1-0.7c0-0.3,0.3-1.5,0.4-2.5c0-0.1,0-0.1,0-0.2c0.2-0.9,0.3-1.7,0.3-1.7l2.9-1.5
			l1.1-0.5c0,0-0.1,1-0.1,1.2C132.8,86.3,133.6,88,133.6,88z"/>
		<path fill="#163560" d="M128.5,87.2c0.1,0,4.3-1.3,4.7-1.1c0.5,0.2,0.7,1,0.7,1l-6.5,1.8C127.5,89,127.6,87.6,128.5,87.2z"/>
		<path fill="#2A4E96" d="M139.8,115.3c-0.7,3.2-15.5-6.9-15.3-8.9c0-0.2,0-0.4,0.1-0.7c0.3-2.8,0.5-5.4,0.6-7.2
			c0-1.5,0.2-3.1,0.5-4.5c0.3-1.3,0.6-2.5,0.8-3.4c0.2-0.7,0.6-1.2,1-1.7c0.3-0.3,0.7-0.6,1.2-0.8c0.1-0.1,0.2-0.1,0.4-0.1
			c1.8-0.5,4.3-1.2,4.9-1c1.8,0.5,3.2,3.7,4.1,7.8C139.8,102.5,140.3,113.2,139.8,115.3z"/>
		<path fill="#FCA56B" d="M132.8,83.7c-0.6,1.2-3,2.3-4,2.7c0-0.1,0-0.1,0-0.2c0.2-0.9,0.3-1.7,0.3-1.7l2.9-1.5
			C132.6,83.1,133,83.2,132.8,83.7z"/>
		<path fill="#FCD0B1" d="M127.6,84.4c0,0,5.3,1.6,6.3-1.7c1-3.3,2.3-5.3-1-6.5s-4.4-0.1-5,0.9C127.3,78.1,126.3,83.9,127.6,84.4z"
			/>
		<path fill="#163560" d="M128.1,76.8c0,0,0.3,3.8,1.1,3.7c0.8-0.2,1.5-0.3,1.4,0.9c-0.1,1.2-1.2,2.5,1.2,2.7c2.4,0.2,6-6.1,5.3-7.3
			C135.2,73.3,125.3,72.6,128.1,76.8z"/>
		<path fill="#233862" d="M124.9,114c1.5,0.5,0-1.5,0-1.9c0.1-1.8-0.6-4.1-0.4-6.3l9-5.4C133.5,100.4,135.6,113.9,124.9,114z"/>
		<path fill="#BC719A" d="M139.8,115.3c-3.8,7.1-4.4,9.8-4.4,9.8c-3.3-0.4-9-6.9-10.8-8.7c0,0-0.2-8.1,0-10l2.8-0.1
			c0,0,5,1.3,6.3-0.5c1.3-1.7,0.7-10.2,0.7-10.2l3.8-0.8C139.8,102.5,140.8,113.4,139.8,115.3z"/>
		<path fill="#FCD0B1" d="M118,101.8c0,0-1.1-0.2-1.4-0.4c-0.4-0.3-0.8-0.9-1-1c-0.3-0.1-1.2-1.2-1.3-1.2c0,0-0.3,0.1-0.2,0.3
			c0.1,0.2,0.2,0.6,0.2,0.7c0.2,0.6,0.2,0.8-0.5,0.6c-0.1,0-1.8-0.6-1.9-0.2c-0.2,0.4,0.5,2.2,1.4,2.6c0.9,0.4,3,0,3.2,0.1
			C117.8,103.5,118,101.8,118,101.8z"/>
		<path fill="#2A4E96" d="M117.1,101.4c0,0,8.9,1.5,9.7,1.1c1.3-0.6-0.5-9.6-0.5-9.6s-0.1-2,2.3-2.5c2.1-0.4,4.1,1.1,4.1,1.1
			s1.8,1.6,1.6,3.4c-0.5,4-1.3,12.1-4,13.4c-3.5,1.6-13.4-4.5-13.4-4.5s-0.3-0.4-0.3-1.2C116.6,102.1,117.1,101.4,117.1,101.4z"/>
		<path fill="#BC719A" d="M135,95.6l-0.7,0.2c0,0-1.6-6.7-6.8-6.8c0.3-0.3,0.7-0.6,1.2-0.8C130.6,88.7,133.9,90.4,135,95.6z"/>
		<path fill="#FFB27D" d="M109.4,85.6c0,0-1.4-0.9-1.5-0.5c0,0.2,0.6,0.7,0.9,0.9c0.3,0.2,0.9,0.7,0.9,0.7L109.4,85.6z"/>
	</g>
	<path fill="#2E3552" d="M298.6,162.6H18.4c-0.3,0-0.5-0.2-0.5-0.5v0c0-0.3,0.2-0.5,0.5-0.5h280.2c0.3,0,0.5,0.2,0.5,0.5v0
		C299.1,162.4,298.9,162.6,298.6,162.6z"/>
</g>
<g id="P297LW_5_">
	<path fill="#BC719A" d="M184.7,110c-0.9,2.8-6,7.7-6.7,8.2c0,0-1.2-2-0.9-3.1c0.2-0.9,2.2-4.1,2.8-5.7c0-0.1,0.1-0.2,0.1-0.2
		c0.1-0.2,0.1-0.4,0.1-0.5c0-0.3-1.1-1.2-2.3-2.2c-1.6-1.3-3.5-2.8-3.8-3.9c-0.5-1.9-2.4-9.3-2.4-9.3s4.7,1,6.1,2.2
		c1.3,1.2,7,11,7.3,13.5C184.8,109.3,184.8,109.6,184.7,110z"/>
	<path fill="#FCD0B1" d="M184.7,110c-0.9,2.8-6,7.7-6.7,8.2c0,0-1.2-2-0.9-3.1c0.2-0.9,2.4-4.4,2.9-5.9
		C180.8,109.1,182.8,108.9,184.7,110z"/>
	<path fill="#FCD0B1" d="M171.5,92.7l0,0.6c0,0,0.2,1.8-2.1,2.1c-2.2,0.3-3.9-0.7-3.9-2.1c0.2-1.1,0.4-1.8,0.4-2.7
		c0-0.3,0-0.7-0.1-1.1l4.3-0.1l1.3,0.2L171.5,92.7z"/>
	<path fill="#EA8888" d="M171.5,89.6l0,3.1c-0.5,0.2-1,0.3-1.6,0.3c-2,0-3.3-1.5-3.9-2.5c0-0.3,0-0.7-0.1-1.1l4.3-0.1L171.5,89.6z"
		/>
	<path fill="#060632" d="M167.7,169.5c0,0-0.2-1.6-0.7-2.6c-0.5-1-3.6-0.4-3.6-0.4s-0.6,0.5-0.7,3L167.7,169.5z"/>
	<path fill="#060632" d="M178.2,169.5c-0.7-0.4-0.3-3.7-0.3-3.7s3.4-2.7,3.8-0.6c0.5,2.1,3.2,3,4.8,3.3c1.1,0.2,1.4,0.8,1.5,1.1
		H178.2z"/>
	<path fill="#0B0754" d="M171.2,145c0.1,0.8,0.2,1.4,0.2,1.8c0.3,6.1,5.2,20.1,6,20.5c1.3,0.5,3.5-0.6,4.6-0.9
		c0.5-0.1,0.8-0.6,0.7-1.1c-2.4-11-3.3-26.9-3.6-36.3c-0.2-4.7-1-8-1-8s-11.8-3.2-11.9,0.8C166.2,125.3,170.1,139.2,171.2,145z"/>
	<path fill="#060632" d="M171.2,145l7.9-16c-0.2-4.7-1-8-1-8s-11.8-3.2-11.9,0.8C166.2,125.3,170.1,139.2,171.2,145z"/>
	<path fill="#0B0754" d="M173.8,121.8l-6.2,45.3c0,0-2.7,0.7-4.9,0.1c0,0-1.8-24.1-1.7-29.9c0.2-5.8-1.3-15.6,0.3-16.6
		C163,119.6,173.8,121.8,173.8,121.8z"/>
	<path fill="#BC719A" d="M178.4,121.9c0,0-3.2,1.9-7.8,1.8c-1.8,0-3.4-0.2-4.7-0.4c-3.7-0.5-5.6-1.6-5.6-2c0-0.3,0-1.5,0.1-2
		c0.6-6.8,0.3-12.1,1.1-16c0,0,0-0.1,0-0.1c1-5,2.7-7.9,3.5-9.1c0.3-0.4,0.5-0.8,0.5-0.8c0,0.9,2,1.9,3.6,1.8
		c1.4-0.1,2.3-1.1,2.3-1.7l0,0c0.1,0,6.2,4.2,6.2,8.2C177.7,119.2,178.8,121.9,178.4,121.9z"/>
	<path fill="#855D91" d="M165.9,123.3C165.9,123.3,165.9,123.3,165.9,123.3c-3.7-0.5-5.6-1.5-5.6-1.9c0-0.3,0-1.5,0.1-2
		c0.6-6.8,0.3-12.1,1.1-16C163.5,106,167.5,112.8,165.9,123.3z"/>
	<g>
		<path fill="#DDE8FD" d="M176.1,114.9l-0.5,1.7l-0.5,1.6l-21.5-6.5c0,0-0.1,0-0.1,0c0,0-0.1,0-0.1,0c-0.3-0.2-0.3-0.9-0.1-1.7
			c0,0,0-0.1,0-0.1c0.3-0.9,0.7-1.5,1.1-1.5c0,0,0.1,0,0.1,0c0,0,0.1,0,0.1,0L176.1,114.9z"/>
		<path fill="#855D91" d="M175.6,116.5l-0.5,1.6l-21.5-6.5c0,0-0.1,0-0.1,0c0,0-0.1,0-0.1,0c-0.3-0.2-0.3-0.9-0.1-1.7
			c0.9,0.7,5.1,3.6,12.2,5C173,116.4,175.2,116.5,175.6,116.5z"/>
		
			<ellipse transform="matrix(0.959 0.2833 -0.2833 0.959 40.2014 -44.9789)" fill="#98B7F5" cx="175.6" cy="116.5" rx="0.7" ry="1.7"/>
	</g>
	<g>
		<path fill="#DDE8FD" d="M174.4,111l-0.3,1.7l-0.3,1.7l-22.2-3.6c0,0-0.1,0-0.1,0c0,0-0.1,0-0.1,0c0,0,0,0,0,0
			c-0.1-0.1-0.3-0.3-0.3-0.6c-0.1-0.3-0.1-0.6,0-1c0,0,0-0.1,0-0.1c0.1-0.9,0.5-1.6,0.9-1.6c0,0,0.1,0,0.1,0c0,0,0.1,0,0.1,0
			l2.5,0.4L174.4,111z"/>
		<path fill="#855D91" d="M174.1,112.7l-0.3,1.7l-22.2-3.6c0,0-0.1,0-0.1,0c0,0-0.1,0-0.1,0c0,0,0,0,0,0c-0.1-0.1-0.2-0.3-0.3-0.6
			c-0.1-0.3-0.1-0.6,0-1c0,0,0-0.1,0-0.1c0.1-0.9,0.5-1.6,0.9-1.6c0,0,0.1,0,0.1,0c0,0,0.1,0,0.1,0l2.5,0.4c2,1.8,4.5,4.4,9.2,4.7
			C171.5,112.9,173.8,112.7,174.1,112.7z"/>
		
			<ellipse transform="matrix(0.9879 0.1552 -0.1552 0.9879 19.5976 -25.6612)" fill="#98B7F5" cx="174.1" cy="112.7" rx="0.7" ry="1.7"/>
	</g>
	<path fill="#FCD0B1" d="M166.5,117.5c-5.1-0.8-8.5-3-9.9-4c-0.5-0.4-0.7-0.6-0.7-0.6c-2.6-5.5,2.1-15.2,3-16.9
		c0.9-1.8,6.7-2.7,6.7-2.7s-0.9,2.9-1.3,6.4c-0.4,3.5-4.2,10.4-4,10.9c0,0.1,0.5,0.4,1.2,0.8c2,1.1,5.6,3.5,5.9,3.9
		C167.6,115.9,166.5,117.5,166.5,117.5z"/>
	<path fill="#BC719A" d="M164.3,99.6c-0.4,3.5-4.2,10.4-4,10.9c0,0.1,0.5,0.4,1.2,0.8c0,0-0.1,0-0.1,0c-3-0.1-4.4,1.5-4.7,2
		c-0.5-0.4-0.7-0.6-0.7-0.6c-2.6-5.5,2.1-15.2,3-16.9c0.9-1.8,6.7-2.7,6.7-2.7S164.6,96.1,164.3,99.6z"/>
	<path fill="#FCD0B1" d="M171.7,91.1c0,0-5.5,1.1-6.2-2.3c-0.6-3.5-1.8-5.6,1.7-6.5c3.5-0.9,4.4,0.3,4.9,1.4
		C172.7,84.8,173.2,90.7,171.7,91.1z"/>
	<path fill="#060632" d="M165.7,89.8c0,0-1.1-2.3-2-3.3c-0.9-1-0.4-6.1,3.4-5.9c3.8,0.2,5.2,2.9,5.3,3.4c0,0.5-3.1,0.1-3.9,0.8
		c-0.9,0.7,0,1.8-1,2.2c-1,0.4-1.7,0.4-1.6,1.3C166.1,89.2,165.7,89.8,165.7,89.8z"/>
	<path fill="#BC719A" d="M173.6,83.4c0,0-2.1,0.7-2.8,0.8c-0.2,0-3.4,0.2-3.4,0.2l-4.7,0.8c0,0-0.9-3.5,1.4-5.6l0,0
		c0.1-0.1,0.1-0.1,0.2-0.2c0.6-0.5,1.4-1,2.5-1.3C172.4,76.8,173.6,83.2,173.6,83.4z"/>
	<g>
		<g>
			<path fill="#AB678A" d="M170.9,84.1l-0.9,0.1c-0.7-0.9-3.2-4.1-5.9-4.5c0,0,0,0,0-0.1l0,0c0-0.1,0.1-0.1,0.2-0.2c0,0,0,0,0,0
				C167.8,80.3,170.3,83.3,170.9,84.1z"/>
		</g>
	</g>
	<path fill="#AB678A" d="M167.4,84.5c0,0-0.6,0.7-0.8,1.3c-0.2,0.7-3.2,1-3.4,0.7c-0.2-0.3-0.5-1.2-0.5-1.2L167.4,84.5z"/>
	<path fill="#AB678A" d="M167.4,84.5c0,0,5.6,0.1,8.1-1.2c0.2-0.1,0.2-0.4-0.1-0.4c-0.4-0.1-1-0.2-2.1-0.2
		C173.4,82.5,171.4,84.2,167.4,84.5z"/>
	<path fill="#855D91" d="M181.2,108.1c-0.1,0.6-0.4,1.2-1.3,1.4c0-0.1,0.1-0.2,0.1-0.2c0.1-0.2,0.1-0.4,0.1-0.5
		c0-0.3-1.1-1.2-2.3-2.2c-0.1-0.6-0.4-2.2,0-3.5C178.2,101.4,181.3,107.4,181.2,108.1z"/>
	<path fill="#855D91" d="M160.8,111c0,0-3.8-0.3-5.1,1.9c0,0,0.1,0.8,0.8,0.5c0,0,3.2-2.2,4.8-2C161.4,111.4,161.2,111,160.8,111z"
		/>
	<path fill="#855D91" d="M179.9,109.5c0,0,2,0.1,4.5,1.2c0,0,0.6-0.5,0.3-0.9C184.5,109.5,181,108.4,179.9,109.5z"/>
	<path fill="#FCD0B1" d="M167.3,115.4c0,0,0.8,0.1,1.3-0.3c0.5-0.3,1.7-0.5,2.4-0.5c0.7-0.1,0.2,0.4-0.4,0.6
		c-0.5,0.2-0.7,0.6-0.7,0.6s0.9,0.7,1.4,1c1,0.5,1.9,0.7,1.8,0.8c-1.7,1.1-6.5-0.1-6.5-0.1L167.3,115.4z"/>
</g>
<g>
	<path fill="#FCD0B1" d="M199.6,122.6c0,0-0.1,0.8-0.9,2.4c0,0-0.4,1.1,2,2.8c2.4,1.7,0.1-5.2,0.1-5.2H199.6z"/>
	<path fill="#FCD0B1" d="M208,93.4c0,0-1.3,7.1-2.8,14.6c-1.6,8.1-3.3,16.5-3.6,16.6c-0.6,0.2-1.5-0.6-1.9-1.6
		c-0.3-0.8-0.9-7.3-0.5-11.5c0.1-1,0.2-1.9,0.3-2.4c0.6-2.7,0.8-12.1,2.6-13.6C203.9,94,208,93.4,208,93.4z"/>
	<path fill="#93B3F4" d="M208,93.4c0,0-0.8,4.1-1.8,9.3c-0.3,1.7-0.7,3.4-1,5.2c-1.4,2.8-2.6,4.7-3,4.3c-0.8-0.7-2.1-0.8-3-0.8
		c0.1-1,0.2-1.9,0.3-2.4c0-0.2,0.1-0.5,0.1-0.8c0.5-3.4,0.8-11.5,2.4-12.8C203.9,94,208,93.4,208,93.4z"/>
	<path fill="#6D89CF" d="M206.2,102.7c-0.3,1.7-0.7,3.4-1,5.2c-1.4,2.8-2.6,4.7-3,4.3c-0.8-0.7-2.1-0.8-3-0.8c0.1-1,0.2-1.9,0.3-2.4
		c0-0.2,0.1-0.5,0.1-0.8l4.3-10.3L206.2,102.7z"/>
	<path fill="#FCD0B1" d="M213.9,93.3c0-1.4,0-3.2-0.2-4.6l-5.7,0.9c0,0,0,1.7,0,3.7c0,0,0,0,0,0s-0.2,1.8,2.1,2.1
		C212.3,95.6,214,94.7,213.9,93.3z"/>
	<path fill="#EA8888" d="M208,90c0,0,1.3,2.8,2.9,2.8c1.5,0,3-2.6,3-2.6L208,90z"/>
	<path fill="#060632" d="M211.8,169.2c0,0,0.2-1.6,0.7-2.6c0.5-1,3.6-0.4,3.6-0.4s0.6,0.5,0.7,3L211.8,169.2z"/>
	<path fill="#060632" d="M201.3,169.2c0.7-0.4,0.3-3.7,0.3-3.7s-3.4-2.7-3.8-0.6c-0.5,2.1-3.2,3-4.8,3.2c-1.1,0.2-1.4,0.8-1.5,1.1
		H201.3z"/>
	<path fill="#060632" d="M214.5,87c0,0,3.8-6-3.5-6.4c0,0-2.8,0.3-3.4-0.3c0,0-2.1,3.2-0.1,6.7C209.4,90.5,214.5,87,214.5,87z"/>
	<path fill="#FCD0B1" d="M208.2,90.2c0.6,0.4,2.2,0.9,2.7,0.9c0,0,2.4-0.5,2.9-0.8c0.7-0.4,0.6-1.2,0.7-2.4c0-1.4,0.2-2.5,0-3.3
		c-0.2-0.9-0.8-1.5-2.5-1.6c-3.1-0.3-4.4,0.5-4.4,1.5c0,0.3,0,0.5,0,0.8C207.3,88.6,207.6,89.7,208.2,90.2z"/>
	<path fill="#0B0754" d="M208.3,144.8c-0.1,0.8-0.2,1.4-0.2,1.8c-0.3,6.1-5.1,20.1-6,20.4c-1.3,0.5-3.4-0.6-4.5-0.9
		c-0.5-0.1-0.8-0.6-0.7-1.1c2.4-11,3.3-26.8,3.6-36.2c0.2-4.7,1-8,1-8s11.8-3.1,11.8,0.8C213.3,125.2,209.3,139,208.3,144.8z"/>
	<path fill="#060632" d="M208.3,144.8l-7.9-15.9c0.2-4.7,1-8,1-8s11.8-3.1,11.8,0.8C213.3,125.2,209.3,139,208.3,144.8z"/>
	<path fill="#0B0754" d="M205.7,121.7l6.2,45.1c0,0,2.7,0.7,4.9,0.1c0,0,1.8-24,1.7-29.8c-0.2-5.8,1.3-15.5-0.3-16.6
		C216.4,119.5,205.7,121.7,205.7,121.7z"/>
	<path fill="#FCD0B1" d="M219,120.6c0,0.5-0.4,1-0.9,1l-9.8,0.1l-7.2,0.1c-0.3,0,0.7-2.7,0.8-20.3c0-3.9,6.1-8.1,6.2-8.1l0,0
		c0,0.6,0.9,1.6,2.3,1.7c1.6,0.1,3.6-0.7,3.6-1.6c0,0,0.2,0.2,0.5,0.6c0.8,1.2,2.4,4.1,3.5,9.1c0.8,4,0.5,9.3,1.1,16.1
		C219,119.8,219,120.2,219,120.6z"/>
	<path fill="#93B3F4" d="M218.6,121.6c0,0-1.3,0.6-3.7,1.1c-1.8,0.4-4.2,0.7-7.2,0.7c-4.8,0-6.6-1.6-6.6-1.6
		c-0.3,0,0.7-2.7,0.8-20.3c0-3.9,6.1-8.1,6.2-8.1l0,0c0,0-0.2,5.2,1.4,6.8c0,0,2.2-1.7,5.1-6.6c0.8,1.2,2.3,4.6,3.4,9.6
		c0.2,1,0.3,2.1,0.4,3.3c0.3,3.5,0.2,7.7,0.7,12.8c0,0.5,0,0.9,0,1.3C219,121.1,219.1,121.6,218.6,121.6z"/>
	<path fill="#6D89CF" d="M218.6,121.6c0,0-1.3,0.6-3.7,1.1c-0.8-1.2-1.7-3.3-1.9-6.6c-0.2-5.6,5.1-12.9,5.1-12.9l0.2,3.3
		c0.3,3.5,0.2,7.7,0.7,12.8c0,0.5,0,0.9,0,1.3C219,121.1,219.1,121.6,218.6,121.6z"/>
	
		<rect x="207.8" y="104.2" transform="matrix(0.866 -0.5 0.5 0.866 -27.1718 121.4513)" fill="#0B0754" width="10.5" height="14.4"/>
	<path fill="#FCD0B1" d="M222.6,114.2c0,0-1.9,0.2-5.1-0.1c-2.3-0.2-5.1-1.1-8.6-2.1l0.8-1.4c0,0,4.2-0.2,7.2-0.6
		c0.8-0.1,1.4-0.2,2-0.4c0.7-0.2-2.6-8.5-4.3-13.4c-0.4-1.2-0.7-2.1-0.8-2.8c0,0,0.3,0,0.7,0.1c1.3,0.3,3.9,0.9,5,1.7
		C221.2,96.4,224.9,109.3,222.6,114.2z"/>
	<path fill="#93B3F4" d="M222.6,114.2c0,0-1.9,0.2-5.1-0.1c0.2-0.9,0.3-2.6-0.6-4.1c0.8-0.1,1.4-0.2,2-0.4c0.7-0.2-2.6-8.5-4.3-13.4
		c-0.1-1.6-0.2-2.6-0.2-2.6l0.1,0c1.3,0.3,3.9,0.9,5,1.7C221.2,96.4,224.9,109.3,222.6,114.2z"/>
	<path fill="#6D89CF" d="M209.4,100.1c0,0,4.4-2,4.5-2.1c0.1-0.2-0.2-1.3-0.5-1.7c0,0,2.1,0.2,2.3-0.1c0.1-0.3,0.2-2.5,0.2-2.5
		s-0.8-0.9-1.9-1c0,0-1,2.4-1.3,3.1C211.7,97.8,209.4,100.1,209.4,100.1z"/>
	<path fill="#6D89CF" d="M208.4,96.3c0,0,0.3,2.3,1.1,3.9c0,0-2.3-1.6-2.5-2.1c-0.2-0.5,0.6-1.5,0.6-1.5s-1.4,0-1.4-0.5
		c0-0.5,0.4-2.3,0.4-2.3s1.2-0.9,1.5-0.8L208.4,96.3z"/>
	<g>
		<path fill="#BC719A" d="M215.9,83.7l-9.8,0.1c0,0-0.1-3,1.6-4.9c0.1-0.1,0.2-0.2,0.2-0.3c0.4-0.3,0.8-0.7,1.3-0.9
			c2-0.8,3.6-0.1,4.6,0.7c0.1,0.1,0.2,0.2,0.3,0.2c0.6,0.5,0.9,0.9,0.9,0.9S215.9,80.9,215.9,83.7z"/>
		<g>
			<g>
				<path fill="#AB678A" d="M209.4,83.7l-0.6,0c-0.1-2.2-1-4.5-1.2-4.9c0.1-0.1,0.1-0.1,0.2-0.2C208,78.9,209.3,81.3,209.4,83.7z"/>
			</g>
		</g>
		<g>
			<path fill="#AB678A" d="M213.1,83.7l-0.5,0c0-0.2,0-3.7,1.3-5.1c0.1,0.1,0.1,0.1,0.2,0.1C212.8,79.9,213.1,83.7,213.1,83.7z"/>
		</g>
		<path fill="#AB678A" d="M206,83.8c0,0,2.6,0.7,4.6,0.7c2,0,5.2-0.8,5.2-0.8L206,83.8z"/>
	</g>
	<path fill="#FCD0B1" d="M209.8,110.6c0,0-0.6-0.6-0.7-1.1c-0.1-0.5-1.6-1.6-1.7-1.2c-0.1,0.4,0.5,1.1,0.5,1.1s-1.9-1.2-2.3-1.1
		c-0.5,0.1,0.2,2,1,2.6c0.8,0.7,2.4,1.1,2.4,1.1L209.8,110.6z"/>
</g>
<g>
	<g>
		<path fill="#FEFEFE" d="M193.7,50.9c-18.8,0-37.6,0-56.5,0c-0.5,0-0.6-0.1-0.6-0.6c0-3.9,0-7.8,0-11.7c0-0.4,0.1-0.5,0.5-0.5
			c4.6,0,9.1,0,13.7,0c0,0.1,0,0.1,0,0.2c-0.9,0.3-1.9,0.5-2.7,1.1c-2,1.4-3,4.2-2.2,6.6c0.7,2.4,3,4.1,5.5,4.2
			c3.1,0,5.5-2.1,5.9-5.3c0.3-2.7-1.4-5.5-4.3-6.3c-0.3-0.1-0.6-0.1-0.8-0.3c-0.1-0.1-0.1-0.1,0-0.2c14.3,0,28.5,0,42.8,0
			c0.4,0,0.5,0.1,0.5,0.5c0,3.5,0,7.1,0,10.6c0,0-0.1,0.1-0.1,0c-0.1-0.1-0.3-0.2-0.4-0.3c0,0-0.1-0.1-0.1-0.1
			c-0.2-0.3-0.5-0.3-0.8-0.2c-0.2,0.1-0.3,0.2-0.4,0.4c0,0.1-0.1,0.1-0.1,0.1c-0.3,0.3-0.3,0.6-0.1,1c0.1,0.2,0.3,0.3,0.4,0.5
			C193.7,50.8,193.7,50.8,193.7,50.9z"/>
		<path fill="#252525" d="M195.4,50.1c0,0,0,0.1,0,0.1c-0.1,0.2-0.1,0.4-0.4,0.4c-0.1,0-0.1,0-0.2-0.1c0-0.4,0.1-0.7,0.3-1
			c0.1,0,0.1,0,0.2,0C195.4,49.6,195.2,49.9,195.4,50.1z"/>
		<path fill="#EBEBEB" d="M195,50.5c0.2,0,0.2-0.2,0.4-0.3c0.1,0.6-0.1,0.8-0.7,0.7C194.7,50.6,194.9,50.6,195,50.5z"/>
		<path fill="#A2A2A2" d="M152.1,38.1c0,0,0,0.1,0,0.1c-0.4,0.3-0.9,0.3-1.3,0c0,0,0-0.1,0-0.1C151.2,38.1,151.7,38.1,152.1,38.1z"
			/>
		<path fill="#2C2C2C" d="M195,50.5c0,0.2-0.2,0.3-0.3,0.4c0,0-0.1,0-0.1,0c-0.1-0.1-0.3,0-0.4-0.2c0.2-0.3,0.4-0.4,0.7-0.2
			C194.9,50.5,195,50.5,195,50.5z"/>
		<path fill="#020202" d="M194.2,50.7c0.1,0,0.3,0,0.4,0.1c-0.3,0-0.6,0-0.9,0c0,0,0-0.1,0-0.1c0,0,0,0,0,0c0-0.1,0.1-0.2,0.2-0.2
			C194,50.5,194.1,50.6,194.2,50.7z"/>
		<path fill="#010101" d="M195.4,50.1c-0.2-0.2-0.1-0.5-0.1-0.7c0,0,0-0.1,0-0.1c0,0,0.1,0,0.1,0C195.4,49.5,195.4,49.8,195.4,50.1z
			"/>
		<path d="M150.8,38.2c0.4,0,0.9,0,1.3,0c3.2,0.4,5.6,3.2,5.3,6.4c-0.2,3.2-2.9,5.7-6.1,5.7c-3.1,0-5.8-2.5-6-5.6
			C145.2,41.4,147.5,38.6,150.8,38.2z"/>
		<path d="M157.9,44.4c0-1.8,0-3.5,0-5.3c0-0.4,0.1-0.6,0.5-0.6c0.7,0,1.4,0,2.2,0c0.4,0,0.6,0.1,0.6,0.5c0,1,0,2.1,0,3.1
			c0,0.4,0.1,0.5,0.5,0.5c0.8,0,1.5,0,2.3,0c0.4,0,0.4-0.1,0.4-0.5c0-1,0-2.1,0-3.1c0-0.4,0.1-0.6,0.5-0.6c0.7,0,1.5,0,2.2,0
			c0.3,0,0.5,0,0.5,0.5c0,3.6,0,7.2,0,10.8c0,0.3-0.1,0.4-0.4,0.4c-0.8,0-1.6,0-2.4,0c-0.4,0-0.4-0.1-0.4-0.5c0-1.1,0-2.3,0-3.4
			c0-0.4-0.1-0.5-0.5-0.5c-0.7,0-1.5,0-2.2,0c-0.4,0-0.5,0.1-0.5,0.5c0,1.1,0,2.2,0,3.3c0,0.5-0.1,0.6-0.6,0.6c-0.7,0-1.4,0-2.2,0
			c-0.4,0-0.5-0.1-0.5-0.5C157.9,47.9,157.9,46.2,157.9,44.4z"/>
		<path d="M140,42c0.9-1,1.7-1.9,2.4-2.8c0.4-0.5,0.8-0.7,1.5-0.7c1,0.1,2,0,3.2,0c-0.9,1.1-1.7,2.1-2.5,3.1
			c-0.6,0.7-1.2,1.5-1.8,2.2c-0.2,0.3-0.2,0.4,0,0.7c1.5,1.7,3,3.5,4.5,5.3c0.1,0.1,0.2,0.3,0.4,0.5c-1.4,0-2.8,0-4.1,0
			c-0.3,0-0.4-0.2-0.5-0.4c-1-1.2-2.1-2.4-3.2-3.8c0,0.8,0,1.5,0,2.2c0,0.6,0.2,1.5-0.1,1.8c-0.4,0.4-1.2,0.1-1.9,0.1
			c-1.2,0-1.2,0-1.2-1.2c0-3.3,0-6.6,0-9.8c0-0.5,0.1-0.6,0.6-0.6c0.7,0,1.4,0,2.2,0c0.4,0,0.5,0.1,0.5,0.5
			C140,39.9,140,40.9,140,42z"/>
		<path d="M192.3,50.2c-1.1,0-2.1,0-3.1,0c-0.3,0-0.4-0.1-0.6-0.3c-0.7-1-1.4-2-2.3-3.1c0,1.1,0,2,0,3c0,0.3,0,0.5-0.4,0.5
			c-0.8,0-1.6,0-2.4,0c-0.3,0-0.4-0.1-0.4-0.4c0-3.6,0-7.2,0-10.9c0-0.3,0.1-0.4,0.4-0.4c1.4,0,2.7-0.1,4.1,0.1
			c1.6,0.2,2.8,1.1,3.3,2.6c0.5,1.5,0,2.8-1.2,3.8c-0.6,0.5-0.5,0.8-0.1,1.3C190.4,47.6,191.3,48.8,192.3,50.2z"/>
		<path d="M175.8,44.4c0-1.8,0-3.5,0-5.3c0-0.4,0.1-0.6,0.5-0.5c1.8,0,3.6,0,5.4,0c0.4,0,0.6,0.1,0.5,0.6c0,0.5,0,1.1,0,1.6
			c0,0.5-0.2,0.5-0.6,0.5c-0.8,0-1.5,0-2.3,0c-0.3,0-0.4,0.1-0.5,0.4c0,1.3-0.1,1.3,1.3,1.4c0.6,0,1.5-0.3,1.9,0.1
			c0.3,0.4,0.1,1.2,0.1,1.8c0.1,0.6-0.1,0.8-0.7,0.8c-0.7-0.1-1.4,0-2.2,0c-0.3,0-0.4,0.1-0.4,0.4c-0.1,1.4-0.1,1.4,1.4,1.4
			c0.5,0,1,0,1.6,0c0.3,0,0.4,0.1,0.4,0.4c0,0.7,0.2,1.7-0.1,2.2c-0.3,0.4-1.3,0.1-2,0.1c-1.3,0-2.6,0-3.9,0c-0.4,0-0.5-0.1-0.5-0.5
			C175.8,47.9,175.8,46.1,175.8,44.4z"/>
		<path d="M168.4,44.4c0-1.7,0-3.5,0-5.2c0-0.5,0.1-0.6,0.6-0.6c0.7,0,1.4,0,2.1,0c0.4,0,0.5,0.1,0.5,0.5c0,2.5,0,5,0,7.5
			c0,0.5,0.1,0.6,0.6,0.6c0.8,0,1.6,0,2.4,0c0.4,0,0.6,0.1,0.5,0.5c0,0.7,0,1.4,0,2.1c0,0.3-0.1,0.4-0.4,0.4c-2,0-3.9,0-5.9,0
			c-0.4,0-0.5-0.1-0.5-0.5C168.4,47.9,168.4,46.2,168.4,44.4z"/>
		<path fill="#EBEBEB" d="M194.2,50.7c-0.1,0-0.3-0.1-0.4-0.1c-0.2,0-0.3-0.2-0.5-0.3c-0.3-0.4-0.3-0.8,0.1-1.1c0-0.1,0-0.1,0-0.2
			c0.1-0.1,0.3-0.2,0.5-0.3c0.3-0.2,0.6,0,0.9,0.1c0,0.1,0,0.1,0,0.2c0.2,0.1,0.3,0.2,0.3,0.4c0.1,0.4-0.1,0.7-0.3,1.1
			C194.6,50.4,194.4,50.6,194.2,50.7z"/>
		<path fill="#232323" d="M193.4,49.2c-0.2,0.4-0.1,0.8,0,1.1c-0.1,0.1-0.1,0.1-0.2,0C192.9,49.7,193,49.3,193.4,49.2z"/>
		<path fill="#0F0F0F" d="M194.9,48.9c-0.3,0.1-0.6-0.2-0.9,0c-0.1,0-0.2-0.1-0.1-0.2C194.2,48.5,194.6,48.4,194.9,48.9z"/>
		<path fill="#303030" d="M193.8,48.6c0,0.1,0.1,0.1,0.1,0.2c-0.2,0-0.3,0.1-0.5,0.1C193.4,48.7,193.6,48.7,193.8,48.6z"/>
		<path d="M195.1,49.4c-0.1-0.1-0.2-0.3-0.3-0.4c0.2,0,0.4-0.1,0.4,0.2c0,0,0,0.1,0,0.1C195.2,49.4,195.2,49.4,195.1,49.4z"/>
		<path fill="#0A0A0A" d="M193.3,50.3c0.1,0,0.1,0,0.2,0c0.1,0.1,0.2,0.2,0.4,0.3c0,0-0.1,0.1-0.1,0.1
			C193.5,50.7,193.3,50.5,193.3,50.3z"/>
		<path fill="#FEFEFE" d="M154.1,44.2c0,2.1-1.8,3.5-3.6,2.8c-1.1-0.4-1.8-1.6-1.8-2.8c0-1.2,0.7-2.4,1.8-2.8
			C152.3,40.8,154.1,42.2,154.1,44.2z"/>
		<path fill="#FBFBFB" d="M186.3,42.3c0,0,0-0.1,0-0.1c0.1-0.3-0.2-0.7,0.2-0.9c0.4-0.2,1.3,0.1,1.6,0.6c0.3,0.4,0.2,0.9-0.1,1.3
			c-0.4,0.4-0.9,0.4-1.4,0.4c-0.2,0-0.2-0.2-0.2-0.3C186.3,42.9,186.3,42.6,186.3,42.3z"/>
		<path fill="#060606" d="M194.3,49.9c-0.3-0.1-0.4,0-0.5,0.3c0-0.4,0-0.7,0-1.1c0.2-0.1,0.4-0.1,0.7,0c0.1,0.1,0.4,0.2,0.1,0.4
			c-0.1,0.1-0.2,0-0.3,0c0.1,0.1,0.2,0.1,0.2,0.2C194.5,49.8,194.5,50,194.3,49.9z"/>
		<path fill="#BFBFBF" d="M194.5,49.7c-0.2,0-0.4,0.1-0.5-0.2c0-0.1,0-0.2,0.1-0.2c0.3-0.1,0.4,0.1,0.5,0.3c0,0,0,0.1,0,0.1
			C194.6,49.7,194.5,49.7,194.5,49.7z"/>
		<path fill="#3E3E3E" d="M194.5,49.7c0,0,0.1,0,0.1,0c0,0.2,0.1,0.4,0.1,0.6c-0.3,0-0.3-0.2-0.3-0.4
			C194.4,49.9,194.5,49.8,194.5,49.7z"/>
		<path fill="#DADADA" d="M194.5,49.1c-0.2,0-0.4,0-0.7,0C194,48.9,194.2,49,194.5,49.1z"/>
	</g>
</g>
<polygon fill="#F39892" points="290.4,119.2 290.4,123.9 294.4,123.9 294.4,123 290.6,119.3 "/>
</svg>
