<?xml version="1.0" encoding="utf-8"?>
<!-- Generator: Adobe Illustrator 18.1.1, SVG Export Plug-In . SVG Version: 6.00 Build 0)  -->
<svg version="1.1" id="Layer_1" xmlns="http://www.w3.org/2000/svg" xmlns:xlink="http://www.w3.org/1999/xlink" x="0px" y="0px"
	 viewBox="-263 439 32 32" enable-background="new -263 439 32 32" xml:space="preserve">
<g>
	<path fill="#6C5595" d="M-240.4,457.3v5.3h-13.3c-0.3,0-0.7,0-1-0.1c0,0-0.1,0-0.1,0c-0.7-0.2-1.4-0.5-2-0.9
		c-1.3-1-2.2-2.6-2.2-4.4V439c2.7,1.5,4.4,4.4,4.4,7.5v8.6c0,1.7,1.4,3.1,3.1,3.1h9.1C-241.7,458.2-241,457.9-240.4,457.3z"/>
	<path fill="#6C5595" d="M-235.1,439v10.2c-0.9-1.4-2.4-2.4-4.2-2.7c-0.1,0-0.1,0-0.2,0C-239.4,443.3-237.7,440.5-235.1,439z"/>
	<path fill="#9A87C9" d="M-235.1,452.8V471c-2.7-1.5-4.4-4.4-4.4-7.5v-8.6c0-1.7-1.4-3.1-3.1-3.1h-9.1c-0.8,0-1.6,0.3-2.2,0.9v-5.3
		h13.3c0.3,0,0.7,0,1,0.1C-237,448-235.1,450.2-235.1,452.8z"/>
	<path fill="#9A87C9" d="M-254.7,463.6c0,3.1-1.7,5.9-4.4,7.4v-10.2c0.4,0.6,0.9,1.2,1.6,1.6c0.7,0.5,1.6,0.9,2.4,1.1l0,0
		c0,0,0.1,0,0.1,0C-254.9,463.6-254.8,463.6-254.7,463.6z"/>
</g>
<image overflow="visible" width="1366" height="768" xlink:href="8D5586D3.jpg"  transform="matrix(1 0 0 1 -95 265)">
</image>
</svg>
